<?xml version="1.0" encoding="UTF-8" standalone="no"?>
<svg
   xmlns:dc="http://purl.org/dc/elements/1.1/"
   xmlns:cc="http://creativecommons.org/ns#"
   xmlns:rdf="http://www.w3.org/1999/02/22-rdf-syntax-ns#"
   xmlns:svg="http://www.w3.org/2000/svg"
   xmlns="http://www.w3.org/2000/svg"
   width="24.0px"
   height="24.0px"
   viewBox="0 0 24.0 24.0"
   version="1.1"
   id="SVGRoot">
  <defs
     id="defs55" />
  <metadata
     id="metadata58">
    <rdf:RDF>
      <cc:Work
         rdf:about="">
        <dc:format>image/svg+xml</dc:format>
        <dc:type
           rdf:resource="http://purl.org/dc/dcmitype/StillImage" />
        <dc:title></dc:title>
      </cc:Work>
    </rdf:RDF>
  </metadata>
  <g
     id="layer1">
    <path
       style="fill:#000000;stroke-width:0.131692"
       d="m 10.896026,23.106843 c 0,-0.183794 -0.757241,-1.927758 -0.837045,-1.927758 -0.2203952,0 -2.2861731,-0.83936 -2.5790641,-1.047917 C 7.2721342,19.983214 7.0628787,19.86216 7.014904,19.86216 c -0.047975,0 -0.2814671,-0.148153 -0.5188714,-0.329231 -0.4678391,-0.356838 -0.9811029,-0.413725 -1.6449323,-0.182312 -0.2317986,0.0808 -0.4457249,0.122645 -0.4753917,0.09298 -0.029668,-0.02967 0.071176,-0.393584 0.2240952,-0.808706 L 4.8778386,17.880126 4.6124395,17.587142 C 3.9794654,16.888376 3.3128834,15.388747 2.9895156,13.935998 2.7884945,13.0329 2.7205048,12.948481 1.9951145,12.701316 1.6717323,12.591129 1.2525802,12.379394 1.0636653,12.230794 0.74025311,11.976397 0.73644034,11.96061 0.99841086,11.96061 c 0.15302524,0 0.62029454,-0.162148 1.03837664,-0.360329 0.4180824,-0.198182 0.7763913,-0.367516 0.796242,-0.376298 0.019853,-0.0088 0.1249972,-0.442359 0.2336589,-0.963501 C 3.1753496,9.739338 3.3151635,9.2123489 3.3773855,9.0893928 3.4396076,8.9664366 3.570639,8.6880518 3.6685663,8.4707593 3.9182373,7.9167588 4.6039122,6.7749747 4.7456564,6.6771905 4.9111272,6.5630374 4.8945994,6.067675 4.7031835,5.4041789 4.6136245,5.0937466 4.5714677,4.8086375 4.6095018,4.7706034 4.6475371,4.7325681 5.02567,4.7717103 5.4497989,4.85755 L 6.2209433,5.0136494 7.0110982,4.4940718 C 7.8267168,3.9577509 9.3534871,3.2678606 9.7233071,3.2685271 9.8388348,3.2687375 10.019521,3.1651976 10.124832,3.0384435 c 0.246477,-0.2966619 0.74768,-1.4507556 0.814986,-1.8766181 0.02862,-0.18107722 0.06011,0.4792759 0.06997,1.4674513 0.01933,1.9362161 0.01197,1.9565539 -0.708465,1.9565539 -0.4754128,0 -1.8841394,0.6416508 -2.7634521,1.258705 C 6.6140594,6.4928176 6.0640686,7.0723783 5.457276,8.0369949 4.697959,9.2440785 4.1974951,10.970647 4.4933097,11.362616 c 0.1634155,0.216534 1.6024659,0.589795 2.3202537,0.601828 l 0.4609238,0.0077 -0.52677,0.200308 c -0.2897236,0.110169 -0.9119707,0.292993 -1.3827715,0.406277 -0.4708,0.113282 -0.8935302,0.26471 -0.9393992,0.336506 -0.1465759,0.229424 0.2720481,1.69028 0.77832,2.716072 0.5949976,1.205566 1.6000695,2.322791 2.7336947,3.03874 0.4647136,0.293494 0.8988742,0.533625 0.9648006,0.533625 0.065927,0 0.2896107,0.08848 0.4970751,0.196626 0.2074645,0.108144 0.6587011,0.234302 1.0027471,0.28035 l 0.625539,0.08372 v 1.760882 c 0,0.968486 -0.02963,1.760883 -0.06585,1.760883 -0.03621,0 -0.06585,-0.0807 -0.06585,-0.179322 z m 2.115992,-1.535005 -0.0089,-1.64848 0.857908,-0.225013 c 2.850161,-0.747539 4.945775,-2.839552 5.691119,-5.681342 0.275516,-1.050464 0.196064,-1.171062 -0.920617,-1.397387 -0.451899,-0.09159 -0.944503,-0.242209 -1.094677,-0.334711 -0.150174,-0.0925 -0.41685,-0.19524 -0.592617,-0.228306 -0.212898,-0.04005 -0.143735,-0.06635 0.207197,-0.07879 0.971879,-0.03445 2.568004,-0.574751 2.568004,-0.8693 0,-0.270119 -0.415539,-1.5642812 -0.698954,-2.1768284 C 18.335589,7.4514341 16.846456,5.9285287 15.413509,5.2429161 14.138698,4.6329672 14.042846,4.59806 13.529877,4.5569359 l -0.460924,-0.036951 -0.03096,-1.7778487 -0.03096,-1.77784859 0.490551,1.08630419 0.490551,1.0863038 0.725633,0.2091609 c 0.991829,0.2858901 1.494966,0.5255791 2.548663,1.2141566 l 0.901179,0.5889095 0.742999,-0.2068029 c 0.408648,-0.113742 0.7693,-0.180502 0.801446,-0.1483559 0.03215,0.032145 -0.0458,0.3891434 -0.173203,0.7933278 l -0.231651,0.7348797 0.474253,0.7142767 c 0.698754,1.0523984 1.386314,2.8762312 1.389147,3.684868 0.0015,0.448437 0.113048,0.525698 1.507196,1.04459 l 0.781458,0.290854 -1.143613,0.543331 c -1.001607,0.475863 -1.143615,0.585568 -1.143615,0.883477 0,0.835903 -1.081179,3.376884 -1.745518,4.102305 -0.261291,0.285314 -0.262187,0.309418 -0.04085,1.098282 0.124471,0.443612 0.190217,0.84266 0.146102,0.886774 -0.04411,0.04411 -0.359797,0.0014 -0.701516,-0.09486 -0.796359,-0.224396 -1.052025,-0.209212 -1.395632,0.08289 -0.153568,0.130547 -0.397738,0.300985 -0.542599,0.378749 -1.024565,0.550009 -1.33674,0.690331 -2.349061,1.055905 -0.577367,0.208502 -0.666915,0.298918 -0.955718,0.964998 -0.175265,0.404219 -0.373486,0.853466 -0.440493,0.998327 -0.08264,0.178665 -0.124698,-0.266864 -0.130743,-1.385096 z m -0.907521,-2.274292 c -0.07404,-0.08921 -0.164417,-0.694986 -0.20085,-1.346177 -0.03643,-0.65119 -0.106318,-1.434026 -0.155301,-1.739635 -0.06642,-0.41439 -0.03782,-0.6069 0.112519,-0.757232 0.244432,-0.244431 0.438923,-0.25803 0.528624,-0.03697 0.147841,0.364351 0.360695,-0.237507 0.288908,-0.816898 -0.118462,-0.956092 -0.347657,-1.454798 -0.668595,-1.454798 -0.341415,0 -0.611927,0.76114 -0.603498,1.698064 0.0073,0.808371 -0.235932,2.116475 -0.460811,2.47854 -0.09964,0.160421 -0.18116,0.441914 -0.18116,0.625539 0,0.183625 -0.04975,0.333865 -0.110554,0.333865 -0.235658,0 -0.416216,-0.712913 -0.416216,-1.643386 0,-0.923161 -0.01942,-0.986354 -0.3824829,-1.244883 -0.4861773,-0.346183 -0.6134877,-0.34189 -0.9887331,0.03336 -0.227745,0.227745 -0.3773436,0.279202 -0.5866299,0.201781 -0.1545095,-0.05716 -0.2809265,-0.169047 -0.2809265,-0.248644 0,-0.0796 -0.1481539,-0.338962 -0.3292309,-0.576367 C 7.2478285,14.250791 7.2542041,13.92687 7.6971799,13.400423 8.0077558,13.031325 8.0511427,12.872104 8.0317546,12.172606 8.0195037,11.730559 7.9413519,11.084905 7.8580881,10.73782 7.7460689,10.270872 7.7446796,9.9559155 7.8527446,9.52675 7.93307,9.2077479 7.9987904,8.6470495 7.9987904,8.2807532 c 0,-0.5216252 0.045499,-0.6659925 0.2098967,-0.6659925 0.1753741,0 0.1954062,0.1053572 0.1217946,0.6405747 -0.070479,0.5124424 -0.047371,0.6562045 0.1155239,0.7187131 0.1119938,0.042975 0.2808282,0.00657 0.3751877,-0.080882 0.3614582,-0.3350341 0.530693,-0.258334 0.4366472,0.1978956 -0.049119,0.2382816 -0.087896,0.581394 -0.086171,0.7624705 0.011901,1.2494574 -0.00911,1.3730074 -0.263841,1.5514284 -0.2224475,0.155808 -0.2565973,0.307796 -0.2236339,0.99531 0.037925,0.790979 0.051166,0.817415 0.5255999,1.049312 0.4234561,0.206981 0.5577864,0.216591 1.0338335,0.07396 0.300927,-0.09016 0.636023,-0.299581 0.744659,-0.46538 0.268993,-0.410535 0.433706,-1.200334 0.343938,-1.649177 -0.06043,-0.30213 -0.14322,-0.370224 -0.450152,-0.370224 -0.453447,0 -0.576937,-0.339907 -0.482094,-1.3269624 0.07038,-0.7324717 0.166047,-0.89941 0.388142,-0.6773153 0.113658,0.113658 0.210993,0.082022 0.392882,-0.1276992 0.296382,-0.3417316 0.315884,-1.1231635 0.04426,-1.7732651 -0.207658,-0.4969952 -0.243043,-1.1343315 -0.0852,-1.5344682 0.07685,-0.1948209 0.131432,-0.1471668 0.301653,0.2633847 0.312456,0.7535991 0.639649,1.8782225 0.638734,2.1954431 -4.49e-4,0.154652 -0.08934,0.4509288 -0.19754,0.6583933 -0.241848,0.463724 -0.26357,1.6112661 -0.03211,1.6963831 0.3053,0.112273 0.493846,-0.05214 0.493846,-0.4306367 0,-0.206982 0.05927,-0.4129572 0.131692,-0.457722 0.07243,-0.044765 0.131693,-0.2302797 0.131693,-0.4122559 0,-0.3063036 0.01599,-0.3148747 0.215412,-0.1154546 0.160768,0.1607683 0.177471,0.2533514 0.06585,0.3649763 -0.203181,0.2031816 -0.18798,0.4723636 0.03952,0.6998659 0.16432,0.164319 0.237008,0.147866 0.554959,-0.1256253 0.315295,-0.2712054 0.346366,-0.3578121 0.224762,-0.6264936 -0.192529,-0.4253906 -0.05234,-0.6994051 0.38104,-0.7447677 l 0.362155,-0.037907 v 1.0405672 c 0,0.9487004 -0.03065,1.0712174 -0.347189,1.3877544 -0.320668,0.32067 -0.538253,0.406065 -0.919687,0.360953 -0.260719,-0.03084 -0.333047,0.985429 -0.109838,1.543285 0.336346,0.840608 1.315814,1.155769 1.965749,0.632514 0.346993,-0.279359 0.388767,-0.388907 0.367485,-0.963662 -0.01321,-0.35666 -0.104166,-0.802972 -0.202133,-0.991803 -0.125734,-0.242354 -0.15158,-0.569341 -0.08787,-1.111792 0.06823,-0.5810106 0.03251,-0.9371081 -0.146471,-1.4598394 l -0.236716,-0.6913788 0.319261,-0.08013 c 0.362977,-0.091101 0.382408,-0.1874831 0.161145,-0.7993721 -0.123028,-0.3402269 -0.123028,-0.4723538 0,-0.5953814 0.123028,-0.1230276 0.158117,-0.064596 0.158117,0.263299 0,0.4348977 0.213651,0.5725611 0.347453,0.2238774 0.134683,-0.3509771 0.311009,-0.2098995 0.311009,0.2488371 0,0.2455068 0.09318,0.9375752 0.207064,1.5379295 0.191214,1.0079927 0.189789,1.1832767 -0.01861,2.2897257 -0.210958,1.120061 -0.211358,1.225846 -0.0061,1.622689 0.120734,0.233486 0.27726,0.42452 0.347832,0.42452 0.07057,0 0.12831,0.258449 0.12831,0.574331 0,0.50236 -0.07632,0.655015 -0.608965,1.218156 -0.378528,0.400195 -0.632198,0.580484 -0.670362,0.476437 -0.03377,-0.09206 -0.22028,-0.249551 -0.414476,-0.349973 -0.440438,-0.22776 -0.788286,-0.06874 -1.265979,0.578736 -0.25441,0.344832 -0.336119,0.622601 -0.347806,1.182364 -0.0084,0.402407 -0.04239,0.627939 -0.07551,0.501185 -0.03649,-0.139628 -0.186181,-0.230462 -0.379801,-0.230462 -0.305884,0 -0.319574,0.03707 -0.319574,0.865408 0,0.914269 -0.229318,1.402541 -0.503531,1.072135 z"
       id="path22" />
  </g>
</svg>
