<?xml version="1.0" encoding="UTF-8" standalone="no"?>
<svg
   xmlns:dc="http://purl.org/dc/elements/1.1/"
   xmlns:cc="http://creativecommons.org/ns#"
   xmlns:rdf="http://www.w3.org/1999/02/22-rdf-syntax-ns#"
   xmlns:svg="http://www.w3.org/2000/svg"
   xmlns="http://www.w3.org/2000/svg"
   width="210mm"
   height="297mm"
   viewBox="0 0 210 297"
   version="1.1"
   id="svg39">
  <defs
     id="defs33" />
  <metadata
     id="metadata36">
    <rdf:RDF>
      <cc:Work
         rdf:about="">
        <dc:format>image/svg+xml</dc:format>
        <dc:type
           rdf:resource="http://purl.org/dc/dcmitype/StillImage" />
        <dc:title></dc:title>
      </cc:Work>
    </rdf:RDF>
  </metadata>
  <g
     id="layer1">
    <path
       style="fill:#000000;stroke-width:0.252477"
       d="m 132.43888,65.351156 c -0.21962,-0.460534 -0.47935,-1.20184 -0.57721,-1.647347 -0.18157,-0.826717 -1.2283,-1.5865 -2.18568,-1.5865 -0.24819,0 -0.52148,-0.113615 -0.6073,-0.252477 -0.0858,-0.138863 -0.37656,-0.252478 -0.6461,-0.252478 -0.26953,0 -0.49005,-0.113614 -0.49005,-0.252477 0,-0.138863 -0.21776,-0.252477 -0.48392,-0.252477 -0.26615,0 -0.52178,-0.08521 -0.56807,-0.189359 -0.0463,-0.104147 -0.4488,-0.444991 -0.89448,-0.757432 -0.94815,-0.664689 -1.87208,-0.724575 -2.70987,-0.175639 -0.40784,0.26723 -0.65258,0.305622 -0.7671,0.120334 -0.186,-0.300958 0.38536,-1.775156 0.688,-1.775156 0.37107,0 0.18418,-0.7857 -0.31411,-1.320551 -0.27772,-0.298105 -0.50495,-0.678851 -0.50495,-0.846102 0,-0.167254 -0.16087,-0.365828 -0.35748,-0.441276 -0.19662,-0.07544 -0.48903,-0.770823 -0.64981,-1.545278 -0.16077,-0.774455 -0.39755,-1.343057 -0.52619,-1.26356 -0.12862,0.0795 -0.24807,-0.03259 -0.26543,-0.249076 -0.0307,-0.383189 -0.0947,-0.701535 -0.21847,-1.08793 -0.0916,-0.28592 -0.17362,-0.660615 -0.21646,-0.989317 -0.0517,-0.396525 -1.61862,-1.346099 -2.22126,-1.346099 -0.26515,0 -0.7412,-0.181481 -1.05788,-0.403292 -0.5481,-0.383909 -0.55384,-0.419925 -0.11929,-0.749402 0.25106,-0.190362 0.76357,-0.349724 1.13892,-0.354141 0.75945,-0.009 1.9958,-0.490015 2.27841,-0.886561 0.10098,-0.14169 0.12172,-0.456443 0.0461,-0.699453 -0.0756,-0.243009 -0.0162,-0.441835 0.132,-0.441835 0.14822,0 0.2695,-0.401218 0.2695,-0.891595 0,-0.538863 0.14236,-0.946227 0.35986,-1.029688 0.19792,-0.07595 0.43766,-0.598535 0.53274,-1.161296 0.10741,-0.635805 0.24675,-0.903653 0.36801,-0.707447 0.12916,0.208992 0.29424,0.01552 0.48821,-0.572203 0.16118,-0.488379 0.51532,-1.144238 0.78697,-1.457466 0.58334,-0.672588 0.60513,-0.84994 0.15918,-1.295885 -0.18412,-0.184117 -0.41116,-0.716706 -0.50452,-1.183532 -0.16516,-0.825829 -0.15099,-0.844018 0.52412,-0.672852 1.78458,0.452457 2.4548,0.430511 3.01874,-0.09884 0.30662,-0.287834 0.73268,-0.523333 0.94678,-0.523333 0.2141,0 0.38927,-0.113616 0.38927,-0.252478 0,-0.138863 0.17042,-0.252477 0.37872,-0.252477 0.2083,0 0.37872,-0.08595 0.37872,-0.191005 0,-0.208319 1.78107,-0.818905 2.38874,-0.818905 0.56968,0 1.07785,-0.983459 1.27181,-2.461373 0.18584,-1.416054 0.45525,-1.786422 0.98168,-1.349526 0.23996,0.199156 0.30603,0.954742 0.24616,2.815403 -0.045,1.398755 -0.14746,2.649419 -0.22771,2.779254 -0.0803,0.129833 -0.42886,0.236061 -0.77472,0.236061 -0.34586,0 -0.96404,0.173341 -1.37373,0.3852 -0.40969,0.21186 -0.7449,0.302752 -0.7449,0.201982 0,-0.10077 -0.13633,-0.04688 -0.30297,0.119755 -0.16663,0.166636 -0.50748,0.302973 -0.75743,0.302973 -0.24995,0 -0.45523,0.08521 -0.45618,0.189358 -9.5e-4,0.104147 -0.427,0.472124 -0.94679,0.817727 -0.80727,0.53675 -1.68892,1.380173 -2.82898,2.706301 -0.14418,0.167718 -0.26215,0.413883 -0.26215,0.547035 0,0.133151 -0.0852,0.279965 -0.18936,0.326253 -0.45406,0.201802 -1.47608,2.730293 -1.54292,3.817179 -0.0646,1.051283 -0.0135,1.190289 0.43851,1.190289 0.51754,0 2.81628,0.561909 3.62899,0.887081 0.39524,0.158141 0.37562,0.228634 -0.18679,0.671026 -0.34564,0.271878 -0.82841,0.466323 -1.07283,0.4321 -0.78198,-0.109489 -2.62147,0.321607 -2.74491,0.643288 -0.1939,0.505286 0.36224,2.581972 1.07133,4.00049 0.36265,0.72548 0.78757,1.57486 0.94427,1.887511 0.1567,0.312648 0.48374,0.632747 0.72674,0.711325 0.24301,0.07858 0.44184,0.305639 0.44184,0.504576 0,0.198935 0.0883,0.361702 0.19621,0.361702 0.10792,0 0.59077,0.343506 1.07303,0.763345 1.07559,0.936391 1.34577,1.149542 1.50801,1.189717 0.0695,0.0172 0.46709,0.162952 0.88367,0.323905 0.41659,0.160955 0.94339,0.330362 1.17066,0.37646 0.22727,0.0461 0.6568,0.234834 0.9545,0.419415 0.45863,0.284373 0.57804,0.277794 0.78217,-0.04311 0.1325,-0.208294 0.24308,-0.265101 0.24573,-0.126239 0.003,0.138863 0.0466,1.331819 0.0975,2.651013 0.051,1.319195 0.0182,2.604459 -0.0729,2.856144 -0.13888,0.383755 -0.23005,0.322474 -0.56491,-0.379729 z m 3.44687,0.301112 c -0.18641,-0.301609 0.0719,-4.757816 0.29681,-5.121836 0.0753,-0.121758 0.40599,-0.153821 0.73498,-0.07125 0.368,0.09236 0.96315,-0.04549 1.54671,-0.358257 0.52169,-0.279614 1.14904,-0.508389 1.39411,-0.508389 0.24507,0 0.44558,-0.132551 0.44558,-0.294558 0,-0.162004 0.0696,-0.224985 0.15459,-0.139951 0.085,0.08503 0.5111,-0.179544 0.9468,-0.587947 0.43571,-0.408402 0.9342,-0.743076 1.10778,-0.743717 0.17358,-7.57e-4 0.31863,-0.08638 0.32235,-0.190527 0.004,-0.104147 0.45113,-0.674183 0.99428,-1.266746 0.54314,-0.592562 1.05902,-1.302654 1.14641,-1.577984 0.0874,-0.275329 0.26484,-0.500597 0.39434,-0.500597 0.12951,0 0.23547,-0.20458 0.23547,-0.45462 0,-0.510444 0.55451,-1.812674 0.77315,-1.815707 0.11814,-0.0016 0.13243,-1.783391 0.0185,-2.304537 -0.0272,-0.1243 -1.8519,-0.588502 -3.44266,-0.875795 -0.13887,-0.02508 -0.36609,-0.07216 -0.50495,-0.10462 -0.13886,-0.03246 -0.33769,-0.04557 -0.44184,-0.02912 -0.10416,0.01644 -0.18937,-0.08372 -0.18937,-0.222579 0,-0.234381 0.50516,-0.356251 1.16103,-0.280103 0.15256,0.01771 0.72063,-0.122872 1.26239,-0.312408 0.54177,-0.189536 1.176,-0.315387 1.4094,-0.279669 0.39494,0.06044 0.78443,-0.435634 0.80195,-1.021401 0.0175,-0.582295 -0.43585,-2.04415 -0.87778,-2.830972 -0.26113,-0.46492 -0.47478,-1.088019 -0.47478,-1.384665 0,-0.296645 -0.068,-0.471267 -0.15131,-0.388049 -0.0832,0.08322 -0.71855,-0.530302 -1.41183,-1.363378 -0.6933,-0.833075 -1.41986,-1.57582 -1.6146,-1.650545 -0.19472,-0.07473 -0.292,-0.236273 -0.21614,-0.358994 0.0759,-0.122721 -0.014,-0.164837 -0.19968,-0.09359 -0.18567,0.07124 -0.56082,-0.07498 -0.83367,-0.324936 -0.27284,-0.249963 -0.97895,-0.61178 -1.56911,-0.804037 -0.59017,-0.192258 -1.07303,-0.438457 -1.07303,-0.547109 0,-0.108651 -0.48287,-0.232485 -1.07303,-0.275185 l -1.07303,-0.07764 -0.0376,-2.272297 c -0.0206,-1.249763 -0.11103,-2.45292 -0.20085,-2.673682 -0.18724,-0.46023 0.4598,-1.114271 0.85854,-0.867836 0.14494,0.08958 0.26715,0.468609 0.27156,0.842286 0.005,0.373678 0.17484,0.899954 0.37872,1.169504 0.20387,0.269551 0.37068,0.747266 0.37068,1.061589 0,0.461194 0.18274,0.605027 0.9468,0.74522 1.32211,0.242588 3.50069,1.264715 3.0644,1.437729 -0.19265,0.0764 -0.0378,0.147876 0.34404,0.158839 0.38187,0.01096 0.69432,0.133547 0.69432,0.27241 0,0.138863 0.16276,0.252477 0.36169,0.252477 0.19895,0 0.42626,0.203366 0.50514,0.451925 0.0977,0.307782 0.36483,0.43679 0.83756,0.404473 0.96055,-0.06566 1.83028,-0.366634 1.83028,-0.633367 0,-0.122667 0.12652,-0.223031 0.28115,-0.223031 0.32898,0 0.0713,2.25209 -0.30191,2.63839 -0.37176,0.384829 -0.26973,0.895036 0.14701,0.73512 0.23981,-0.09203 0.37871,0.0035 0.37871,0.260401 0,0.223151 0.12577,0.405729 0.27949,0.405729 0.15372,0 0.21462,0.169059 0.13533,0.375687 -0.0799,0.208044 -0.0166,0.348873 0.14172,0.315597 0.15724,-0.03305 0.39676,0.394368 0.53229,0.949819 0.13552,0.555451 0.31522,1.066717 0.39934,1.136148 0.46835,0.386583 0.78413,1.40796 0.78413,2.53625 0,0.704391 0.0933,1.223015 0.20746,1.152495 0.1141,-0.07052 0.52121,0.03455 0.90467,0.233501 0.38348,0.198946 1.17063,0.492589 1.74924,0.65254 0.6173,0.170646 0.89739,0.345594 0.67782,0.423369 -0.20581,0.0729 -0.52637,0.28471 -0.71234,0.470687 -0.18599,0.185976 -0.51545,0.338139 -0.73215,0.338139 -0.2167,0 -0.77666,0.236497 -1.24435,0.525547 -0.67946,0.419933 -0.85035,0.688264 -0.85035,1.335242 0,0.445332 -0.21485,1.231102 -0.47744,1.746156 -0.26259,0.515054 -0.54779,1.216803 -0.63379,1.559446 -0.19171,0.76384 -1.61572,2.912888 -1.93014,2.912888 -0.13564,0 -0.13492,0.245699 0.002,0.605233 0.12656,0.332878 0.16162,0.673722 0.0779,0.757433 -0.0837,0.08371 -0.0197,0.152199 0.14236,0.152199 0.3967,0 0.37778,1.192304 -0.021,1.326494 -0.43448,0.146189 -1.19926,-0.07448 -1.19926,-0.346031 0,-0.424642 -1.18606,-0.220887 -1.6411,0.281924 -0.25134,0.277725 -0.6098,0.504955 -0.79657,0.504955 -0.18677,0 -0.33958,0.113614 -0.33958,0.252477 0,0.138863 -0.22723,0.252478 -0.50496,0.252478 -0.27772,0 -0.50495,0.113614 -0.50495,0.252477 0,0.138863 -0.29074,0.252477 -0.6461,0.252477 -0.35535,0 -0.58987,0.09097 -0.52116,0.202144 0.0687,0.111179 -0.38449,0.352557 -1.00712,0.536396 -0.87198,0.257466 -1.21153,0.515536 -1.47806,1.123363 -0.19353,0.441374 -0.3718,0.62222 -0.40453,0.410394 -0.0322,-0.208294 -0.12666,0.12373 -0.20995,0.737827 -0.14905,1.098907 -0.57068,1.576722 -0.9087,1.029791 z m -1.3888,-7.559697 c 0,-1.241568 -0.11361,-2.327615 -0.25247,-2.413437 -0.31805,-0.196562 -0.33464,-1.893581 -0.0185,-1.893581 0.12868,0 0.2707,-0.190713 0.31559,-0.423807 0.0764,-0.396757 0.10868,-0.396757 0.50544,0 0.65678,0.656789 0.79098,0.51353 0.60821,-0.649222 -0.2156,-1.371468 -0.69239,-2.461656 -1.07663,-2.461656 -0.42997,0 -0.86548,1.342691 -0.85986,2.651014 0.002,0.416588 -0.21442,1.561939 -0.48045,2.545225 -0.26603,0.983287 -0.41925,2.034224 -0.34049,2.335417 0.10234,0.391363 0.0293,0.547624 -0.25607,0.547624 -0.62775,0 -0.92201,-0.83893 -0.92201,-2.628596 0,-1.47126 -0.0672,-1.695889 -0.61426,-2.054362 -0.71848,-0.470763 -1.6554,-0.138658 -1.6619,0.589081 -0.003,0.333894 -0.0528,0.355811 -0.21759,0.09579 -0.11754,-0.185441 -0.31463,-0.311802 -0.43797,-0.280806 -0.12334,0.03099 -0.34795,-0.185747 -0.49914,-0.481652 -0.15119,-0.295905 -0.47222,-0.756055 -0.7134,-1.022557 -0.6588,-0.727967 -0.64338,-1.347255 0.047,-1.890371 0.60846,-0.478613 0.61811,-0.543849 0.50465,-3.413483 -0.15772,-3.988786 0.0483,-5.977758 0.60939,-5.884886 0.29425,0.0487 0.45925,-0.14579 0.5355,-0.631193 0.0606,-0.385871 0.0804,-0.204668 0.044,0.402673 -0.0364,0.60734 -0.20432,1.189634 -0.37317,1.293985 -0.17177,0.106167 -0.23792,0.407315 -0.15018,0.683752 0.2266,0.713958 1.22681,0.576108 1.44349,-0.198945 0.13241,-0.473617 0.1764,-0.36982 0.19592,0.462278 0.0222,0.949587 -0.0402,1.073995 -0.54291,1.081428 l -0.56807,0.0084 0.5684,0.474169 c 0.43233,0.360664 0.54502,0.675949 0.47072,1.317107 -0.0634,0.54702 -0.22785,0.832778 -0.46851,0.813999 -0.28166,-0.02198 -0.37955,0.311961 -0.40708,1.388625 -0.0451,1.764791 0.13769,2.052551 1.4127,2.223564 0.87589,0.117483 1.12376,0.03527 1.77771,-0.58969 0.73614,-0.703494 0.89852,-1.221244 0.83988,-2.677964 -0.0239,-0.591356 -0.13649,-0.694313 -0.75995,-0.694313 -0.68422,0 -0.73782,-0.07307 -0.82103,-1.119238 -0.11988,-1.507271 0.0629,-2.105907 0.61707,-2.021191 0.24896,0.03805 0.58873,-0.148695 0.75505,-0.415007 0.40398,-0.646871 0.68278,-0.611908 0.66884,0.08387 -0.007,0.312441 0.0942,1.055442 0.22322,1.651112 0.23965,1.106259 0.54816,1.685343 0.55511,1.041981 0.003,-0.294915 0.0481,-0.291223 0.25606,0.02104 0.17643,0.264934 0.20213,0.04774 0.0855,-0.722913 -0.16214,-1.071729 -0.15176,-1.093656 0.38221,-0.807885 0.30188,0.161561 0.49387,0.382725 0.42666,0.491477 -0.17004,0.275143 0.67513,0.263408 1.02879,-0.01429 0.15924,-0.12504 0.2312,-0.450398 0.15991,-0.723018 -0.0713,-0.272619 -0.0157,-0.495671 0.12365,-0.495671 0.36618,0 0.53444,1.521593 0.25645,2.319046 -0.14253,0.408873 -0.45635,0.711862 -0.78589,0.758793 -0.43583,0.06206 -0.53192,0.220861 -0.46742,0.772442 0.0447,0.381872 -0.0314,0.694313 -0.16905,0.694313 -0.19322,0 0.2959,1.758752 0.62052,2.231255 0.0322,0.04686 0.49358,0.183324 1.02533,0.303258 1.47904,0.333599 2.09108,-0.174955 1.99213,-1.65529 -0.0424,-0.633126 -0.14832,-1.222508 -0.23555,-1.309738 -0.25116,-0.251157 -0.18422,-3.10417 0.0728,-3.10417 0.12729,0 0.28875,0.142019 0.35879,0.315597 0.07,0.173578 0.13631,0.06353 0.14727,-0.244553 0.0141,-0.398282 -0.0895,-0.518154 -0.35878,-0.414823 -0.20829,0.07993 -0.37872,0.01955 -0.37872,-0.134163 0,-0.153719 0.11362,-0.27949 0.25248,-0.27949 0.13886,0 0.25248,-0.220524 0.25248,-0.490055 0,-0.560612 0.39563,-0.900999 0.62183,-0.534999 0.0835,0.135063 0.33828,0.173999 0.56623,0.08652 0.33107,-0.127041 0.37306,-0.06132 0.20873,0.326624 -0.11314,0.267117 -0.19571,1.280972 -0.18349,2.25301 0.0122,0.972038 0.0229,2.301641 0.0238,2.954673 9.5e-4,0.858443 0.14466,1.330509 0.51838,1.704223 0.90769,0.907694 0.43415,3.067402 -0.48569,2.215106 -0.26976,-0.249957 -0.30417,-0.224483 -0.17865,0.132246 0.0855,0.24301 0.0373,0.441836 -0.10711,0.441836 -0.14443,0 -0.42874,0.166149 -0.63181,0.36922 -0.25473,0.254722 -0.54274,0.303865 -0.92876,0.158468 -0.68312,-0.257299 -1.69569,0.08272 -1.69569,0.56941 0,0.195766 -0.17042,0.497375 -0.37871,0.670244 -0.23898,0.198326 -0.38801,0.792014 -0.40389,1.608898 -0.0152,0.779138 -0.0906,1.093541 -0.18936,0.789638 -0.0903,-0.277725 -0.36301,-0.520734 -0.60603,-0.540021 -0.37409,-0.02969 -0.44184,0.189711 -0.44184,1.431095 0,1.69572 -0.1654,2.264895 -0.6582,2.264895 -0.27439,0 -0.3517,-0.496197 -0.3517,-2.257397 z m 1.17712,-10.93455 c -0.07,-0.173578 -0.12734,-0.03156 -0.12734,0.315596 0,0.347157 0.0574,0.489175 0.12734,0.315597 0.07,-0.173578 0.07,-0.457615 0,-0.631193 z m 28.33902,7.267792 c -2.15247,-0.792462 -2.39965,-1.035825 -3.65552,-3.599 -0.6655,-1.358239 -1.21766,-2.487895 -1.22703,-2.510349 -0.01,-0.02245 -0.32948,0.0192 -0.71135,0.09255 -0.64112,0.123158 -0.69319,0.223008 -0.67977,1.303211 0.008,0.64341 0.0951,1.623491 0.19336,2.177957 0.1538,0.867165 0.28415,1.02625 0.93223,1.137772 0.53847,0.09266 0.77647,0.291273 0.83413,0.696101 0.0803,0.563207 0.061,0.566451 -3.36289,0.566451 -3.42669,0 -3.44317,-0.0028 -3.36288,-0.568075 0.0568,-0.399654 0.27799,-0.590936 0.74623,-0.645188 0.5155,-0.05973 0.70049,-0.251834 0.82055,-0.852111 0.2191,-1.095499 0.18588,-9.361667 -0.039,-9.715164 -0.10247,-0.161048 -0.52679,-0.331471 -0.94292,-0.378717 -0.56626,-0.06429 -0.7774,-0.232565 -0.83924,-0.66887 l -0.0826,-0.58297 5.06478,0.07801 5.06478,0.07802 0.78043,0.781009 c 1.49233,1.493432 1.16728,4.031763 -0.66098,5.161688 -0.78352,0.484247 -0.82395,0.572107 -0.55373,1.203247 0.53763,1.2557 2.38789,3.954611 3.31339,4.833142 1.18338,1.123316 1.21957,1.787503 0.0961,1.763144 -0.45131,-0.0098 -1.22889,-0.168122 -1.72795,-0.35186 z m -3.43426,-8.242776 c 0.57635,-0.624973 0.69364,-0.95873 0.63119,-1.79621 -0.0907,-1.216769 -0.85986,-1.916075 -2.22276,-2.020979 l -0.88367,-0.06802 -0.0736,2.250946 c -0.08,2.448504 0.0807,2.786028 1.20971,2.539627 0.34715,-0.07577 0.94974,-0.483184 1.33908,-0.905365 z m 11.72662,8.170905 -4.98643,-0.07411 V 53.65398 c 0,-0.519925 0.12193,-0.625857 0.72039,-0.625857 0.71519,0 0.72156,-0.01391 0.88366,-1.931674 0.20851,-2.466583 0.18605,-6.484044 -0.0435,-7.788706 -0.16013,-0.910031 -0.25857,-1.017735 -0.99536,-1.089026 -0.67652,-0.06546 -0.81765,-0.185298 -0.81765,-0.694313 v -0.615197 h 3.28221 c 1.80521,0 3.36741,0 3.47156,0 0.10415,0 0.18936,0.255633 0.18936,0.568074 0,0.45096 -0.1619,0.583843 -0.78529,0.644561 -0.77454,0.07544 -0.78748,0.09962 -0.945,1.767341 -0.24342,2.57731 -0.19376,7.511051 0.0829,8.238833 0.22332,0.58738 0.37012,0.645289 1.57799,0.622463 2.20588,-0.04168 2.57575,-0.228463 2.72038,-1.373716 0.11519,-0.912249 0.19798,-1.00657 0.94678,-1.078768 l 0.82056,-0.07912 v 2.162055 c 0,2.090839 -0.0187,2.160162 -0.56807,2.104588 -0.31244,-0.0316 -2.81198,-0.09081 -5.55451,-0.131576 z m 9.95633,2.53e-4 c -3.04724,-0.07796 -3.10777,-0.09074 -3.02972,-0.63972 0.0557,-0.39218 0.28015,-0.583386 0.74824,-0.63758 0.43717,-0.05061 0.72,-0.269099 0.81711,-0.631193 0.21578,-0.804717 0.18161,-9.589609 -0.0387,-9.935788 -0.10247,-0.161048 -0.52679,-0.33147 -0.94293,-0.378716 -0.55972,-0.06354 -0.7776,-0.233732 -0.83729,-0.653976 -0.0801,-0.563592 -0.0532,-0.568467 3.40845,-0.617874 6.28939,-0.08977 7.31169,0.09291 9.04154,1.615582 3.01706,2.655718 2.26416,8.627251 -1.35517,10.748317 -1.0232,0.599633 -3.802,1.386383 -4.44972,1.259831 -0.13887,-0.02713 -1.6517,-0.08513 -3.36186,-0.128883 z m 5.0443,-1.978703 c 1.50714,-0.779373 2.48699,-2.807554 2.47789,-5.128964 -0.0111,-2.830857 -1.43396,-4.468454 -4.12369,-4.746058 l -1.3611,-0.140478 -0.18396,3.92507 c -0.1849,3.94531 -0.0543,5.826003 0.44774,6.446701 0.31206,0.385845 1.64206,0.213108 2.74312,-0.356271 z m 8.47977,1.763553 -1.19927,-0.368771 v -1.885942 -1.885941 h 0.88368 c 0.83719,0 0.88367,0.0453 0.88367,0.861149 0,0.765373 0.12118,0.919813 1.08961,1.388626 2.26053,1.0943 4.46489,0.482166 4.46489,-1.239865 0,-1.049301 -0.75141,-1.700385 -2.19098,-1.898449 -3.18818,-0.438645 -4.44987,-1.11634 -4.90472,-2.634471 -0.61457,-2.051224 0.46347,-4.00164 2.892,-5.232263 1.13793,-0.576631 1.49479,-0.632417 3.43117,-0.53637 1.18864,0.05896 2.39608,0.235162 2.68322,0.391564 0.49596,0.270149 0.50819,0.376685 0.24438,2.130569 -0.27319,1.816203 -0.28987,1.8462 -1.02703,1.8462 -0.63837,0 -0.73723,-0.08647 -0.66763,-0.584041 0.1374,-0.982284 -0.56687,-1.729098 -1.94157,-2.058887 -1.85391,-0.444744 -2.81096,0.232563 -2.81096,1.989316 0,1.007102 0.74222,1.484079 2.81,1.8058 3.00738,0.467911 4.12266,1.144521 4.40984,2.675353 0.38833,2.069972 -0.7689,3.98347 -3.05213,5.046711 -1.49599,0.696646 -4.08344,0.778484 -5.99817,0.189712 z M 50.611328,54.017808 c -0.30053,-0.17504 -0.441835,-0.570297 -0.441835,-1.235852 0,-0.881632 -0.234544,-1.236574 -2.369105,-3.585258 -1.303012,-1.433713 -2.830425,-3.049629 -3.394251,-3.590924 l -1.025155,-0.984171 -0.17685,0.704628 c -0.249068,0.992381 0.09745,6.452529 0.435346,6.859662 0.153948,0.1855 0.663649,0.337272 1.13266,0.337272 0.741296,0 0.852762,0.0825 0.852762,0.631195 v 0.631193 h -3.047288 c -3.01574,0 -3.046457,-0.0059 -2.966615,-0.568074 0.05716,-0.402255 0.277953,-0.590873 0.756507,-0.64618 0.634,-0.07328 0.684356,-0.174822 0.813809,-1.641103 0.07586,-0.859649 0.207262,-3.05273 0.291932,-4.873512 l 0.153929,-3.310514 -0.686198,-0.539767 c -0.377413,-0.296871 -0.954913,-0.539767 -1.283345,-0.539767 -0.46864,0 -0.597148,-0.135836 -0.597148,-0.631193 v -0.631194 h 2.62031 2.620311 l 1.028104,1.325507 c 0.565457,0.729028 2.01298,2.291233 3.216732,3.471564 l 2.188629,2.146058 -0.154483,-2.348621 c -0.190257,-2.892505 -0.395496,-3.332121 -1.55562,-3.332121 -0.759179,0 -0.874795,-0.08146 -0.874795,-0.616348 0,-0.614878 0.0076,-0.616534 3.027487,-0.694313 2.248545,-0.0579 3.058509,0.0032 3.148046,0.237632 0.213865,0.559864 -0.154121,1.073029 -0.769466,1.073029 -0.418513,0 -0.634754,0.171421 -0.716638,0.568075 -0.324119,1.570158 -0.427721,3.353464 -0.436109,7.506774 l -0.0095,4.549023 -0.670319,-0.0076 c -0.368682,-0.0042 -0.869155,-0.123481 -1.112163,-0.265022 z m 44.553593,-0.204636 c -1.799339,-0.621527 -2.321707,-1.176813 -3.561757,-3.786214 -0.963603,-2.027677 -1.113759,-2.216221 -1.678958,-2.108177 -0.59179,0.113128 -0.620711,0.204554 -0.620711,1.962155 0,2.327561 0.12349,2.642229 1.036923,2.642229 0.610796,0 0.73042,0.103374 0.73042,0.631195 v 0.631193 h -3.267306 c -1.797018,0 -3.331187,-0.103362 -3.409266,-0.229694 -0.292447,-0.473191 0.1791,-1.032694 0.870356,-1.032694 h 0.704172 l 0.169114,-3.597803 c 0.09302,-1.978792 0.07643,-4.393107 -0.03687,-5.365145 C 85.895857,41.799791 85.891841,41.792565 85.074501,41.71376 84.3949,41.64823 84.253949,41.528967 84.253949,41.019446 v -0.615197 h 4.552703 c 5.095316,0 6.003638,0.202007 6.665769,1.482437 0.458811,0.887243 0.515378,2.349024 0.121571,3.141874 -0.150647,0.303313 -0.686616,0.913047 -1.191041,1.354967 l -0.917135,0.803489 0.458224,0.963852 c 0.604237,1.270987 2.430677,3.804935 3.413035,4.735131 0.430717,0.407852 0.78313,0.890715 0.78313,1.073029 0,0.473124 -1.379028,0.405522 -2.975282,-0.145856 z m -3.422302,-7.736336 c 0.789904,-0.510646 1.223595,-1.976699 0.850915,-2.87643 -0.31593,-0.762722 -0.936163,-1.162035 -2.182935,-1.405404 -0.726325,-0.141777 -0.798738,-0.09221 -0.946791,0.648049 -0.269733,1.34868 -0.180616,3.646884 0.154408,3.981909 0.351262,0.35126 1.277276,0.199514 2.124403,-0.348124 z M 5.8459197,53.217829 C 5.5827101,52.019459 3.1468556,45.351215 2.2558957,43.389994 1.6000619,41.946371 1.3873701,41.69312 0.77154787,41.622652 0.2497951,41.562945 0.03060492,41.384657 -0.02795712,40.972323 -0.10820916,40.407155 -0.09112816,40.404249 3.3173697,40.404249 h 3.4260082 v 0.631194 c 0,0.510139 -0.1249011,0.631193 -0.6512534,0.631193 -0.6031594,0 -0.6380371,0.0606 -0.472237,0.820552 0.2089607,0.957773 2.0828315,6.455774 2.3832948,6.992675 0.1467629,0.262246 0.4212421,-0.111543 0.968998,-1.319599 1.4676867,-3.236912 1.4602437,-3.180699 0.6442875,-4.865868 -0.5961172,-1.231138 -0.8520649,-1.515907 -1.4213486,-1.58141 -0.5453417,-0.06275 -0.694309,-0.211719 -0.694309,-0.694313 v -0.614424 h 3.4084408 3.40845 v 0.631194 c 0,0.52849 -0.119405,0.631193 -0.733796,0.631193 -0.891322,0 -0.912506,-0.145737 0.673917,4.636195 0.957337,2.885711 1.213094,3.429003 1.457104,3.095298 0.517344,-0.707503 2.671324,-5.946698 2.819003,-6.856735 0.140122,-0.863474 0.130131,-0.874758 -0.774751,-0.874758 -0.809496,0 -0.916706,-0.07381 -0.916706,-0.631193 v -0.631194 h 2.777255 c 1.527489,0 2.86246,0 2.966606,0 0.104146,0 0.18936,0.255633 0.18936,0.568074 0,0.424555 -0.166573,0.587405 -0.659316,0.644586 -0.582138,0.06756 -0.910236,0.58478 -2.80281,4.418356 -1.178923,2.388014 -2.472841,5.168576 -2.87537,6.179026 l -0.731869,1.837184 -1.078163,-0.06984 -1.078154,-0.06984 -1.027274,-3.029729 c -0.564999,-1.666351 -1.115246,-3.122138 -1.222761,-3.23508 -0.167899,-0.176381 -1.223696,2.010332 -2.628612,5.444257 -0.3662394,0.895161 -0.4489247,0.94679 -1.5163246,0.94679 -1.0683255,0 -1.1386533,-0.04406 -1.3091197,-0.820201 z M 27.226132,53.49114 c -1.778637,-0.880403 -2.039671,-1.7465 -2.04636,-6.789818 -0.0057,-4.483952 -0.117878,-4.932397 -1.267935,-5.079945 -0.43087,-0.05528 -0.656797,-0.26127 -0.711867,-0.649054 -0.08035,-0.566019 -0.06785,-0.568074 3.471564,-0.568074 h 3.552245 v 0.631194 c 0,0.549484 -0.111102,0.631193 -0.858248,0.631193 h -0.858248 l -0.183607,3.183222 c -0.302973,5.252863 0.112124,6.800221 1.949371,7.266707 2.010118,0.51038 4.009892,-0.574635 4.519612,-2.452202 0.359292,-1.323481 0.339978,-6.010312 -0.02939,-7.129483 -0.239134,-0.724564 -0.404696,-0.850141 -1.209019,-0.917007 -0.78439,-0.06521 -0.931955,-0.170274 -0.931955,-0.663584 0,-0.580598 0.02844,-0.586108 3.029729,-0.586108 3.001245,0 3.02973,0.0055 3.02973,0.586108 0,0.451705 -0.159207,0.604429 -0.694309,0.665997 -0.38187,0.04394 -0.695435,0.157555 -0.696809,0.252479 -0.02624,1.811886 -0.574981,7.772724 -0.789638,8.577316 -0.347374,1.301992 -1.966853,2.846307 -3.45121,3.291032 -1.675531,0.502 -4.554098,0.378442 -5.823665,-0.249973 z m 31.148878,0.306467 c -3.01383,-0.137567 -3.071037,-0.157443 -2.941364,-1.021964 0.0208,-0.138862 0.366754,-0.252478 0.768724,-0.252478 h 0.730849 l 0.153398,-3.85028 c 0.08437,-2.117654 0.06792,-4.53197 -0.03654,-5.365145 -0.185442,-1.479033 -0.209341,-1.516736 -1.010488,-1.59398 -0.671722,-0.06477 -0.820546,-0.18724 -0.820546,-0.675231 0,-0.594411 0.01031,-0.59637 3.5978,-0.685895 4.666142,-0.11644 6.567249,0.122949 8.004994,1.007997 1.582309,0.974039 2.535939,2.839167 2.535939,4.959844 0,3.338927 -1.329046,5.608597 -3.960543,6.763595 -1.752973,0.769401 -3.006923,0.896817 -7.022225,0.713537 z m 4.956354,-1.926975 c 0.902301,-0.460821 1.880295,-1.66826 2.244088,-2.770562 0.45914,-1.391207 0.226576,-4.474602 -0.402591,-5.337686 -0.674885,-0.925795 -2.499577,-1.843271 -3.665934,-1.843271 -1.208039,0 -1.230619,0.100072 -1.23489,5.473351 -0.0029,3.668619 0.05975,4.400395 0.406504,4.747152 0.447779,0.44778 1.447958,0.346366 2.652823,-0.268984 z m 12.780185,1.978356 -4.986429,-0.07411 v -0.625857 c 0,-0.520034 0.121896,-0.625857 0.720925,-0.625857 0.705813,0 0.724294,-0.03572 0.881875,-1.704222 0.20583,-2.179403 0.167358,-7.571007 -0.05991,-8.394875 -0.132376,-0.479895 -0.368422,-0.650158 -0.984743,-0.710309 -0.665382,-0.06494 -0.810629,-0.187694 -0.810629,-0.685094 v -0.60598 l 5.680962,-0.07234 5.680961,-0.07234 -2.19e-4,1.9567 -2.2e-4,1.956699 H 81.47669 c -0.666111,0 -0.757432,-0.08759 -0.757432,-0.726517 0,-1.030097 -0.428366,-1.271925 -2.574368,-1.453329 l -1.891246,-0.159869 -0.16099,1.540273 c -0.222414,2.127964 -0.111994,2.314307 1.37141,2.314307 1.20432,0 1.235374,-0.01904 1.235374,-0.757432 0,-0.673273 0.08416,-0.757433 0.757432,-0.757433 h 0.757433 v 2.651013 2.651013 H 79.45687 c -0.688574,0 -0.757432,-0.07574 -0.757432,-0.833175 0,-1.108474 -0.388656,-1.439121 -1.691598,-1.439121 h -1.08565 v 2.036417 c 0,2.692337 0.187782,3.013132 1.763797,3.013132 0.682593,0 1.814744,-0.123029 2.515892,-0.273399 1.229386,-0.263656 1.274814,-0.304143 1.274814,-1.136149 0,-0.790292 0.06361,-0.862749 0.757432,-0.862749 h 0.757433 v 2.019819 2.019819 l -0.94679,-0.05746 c -0.520736,-0.0316 -3.190684,-0.09082 -5.933221,-0.131577 z m 26.462161,-0.471652 c -0.3517,-1.401316 -2.971632,-8.539292 -3.700408,-10.081746 -0.623084,-1.318759 -0.874041,-1.611263 -1.438258,-1.676349 -0.486236,-0.05609 -0.706752,-0.242777 -0.76415,-0.646918 -0.08025,-0.56529 -0.06384,-0.568074 3.362896,-0.568074 3.42668,0 3.44316,0.0028 3.36288,0.568074 -0.0518,0.365072 -0.28368,0.596906 -0.64875,0.648754 -0.31245,0.04437 -0.56808,0.219313 -0.56808,0.388753 0,0.458829 1.40911,4.872668 2.08386,6.52738 l 0.58814,1.442309 1.1048,-2.539518 1.1048,-2.539518 -0.79734,-1.616923 c -0.66383,-1.346171 -0.90343,-1.616924 -1.43089,-1.616924 -0.50746,0 -0.63355,-0.125612 -0.63355,-0.631193 v -0.631194 h 3.42601 c 3.40848,0 3.42559,0.0029 3.34533,0.568074 -0.0578,0.406881 -0.27787,0.590759 -0.77559,0.648021 -0.61152,0.07036 -0.67669,0.161223 -0.54312,0.757432 0.2078,0.927631 2.12193,6.646977 2.38144,7.11566 0.22063,0.398479 0.78294,-0.710561 2.51373,-4.957848 0.93987,-2.306367 0.89265,-2.868952 -0.24077,-2.868952 -0.64807,0 -0.76537,-0.09673 -0.76537,-0.631193 v -0.631194 h 2.9035 2.90349 v 0.631194 c 0,0.503646 -0.12656,0.631193 -0.62632,0.631193 -0.56166,0 -0.85875,0.475698 -2.87758,4.607713 -1.23819,2.534242 -2.51855,5.320606 -2.84524,6.191918 l -0.59399,1.584204 -1.1145,-0.06934 -1.1145,-0.06934 -0.71288,-2.146059 c -0.39209,-1.180332 -0.89997,-2.644312 -1.12863,-3.253287 -0.49504,-1.318447 -0.41422,-1.416417 -2.16288,2.622093 l -1.20253,2.777253 -1.11171,0.07571 c -1.02527,0.06982 -1.12508,0.02239 -1.28384,-0.610161 z"
       id="path22" />
  </g>
</svg>
