<?xml version="1.0" encoding="UTF-8" standalone="no"?>
<svg
   xmlns:dc="http://purl.org/dc/elements/1.1/"
   xmlns:cc="http://creativecommons.org/ns#"
   xmlns:rdf="http://www.w3.org/1999/02/22-rdf-syntax-ns#"
   xmlns:svg="http://www.w3.org/2000/svg"
   xmlns="http://www.w3.org/2000/svg"
   width="300px"
   height="50px"
   viewBox="0 0 300 50"
   version="1.1"
   id="SVGRoot">
  <defs
     id="defs61" />
  <metadata
     id="metadata64">
    <rdf:RDF>
      <cc:Work
         rdf:about="">
        <dc:format>image/svg+xml</dc:format>
        <dc:type
           rdf:resource="http://purl.org/dc/dcmitype/StillImage" />
        <dc:title></dc:title>
      </cc:Work>
    </rdf:RDF>
  </metadata>
  <g
     id="layer1">
    <path
       style="fill:#000000"
       d="m 461.36963,744.58848 c -0.83372,-1.98361 -1.80535,-4.90861 -2.15919,-6.5 -0.48317,-2.17305 -1.69341,-3.35647 -4.86096,-4.75319 -2.31969,-1.02286 -4.99901,-2.26036 -5.95405,-2.75 -0.95504,-0.48964 -2.41754,-0.89025 -3.25,-0.89025 -0.83246,0 -1.51357,-0.45 -1.51357,-1 0,-0.55 -0.8625,-1 -1.91667,-1 -1.05416,0 -2.06666,-0.3375 -2.25,-0.75 -0.18333,-0.4125 -1.77761,-1.7625 -3.54284,-3 -3.75537,-2.63267 -7.41483,-2.86986 -10.73307,-0.69566 -1.61537,1.05843 -2.58473,1.21049 -3.03829,0.47661 -0.73671,-1.19202 1.52628,-7.03095 2.72498,-7.03095 1.57266,0 0.67222,-3.61879 -1.24411,-5 -1.1,-0.79284 -2,-1.82432 -2,-2.29219 0,-0.46787 -0.64316,-1.49383 -1.42924,-2.27991 -0.78608,-0.78608 -1.94425,-3.91 -2.5737,-6.94204 -0.62944,-3.03204 -1.56129,-5.25518 -2.07075,-4.94031 -0.50947,0.31487 -0.98256,-0.12907 -1.05131,-0.98653 -0.13473,-1.6804 -0.47506,-3.25913 -0.875,-4.05902 -0.38102,-0.76204 -0.73625,-2.34583 -0.875,-3.90122 -0.15805,-1.77175 -6.55155,-5.59878 -9.35342,-5.59878 -1.16275,0 -2.93284,-0.74095 -3.93353,-1.64656 -1.72473,-1.56085 -1.72882,-1.71536 -0.0787,-2.9682 0.95738,-0.72689 2.95702,-1.33594 4.44364,-1.35343 2.89263,-0.034 7.89273,-1.92334 8.92448,-3.37215 0.34509,-0.48458 0.40511,-1.73124 0.13337,-2.77035 -0.27177,-1.03912 0.008,-1.88931 0.62253,-1.88931 0.61415,0 1.11663,-1.5199 1.11663,-3.37755 0,-1.85766 0.66309,-3.92787 1.47354,-4.60048 0.81044,-0.67261 1.76888,-2.79723 2.12985,-4.72137 0.40507,-2.15924 0.9446,-3.03197 1.40942,-2.27987 0.48364,0.78255 1.16842,-0.0398 1.91382,-2.29843 0.6384,-1.93434 2.01295,-4.49963 3.05458,-5.70063 1.73502,-2.0005 1.73456,-4.71808 -10e-4,-6.02167 -0.36613,-0.275 -0.96067,-2.0148 -1.32119,-3.86624 -0.63736,-3.27311 -0.57947,-3.34696 2.09275,-2.66946 6.78822,1.72105 9.74368,1.68546 11.74825,-0.1415 1.1,-1.00254 3.35,-2.49708 5,-3.3212 1.65,-0.82412 3.225,-1.72652 3.5,-2.00533 0.80426,-0.81543 7.49945,-2.99627 9.19853,-2.99627 2.24453,0 3.94656,-2.44556 4.48553,-6.44502 0.91368,-6.77993 1.8905,-9.05498 3.88787,-9.05498 1.79776,0 1.91589,0.74081 1.74811,10.96219 -0.14672,8.9387 -0.48769,11.18722 -1.8472,12.18132 -0.91699,0.67052 -2.2579,0.99248 -2.9798,0.71546 -0.7219,-0.27702 -2.69845,0.213 -4.39233,1.08894 -1.69387,0.87594 -3.42199,1.64079 -3.84025,1.69968 -3.23483,0.45538 -11.59167,6.07868 -15.7698,10.61145 -4.63032,5.02336 -4.79879,5.27618 -8.76173,13.14839 -4.33424,8.6098 -5.08305,15.09257 -1.7433,15.09257 2.59817,0 10.91,1.98973 13.73849,3.28879 l 2.22413,1.02149 -2.12714,1.84486 c -1.16993,1.01468 -3.5208,1.84737 -5.22414,1.85044 -1.70334,0.003 -4.78634,0.47473 -6.85111,1.04814 -3.73106,1.03616 -3.75024,1.06837 -3.12306,5.24443 1.14404,7.61741 8.73562,22.70185 11.42522,22.70185 0.52358,0 0.95196,0.675 0.95196,1.5 0,0.825 0.34971,1.5 0.77714,1.5 0.42743,0 2.33993,1.36054 4.25,3.02342 4.26014,3.70881 5.33026,4.55305 5.97286,4.71217 0.275,0.0681 1.85,0.64541 3.5,1.28291 1.65,0.6375 3.73651,1.30848 4.63669,1.49106 0.90017,0.18258 2.6014,0.93012 3.78051,1.6612 1.81657,1.12633 2.28948,1.10027 3.098,-0.17076 0.5248,-0.825 0.98961,-1.05 1.03291,-0.5 0.58309,7.40545 0.56663,20.36201 -0.0279,21.95103 -0.68785,1.83847 -0.92234,1.67846 -2.28245,-1.55759 z m 13.80557,1.17668 c -0.92544,-1.49739 -0.33946,-17.23515 0.72264,-19.40791 0.64892,-1.32752 1.56363,-1.67081 3.29444,-1.2364 1.48891,0.37369 3.81851,-0.16099 6.15303,-1.41221 2.06631,-1.10748 4.5511,-2.0136 5.52174,-2.0136 0.97065,0 1.76481,-0.525 1.76481,-1.16667 0,-0.64166 0.25094,-0.91572 0.55765,-0.60902 0.3067,0.30671 1.98199,-0.74329 3.72286,-2.33333 1.74087,-1.59004 3.73992,-2.89098 4.44235,-2.89098 0.70243,0 1.28104,-0.3375 1.28581,-0.75 0.005,-0.4125 1.49359,-2.325 3.30849,-4.25 3.35941,-3.56322 6.5119,-8.90443 8.70575,-14.75 0.67085,-1.7875 1.53066,-3.25 1.91068,-3.25 0.5655,0 0.71062,-6.60359 0.20193,-9.18872 -0.15013,-0.76297 -8.91075,-2.3435 -10.88552,-1.96389 -0.6875,0.13216 -1.25,-0.27758 -1.25,-0.91054 0,-0.63295 -0.66059,-0.89733 -1.46797,-0.58751 -0.80739,0.30982 -1.73849,0.12563 -2.0691,-0.40932 -0.33062,-0.53495 -1.02003,-0.71374 -1.53203,-0.39731 -0.51199,0.31643 -0.9309,0.0988 -0.9309,-0.48369 0,-0.96452 2.19059,-1.53447 4.37076,-1.13718 0.47893,0.0873 3.05631,-0.56725 5.72754,-1.45448 2.67122,-0.88724 5.26972,-1.35794 5.77445,-1.046 0.88706,0.54823 2.42326,-1.87648 2.48443,-3.92136 0.069,-2.30632 -1.72631,-8.09636 -3.47669,-11.21277 -1.03427,-1.84143 -1.88049,-4.30937 -1.88049,-5.48431 0,-1.17494 -0.26968,-1.86657 -0.59928,-1.53697 -0.32961,0.32961 -2.84598,-2.10039 -5.59194,-5.39999 -2.74595,-3.29961 -5.62369,-6.24144 -6.39497,-6.5374 -0.77128,-0.29597 -1.11038,-1.0105 -0.75356,-1.58785 0.38021,-0.61518 0.16803,-0.75261 -0.51257,-0.33198 -0.63873,0.39476 -2.39576,-0.14962 -3.9045,-1.20974 -1.50875,-1.06012 -4.43068,-2.52897 -6.49318,-3.26412 -2.0625,-0.73516 -3.75,-1.69624 -3.75,-2.13575 0,-0.43952 -1.92836,-0.79912 -4.28524,-0.79912 h -4.28524 l -0.23238,-9.25 c -0.12781,-5.0875 -0.45961,-9.97396 -0.73734,-10.85881 -0.58731,-1.87121 1.96389,-4.3654 3.4964,-3.41826 0.57409,0.35481 1.0438,1.91345 1.0438,3.46365 0,1.55019 0.675,3.37873 1.5,4.06342 0.825,0.68469 1.5,2.5194 1.5,4.07714 0,2.49963 0.44038,2.9026 3.75,3.43136 4.53351,0.7243 13.24301,4.69379 12.59593,5.74079 -0.25518,0.41289 0.46259,0.75071 1.59505,0.75071 1.13246,0 2.05902,0.45 2.05902,1 0,0.55 0.64468,1 1.43261,1 0.78794,0 1.73713,0.95946 2.10933,2.13213 0.47583,1.49924 0.90399,1.76438 1.44238,0.89324 0.49166,-0.79551 0.99078,-0.87467 1.39465,-0.22119 0.34593,0.55973 1.18968,0.87902 1.875,0.70954 3.73406,-0.92347 5.74603,-1.84449 5.74603,-2.63035 0,-0.48585 0.50109,-0.88337 1.11354,-0.88337 1.30299,0 0.28226,8.91997 -1.19581,10.45 -1.27737,1.32229 -1.15414,3.81415 0.1488,3.00888 1.31438,-0.81232 4.04041,2.5774 3.4413,4.27913 -0.23972,0.6809 0.0737,1.1309 0.69647,1 0.62278,-0.1309 1.57149,1.56199 2.10825,3.76199 0.53676,2.2 1.24852,4.225 1.58169,4.5 1.82435,1.50584 3.10576,5.53615 3.10576,9.76833 0,4.48539 0.17419,4.80987 2.69398,5.01842 1.48169,0.12263 2.94419,0.62421 3.25,1.11462 0.30581,0.49041 2.58102,1.4493 5.05602,2.13087 2.5727,0.70848 3.85757,1.45803 3,1.75012 -0.825,0.281 -1.85986,1.11993 -2.29969,1.86428 -0.43983,0.74435 -1.73671,1.35336 -2.88197,1.35336 -1.14525,0 -3.59789,0.93671 -5.45031,2.08156 -2.69119,1.66325 -3.36803,2.72604 -3.36803,5.28856 0,1.76385 -0.85095,4.87609 -1.891,6.91609 -1.04005,2.04 -2.19096,4.90423 -2.55758,6.36496 -0.7946,3.16593 -6.25623,11.34883 -7.57471,11.34883 -0.56522,0 -0.57139,0.93588 -0.0158,2.39718 0.50127,1.31844 0.64013,2.66844 0.30858,3 -0.33155,0.33155 -0.0778,0.60282 0.56384,0.60282 1.57122,0 1.49632,4.72242 -0.0833,5.25391 -1.7209,0.57902 -4.75,-0.29498 -4.75,-1.37054 0,-1.6819 -4.69771,-0.87488 -6.5,1.11663 -0.99549,1.1 -2.41523,2 -3.15499,2 -0.73975,0 -1.34501,0.45 -1.34501,1 0,0.55 -0.9,1 -2,1 -1.1,0 -2,0.45 -2,1 0,0.55 -1.15156,1 -2.55902,1 -1.45136,0 -2.2915,0.43284 -1.94098,1 0.33992,0.55 -0.0683,1 -0.90706,1 -3.26848,0 -8.46184,3.3415 -9.09131,5.84951 -0.48692,1.94005 -0.84473,2.21338 -1.50306,1.14818 -0.58497,-0.94651 -0.96648,0.0141 -1.18129,2.97443 -0.30534,4.20784 -1.94084,6.25501 -3.27394,4.098 z m -5.89766,-29.32012 c -0.27036,-5.0875 -0.7985,-11.1625 -1.17366,-13.5 -0.43245,-2.69451 -0.30449,-4.25 0.34962,-4.25 0.56744,0 1.17721,-0.75536 1.35504,-1.67859 0.30268,-1.57145 0.43045,-1.57145 2.00189,0 2.60134,2.60138 3.13291,2.03396 2.40896,-2.57141 -0.85389,-5.43204 -2.74239,-9.75 -4.26425,-9.75 -1.70301,0 -3.42794,5.31806 -3.40571,10.5 0.007,1.65 -0.84924,6.18645 -1.90293,10.081 -1.05368,3.89455 -1.66055,8.05705 -1.34858,9.25 0.44231,1.6914 0.12682,2.169 -1.4328,2.169 -2.45767,0 -3.2014,-2.45671 -3.21961,-10.63499 -0.0121,-5.43952 -0.29821,-6.32144 -2.52384,-7.77973 -2.89865,-1.89926 -6.43456,-0.71508 -6.56876,2.1999 -0.0485,1.05304 -0.2744,1.23002 -0.58541,0.45859 -0.27855,-0.69093 -0.88288,-1.02359 -1.34295,-0.73925 -0.92895,0.57412 -7.10356,-8.09309 -7.47042,-10.48612 -0.12802,-0.83512 0.86033,-2.54021 2.19635,-3.7891 2.36898,-2.2145 2.41826,-2.57346 1.99085,-14.5 -0.56285,-15.70545 0.18568,-22.33126 2.47977,-21.9505 1.16031,0.19258 1.81473,-0.58051 2.11625,-2.5 0.24007,-1.52834 0.31856,-0.81064 0.1744,1.59489 -0.14415,2.40552 -0.80926,4.71184 -1.47801,5.12515 -0.68037,0.4205 -0.94238,1.61327 -0.59487,2.70817 0.89528,2.8208 4.85033,2.27909 5.75298,-0.78797 0.49993,-1.69872 0.65655,-1.07907 0.52597,2.08096 -0.16033,3.87984 -0.46159,4.46036 -2.18596,4.21235 -1.86228,-0.26785 -1.84389,-0.16337 0.26707,1.51718 1.76912,1.40841 2.17863,2.56981 1.86442,5.28765 -0.26438,2.28683 -0.90703,3.44346 -1.87145,3.36821 -1.11558,-0.087 -1.50332,1.2356 -1.61235,5.5 -0.17872,6.98989 0.5454,8.12963 5.59535,8.80697 3.506,0.47026 4.4449,0.14543 7.20566,-2.49289 2.49641,-2.38571 3.18613,-3.88571 3.22943,-7.02337 0.0703,-5.09383 -0.8195,-6.48292 -3.69105,-5.76221 -2.13125,0.53491 -2.3194,0.22317 -2.64091,-4.37551 -0.45437,-6.49914 0.21492,-8.81799 2.44669,-8.47683 0.98607,0.15074 2.33181,-0.58895 2.99054,-1.64374 1.60006,-2.56209 2.70433,-2.42362 2.64911,0.33219 -0.0248,1.2375 0.37307,4.18034 0.88417,6.53965 0.94919,4.38161 2.17109,6.67521 2.19863,4.12702 0.013,-1.19819 0.15057,-1.2031 0.89237,-0.0318 0.53655,0.84722 0.66931,-0.45815 0.34196,-3.36241 -0.53399,-4.73756 -0.5308,-4.74361 1.55641,-2.95648 1.15032,0.98493 1.90934,2.08552 1.68671,2.44575 -0.61519,0.9954 2.84715,0.84138 4.15401,-0.18479 0.63072,-0.49525 0.91573,-1.78392 0.63336,-2.86369 -0.28236,-1.07978 -0.062,-1.96324 0.48974,-1.96324 1.67343,0 2.08693,6.28681 0.64462,9.8007 -0.9244,2.2521 -1.92023,3.20516 -3.13464,3 -1.40675,-0.23766 -1.71244,0.27578 -1.45828,2.4493 0.17686,1.5125 -0.12444,2.75 -0.66956,2.75 -0.7653,0 1.17195,6.96598 2.45771,8.83745 0.12751,0.18559 1.95498,0.7261 4.06106,1.20113 5.85031,1.31954 8.19323,-0.64447 7.82112,-6.55625 -0.15974,-2.53781 -0.56077,-4.88453 -0.89117,-5.21493 -0.97575,-0.97575 -0.68494,-12.2674 0.31594,-12.2674 0.50416,0 1.14364,0.5625 1.42105,1.25 0.27741,0.6875 0.53991,0.25163 0.58333,-0.96861 0.0561,-1.5775 -0.35451,-2.05228 -1.42105,-1.64301 -0.825,0.31658 -1.5,0.0775 -1.5,-0.53139 0,-0.60884 0.45,-1.10699 1,-1.10699 0.55,0 1,-0.87344 1,-1.94098 0,-2.22045 1.567,-3.56863 2.46293,-2.119 0.33061,0.53495 1.31364,0.69922 2.18449,0.36504 1.26695,-0.48617 1.43927,-0.15356 0.8623,1.66433 -0.91056,2.86892 -1.41103,13.22183 -0.69922,14.46459 0.29422,0.51369 0.56972,3.36259 0.61222,6.33088 0.0562,3.92216 0.55548,5.74651 1.82728,6.67627 3.37582,2.46794 1.58879,10.20171 -2.0359,8.81079 -1.01251,-0.38853 -1.29385,-0.18996 -0.81913,0.57815 0.43396,0.70215 0.0997,1.16993 -0.83595,1.16993 -0.85746,0 -1.55902,0.64521 -1.55902,1.43378 0,1.28564 -1.66573,1.37778 -5.87867,0.32521 -1.52942,-0.38212 -5.12133,1.50172 -5.12133,2.68595 0,0.7206 -0.675,1.87037 -1.5,2.55506 -0.9415,0.78137 -1.54319,3.15406 -1.616,6.37244 -0.0638,2.82016 -0.3129,4.38624 -0.55356,3.48019 -0.24066,-0.90606 -1.31346,-1.87643 -2.384,-2.15639 -1.77732,-0.46477 -1.94644,0.0414 -1.94644,5.82595 0,4.42571 -0.4736,6.80855 -1.57143,7.90638 -0.86428,0.86429 -1.73341,1.57143 -1.93138,1.57143 -0.19797,0 -0.58115,-4.1625 -0.85151,-9.25 z m 5.0166,-44 c -0.27741,-0.6875 -0.50439,-0.125 -0.50439,1.25 0,1.375 0.22698,1.9375 0.50439,1.25 0.27741,-0.6875 0.27741,-1.8125 0,-2.5 z m 109.93885,27.77739 c -3.24438,-1.33382 -6.33054,-2.85679 -6.85813,-3.38438 -0.52759,-0.52759 -3.04809,-5.1631 -5.60112,-10.30113 -4.31853,-8.69112 -4.83345,-9.31983 -7.39188,-9.02545 -2.57327,0.29608 -2.7463,0.61741 -2.69237,5 0.0317,2.57596 0.37631,6.48039 0.76581,8.67649 0.60917,3.43462 1.12544,4.06472 3.69237,4.50643 2.13272,0.367 3.07537,1.15366 3.30374,2.75709 0.31765,2.23022 0.23889,2.24356 -13.25,2.24356 h -13.56955 v -2.5 c 0,-2.08695 0.475,-2.5 2.875,-2.5 2.42,0 2.97391,-0.49456 3.5,-3.125 0.87583,-4.37916 0.75384,-37.12438 -0.14356,-38.53476 -0.40587,-0.63787 -2.08648,-1.31287 -3.73469,-1.5 -2.2169,-0.2517 -3.07991,-0.92576 -3.3163,-2.59024 l -0.31955,-2.25 h 18.66842 c 21.09494,0 24.17081,0.74096 26.89341,6.47841 3.06776,6.46482 0.85055,14.24778 -5.05084,17.72968 -3.02086,1.78236 -3.18062,2.12986 -2.1192,4.60979 2.12255,4.95922 9.45536,15.65262 13.11687,19.12829 7.29148,6.92138 2.72589,9.30675 -8.76843,4.58122 z M 569.0862,671.27857 c 9.93216,-4.14992 8.16216,-16.99695 -2.45434,-17.81412 l -3.5,-0.26941 -0.29135,8.91543 c -0.21103,6.45794 0.0646,9.14126 1,9.73469 1.64771,1.04534 1.29718,1.0832 5.24569,-0.56659 z m 49.79566,29.66778 -19.25,-0.2945 v -2.4784 c 0,-2.05879 0.48308,-2.47841 2.85326,-2.47841 2.83271,0 2.85793,-0.0551 3.5,-7.65087 0.82583,-9.76952 0.73691,-25.68168 -0.17239,-30.84913 -0.63425,-3.6044 -1.02415,-4.03099 -3.94237,-4.31335 -2.76993,-0.26802 -3.23852,-0.70209 -3.23864,-3 l -1.3e-4,-2.68665 13.75013,0.1906 c 13.64252,0.1891 13.75014,0.20867 13.75014,2.5 0,1.86078 -0.61404,2.36899 -3.16093,2.61612 l -3.16093,0.30671 -0.68826,9.19329 c -1.07231,14.32306 -0.3009,30.55896 1.51012,31.78351 1.56791,1.06017 12.98138,0.65735 14.89561,-0.52571 0.60742,-0.3754 1.10439,-2.45599 1.10439,-4.62353 0,-3.83732 0.0921,-3.94099 3.5,-3.94099 h 3.5 v 8.5 8.5 l -2.75,-0.2271 c -1.5125,-0.1249 -11.4125,-0.35962 -22,-0.52159 z m 40,4.4e-4 -12.25,-0.31331 v -2.46921 c 0,-2.05472 0.48403,-2.46923 2.88337,-2.46923 2.14483,0 3.03781,-0.5763 3.48634,-2.25 0.86519,-3.22842 0.7431,-38.02457 -0.13827,-39.40976 -0.40587,-0.63787 -2.08648,-1.31287 -3.73469,-1.5 -2.2169,-0.2517 -3.07991,-0.92576 -3.3163,-2.59024 -0.31641,-2.2279 -0.18873,-2.25206 13,-2.46065 26.04893,-0.41198 31.18025,0.62369 37.60068,7.58904 4.763,5.16724 6.7796,12.19358 5.82667,20.30154 -1.29716,11.03681 -5.93624,17.9253 -14.97132,22.23064 -6.94885,3.31122 -10.98463,3.78625 -28.38648,3.34118 z m 19.94831,-7.87113 c 5.92207,-3.02547 9.81573,-11.09959 9.77973,-20.27984 -0.044,-11.21231 -5.67952,-17.69843 -16.33287,-18.79795 l -5.39099,-0.5564 -0.7219,15.40318 c -0.80051,17.08073 -0.14126,24.38307 2.33353,25.84794 1.86853,1.10601 6.38651,0.39899 10.3325,-1.61693 z m 33.80169,7.2263 -4.5,-1.19673 -0.29206,-7.70509 -0.29207,-7.7051 h 3.54207 c 3.36376,0 3.54206,0.1717 3.54206,3.4108 0,3.03145 0.47999,3.64315 4.31572,5.5 8.67589,4.19992 17.68428,1.91957 17.68428,-4.47654 0,-5.75192 -2.72404,-7.40544 -14.73915,-8.94683 -6.88066,-0.8827 -11.39044,-3.98992 -13.16017,-9.0673 -4.06208,-11.65417 7.39956,-23.65929 22.47774,-23.54356 8.25835,0.0634 15.70801,1.93463 15.00416,3.76882 -0.2912,0.75886 -0.83098,4.32279 -1.19951,7.91984 l -0.67005,6.54009 -3.10651,-0.30266 c -2.08056,-0.2027 -3.00352,-0.77675 -2.79467,-1.73818 1.02646,-4.72515 -2.59833,-8.18339 -10.04096,-9.57964 -3.10413,-0.58233 -4.04812,-0.2985 -6.21544,1.86882 -3.41187,3.41186 -3.53578,8.9579 -0.24827,11.11196 1.26895,0.83144 6.08378,2.17102 10.69963,2.97684 4.61585,0.80582 9.54012,2.3168 10.94283,3.35774 5.50561,4.08566 6.54367,11.05582 2.7243,18.29252 -1.84412,3.49413 -3.62337,5.08066 -8.58737,7.65728 -5.45259,2.83022 -7.18644,3.23732 -13.42393,3.15182 -3.93945,-0.054 -9.18763,-0.6367 -11.66263,-1.2949 z m -575.25,-0.68701 c -1.19239,-0.69451 -1.75,-2.25961 -1.75,-4.91189 0,-3.54687 -0.92161,-4.89695 -10.37627,-15.20031 -5.70695,-6.21924 -11.75801,-12.60645 -13.44679,-14.19382 l -3.07051,-2.8861 -0.69746,2.7789 c -0.98427,3.92161 0.39119,25.54759 1.72726,27.15746 0.60976,0.73472 2.62856,1.33585 4.48621,1.33585 2.93606,0 3.37756,0.32679 3.37756,2.5 v 2.5 h -12 -11.999999 v -2.5 c 0,-2.09597 0.47197,-2.5 2.92041,-2.5 2.85672,0 2.93246,-0.13628 3.473299,-6.25 0.30409,-3.4375 0.82752,-12.15507 1.16317,-19.37238 l 0.61029,-13.12239 -2.987959,-2.12761 c -1.64337,-1.17019 -3.93098,-2.12762 -5.08358,-2.12762 -1.61941,0 -2.09569,-0.62491 -2.09589,-2.75 l -2.5e-4,-2.75 10.185029,0.17477 10.18503,0.17476 5.70328,6.82524 c 3.13681,3.75388 8.958,9.97523 12.93598,13.82523 l 7.23269,7 -0.61356,-9.3023 c -0.75569,-11.45717 -1.56849,-13.1977 -6.16312,-13.1977 -3.11286,0 -3.46493,-0.27934 -3.46595,-2.75 l -0.001,-2.75 h 11.75113 c 7.84108,0 12.00121,0.38733 12.50272,1.16406 1.25178,1.93893 -0.31798,4.33594 -2.83966,4.33594 -1.6576,0 -2.51411,0.67896 -2.83841,2.25 -1.28376,6.21901 -1.6941,13.28224 -1.72731,29.73246 l -0.0364,18.01754 -2.65498,-0.0304 c -1.46025,-0.0167 -3.44249,-0.48908 -4.40499,-1.04968 z m 176.46564,-0.81052 c -7.12673,-2.46171 -9.1957,-4.66106 -14.10723,-14.99624 -3.81659,-8.03112 -4.41132,-8.7779 -6.64993,-8.34996 -2.34393,0.44807 -2.45848,0.81018 -2.45848,7.7716 0,9.21889 0.48911,10.46521 4.10699,10.46521 2.41921,0 2.89301,0.40944 2.89301,2.5 v 2.5 h -12.94098 c -7.11754,0 -13.194,-0.40939 -13.50325,-0.90975 -1.15831,-1.8742 0.70937,-4.09025 3.44726,-4.09025 h 2.78905 l 0.66982,-14.25 c 0.36841,-7.8375 0.30269,-17.4 -0.14604,-21.25 -0.81267,-6.9726 -0.82858,-7.00122 -4.06586,-7.31335 -2.69173,-0.25954 -3.25,-0.73192 -3.25,-2.75 v -2.43665 h 18.54966 c 20.48787,0 23.16633,0.61632 25.93341,5.96727 1.77342,3.42941 1.97666,9.23862 0.43203,12.34848 -0.59669,1.20134 -2.71954,3.61634 -4.71744,5.36668 l -3.63254,3.18242 1.81491,3.81758 c 2.39323,5.03406 9.62732,15.07039 13.51819,18.75467 1.70598,1.6154 3.10178,3.5279 3.10178,4.25 0,1.87392 -5.46197,1.60616 -11.78436,-0.57771 z m -13.662,-30.73649 c 3.3061,-2.16624 4.98197,-7.66561 3.45753,-11.34592 -1.14331,-2.7602 -3.65568,-4.29324 -9.1215,-5.56589 -2.3172,-0.53954 -2.68216,-0.24863 -3.25,2.59056 -1.07242,5.3621 -0.72266,14.46537 0.60686,15.79489 1.41419,1.41419 4.82249,0.80957 8.30711,-1.47364 z m -340.108244,28.37849 c -1.042494,-4.74644 -10.690303,-31.15769 -14.219197,-38.9256 -2.597562,-5.71782 -3.44001,-6.72089 -5.879118,-7 -2.214239,-0.25337 -2.84708,-0.83952 -2.84708,-2.63702 0,-2.2892 0.126348,-2.31304 13.250148,-2.5 l 13.250147,-0.18877 -1.47e-4,2.75 c -1.23e-4,2.28922 -0.432355,2.75 -2.579603,2.75 -2.388937,0 -2.527084,0.24005 -1.870392,3.25 0.827641,3.7935 8.249568,25.56971 9.439637,27.69624 0.58128,1.03869 1.668414,-0.44179 3.837952,-5.2266 5.813136,-12.8206 5.783656,-12.59795 2.551857,-19.27249 -2.361062,-4.87623 -3.374799,-6.00412 -5.629599,-6.26357 -2.23818,-0.25753 -2.750027,-0.81588 -2.750148,-3 l -1.47e-4,-2.68358 13.250147,0.1822 13.2501485,0.1822 0.316422,2.5678 c 0.27753,2.25219 -0.04897,2.5678 -2.65638,2.5678 -3.6071695,0 -3.6952205,-0.6212 2.602787,18.36281 3.791801,11.42958 4.80478,13.58143 5.77124599,12.25971 2.04905101,-2.80225 10.58044901,-23.55339 11.16536651,-27.15782 0.55499,-3.42 0.515406,-3.4647 -3.0685995,-3.4647 -3.294205,0 -3.63086,-0.25496 -3.631035,-2.75 l -1.93e-4,-2.75 11.7501925,0.18253 c 11.567582,0.17968 11.750193,0.21854 11.750193,2.5 0,1.7543 -0.634597,2.39112 -2.61138,2.62052 -2.305685,0.26757 -3.605224,2.31617 -11.101236,17.5 -4.6694205,9.45833 -9.7942995,20.47144 -11.3886195,24.47358 l -2.89876401,7.27662 -4.27031599,-0.27662 -4.270317,-0.27663 -4.0687695,-12 c -2.237823,-6.6 -4.417185,-12.366 -4.843027,-12.81334 -0.665028,-0.6986 -4.846773,7.96243 -10.411288,21.56334 -1.450566,3.54551 -1.778071,3.75 -6.005801,3.75 -4.231367,0 -4.5099,-0.1745 -5.185087,-3.24861 z m 84.681705,1.08252 c -7.04477,-3.48706 -8.07864,-6.91745 -8.10514,-26.89278 -0.02355,-17.75981 -0.46688,-19.53598 -5.02196,-20.12038 -1.85239,-0.23766 -2.5,-0.91898 -2.5,-2.63015 0,-2.29133 0.107619,-2.3109 13.75014,-2.5 l 13.75013,-0.1906 -1.3e-4,2.75 c -1.3e-4,2.45276 -0.36227,2.75 -3.3504,2.75 h -3.35025 l -0.64975,9.15363 c -1.49896,21.11754 -0.49846,27.74833 4.66163,30.89465 7.80223,4.75735 18.39151,0.44168 20.81494,-8.48315 1.39872,-5.15109 1.30192,-23.73754 -0.14648,-28.12623 -0.94712,-2.86982 -1.60289,-3.3672 -4.78862,-3.63203 -3.10678,-0.25828 -3.69121,-0.67442 -3.69121,-2.62829 0,-2.29961 0.11282,-2.32143 12,-2.32143 11.88718,0 12,0.0218 12,2.32143 0,1.78909 -0.63061,2.39398 -2.75,2.63785 -1.5125,0.17403 -2.75445,0.62403 -2.75989,1 -0.1024,7.07875 -2.27102,30.76327 -3.10237,33.8826 -1.42797,5.35788 -6.77508,10.73385 -12.6761,12.74453 -6.90902,2.35413 -18.69988,2.05567 -24.08454,-0.60965 z m 123.372899,1.25033 c -11.92933,-0.58079 -12.16322,-0.66279 -11.65,-4.08424 0.0825,-0.55 1.45262,-1 3.04472,-1 h 2.89471 l 0.60757,-15.25 c 0.33416,-8.3875 0.26904,-17.95 -0.14472,-21.25 -0.73449,-5.85807 -0.82915,-6.00741 -4.00228,-6.31335 -2.65271,-0.25577 -3.25,-0.74394 -3.25,-2.65624 0,-2.33298 0.0623,-2.34459 14.75,-2.74768 18.10118,-0.49678 25.34243,0.43673 31.20578,4.02289 12.58758,7.69887 13.73673,29.59711 2.16064,41.1732 -7.54271,7.54271 -14.52708,9.13218 -35.61642,8.10542 z m 19.63088,-7.66876 c 3.57379,-1.8252 7.44738,-6.60756 8.88827,-10.9735 1.81854,-5.51023 0.89741,-17.72279 -1.59456,-21.14124 -2.67305,-3.66685 -9.9002,-7.30074 -14.51985,-7.30074 -4.78474,0 -4.87417,0.39636 -4.89109,21.67858 -0.0115,14.53048 0.23665,17.42886 1.61006,18.80228 1.77354,1.77354 5.735,1.37187 10.50717,-1.06538 z m 50.61912,7.83577 -19.75,-0.29353 v -2.47886 c 0,-2.05972 0.4828,-2.47886 2.8554,-2.47886 2.79555,0 2.86875,-0.14147 3.49289,-6.75 0.81524,-8.63207 0.66286,-29.98686 -0.23727,-33.25 -0.52431,-1.90074 -1.45923,-2.57511 -3.90032,-2.81335 -2.73968,-0.26739 -3.21076,-0.7075 -3.21109,-3 l -4e-4,-2.68665 h 22.49988 22.49988 l 5.2e-4,7.75 5.1e-4,7.75 h -3 c -2.6383,0 -3,-0.34693 -3,-2.87755 0,-4.07996 -1.69665,-5.03778 -10.19643,-5.75627 l -7.49075,-0.6332 -0.63764,6.10063 c -0.88093,8.42833 -0.44358,9.16639 5.43181,9.16639 4.77001,0 4.89301,-0.0754 4.89301,-3 0,-2.66666 0.33333,-3 3,-3 h 3 v 10.5 10.5 h -3 c -2.72727,0 -3,-0.3 -3,-3.3 0,-4.39038 -1.53937,-5.7 -6.7,-5.7 h -4.3 v 8.06575 c 0,10.66367 0.74376,11.93425 6.98596,11.93425 2.70358,0 7.18775,-0.48728 9.96482,-1.08286 4.86929,-1.04427 5.04922,-1.20464 5.04922,-4.5 0,-3.13015 0.25195,-3.41714 3,-3.41714 h 3 v 8 8 l -3.75,-0.22761 c -2.0625,-0.12518 -12.6375,-0.35969 -23.5,-0.52114 z M 339.77849,686.8237 c -5.62416,-16.73494 -11.82819,-32.1193 -13.85655,-34.36062 -0.88003,-0.97242 -2.6852,-1.76804 -4.01149,-1.76804 -2.0058,0 -2.35821,-0.43284 -2.09501,-2.57317 l 0.31642,-2.57318 h 13 13 l 0.31642,2.57318 c 0.26783,2.17801 -0.0777,2.57317 -2.25,2.57317 -1.41153,0 -2.56642,0.51399 -2.56642,1.14219 0,4.34795 9.83135,31.48996 10.9389,30.1997 0.39746,-0.46304 2.45705,-4.80645 4.57686,-9.65202 l 3.8542,-8.81013 -3.17564,-6.43987 c -2.64572,-5.36523 -3.59439,-6.43987 -5.68498,-6.43987 -2.07076,0 -2.50937,-0.48064 -2.50949,-2.75 l -1.5e-4,-2.75 13.25015,0.1822 13.25015,0.1822 0.31642,2.5678 c 0.2798,2.27062 -0.0407,2.5678 -2.76905,2.5678 -2.84909,0 -3.03814,0.21069 -2.46762,2.75 0.83886,3.73371 8.41349,26.37975 9.44903,28.25 0.87388,1.57828 3.10104,-2.81435 9.95628,-19.63679 3.72255,-9.13495 3.53554,-11.36321 -0.95368,-11.36321 -2.64029,0 -3.03138,-0.35478 -3.03138,-2.75 v -2.75 h 11.5 11.5 v 2.75 c 0,2.26097 -0.44115,2.75 -2.48071,2.75 -2.22459,0 -3.40125,1.88412 -11.39734,18.25 -4.90416,10.0375 -9.97534,21.07359 -11.2693,24.52464 l -2.35265,6.27463 -4.41425,-0.27463 -4.41425,-0.27464 -2.82356,-8.5 c -1.55296,-4.675 -3.56455,-10.47345 -4.47019,-12.88546 -1.96074,-5.22203 -1.64066,-5.61007 -8.56663,10.38546 l -4.76293,11 -4.27409,0.29116 -4.2741,0.29114 z"
       id="path31" />
    <path
       style="fill:#000000;stroke-width:0.347787"
       d="m 190.67836,48.378564 c -0.28995,-0.689873 -0.62787,-1.707151 -0.75093,-2.260616 -0.16805,-0.755759 -0.58895,-1.167337 -1.69058,-1.653098 -0.80676,-0.355737 -1.7386,-0.786124 -2.07075,-0.956414 -0.33214,-0.170291 -0.84078,-0.309618 -1.1303,-0.309618 -0.28952,0 -0.5264,-0.156504 -0.5264,-0.347787 0,-0.191282 -0.29997,-0.347787 -0.6666,-0.347787 -0.36662,0 -0.71874,-0.117378 -0.78251,-0.26084 -0.0637,-0.143462 -0.61823,-0.612974 -1.23215,-1.043361 -1.30608,-0.915608 -2.5788,-0.9981 -3.73283,-0.241942 -0.56181,0.368109 -0.89893,0.420993 -1.05668,0.16576 -0.25622,-0.41457 0.53082,-2.445275 0.94772,-2.445275 0.54694,0 0.23378,-1.258567 -0.43269,-1.738935 -0.38257,-0.27574 -0.69557,-0.634476 -0.69557,-0.797194 0,-0.16272 -0.22368,-0.519535 -0.49707,-0.792923 -0.2734,-0.273388 -0.67619,-1.359846 -0.8951,-2.41435 -0.21892,-1.054505 -0.543,-1.827685 -0.72019,-1.718177 -0.17718,0.109506 -0.34172,-0.04489 -0.36562,-0.343103 -0.0469,-0.584422 -0.16523,-1.133485 -0.30432,-1.411673 -0.13252,-0.265029 -0.25606,-0.81585 -0.30431,-1.356795 -0.0549,-0.616193 -2.27854,-1.947183 -3.253,-1.947183 -0.40439,0 -1.02001,-0.257693 -1.36803,-0.572652 -0.59984,-0.542846 -0.60127,-0.596581 -0.0273,-1.032301 0.33296,-0.252805 1.02841,-0.464624 1.54544,-0.470708 1.00601,-0.01183 2.74499,-0.668913 3.10381,-1.172789 0.12002,-0.16853 0.14089,-0.602102 0.0464,-0.963493 -0.0945,-0.361391 0.002,-0.657075 0.21651,-0.657075 0.21358,0 0.38834,-0.528601 0.38834,-1.174669 0,-0.646069 0.23062,-1.366064 0.51248,-1.599989 0.28186,-0.233924 0.61519,-0.972838 0.74074,-1.642029 0.14088,-0.750957 0.32851,-1.054481 0.49017,-0.79291 0.16821,0.272162 0.40637,-0.01386 0.66561,-0.799363 0.22202,-0.67274 0.70007,-1.564913 1.06234,-1.982607 0.60342,-0.695746 0.60325,-1.640885 -3.5e-4,-2.094257 -0.12734,-0.09564 -0.3341,-0.700723 -0.45949,-1.3446294 -0.22166,-1.138346 -0.20154,-1.16403 0.72783,-0.928405 2.36086,0.598561 3.38872,0.586181 4.08589,-0.04921 0.38256,-0.348668 1.16509,-0.868449 1.73894,-1.155069 0.57384,-0.2866185 1.12161,-0.6004619 1.21725,-0.6974285 0.27971,-0.2835945 2.60821,-1.0420606 3.19913,-1.0420606 0.78062,0 1.37255,-0.850534 1.56001,-2.2414952 0.31776,-2.3579722 0.65748,-3.14920396 1.35215,-3.14920396 0.62523,0 0.66632,0.2576417 0.60797,3.81250596 -0.0511,3.1087623 -0.16961,3.8907713 -0.64243,4.2365043 -0.31893,0.233199 -0.78527,0.345171 -1.03634,0.248827 -0.25107,-0.09634 -0.93849,0.07408 -1.5276,0.378722 -0.5891,0.30464 -1.19012,0.570646 -1.33559,0.591124 -1.12503,0.1583774 -4.03143,2.1140894 -5.48452,3.6905284 -1.61038,1.747057 -1.66896,1.834983 -3.04722,4.572837 -1.5074,2.994377 -1.76782,5.249002 -0.6063,5.249002 0.90361,0 3.79435,0.692001 4.77807,1.143796 l 0.77351,0.355262 -0.73978,0.641619 c -0.40688,0.352892 -1.22448,0.642493 -1.81689,0.64356 -0.59239,0.0011 -1.66462,0.165105 -2.38272,0.364529 -1.29762,0.360363 -1.30428,0.371566 -1.08616,1.823943 0.39787,2.649238 3.03813,7.89541 3.97353,7.89541 0.18211,0 0.33109,0.234756 0.33109,0.521681 0,0.286925 0.12163,0.521682 0.27029,0.521682 0.14864,0 0.81378,0.473178 1.47808,1.051506 1.48163,1.289877 1.85379,1.583492 2.07729,1.638832 0.0957,0.02369 0.6434,0.224465 1.21725,0.446179 0.57385,0.221714 1.29951,0.455073 1.61258,0.518571 0.31307,0.06349 0.90474,0.323484 1.31482,0.577745 0.63177,0.391723 0.79625,0.382659 1.07744,-0.05939 0.18252,-0.286926 0.34417,-0.365177 0.35924,-0.173894 0.20279,2.575519 0.19706,7.081643 -0.01,7.634283 -0.23923,0.639397 -0.32078,0.583746 -0.7938,-0.54171 z m 4.8014,0.409234 c -0.32185,-0.520773 -0.11805,-5.994162 0.25133,-6.74982 0.22568,-0.461693 0.54381,-0.581086 1.14577,-0.430004 0.51782,0.129965 1.32803,-0.05599 2.13994,-0.491148 0.71864,-0.385167 1.58282,-0.700304 1.92039,-0.700304 0.33758,0 0.61377,-0.182588 0.61377,-0.405752 0,-0.223162 0.0872,-0.318476 0.19395,-0.21181 0.10667,0.106671 0.68931,-0.258506 1.29476,-0.811501 0.60545,-0.552996 1.30069,-1.005446 1.545,-1.005446 0.24428,0 0.44552,-0.117378 0.44718,-0.26084 0.002,-0.143462 0.51944,-0.808606 1.15065,-1.478097 1.16836,-1.23924 2.26476,-3.096844 3.02775,-5.129857 0.23331,-0.621669 0.53234,-1.130308 0.6645,-1.130308 0.19668,0 0.24715,-2.296642 0.0702,-3.19572 -0.0522,-0.265351 -3.09904,-0.815039 -3.78583,-0.683015 -0.23911,0.04596 -0.43474,-0.09653 -0.43474,-0.316673 0,-0.220133 -0.22975,-0.312081 -0.51054,-0.204328 -0.28081,0.107752 -0.60462,0.0437 -0.71961,-0.142358 -0.11498,-0.186048 -0.35475,-0.248229 -0.53281,-0.138178 -0.17808,0.11005 -0.32376,0.03434 -0.32376,-0.168221 0,-0.335448 0.76186,-0.533667 1.52009,-0.395498 0.16656,0.03035 1.06294,-0.19728 1.99196,-0.50585 0.92902,-0.308569 1.83275,-0.472272 2.00829,-0.363784 0.3085,0.190668 0.84277,-0.652613 0.86405,-1.363796 0.024,-0.80211 -0.60039,-2.815812 -1.20915,-3.899657 -0.35971,-0.640426 -0.65401,-1.498744 -0.65401,-1.907372 0,-0.408628 -0.0938,-0.64917 -0.20842,-0.534538 -0.11463,0.114633 -0.9898,-0.730489 -1.94481,-1.878048 -0.95501,-1.147559 -1.95584,-2.17069 -2.22408,-2.273623 -0.26825,-0.102934 -0.38618,-0.351439 -0.26208,-0.552232 0.13222,-0.213953 0.0584,-0.261748 -0.17827,-0.115459 -0.22215,0.137292 -0.83321,-0.05204 -1.35793,-0.420732 -0.52473,-0.368695 -1.54094,-0.879544 -2.25824,-1.1352204 -0.71732,-0.255677 -1.30421,-0.58993 -1.30421,-0.742786 0,-0.152856 -0.67066,-0.27792 -1.49035,-0.27792 h -1.49035 l -0.0808,-3.2170304 c -0.0445,-1.7693667 -0.15985,-3.4688169 -0.25643,-3.7765559 -0.20427,-0.6507822 0.683,-1.51822826 1.21598,-1.18882506 0.19967,0.1233979 0.36303,0.66547276 0.36303,1.20461066 0,0.5391381 0.23476,1.1750817 0.52169,1.4132077 0.28692,0.2381259 0.52167,0.876214 0.52167,1.4179738 0,0.869341 0.15317,1.0094866 1.3042,1.1933835 1.57669,0.2519022 4.60575,1.63244 4.38071,1.9965727 -0.0887,0.143599 0.16088,0.261089 0.55474,0.261089 0.39385,0 0.7161,0.156504 0.7161,0.347787 0,0.191282 0.22421,0.347787 0.49824,0.347787 0.27404,0 0.60414,0.333686 0.73359,0.741526 0.16549,0.5214144 0.31441,0.6136284 0.50165,0.310656 0.17098,-0.276668 0.34457,-0.3042 0.48503,-0.07693 0.12032,0.194667 0.41376,0.3057134 0.65211,0.246768 1.29866,-0.32117 1.9984,-0.641487 1.9984,-0.914799 0,-0.168973 0.17427,-0.307224 0.38727,-0.307224 0.45316,0 0.0982,3.1022484 -0.41588,3.6343754 -0.44427,0.459873 -0.40141,1.32651 0.0517,1.046449 0.45712,-0.282517 1.4052,0.896385 1.19683,1.488225 -0.0834,0.236808 0.0257,0.393312 0.24222,0.347786 0.21659,-0.04552 0.54654,0.543242 0.73322,1.308373 0.18668,0.765132 0.43422,1.469401 0.5501,1.565042 0.63449,0.523709 1.08014,1.9254 1.08014,3.397297 0,1.559961 0.0606,1.672812 0.93693,1.745341 0.51532,0.04265 1.02396,0.217091 1.13031,0.38765 0.10635,0.170558 0.89764,0.504048 1.75842,0.74109 0.89475,0.246399 1.34161,0.507085 1.04336,0.60867 -0.28693,0.09773 -0.64684,0.389495 -0.79981,0.648371 -0.15296,0.258875 -0.604,0.470683 -1.00231,0.470683 -0.3983,0 -1.25129,0.325773 -1.89554,0.723939 -0.93596,0.578455 -1.17136,0.948082 -1.17136,1.839292 0,0.613445 -0.29595,1.695841 -0.65766,2.405326 -0.36173,0.709485 -0.76199,1.705628 -0.8895,2.213652 -0.27635,1.101069 -2.17583,3.946976 -2.63439,3.946976 -0.19657,0 -0.19871,0.325487 -0.006,0.833708 0.17434,0.458536 0.22263,0.928049 0.10733,1.043361 -0.11531,0.115309 -0.0271,0.209653 0.1961,0.209653 0.54644,0 0.52039,1.642397 -0.029,1.827242 -0.59852,0.201375 -1.65199,-0.10259 -1.65199,-0.476656 0,-0.584943 -1.63381,-0.304273 -2.26062,0.38835 -0.34622,0.382566 -0.83998,0.695573 -1.09726,0.695573 -0.25727,0 -0.46778,0.156505 -0.46778,0.347787 0,0.191283 -0.31301,0.347788 -0.69558,0.347788 -0.38256,0 -0.69556,0.156504 -0.69556,0.347787 0,0.191282 -0.4005,0.347786 -0.89,0.347786 -0.50476,0 -0.79696,0.150536 -0.67505,0.347787 0.11821,0.191283 -0.0237,0.347787 -0.31547,0.347787 -1.13673,0 -2.94291,1.162131 -3.16184,2.034385 -0.16934,0.674723 -0.29379,0.769784 -0.52274,0.399321 -0.20344,-0.329183 -0.33612,0.0049 -0.41084,1.034469 -0.10619,1.463431 -0.67499,2.175411 -1.13863,1.425231 z M 193.42863,38.59064 c -0.094,-1.769368 -0.2777,-3.882172 -0.40818,-4.695124 -0.15039,-0.937117 -0.10589,-1.478096 0.12159,-1.478096 0.19735,0 0.40942,-0.262706 0.47127,-0.583793 0.10527,-0.546532 0.14971,-0.546532 0.69623,0 0.90472,0.904725 1.08959,0.707387 0.83781,-0.894301 -0.29697,-1.889194 -0.95377,-3.390924 -1.48306,-3.390924 -0.59227,0 -1.19219,1.849551 -1.18446,3.651764 0.002,0.573848 -0.29535,2.151567 -0.66181,3.506041 -0.36646,1.354473 -0.57753,2.802137 -0.46901,3.217029 0.15382,0.588247 0.0441,0.75435 -0.49831,0.75435 -0.85475,0 -1.11342,-0.854412 -1.11974,-3.698711 -0.004,-1.891794 -0.10372,-2.198515 -0.87777,-2.705688 -1.00812,-0.660541 -2.23786,-0.248697 -2.28453,0.765096 -0.0169,0.366233 -0.0955,0.427785 -0.20359,0.159492 -0.0968,-0.240297 -0.30705,-0.355991 -0.46707,-0.257102 -0.32308,0.199671 -2.47052,-2.814675 -2.5981,-3.646939 -0.0446,-0.290443 0.2992,-0.883453 0.76385,-1.3178 0.82391,-0.770173 0.84104,-0.895015 0.6924,-5.042913 -0.19576,-5.462149 0.0646,-7.766521 0.86243,-7.634098 0.40354,0.06697 0.63114,-0.201893 0.736,-0.869468 0.0835,-0.531535 0.11079,-0.281928 0.0607,0.554682 -0.0501,0.83661 -0.28145,1.638718 -0.51404,1.782462 -0.23662,0.146243 -0.32774,0.561075 -0.20688,0.941865 0.31137,0.981039 1.68688,0.792639 2.00081,-0.274046 0.17387,-0.590791 0.22835,-0.375285 0.18293,0.723734 -0.0558,1.349356 -0.16054,1.551255 -0.76026,1.464999 -0.64767,-0.09315 -0.64128,-0.05682 0.0929,0.527655 0.61528,0.489827 0.7577,0.893747 0.64842,1.838977 -0.0919,0.79533 -0.31545,1.197592 -0.65086,1.171418 -0.38799,-0.03028 -0.52284,0.429727 -0.56076,1.912829 -0.0622,2.430995 0.18968,2.827382 1.94599,3.062952 1.21934,0.163549 1.54588,0.05058 2.50604,-0.866996 0.86822,-0.829719 1.10809,-1.351397 1.12314,-2.442635 0.0245,-1.77157 -0.28499,-2.254678 -1.28369,-2.004023 -0.74122,0.186035 -0.80666,0.07762 -0.91848,-1.521747 -0.15802,-2.260315 0.0748,-3.066783 0.85093,-2.948132 0.34294,0.05243 0.81097,-0.204826 1.04008,-0.57167 0.55647,-0.891062 0.94052,-0.842902 0.92132,0.115532 -0.009,0.430388 0.12975,1.453868 0.3075,2.274403 0.33012,1.523868 0.75507,2.321555 0.76466,1.435326 0.005,-0.416715 0.0524,-0.418422 0.31035,-0.01106 0.18661,0.294653 0.23278,-0.159338 0.11893,-1.169405 -0.18572,-1.64766 -0.1846,-1.649765 0.5413,-1.028225 0.40007,0.342548 0.66404,0.725319 0.58661,0.8506 -0.21395,0.346188 0.9902,0.292622 1.44472,-0.06427 0.21936,-0.172243 0.31848,-0.620422 0.22028,-0.995954 -0.0982,-0.375534 -0.0216,-0.682787 0.17032,-0.682787 0.58199,0 0.7258,2.186469 0.22419,3.408553 -0.32149,0.783254 -0.66784,1.114714 -1.0902,1.04336 -0.48924,-0.08266 -0.59556,0.09592 -0.50717,0.851838 0.0615,0.526028 -0.0432,0.956415 -0.23285,0.956415 -0.26616,0 0.40758,2.422677 0.85475,3.073548 0.0443,0.06455 0.67991,0.252529 1.41239,0.417737 2.03466,0.45892 2.84949,-0.224138 2.72009,-2.280179 -0.0556,-0.882616 -0.19504,-1.698774 -0.30995,-1.813683 -0.33935,-0.339354 -0.23821,-4.266442 0.10989,-4.266442 0.17534,0 0.39774,0.19563 0.49422,0.434734 0.0965,0.239104 0.18778,0.08751 0.20287,-0.336872 0.0195,-0.548632 -0.12329,-0.713757 -0.49422,-0.571417 -0.28692,0.110103 -0.52168,0.02694 -0.52168,-0.18481 0,-0.211747 0.1565,-0.384995 0.34779,-0.384995 0.19128,0 0.34778,-0.303772 0.34778,-0.67505 0,-0.772242 0.54499,-1.241124 0.85658,-0.736961 0.11497,0.186048 0.45686,0.243178 0.75974,0.126956 0.44063,-0.169085 0.50055,-0.05341 0.2999,0.578833 -0.31668,0.997774 -0.49075,4.598382 -0.24319,5.030598 0.10233,0.178652 0.19814,1.169463 0.21292,2.201798 0.0195,1.364076 0.1932,1.998559 0.6355,2.321919 1.17408,0.858315 0.55256,3.548024 -0.70805,3.064279 -0.35214,-0.135128 -0.44999,-0.06607 -0.28488,0.201071 0.15092,0.244201 0.0347,0.406889 -0.29074,0.406889 -0.29821,0 -0.5422,0.224393 -0.5422,0.498651 0,0.447126 -0.57932,0.479173 -2.04453,0.113102 -0.53191,-0.132896 -1.78112,0.522277 -1.78112,0.93414 0,0.250615 -0.23476,0.650491 -0.52169,0.888617 -0.32744,0.271751 -0.5367,1.096941 -0.56202,2.216251 -0.0222,0.980814 -0.10883,1.525478 -0.19252,1.210366 -0.0837,-0.315118 -0.45681,-0.6526 -0.82913,-0.749966 -0.61813,-0.161641 -0.67695,0.0144 -0.67695,2.026191 0,1.539205 -0.16471,2.367926 -0.54652,2.749737 -0.30059,0.300588 -0.60285,0.546522 -0.67171,0.546522 -0.0689,0 -0.20212,-1.447663 -0.29614,-3.21703 z m 1.74472,-15.30263 c -0.0964,-0.239102 -0.17543,-0.04347 -0.17543,0.434735 0,0.478207 0.0789,0.673837 0.17543,0.434733 0.0965,-0.239102 0.0965,-0.630363 0,-0.869468 z m 38.2353,9.660616 c -1.12836,-0.463886 -2.20168,-0.993557 -2.38517,-1.177046 -0.18349,-0.183488 -1.06009,-1.795657 -1.948,-3.582597 -1.50193,-3.022659 -1.681,-3.241318 -2.57079,-3.138937 -0.89496,0.102976 -0.95513,0.214729 -0.93637,1.738936 0.011,0.895888 0.13087,2.253796 0.26633,3.017573 0.21186,1.194517 0.39142,1.413656 1.28416,1.567278 0.74173,0.127636 1.06957,0.401228 1.149,0.958877 0.11048,0.775645 0.0831,0.780284 -4.60819,0.780284 h -4.7193 v -0.869468 c 0,-0.725815 0.1652,-0.869467 0.99988,-0.869467 0.84165,0 1.03428,-0.172004 1.21726,-1.086834 0.3046,-1.523017 0.26218,-12.911378 -0.05,-13.401893 -0.14116,-0.221843 -0.72566,-0.456599 -1.29888,-0.52168 -0.77101,-0.08754 -1.07115,-0.321965 -1.15337,-0.900849 l -0.11114,-0.782521 h 6.49264 c 7.33655,0 8.4063,0.257694 9.35317,2.253104 1.06694,2.248383 0.29582,4.955192 -1.75661,6.166155 -1.05061,0.61988 -1.10618,0.740737 -0.73702,1.603225 0.73819,1.724751 3.28844,5.443778 4.56187,6.652571 2.53588,2.407168 0.94802,3.236768 -3.04955,1.593289 z m -5.26785,-10.0663 c 3.45426,-1.443288 2.83869,-5.91132 -0.8536,-6.195522 l -1.21725,-0.09369 -0.10132,3.100671 c -0.0734,2.245988 0.0224,3.17921 0.34778,3.385598 0.57305,0.363556 0.45114,0.376724 1.82439,-0.197053 z m 17.31827,10.31807 -6.69489,-0.102423 v -0.861956 c 0,-0.716021 0.168,-0.861958 0.99232,-0.861958 0.98518,0 0.99396,-0.01917 1.21725,-2.660876 0.28723,-3.397712 0.25629,-8.931755 -0.06,-10.728924 -0.22058,-1.253565 -0.35618,-1.401927 -1.3711,-1.50013 -0.96334,-0.09321 -1.12631,-0.244175 -1.12636,-1.043361 l -4e-5,-0.934379 4.78212,0.06629 c 4.74469,0.06577 4.78211,0.07257 4.78211,0.869468 0,0.647155 -0.21355,0.823904 -1.09933,0.909853 l -1.09932,0.106672 -0.23938,3.197305 c -0.37292,4.981374 -0.10465,10.62801 0.52521,11.053891 0.54529,0.368713 4.51475,0.22862 5.18049,-0.182834 0.21126,-0.130559 0.3841,-0.854161 0.3841,-1.608004 0,-1.334568 0.0319,-1.370623 1.21725,-1.370623 h 1.21725 v 2.95619 2.95619 l -0.95641,-0.07898 c -0.52603,-0.04344 -3.96911,-0.125071 -7.65132,-0.181403 z m 13.91149,1.54e-4 -4.26038,-0.108965 v -0.858763 c 0,-0.714603 0.16833,-0.858763 1.00279,-0.858763 0.74594,0 1.05651,-0.200431 1.2125,-0.782521 0.30091,-1.122805 0.25845,-13.224452 -0.0481,-13.706206 -0.14116,-0.221843 -0.72564,-0.456599 -1.29888,-0.52168 -0.771,-0.08754 -1.07115,-0.321965 -1.15336,-0.900849 -0.11004,-0.774836 -0.0657,-0.783241 4.52123,-0.855784 9.05948,-0.143281 10.84409,0.216911 13.07704,2.639368 1.6565,1.797099 2.35784,4.240771 2.02643,7.060616 -0.45114,3.838458 -2.06455,6.234185 -5.20683,7.731526 -2.41672,1.151601 -3.82031,1.316811 -9.87245,1.162021 z m 6.93776,-2.737479 c 2.05962,-1.052218 3.41379,-3.860295 3.40126,-7.053065 -0.0153,-3.899497 -1.97525,-6.155283 -5.68036,-6.537683 l -1.87491,-0.193508 -0.25107,5.357025 c -0.2784,5.940458 -0.0491,8.480115 0.81157,8.98958 0.64986,0.384655 2.22115,0.138763 3.59351,-0.562349 z m 11.75579,2.513215 -1.56504,-0.416207 -0.10157,-2.679733 -0.10158,-2.679731 h 1.23188 c 1.16988,0 1.23189,0.05971 1.23189,1.186229 0,1.054301 0.16694,1.267042 1.50094,1.91283 3.01738,1.460679 6.15037,0.6676 6.15037,-1.556881 0,-2.000444 -0.94739,-2.575517 -5.12609,-3.111593 -2.393,-0.306992 -3.96144,-1.387644 -4.57693,-3.153489 -1.41274,-4.05317 2.57347,-8.228394 7.81747,-8.188147 2.87214,0.02204 5.46304,0.67284 5.21825,1.31075 -0.10128,0.263922 -0.289,1.503409 -0.41717,2.754416 l -0.23303,2.274558 -1.08042,-0.10526 c -0.72359,-0.0705 -1.04458,-0.270144 -0.97195,-0.604518 0.357,-1.643344 -0.90365,-2.846076 -3.49211,-3.331672 -1.07957,-0.20253 -1.40788,-0.103817 -2.16165,0.64995 -1.1866,1.186602 -1.2297,3.115441 -0.0863,3.864595 0.44132,0.289164 2.11586,0.755054 3.72119,1.035308 1.60533,0.280254 3.31793,0.805752 3.80577,1.167776 1.91479,1.42094 2.2758,3.845072 0.94749,6.361903 -0.64137,1.215211 -1.26017,1.766987 -2.98659,2.663104 -1.89633,0.984314 -2.49934,1.125897 -4.66867,1.096162 -1.37009,-0.01878 -3.19533,-0.221437 -4.05611,-0.45035 z M 77.999621,32.737349 c -0.414698,-0.241537 -0.608627,-0.785861 -0.608627,-1.708291 0,-1.233555 -0.320524,-1.703094 -3.608736,-5.286469 -1.984802,-2.162971 -4.089278,-4.384361 -4.676612,-4.936425 l -1.067885,-1.003751 -0.242569,0.966468 c -0.342316,1.363885 0.136047,8.88512 0.600721,9.445012 0.212066,0.255525 0.914174,0.464593 1.56024,0.464593 1.021129,0 1.174677,0.113651 1.174677,0.869467 v 0.869467 h -4.173451 -4.173442 v -0.869467 c 0,-0.728952 0.16415,-0.869467 1.015685,-0.869467 0.993523,0 1.019873,-0.0474 1.207964,-2.173669 0.105764,-1.195519 0.287807,-4.227378 0.40454,-6.737467 l 0.212245,-4.563796 -1.039168,-0.739955 c -0.571548,-0.406977 -1.367145,-0.739956 -1.768003,-0.739956 -0.563214,0 -0.728858,-0.217338 -0.728924,-0.956414 l -9e-5,-0.956415 3.542226,0.06078 3.542217,0.06078 1.983529,2.37373 c 1.090936,1.305551 3.115475,3.469257 4.498968,4.808237 l 2.515433,2.43451 -0.213389,-3.235221 c -0.262819,-3.984656 -0.5455,-4.589988 -2.143451,-4.589988 -1.082612,0 -1.205059,-0.09715 -1.20541,-0.956414 l -3.51e-4,-0.956414 h 4.08689 c 2.727025,0 4.173865,0.134707 4.348284,0.404844 0.435353,0.674335 -0.11059,1.507984 -0.987598,1.507984 -0.576492,0 -0.874375,0.236131 -0.987162,0.782521 -0.446475,2.16289 -0.589186,4.61939 -0.600736,10.340563 l -0.01266,6.266268 -0.923367,-0.01058 c -0.507856,-0.0058 -1.197253,-0.170095 -1.531998,-0.365068 z m 61.372449,-0.281884 c -2.47858,-0.856151 -3.19814,-1.621057 -4.9063,-5.215501 -1.32735,-2.793119 -1.5342,-3.052837 -2.31276,-2.904007 -0.81519,0.155834 -0.85503,0.281773 -0.85503,2.702864 0,3.206209 0.17012,3.639665 1.42836,3.639665 0.84137,0 1.00615,0.142395 1.00615,0.869467 v 0.869467 h -4.5007 c -2.47539,0 -4.58871,-0.142381 -4.69626,-0.316402 -0.40284,-0.65182 0.24671,-1.422532 1.19891,-1.422532 h 0.97 l 0.23295,-4.955966 c 0.12813,-2.725781 0.10528,-6.051494 -0.0508,-7.390474 -0.28263,-2.424982 -0.28816,-2.434936 -1.41405,-2.543492 -0.93615,-0.09026 -1.13031,-0.25455 -1.13031,-0.956413 v -0.847433 h 6.45133 c 7.12542,0 8.05695,0.214345 9.01931,2.075338 0.61677,1.192704 0.68745,3.213073 0.15026,4.294639 -0.20752,0.417811 -0.94583,1.257719 -1.64067,1.866463 l -1.26335,1.106805 0.6312,1.327703 c 0.83233,1.750782 3.34826,5.241287 4.70145,6.522631 0.59332,0.561816 1.07876,1.226958 1.07876,1.478095 0,0.651728 -1.8996,0.558604 -4.09845,-0.200917 z m -4.75146,-10.689754 c 1.14983,-0.75339 1.73267,-2.665999 1.2025,-3.945964 -0.39764,-0.959962 -1.27141,-1.493132 -3.17235,-1.935746 -0.80589,-0.187643 -0.93282,-0.08647 -1.1303,0.900965 -0.37298,1.864867 -0.25134,5.030866 0.21105,5.493256 0.49183,0.491837 1.6772,0.281562 2.8891,-0.512511 z M 16.33538,31.635382 C 15.972811,29.98463 12.617429,20.799142 11.390127,18.097565 10.486728,16.108978 10.193738,15.760125 9.3454435,15.663055 8.5753639,15.574934 8.3552666,15.371079 8.3552666,14.74593 c 0,-0.796153 0.043915,-0.804443 4.6082334,-0.869468 l 4.608225,-0.06565 -4.9e-5,0.956414 c -4.1e-5,0.79616 -0.150363,0.956415 -0.897155,0.956415 -0.830842,0 -0.878888,0.08348 -0.650497,1.130308 0.287847,1.319329 2.869093,8.892811 3.28298,9.632392 0.202165,0.361243 0.580258,-0.153649 1.334796,-1.817745 2.021729,-4.458837 2.011477,-4.381405 0.887499,-6.702721 -0.821146,-1.695889 -1.173706,-2.088157 -1.957899,-2.178388 -0.778413,-0.08957 -0.956425,-0.283753 -0.956465,-1.043362 l -4.9e-5,-0.933313 4.608225,0.06337 4.608233,0.06337 0.11004,0.893047 c 0.09653,0.78328 -0.01706,0.893048 -0.923854,0.893048 -1.254517,0 -1.285142,-0.216047 0.90522,6.386345 1.318739,3.975062 1.671038,4.723445 2.007167,4.263767 0.712632,-0.974584 3.679742,-8.191562 3.883163,-9.445135 0.193022,-1.189433 0.179259,-1.204977 -1.067216,-1.204977 -1.145683,0 -1.262768,-0.08867 -1.262825,-0.956415 l -6.6e-5,-0.956414 4.08656,0.06348 c 4.023061,0.0625 4.086566,0.076 4.086566,0.869468 0,0.610124 -0.220701,0.831601 -0.908199,0.911384 -0.801889,0.09306 -1.253854,0.805533 -3.860871,6.086273 -1.623964,3.289483 -3.406325,7.119701 -3.960813,8.511595 l -1.008151,2.530715 -1.485159,-0.0962 -1.485167,-0.09621 -1.415059,-4.173444 c -0.778291,-2.295394 -1.536241,-4.300736 -1.684344,-4.456315 -0.231288,-0.242964 -1.685649,2.769228 -3.620913,7.499452 -0.504484,1.233081 -0.618393,1.304201 -2.088738,1.304201 -1.471617,0 -1.568483,-0.06069 -1.803305,-1.129825 z m 29.451195,0.376484 c -2.450081,-1.212752 -2.809645,-2.405799 -2.818861,-9.352956 -0.0081,-6.176632 -0.162371,-6.794364 -1.746576,-6.997611 -0.644235,-0.08266 -0.869468,-0.319609 -0.869468,-0.914732 0,-0.796895 0.03747,-0.8037 4.782123,-0.869467 l 4.782122,-0.06629 -4.9e-5,0.956414 c -4.2e-5,0.853036 -0.12599,0.956415 -1.165225,0.956415 h -1.165176 l -0.225974,3.183512 c -0.521315,7.344406 -0.173358,9.65051 1.621255,10.74476 2.713513,1.654543 6.396332,0.153609 7.239165,-2.950329 0.486461,-1.791486 0.45279,-8.25561 -0.05094,-9.781941 -0.329395,-0.998083 -0.557459,-1.171067 -1.665414,-1.263175 -1.080505,-0.08982 -1.283763,-0.23455 -1.283763,-0.914084 0,-0.799772 0.03927,-0.807362 4.173451,-0.807362 4.134204,0 4.173441,0.0075 4.173441,0.807362 0,0.622223 -0.219313,0.832598 -0.956415,0.91741 -0.526025,0.06053 -0.957959,0.217031 -0.959853,0.347787 -0.03559,2.461901 -0.789833,10.699068 -1.078962,11.783929 -0.496631,1.863401 -2.356284,3.733095 -4.408584,4.432383 -2.402868,0.818739 -6.503572,0.714938 -8.376294,-0.212029 z m 42.907501,0.434851 c -4.148869,-0.201993 -4.230213,-0.23051 -4.051722,-1.420444 0.02869,-0.191283 0.505202,-0.347787 1.058913,-0.347787 h 1.006744 l 0.211304,-5.303753 c 0.116216,-2.917064 0.09357,-6.242777 -0.05033,-7.390474 -0.255446,-2.037364 -0.288368,-2.089301 -1.39194,-2.195705 -0.922579,-0.08895 -1.130309,-0.25873 -1.130309,-0.923804 0,-0.81138 0.02166,-0.815417 5.129861,-0.955608 6.295352,-0.172773 8.813771,0.151888 10.852953,1.39911 4.37781,2.677566 4.77747,10.293492 0.75145,14.319506 -2.623249,2.623256 -5.052328,3.176054 -12.386924,2.818959 z m 6.827361,-2.667095 c 1.242917,-0.634781 2.590103,-2.298024 3.091223,-3.816443 0.632466,-1.916385 0.312107,-6.163754 -0.554561,-7.352649 -0.929651,-1.275281 -3.443163,-2.539101 -5.049816,-2.539101 -1.664076,0 -1.695175,0.137849 -1.70106,7.539526 -0.0041,5.053515 0.0823,6.061535 0.559957,6.539192 0.616817,0.616814 1.994557,0.477118 3.654257,-0.370525 z m 17.604683,2.72518 -6.8688,-0.102086 V 31.5406 c 0,-0.716345 0.16791,-0.862114 0.99307,-0.862114 0.97225,0 0.99771,-0.0492 1.21477,-2.347562 0.28353,-3.002124 0.23055,-10.429044 -0.0825,-11.56392 -0.18235,-0.661054 -0.50751,-0.895591 -1.35649,-0.97845 -0.95283,-0.093 -1.11666,-0.246058 -1.11678,-1.043361 l -1.3e-4,-0.934379 h 7.82516 7.82517 l 1.8e-4,2.69535 1.8e-4,2.695349 h -1.04336 c -0.91757,0 -1.04336,-0.12066 -1.04336,-1.000776 0,-1.418956 -0.59008,-1.752074 -3.54619,-2.001957 l -2.60518,-0.220219 -0.22176,2.121723 c -0.30638,2.931264 -0.15428,3.187951 1.8891,3.187951 1.65895,0 1.70173,-0.02623 1.70173,-1.04336 0,-0.927434 0.11592,-1.043362 1.04336,-1.043362 h 1.04336 v 3.651764 3.651763 h -1.04336 c -0.94851,0 -1.04336,-0.104335 -1.04336,-1.147696 0,-1.52692 -0.53537,-1.982387 -2.33017,-1.982387 h -1.49549 v 2.80516 c 0,3.708688 0.25867,4.150582 2.42962,4.150582 0.94028,0 2.49982,-0.169474 3.46564,-0.376607 1.69348,-0.363185 1.75606,-0.418957 1.75606,-1.565041 0,-1.088627 0.0876,-1.188436 1.04336,-1.188436 h 1.04335 v 2.782296 2.782296 l -1.3042,-0.07916 c -0.71731,-0.04354 -4.39516,-0.125099 -8.17298,-0.181245 z m 35.26443,-4.216081 c -1.95602,-5.820195 -4.1137,-11.170676 -4.81913,-11.950178 -0.30607,-0.338195 -0.93388,-0.6149 -1.39515,-0.6149 -0.69759,0 -0.82016,-0.150539 -0.72862,-0.894919 l 0.11005,-0.894918 h 4.52123 4.52124 l 0.11004,0.894918 c 0.0931,0.757485 -0.0271,0.894919 -0.78252,0.894919 -0.49092,0 -0.89256,0.178757 -0.89256,0.397237 0,1.512159 3.41921,10.951801 3.8044,10.503063 0.13823,-0.161037 0.85453,-1.671618 1.59177,-3.356845 l 1.34044,-3.06405 -1.10445,-2.239703 c -0.92013,-1.865956 -1.25007,-2.239702 -1.97716,-2.239702 -0.72018,0 -0.87272,-0.167162 -0.87276,-0.956414 l -5e-5,-0.956415 4.60822,0.06337 4.60823,0.06337 0.11006,0.893046 c 0.0973,0.789692 -0.0141,0.893048 -0.96305,0.893048 -0.99088,0 -1.05662,0.07328 -0.85821,0.956414 0.29175,1.298535 2.9261,9.174533 3.28625,9.824983 0.30393,0.548904 1.0785,-0.978796 3.46267,-6.829423 1.29466,-3.177015 1.22961,-3.951974 -0.33167,-3.951974 -0.91826,0 -1.05429,-0.123389 -1.05429,-0.956414 V 13.81082 h 3.99956 3.99956 v 0.956414 c 0,0.786333 -0.15344,0.956414 -0.86277,0.956414 -0.77368,0 -1.1829,0.655272 -3.96384,6.347114 -1.70561,3.490912 -3.4693,7.329119 -3.91932,8.52935 l -0.81822,2.182237 -1.53522,-0.09552 -1.53523,-0.09552 -0.98199,-2.956189 c -0.5401,-1.625904 -1.2397,-3.642532 -1.55467,-4.481396 -0.68192,-1.816155 -0.5706,-1.951109 -2.97937,3.611928 l -1.65648,3.825657 -1.48648,0.10126 -1.48647,0.101258 z"
       id="path31-0" />
  </g>
</svg>
