<?xml version="1.0" encoding="UTF-8" standalone="no"?>
<svg
   xmlns:dc="http://purl.org/dc/elements/1.1/"
   xmlns:cc="http://creativecommons.org/ns#"
   xmlns:rdf="http://www.w3.org/1999/02/22-rdf-syntax-ns#"
   xmlns:svg="http://www.w3.org/2000/svg"
   xmlns="http://www.w3.org/2000/svg"
   width="16.0px"
   height="16.0px"
   viewBox="0 0 16.0 16.0"
   version="1.1"
   id="SVGRoot">
  <defs
     id="defs33" />
  <metadata
     id="metadata36">
    <rdf:RDF>
      <cc:Work
         rdf:about="">
        <dc:format>image/svg+xml</dc:format>
        <dc:type
           rdf:resource="http://purl.org/dc/dcmitype/StillImage" />
        <dc:title></dc:title>
      </cc:Work>
    </rdf:RDF>
  </metadata>
  <g
     id="layer1">
    <path
       style="fill:#000000;stroke-width:0.0686279"
       d="M 2.3127505,13.034487 C 2.1481314,12.982039 2.1257513,12.850938 2.1247062,11.932941 l -0.00106,-0.923113 0.4027408,-0.391653 C 2.7478898,10.402768 2.9490742,10.147034 2.9734586,10.049877 2.9978446,9.9527229 3.1026945,9.829327 3.2064622,9.7756684 3.4927173,9.6276382 4.127264,8.9270101 4.100216,8.788836 4.0776822,8.6737317 3.8621043,8.6510481 3.1873755,8.6927896 3.1118845,8.6974398 2.8493829,8.6787602 2.6040377,8.6511979 L 2.1579563,8.6011175 2.1378383,7.9491511 c -0.02917,-0.9451855 -0.035661,-0.9327482 0.5166002,-0.9897447 0.5539799,-0.057178 0.5325906,-0.057186 1.1964616,3.941e-4 0.3385127,0.029438 0.6075633,0.017419 0.7541365,-0.033694 0.1732595,-0.060397 0.3035649,-0.060035 0.5437141,0.00158 0.1737134,0.044524 0.3994725,0.05996 0.5016856,0.034285 0.2373239,-0.05957 1.0018308,-0.854175 1.002299,-1.0417673 C 6.6530955,5.7730016 6.3851212,5.4828328 6.1257336,5.3495689 5.9415382,5.2549373 4.6010181,5.2472881 4.3585198,5.3394803 4.2436645,5.3831449 4.1205102,5.3828454 4.0041704,5.3386922 3.9060992,5.3014117 3.5123463,5.2685095 3.129164,5.2655894 2.1006697,5.2577471 2.1236441,5.2841902 2.1236441,4.1084058 c 0,-0.5535594 0.028445,-0.9727359 0.067653,-0.9969682 0.03721,-0.022975 0.9559652,-0.04798 2.0416814,-0.055523 l 1.9740284,-0.013714 0.2684756,0.2053538 c 0.1476609,0.1129448 0.3194726,0.2892151 0.3818022,0.3917087 0.1897488,0.3120169 0.8143634,0.9470692 0.9315033,0.9470692 0.060589,0 0.1927135,-0.089418 0.2936099,-0.1987056 C 9.2841134,3.08596 9.2825824,3.087363 9.5853871,3.0111154 c 0.1651406,-0.04158 0.3279714,-0.058474 0.3618454,-0.037556 0.069204,0.04277 0.8488455,0.049351 2.3563535,0.019901 0.746154,-0.014581 1.036943,0.00276 1.088613,0.065071 0.04175,0.050317 0.06682,0.4698361 0.06149,1.0288064 -0.0079,0.8303451 -0.02478,0.959605 -0.140122,1.0749458 -0.122469,0.1224698 -0.257721,0.1315535 -2.053045,0.1378707 L 9.3385779,5.3069328 9.1281952,5.5084995 C 8.8266153,5.7974388 8.8454246,6.0273244 9.1901919,6.2662463 9.3400014,6.370068 9.4811615,6.513578 9.5038817,6.5851596 c 0.07626,0.2402737 0.4172226,0.3537623 0.9173183,0.3053253 0.24888,-0.024118 0.521994,-0.040603 0.606921,-0.03665 0.277315,0.012887 1.213251,0.015645 1.42403,0.00426 0.297042,-0.016118 0.881836,0.065162 0.952854,0.1324086 0.06402,0.060622 0.06085,1.3107309 -0.0037,1.4790841 -0.05419,0.1412164 -0.25911,0.1765264 -1.097112,0.1890544 -0.607173,0.00906 -0.746039,0.030305 -0.762611,0.1165231 -0.01974,0.1027261 0.285975,0.4628962 1.373866,1.6185589 0.389511,0.413773 0.53387,0.616857 0.539352,0.758751 0.0041,0.106565 0.002,0.548906 -0.0047,0.982974 -0.0099,0.63696 -0.0337,0.805774 -0.123544,0.875007 -0.130001,0.100177 -1.436459,0.118825 -1.588334,0.02266 -0.07584,-0.04801 -0.09336,-0.248794 -0.08223,-0.942584 0.01656,-1.03218 -0.02601,-1.144104 -0.404742,-1.06418 l -0.240197,0.05069 -0.03431,0.958124 -0.03431,0.958123 -0.783436,0.01951 C 9.7281065,13.02352 9.3485277,13.0053 9.315488,12.97224 9.282448,12.93922 9.247203,12.512481 9.237166,12.023977 c -0.01012,-0.488514 -0.041558,-0.925779 -0.069945,-0.971709 -0.028382,-0.04593 -0.1388315,-0.08351 -0.2454382,-0.08351 -0.2524449,0 -0.2763545,0.0984 -0.2775285,1.142172 -7.881e-4,0.696026 -0.018825,0.840217 -0.1094922,0.875007 -0.2137344,0.08202 -1.5184984,0.04577 -1.588603,-0.04412 -0.036977,-0.04742 -0.06118,-0.469462 -0.054118,-0.943637 0.014676,-0.985482 -0.022562,-1.119486 -0.2931513,-1.054892 -0.3441604,0.08216 -0.3575507,0.121658 -0.3575507,1.054887 0,0.665389 -0.022979,0.894431 -0.095804,0.954868 -0.062699,0.05204 -0.3413419,0.07272 -0.8063785,0.05987 L 4.6285824,12.99329 4.6117471,12.169755 c -0.019259,-0.94199 -0.045059,-1.101925 -0.1865209,-1.156206 -0.1503261,-0.05769 -0.5097104,0.08744 -0.5905384,0.238464 -0.038723,0.07235 -0.065331,0.473135 -0.059131,0.890621 0.00704,0.474104 -0.016989,0.787334 -0.064007,0.834353 -0.071057,0.07106 -1.2093557,0.117835 -1.3987908,0.05748 z M 9.3740838,8.9620995 C 9.3992107,8.9214456 9.2836661,8.7674924 9.1173232,8.6199745 8.9509799,8.4724606 8.7919532,8.3306648 8.7639322,8.304872 8.7359088,8.2790988 8.5887424,8.1190057 8.4368936,7.9491511 7.8298615,7.2701425 7.8169512,7.2595534 7.6832744,7.3310956 7.6141149,7.3681002 7.4913708,7.5054428 7.4105081,7.6362791 7.3296454,7.7671192 7.1184276,7.9809459 6.9411354,8.111455 6.6190985,8.348509 6.1727046,8.809561 6.1727046,8.9051187 c 0,0.027822 0.016942,0.067519 0.037651,0.088228 0.075167,0.075164 3.1165268,0.045131 3.1637295,-0.031251 z"
       id="path22" />
  </g>
</svg>
