<?xml version="1.0" encoding="UTF-8" standalone="no"?>
<svg
   xmlns:dc="http://purl.org/dc/elements/1.1/"
   xmlns:cc="http://creativecommons.org/ns#"
   xmlns:rdf="http://www.w3.org/1999/02/22-rdf-syntax-ns#"
   xmlns:svg="http://www.w3.org/2000/svg"
   xmlns="http://www.w3.org/2000/svg"
   xmlns:sodipodi="http://sodipodi.sourceforge.net/DTD/sodipodi-0.dtd"
   xmlns:inkscape="http://www.inkscape.org/namespaces/inkscape"
   width="16.0px"
   height="16.0px"
   viewBox="0 0 16.0 16.0"
   version="1.1"
   id="SVGRoot"
   sodipodi:docname="10.svg"
   inkscape:version="1.0.1 (3bc2e813f5, 2020-09-07)">
  <defs
     id="defs33" />
  <sodipodi:namedview
     id="base"
     pagecolor="#ffffff"
     bordercolor="#666666"
     borderopacity="1.0"
     inkscape:pageopacity="0.0"
     inkscape:pageshadow="2"
     inkscape:zoom="22.4"
     inkscape:cx="21.851904"
     inkscape:cy="10.074883"
     inkscape:document-units="px"
     inkscape:current-layer="layer1"
     inkscape:document-rotation="0"
     showgrid="true"
     inkscape:window-width="1833"
     inkscape:window-height="1248"
     inkscape:window-x="220"
     inkscape:window-y="220"
     inkscape:window-maximized="0"
     inkscape:snap-global="false">
    <inkscape:grid
       type="xygrid"
       id="grid42" />
  </sodipodi:namedview>
  <metadata
     id="metadata36">
    <rdf:RDF>
      <cc:Work
         rdf:about="">
        <dc:format>image/svg+xml</dc:format>
        <dc:type
           rdf:resource="http://purl.org/dc/dcmitype/StillImage" />
        <dc:title></dc:title>
      </cc:Work>
    </rdf:RDF>
  </metadata>
  <g
     inkscape:label="Layer 1"
     inkscape:groupmode="layer"
     id="layer1">
    <path
       style="fill:#000000;stroke-width:0.0585485"
       d="m 8.9948139,12.922843 c -0.021467,-0.02147 -0.039032,-0.187453 -0.039032,-0.368856 0,-0.181403 -0.029171,-0.358996 -0.064827,-0.394651 -0.05639,-0.05639 -0.1510367,-0.45302 -0.2662446,-1.115734 -0.019071,-0.109714 -0.00386,-0.226459 0.035711,-0.274143 0.092533,-0.111495 0.086638,-2.8879019 -0.00637,-2.9999685 -0.088889,-0.1071033 -1.2386266,-0.1084638 -1.3273406,-0.00159 -0.056189,0.067703 -0.054422,0.7832665 0.00545,2.2079741 0.012824,0.3051128 -0.047484,0.5901508 -0.2229702,1.0538758 -0.042652,0.112706 -0.089536,0.332359 -0.1041876,0.488118 -0.058493,0.621812 -0.3326194,0.457112 -0.3326194,-0.199845 0,-0.379467 -0.09584,-0.809778 -0.2710973,-1.217201 C 6.3262952,9.9264942 6.3270782,9.8876376 6.4080762,9.7640201 6.4834982,9.648911 6.4968012,9.456609 6.4835502,8.6730171 L 6.467462,7.721754 5.8174825,7.7052804 C 5.3128727,7.6924893 5.1521129,7.7073702 5.0986884,7.7717237 5.0608403,7.8173276 5.0144442,8.0223422 4.9955861,8.2273114 4.9640586,8.569998 4.9733006,8.6128519 5.110475,8.7599273 5.242628,8.9016204 5.2526736,8.9417082 5.1985094,9.1112193 5.1648813,9.2164605 5.1237522,9.3816075 5.1071122,9.4782126 5.0904729,9.5748178 5.0496915,9.6878807 5.0164886,9.7294631 4.9832857,9.7710455 4.920768,9.9949942 4.8775602,10.227127 4.8343532,10.459259 4.7823412,10.734813 4.7619787,10.839469 4.6896645,11.211136 4.5086788,11.016774 4.5068819,10.56552 4.5060532,10.359152 4.4359253,10.091729 4.2941382,9.7543323 4.2496989,9.6485838 4.2131923,9.4773292 4.2130128,9.373766 4.212837,9.2702031 4.1845841,9.0842599 4.1502343,8.9605591 c -0.051175,-0.1842962 -0.04583,-0.2432781 0.0296,-0.3266277 0.062072,-0.068588 0.092053,-0.2155855 0.092053,-0.4513263 0,-0.3580694 -0.064414,-0.4901259 -0.2390754,-0.4901259 -0.1053334,0 -0.168668,-0.1600687 -0.1699651,-0.4295633 C 3.8622343,7.1321195 3.8990428,7.0828566 4.0361279,7.031113 4.1318719,6.994974 4.2226451,6.932996 4.2378453,6.8933856 c 0.015202,-0.039611 0.033098,-0.3888251 0.039776,-0.7760314 0.012759,-0.7397917 -0.027535,-0.883918 -0.2470978,-0.883918 -0.1259221,0 -0.1491285,-0.1715753 -0.038208,-0.2824947 0.054374,-0.054374 0.055569,-0.097582 0.00494,-0.1786522 C 3.9413802,4.682819 3.9591476,4.6401968 4.1060544,4.5112887 4.2509438,4.3841498 4.2751302,4.3276083 4.2444257,4.1878105 4.1968084,3.9710118 4.3308391,3.8285543 4.5834504,3.8274694 4.6858059,3.827037 4.8251983,3.8117344 4.8932115,3.7934774 c 0.1404194,-0.03769 0.2431831,0.1304823 0.141728,0.2319371 -0.09492,0.09492 -0.070812,0.3383045 0.041992,0.4239352 0.070032,0.053161 0.3013103,0.078368 0.7307428,0.07964 0.7351746,0.00216 0.680618,0.065577 0.7037635,-0.8178186 l 0.014575,-0.5562122 h 0.380566 0.380566 l -0.020397,0.6018207 c -0.014056,0.4146977 0.00184,0.6285994 0.05108,0.687946 0.094439,0.1137918 1.2411483,0.1249392 1.3311093,0.012939 0.032331,-0.040252 0.070132,-0.2372991 0.084001,-0.4378826 0.013868,-0.200583 0.041364,-0.3808433 0.061098,-0.4005781 0.019734,-0.019734 0.1343668,-5.404e-4 0.2547375,0.04268 0.1733867,0.062239 0.2239664,0.063355 0.2434569,0.00538 0.01353,-0.040253 0.061926,-0.073186 0.1075447,-0.073186 0.062443,0 0.082944,0.087777 0.082944,0.3551408 0,0.5682609 0.016798,0.5816376 0.7304628,0.5816376 0.343008,0 0.625058,-0.025586 0.645431,-0.058549 0.03921,-0.063448 0.768653,-0.068249 1.053875,-0.00694 0.161888,0.034799 0.176236,0.058333 0.183183,0.3004532 0.01048,0.3652692 -0.02249,0.457373 -0.171314,0.4785436 -0.125149,0.017803 -0.129447,0.043069 -0.145216,0.853501 l -0.01625,0.8351542 0.144834,0.055066 c 0.101547,0.038607 0.156146,0.1153559 0.182678,0.2567856 0.05487,0.292506 0.01624,0.4086705 -0.148949,0.447802 -0.145351,0.034432 -0.146025,0.037731 -0.138126,0.6758756 0.0044,0.3527015 0.02665,0.7369643 0.04951,0.8539175 0.02626,0.1343034 0.01794,0.2272475 -0.02257,0.2522875 -0.03528,0.021806 -0.06415,0.1244416 -0.06415,0.2280819 0,0.1036403 -0.03622,0.2404072 -0.08048,0.3039256 -0.04427,0.06352 -0.09994,0.234048 -0.123717,0.378956 -0.02378,0.144908 -0.06408,0.289816 -0.08955,0.322017 -0.02547,0.0322 -0.05543,0.124417 -0.06657,0.204921 -0.03638,0.263005 -0.194099,0.175858 -0.211922,-0.117098 -0.01562,-0.256724 -0.05417,-0.381213 -0.223582,-0.721965 -0.04532,-0.091164 -0.08241,-0.2157791 -0.08241,-0.2769212 0,-0.061142 -0.04339,-0.2196026 -0.09642,-0.3521336 -0.09582,-0.2394876 -0.09549,-0.24174 0.0541,-0.3671141 0.150071,-0.1257762 0.150363,-0.1278343 0.09926,-0.6979938 -0.02819,-0.3145151 -0.06727,-0.5977441 -0.08683,-0.6293977 -0.0525,-0.084938 -1.2187304,-0.073583 -1.3050194,0.012705 -0.050771,0.050771 -0.070258,0.4628926 -0.070258,1.4858215 0,1.1868509 0.014189,1.4273389 0.087823,1.4884489 0.1066299,0.08849 0.1114195,0.199942 0.01589,0.369779 -0.069946,0.124354 -0.1913133,0.648581 -0.2600425,1.123212 -0.018653,0.128807 -0.070149,0.286164 -0.1144382,0.349682 -0.044289,0.06352 -0.080525,0.175492 -0.080525,0.248832 0,0.130768 -0.059252,0.171672 -0.1366133,0.09431 z M 6.4838462,6.1783345 C 6.494879,5.6514475 6.4782037,5.3694897 6.4327659,5.3147421 6.3831676,5.2549794 6.2049572,5.233455 5.7597717,5.233455 5.0162364,5.233455 5.0182754,5.231115 4.984857,6.1290868 4.952627,6.995095 4.956482,6.9990101 5.8195111,6.9770944 l 0.647953,-0.016456 z M 8.7120829,6.8874537 C 8.7413223,6.831101 8.7609411,6.4725123 8.7556783,6.0905901 8.7438636,5.2332745 8.7440222,5.233455 8.0039638,5.233455 c -0.7664419,0 -0.7460932,-0.023691 -0.7460932,0.8685798 0,0.5032172 0.022952,0.7703142 0.070259,0.8176209 0.045943,0.045943 0.2883818,0.070259 0.7005239,0.070259 0.5409673,0 0.6377977,-0.014517 0.6834294,-0.102461 z m 2.1988141,0.00985 c 0.05996,-0.1562537 0.03936,-1.4302049 -0.02507,-1.5505991 -0.05341,-0.099804 -0.126852,-0.1132481 -0.61861,-0.1132481 -0.8070891,0 -0.7844975,-0.024368 -0.7844975,0.846227 0,0.3987546 0.015991,0.7666844 0.035538,0.8176202 0.029503,0.07688 0.1477838,0.092612 0.6963195,0.092612 0.548536,0 0.666818,-0.015731 0.69632,-0.092612 z"
       id="path96" />
  </g>
</svg>
