<?xml version="1.0" encoding="UTF-8" standalone="no"?>
<svg
   xmlns:dc="http://purl.org/dc/elements/1.1/"
   xmlns:cc="http://creativecommons.org/ns#"
   xmlns:rdf="http://www.w3.org/1999/02/22-rdf-syntax-ns#"
   xmlns:svg="http://www.w3.org/2000/svg"
   xmlns="http://www.w3.org/2000/svg"
   width="16.0px"
   height="16.0px"
   viewBox="0 0 16.0 16.0"
   version="1.1"
   id="SVGRoot">
  <defs
     id="defs33" />
  <metadata
     id="metadata36">
    <rdf:RDF>
      <cc:Work
         rdf:about="">
        <dc:format>image/svg+xml</dc:format>
        <dc:type
           rdf:resource="http://purl.org/dc/dcmitype/StillImage" />
        <dc:title></dc:title>
      </cc:Work>
    </rdf:RDF>
  </metadata>
  <g
     id="layer1">
    <path
       style="fill:#000000;stroke-width:0.0499435"
       d="m 8.9468089,12.84552 c 0,-0.03784 0.03371,-0.09678 0.074916,-0.130975 0.041204,-0.03419 0.074916,-0.09202 0.074916,-0.128493 0,-0.03648 0.030686,-0.08429 0.068189,-0.106258 0.1530844,-0.08966 0.2325641,-1.019999 0.1077586,-1.26135 -0.1206345,-0.23328 -0.4530436,-0.534596 -0.6284691,-0.56968 -0.1230439,-0.02461 -0.1506795,-0.05274 -0.137863,-0.140328 0.010293,-0.07033 0.064873,-0.122531 0.1524475,-0.145805 0.133579,-0.03548 0.2620676,-0.12196 0.6189534,-0.4164951 0.1808487,-0.1492574 0.5668512,-0.6869455 0.569728,-0.7936145 8.79e-4,-0.032404 0.034585,-0.1025256 0.074916,-0.1558461 0.04033,-0.05332 0.073327,-0.1814935 0.073327,-0.2848262 0,-0.1033367 0.026083,-0.2451265 0.057961,-0.3150884 0.04341,-0.095278 0.04375,-0.1584033 0.0013,-0.2514794 -0.03114,-0.068348 -0.04381,-0.1576521 -0.02815,-0.1984586 0.02456,-0.064013 0.04472,-0.062378 0.146922,0.011907 0.06515,0.047347 0.119158,0.115679 0.120022,0.1518466 8.79e-4,0.03616 0.05757,0.1391847 0.126014,0.2289166 0.06844,0.08974 0.138608,0.2399443 0.155917,0.3337916 0.01731,0.093847 0.06596,0.225768 0.108106,0.2931569 0.115209,0.1842024 0.110442,1.4927056 -0.0061,1.6705476 -0.0455,0.06943 -0.08272,0.165999 -0.08272,0.214584 0,0.12182 -0.287995,0.700143 -0.458763,0.92124 -0.07731,0.100094 -0.1405624,0.200786 -0.1405624,0.223759 0,0.02297 -0.1961851,0.238867 -0.4359672,0.479764 -0.4066231,0.408519 -0.6128498,0.532754 -0.6128498,0.369196 z M 7.0239735,10.117468 c -0.016977,-0.02749 -0.067394,-0.04994 -0.1120386,-0.04994 -0.097302,0 -0.5000027,-0.1894801 -0.539901,-0.25404 -0.015507,-0.025092 -0.062344,-0.045621 -0.104081,-0.045621 -0.070015,0 -0.4676015,-0.3601422 -0.4676015,-0.4235634 0,-0.015343 -0.056475,-0.1173771 -0.1255,-0.2267191 C 5.1377231,8.2667138 5.3886699,6.9921559 6.2123741,6.3875025 6.7223259,6.0131642 6.75304,6.0041463 7.5306538,6.0004584 c 0.6057653,-0.0028 0.7202204,0.00911 0.8030332,0.08405 0.053117,0.04807 0.1172827,0.087622 0.1425889,0.087886 0.025308,2.637e-4 0.1429041,0.077514 0.2613284,0.1716604 0.1184255,0.094147 0.2311837,0.1782092 0.2505744,0.1868076 0.054456,0.024133 0.3739891,0.4464539 0.4711168,0.6226573 0.047762,0.086647 0.086839,0.2033131 0.086839,0.2592587 0,0.055946 0.022475,0.115611 0.049944,0.132588 0.027469,0.016981 0.049944,0.2192474 0.049944,0.4494905 0,0.2302471 -0.022475,0.4325174 -0.049944,0.4494945 -0.027469,0.016981 -0.050658,0.080111 -0.051532,0.1402954 -8.79e-4,0.060185 -0.034585,0.1530493 -0.074916,0.2063738 -0.04033,0.053321 -0.073327,0.12727 -0.073327,0.1643366 0,0.074721 -0.1555433,0.3116443 -0.3485991,0.5309916 -0.2264721,0.2573089 -0.7989773,0.5811752 -1.0273617,0.5811752 -0.064052,0 -0.1303474,0.02245 -0.1473244,0.04994 -0.016977,0.02745 -0.2080119,0.04994 -0.4245224,0.04994 -0.2165104,0 -0.4075452,-0.02249 -0.4245219,-0.04994 z M 4.751532,8.27729 C 4.751532,8.226611 4.706583,8.1444662 4.651644,8.0947457 4.596706,8.0450287 4.551757,7.9838574 4.551757,7.9588133 4.551757,7.9337613 4.498031,7.841736 4.4323666,7.7542935 4.3667018,7.6668511 4.2975486,7.5225241 4.2786928,7.4335634 4.2598378,7.3446026 4.2236634,7.2589982 4.1983077,7.2433276 4.172952,7.2276651 4.1514919,7.13188 4.1506185,7.0304931 4.1497395,6.9291062 4.1160331,6.8025275 4.0757029,6.749207 c -0.096621,-0.1277455 -0.095698,-0.6268486 0.0016,-0.8596888 0.041204,-0.098614 0.074916,-0.2426532 0.074916,-0.3200828 0,-0.077434 0.019926,-0.1531012 0.044282,-0.1681524 C 4.2208561,5.38622 4.2564061,5.2893838 4.2755021,5.1860751 4.2946007,5.0827624 4.3758084,4.8911402 4.455967,4.7602502 4.536126,4.6293603 4.6017104,4.5123628 4.6017104,4.5002643 c 0,-0.1230427 1.2240219,-1.4660883 1.2826896,-1.4074218 0.016545,0.016542 0.00713,0.058723 -0.020925,0.093719 -0.028053,0.035001 -0.1019475,0.216035 -0.1642084,0.4022992 -0.062261,0.1862642 -0.1324095,0.3505289 -0.1558853,0.3650407 -0.023478,0.014504 -0.042684,0.1888613 -0.042684,0.3874477 0,0.2618798 0.027306,0.4146334 0.099401,0.5560436 0.1331578,0.2611806 0.3792477,0.5081211 0.5420292,0.5439051 0.072983,0.016062 0.1887379,0.073226 0.257231,0.1270742 0.1191347,0.09366 0.1202171,0.099241 0.024972,0.1287124 -0.1106937,0.034242 -0.2220818,0.09489 -0.4864545,0.2648045 -0.193184,0.1241615 -0.7368418,0.7700608 -0.7368418,0.8754153 0,0.03556 -0.032999,0.1082991 -0.073328,0.1616196 -0.040329,0.053321 -0.074757,0.1531332 -0.076504,0.2218046 -0.00176,0.068675 -0.036176,0.168488 -0.076504,0.2218085 -0.050812,0.067181 -0.073327,0.2243696 -0.073327,0.5119248 0,0.3355696 -0.014336,0.414977 -0.074916,0.414977 -0.041204,0 -0.074916,-0.04147 -0.074916,-0.092149 z"
       id="path125" />
  </g>
</svg>
