<?xml version="1.0" encoding="UTF-8" standalone="no"?>
<svg
   xmlns:dc="http://purl.org/dc/elements/1.1/"
   xmlns:cc="http://creativecommons.org/ns#"
   xmlns:rdf="http://www.w3.org/1999/02/22-rdf-syntax-ns#"
   xmlns:svg="http://www.w3.org/2000/svg"
   xmlns="http://www.w3.org/2000/svg"
   width="16.0px"
   height="16.0px"
   viewBox="0 0 16.0 16.0"
   version="1.1"
   id="SVGRoot">
  <defs
     id="defs33" />
  <metadata
     id="metadata36">
    <rdf:RDF>
      <cc:Work
         rdf:about="">
        <dc:format>image/svg+xml</dc:format>
        <dc:type
           rdf:resource="http://purl.org/dc/dcmitype/StillImage" />
        <dc:title></dc:title>
      </cc:Work>
    </rdf:RDF>
  </metadata>
  <g
     id="layer1">
    <path
       style="fill:#000000;stroke-width:0.0585543"
       d="M 6.4597894,12.823171 C 6.3322191,12.736386 6.1253203,12.580956 6.0000149,12.477773 5.7791556,12.295905 5.6736651,12.216948 5.155426,11.845618 4.4701942,11.354631 4.1640503,10.965453 4.0499541,10.440312 c -0.027987,-0.12882 -0.069125,-0.293505 -0.09141,-0.365965 -0.033569,-0.1091376 -0.018288,-0.1317476 0.08902,-0.1317476 0.071249,0 0.1994818,0.038089 0.284963,0.084645 0.085481,0.04655 0.2608184,0.127215 0.3896385,0.179246 0.1288194,0.05203 0.3088135,0.132512 0.3999876,0.178849 0.1930027,0.09809 0.690256,0.112395 0.7802068,0.02244 0.033992,-0.03399 0.2177507,-0.08385 0.4083486,-0.11079 0.4856717,-0.06865 0.7726716,-0.201043 0.8586944,-0.3961181 0.039588,-0.089769 0.1441266,-0.2746786 0.2323125,-0.4109091 0.088187,-0.1362312 0.1603385,-0.2737545 0.1603385,-0.3056073 0,-0.031854 0.054812,-0.1630691 0.1217993,-0.2915914 C 7.8310551,8.6103529 7.7918608,8.4327091 7.5727908,8.3893737 7.4863733,8.3722844 7.3366206,8.329683 7.2400055,8.2947108 7.1433905,8.2597358 6.9918807,8.2179759 6.9033174,8.201901 6.8147534,8.1858233 6.7422923,8.1515585 6.7422923,8.1257516 c 0,-0.025806 0.1383348,-0.1473846 0.3074102,-0.2701717 C 7.2187787,7.732792 7.3834635,7.6027327 7.4156685,7.5665589 7.4478743,7.5303865 7.5730333,7.427855 7.6938023,7.3387147 7.8401257,7.2307117 7.913381,7.1303673 7.913381,7.0379391 7.913381,6.9426931 7.844586,6.8534249 7.6938023,6.7530134 7.5730333,6.6725917 7.1843784,6.369267 6.8301238,6.0789586 6.47587,5.7886513 6.1408083,5.5511025 6.085542,5.5510726 5.985626,5.5510284 5.8186426,5.6160092 5.2382025,5.8808633 5.0711538,5.9570876 4.8998822,6.0196937 4.8575994,6.0199882 4.8153136,6.0202955 4.648973,6.0853323 4.4879479,6.1645429 4.3269235,6.2437537 4.1754138,6.309387 4.1512598,6.3103939 4.0643854,6.3140241 4.1100933,6.1794787 4.2537306,6.0087744 4.3342428,5.913091 4.4001164,5.7991843 4.4001164,5.7556476 c 0,-0.043536 0.032938,-0.1139752 0.073194,-0.1565316 C 4.5135654,5.5565591 4.6187209,5.3768181 4.7069871,5.1996911 4.8545395,4.903594 5.0075472,4.6264395 5.2705747,4.1788207 5.3715675,4.0069536 5.6444159,3.9011175 6.2153027,3.8123678 6.3280199,3.7948429 6.4486483,3.7578153 6.4833658,3.7300801 6.5180826,3.702344 6.7164086,3.6555891 6.924088,3.6261778 7.131768,3.5967672 7.4195563,3.5412127 7.5636183,3.5027239 8.3857981,3.2830639 8.9472714,3.1571744 9.321132,3.108666 9.5235001,3.0824106 9.5385125,3.0949866 9.9414695,3.6283733 10.799991,4.7647828 11.583243,5.8244479 11.765107,6.0955812 L 11.953634,6.37665 v 1.6001415 c 0,1.3509136 -0.01368,1.6114938 -0.08783,1.6730341 -0.04831,0.04009 -0.08783,0.093809 -0.08783,0.1193729 0,0.025562 -0.138334,0.2485955 -0.30741,0.4956265 -0.169075,0.247032 -0.33376,0.493584 -0.365965,0.547892 -0.336029,0.566669 -0.893176,1.324957 -1.038389,1.413265 -0.099538,0.06053 -0.3545612,0.128131 -0.5667195,0.150218 -0.2121583,0.02209 -0.43844,0.06811 -0.5028493,0.102266 -0.1234896,0.06549 -0.3564872,0.116541 -1.0958762,0.240106 -0.2484771,0.04153 -0.4856223,0.102209 -0.5269897,0.134853 -0.041367,0.03264 -0.2117479,0.07469 -0.3786244,0.09344 -0.2646172,0.02973 -0.3330686,0.01392 -0.5353578,-0.1237 z m 3.5672976,-2.150517 c 0.01926,-0.258672 0.06537,-0.527021 0.102471,-0.596333 0.07599,-0.1419922 0.0893,-0.3851186 0.02462,-0.4497956 -0.05059,-0.050579 -1.01116,0.9535556 -1.01116,1.0570156 0,0.07541 0.3014447,0.313037 0.3971121,0.313037 0.031345,0 0.090842,0.04079 0.1322229,0.09066 0.041382,0.04986 0.1302442,0.0828 0.1974716,0.07319 0.1088624,-0.01555 0.1260637,-0.06891 0.1572574,-0.487775 z m -1.2152993,-0.07816 c 0.091562,-0.1357 0.2430719,-0.330589 0.3366874,-0.433085 C 9.3835562,9.9040314 9.3699407,9.7417738 9.0991083,9.5730915 8.6592944,9.299164 8.5574793,9.3343895 8.5574793,9.7604838 c 0,0.1445944 -0.030764,0.4118382 -0.068365,0.5938762 -0.1179358,0.570991 0.026768,0.678684 0.3226716,0.240137 z M 8.213487,10.264649 C 8.234042,10.168039 8.253972,9.9366303 8.257774,9.7504167 8.261574,9.5642053 8.304228,9.3172535 8.352533,9.2016385 8.4696187,8.921412 8.4643441,8.8886201 8.302183,8.8886201 c -0.081385,0 -0.1836746,0.062561 -0.2488559,0.1522064 C 7.9924601,9.1245395 7.8158017,9.362754 7.66076,9.5701923 7.3757346,9.9515394 7.3278779,10.153717 7.5034964,10.234572 c 0.048305,0.02224 0.1668801,0.08233 0.2634952,0.133536 0.2595149,0.13754 0.4022661,0.104462 0.4464918,-0.103459 z M 9.3005789,7.76552 C 9.4876649,7.534274 9.8054191,7.1533134 10.0067,6.9189403 10.207981,6.6845676 10.372666,6.453733 10.372666,6.4059734 c 0,-0.1848426 -0.09161,-0.1754587 -0.9075939,0.092969 -0.228866,0.075288 -0.5164541,0.1561259 -0.8739264,0.2456508 -0.3894476,0.097532 -0.4575934,0.2461158 -0.2511315,0.547556 0.083043,0.1212433 0.1844221,0.2994913 0.2252859,0.396106 0.099542,0.2353401 0.2808959,0.4977126 0.3440239,0.4977126 0.028102,0 0.2041681,-0.1892018 0.3912549,-0.4204478 z"
       id="path154" />
  </g>
</svg>
