<?xml version="1.0" encoding="UTF-8" standalone="no"?>
<svg
   xmlns:dc="http://purl.org/dc/elements/1.1/"
   xmlns:cc="http://creativecommons.org/ns#"
   xmlns:rdf="http://www.w3.org/1999/02/22-rdf-syntax-ns#"
   xmlns:svg="http://www.w3.org/2000/svg"
   xmlns="http://www.w3.org/2000/svg"
   width="16.0px"
   height="16.0px"
   viewBox="0 0 16.0 16.0"
   version="1.1"
   id="SVGRoot">
  <defs
     id="defs33" />
  <metadata
     id="metadata36">
    <rdf:RDF>
      <cc:Work
         rdf:about="">
        <dc:format>image/svg+xml</dc:format>
        <dc:type
           rdf:resource="http://purl.org/dc/dcmitype/StillImage" />
        <dc:title></dc:title>
      </cc:Work>
    </rdf:RDF>
  </metadata>
  <g
     id="layer1">
    <path
       style="fill:#000000;stroke-width:0.0540838"
       d="m 7.1868551,12.974919 c -0.018055,-0.04705 -0.032952,-0.150488 -0.033105,-0.229856 -1.62e-4,-0.07937 -0.060237,-0.241658 -0.1335213,-0.360642 -0.1570512,-0.254988 -0.1773456,-0.601104 -0.055495,-0.946466 0.044618,-0.126464 0.081126,-0.406435 0.081126,-0.622157 0,-0.226294 -0.03432,-0.474364 -0.081126,-0.586385 -0.044618,-0.106789 -0.081126,-0.2455197 -0.081126,-0.3082914 0,-0.3633561 -0.7075421,-1.4007868 -0.9585627,-1.4054884 C 5.705861,8.5115389 5.4898639,8.2183116 5.4084427,7.814344 5.2912453,7.2328753 5.2983616,6.9735389 5.4375884,6.7522412 5.6236097,6.4565645 5.6802778,6.234143 5.7117545,5.6761468 5.7388441,5.1959443 5.7448415,5.1781959 6.059085,4.6485537 6.5408236,3.8366089 6.7047791,3.6149747 6.9252831,3.4776282 7.2818436,3.2555352 7.9237499,3.0008905 8.1270378,3.0008905 c 0.2109733,0 1.0078543,0.3204047 1.2593698,0.5063558 0.1391529,0.1028783 0.6881424,0.8535397 0.6881424,0.9409273 0,0.020831 0.08686,0.1786175 0.193028,0.3506167 0.154131,0.2497122 0.20282,0.3970568 0.241616,0.7311979 0.06698,0.5768327 0.121932,0.8000175 0.287809,1.1688478 0.164837,0.3665176 0.173298,0.4748777 0.06176,0.7910055 -0.04462,0.1264639 -0.08113,0.2889275 -0.08113,0.36103 0,0.2246693 -0.152615,0.4401824 -0.41945,0.5923186 -0.4891749,0.2789047 -0.7508406,0.6052564 -0.9317283,1.1620579 -0.061716,0.1899721 -0.1505755,0.461336 -0.1974664,0.603031 -0.097105,0.293433 -0.080657,0.892653 0.038594,1.406068 0.066412,0.285919 0.063852,0.326033 -0.031049,0.48669 -0.056885,0.0963 -0.1434429,0.34548 -0.1923512,0.553738 -0.061514,0.261936 -0.116469,0.384041 -0.1782864,0.396137 -0.070751,0.01384 -0.089362,-0.02624 -0.089362,-0.192477 0,-0.370842 -0.078839,-0.42019 -0.6680088,-0.418138 -0.4298157,0.0015 -0.5333149,0.01887 -0.6291983,0.105648 -0.093726,0.08482 -0.1084024,0.141493 -0.08007,0.30919 0.030459,0.180293 0.021628,0.205333 -0.072444,0.205333 -0.058924,0 -0.1219076,-0.0385 -0.1399633,-0.08555 z m 1.3806332,-1.181313 c 0.2597597,-0.240862 0.250693,-0.581961 -0.023472,-0.882967 -0.1256149,-0.137914 -0.2092074,-0.150724 -0.3617836,-0.05544 -0.08371,0.05228 -0.1200562,0.05228 -0.1723344,0 -0.1733008,-0.173301 -0.4467539,0.0753 -0.508659,0.462437 -0.029758,0.186086 -0.01271,0.236113 0.1395498,0.409527 0.1612146,0.183613 0.1950215,0.197544 0.4793783,0.197544 0.2488312,0 0.3323207,-0.02447 0.4473194,-0.131103 z M 7.3831292,8.3990495 C 7.6311461,8.3247428 7.7201251,8.1680422 7.6068123,8.0051242 7.5660047,7.9464499 7.5326132,7.8570345 7.5326132,7.8064232 7.5326132,7.7558124 7.3463637,7.4935133 7.1187258,7.2235363 6.7758954,6.8169426 6.6784004,6.7326689 6.5508468,6.7326689 c -0.1260936,0 -0.1539925,0.023301 -0.1539925,0.128605 0,0.070732 -0.036506,0.215976 -0.081126,0.322765 -0.1316649,0.315119 -0.1038312,0.5677143 0.094647,0.858931 0.1253512,0.1839207 0.2378294,0.2799805 0.3921072,0.3348705 0.2746544,0.097719 0.3197825,0.099367 0.5806467,0.021209 z m 2.0525926,7.649e-4 C 9.5742574,8.3583094 9.7076469,8.2605242 9.8205831,8.1176838 9.9792517,7.9170005 9.9924617,7.8701015 9.981688,7.5457222 9.9752316,7.3513787 9.9453121,7.1436943 9.9151991,7.0842021 9.885086,7.0247103 9.8362087,6.9091061 9.8065857,6.8273042 9.7769631,6.7455024 9.7227101,6.6785739 9.6860274,6.6785739 c -0.1190006,0 -0.8428613,0.8214857 -0.9916924,1.1254391 -0.1789644,0.3654914 -0.1364817,0.5113522 0.1728077,0.5933223 0.2831204,0.075035 0.3257893,0.075221 0.5685791,0.00247 z"
       id="path183" />
  </g>
</svg>
