<?xml version="1.0" encoding="UTF-8" standalone="no"?>
<svg
   xmlns:dc="http://purl.org/dc/elements/1.1/"
   xmlns:cc="http://creativecommons.org/ns#"
   xmlns:rdf="http://www.w3.org/1999/02/22-rdf-syntax-ns#"
   xmlns:svg="http://www.w3.org/2000/svg"
   xmlns="http://www.w3.org/2000/svg"
   width="16.0px"
   height="16.0px"
   viewBox="0 0 16.0 16.0"
   version="1.1"
   id="SVGRoot">
  <defs
     id="defs33" />
  <metadata
     id="metadata36">
    <rdf:RDF>
      <cc:Work
         rdf:about="">
        <dc:format>image/svg+xml</dc:format>
        <dc:type
           rdf:resource="http://purl.org/dc/dcmitype/StillImage" />
        <dc:title></dc:title>
      </cc:Work>
    </rdf:RDF>
  </metadata>
  <g
     id="layer1">
    <path
       style="fill:#000000;stroke-width:0.0534656"
       d="m 6.3819675,12.891984 c -0.065557,-0.06556 -0.036597,-0.271265 0.048079,-0.341542 0.1244532,-0.103287 0.2368429,-0.346033 0.2387704,-0.51571 9.278e-4,-0.08233 0.037023,-0.196389 0.080199,-0.25347 0.046879,-0.06198 0.078498,-0.221979 0.078498,-0.397197 0,-0.161377 0.023625,-0.3673 0.0525,-0.457606 0.028875,-0.09031 0.067519,-0.590516 0.085877,-1.1115773 0.028875,-0.8196036 0.046895,-0.9629699 0.1335987,-1.0629386 0.1317972,-0.1519638 0.4561637,-0.2072055 0.9968436,-0.169769 0.6509249,0.045067 0.6222175,-0.034611 0.6602636,1.8325639 0.017076,0.838075 0.055453,1.608706 0.085282,1.712513 0.02983,0.103805 0.118533,0.303909 0.1971214,0.444675 0.078588,0.140765 0.129015,0.278383 0.1120584,0.305819 -0.034943,0.05654 -2.7130161,0.07032 -2.7690923,0.01424 z M 6.4882744,8.0179368 C 6.3943241,7.9141223 6.3705403,7.7949174 6.443775,7.7949174 c 0.024192,0 0.097788,-0.1077214 0.1635438,-0.239386 0.065755,-0.1316591 0.1421974,-0.2533804 0.1698739,-0.2704838 0.027674,-0.017082 0.050317,-0.1485551 0.050317,-0.2921168 0,-0.1435617 0.028084,-0.2783752 0.062411,-0.299588 C 7.0558041,6.5908206 8.0827173,6.5216756 8.4314817,6.5895435 8.7968676,6.6606477 8.842131,6.7079631 8.8786108,7.056984 8.9027597,7.2880546 8.9496353,7.4224152 9.0460758,7.5370254 9.2317956,7.7577434 9.2185784,7.8842956 9.000283,7.9755057 8.8710884,8.0294846 8.7545958,8.0378584 8.5859232,8.0052866 8.2007772,7.9309075 7.406671,7.9489474 7.2552366,8.035515 7.056107,8.1493482 6.5976866,8.1388427 6.4882701,8.0179368 Z M 10.944378,6.5652037 C 10.900271,6.5367162 10.724989,6.5130312 10.55487,6.51254 10.384749,6.5121143 10.192273,6.478486 10.127144,6.4378831 10.062014,6.3972803 9.8533921,6.3490044 9.6635399,6.3306185 9.4736872,6.3122271 9.2944436,6.2732833 9.2652199,6.2440591 9.2359956,6.2148621 9.1236065,6.1909043 9.0154632,6.1909043 c -0.1095502,0 -0.2260979,-0.035527 -0.2631818,-0.080196 -0.094861,-0.1142993 -1.938682,-0.1142993 -2.1386293,0 -0.078693,0.044969 -0.2835334,0.077189 -0.4980731,0.078302 -0.2004243,0.00109 -0.4058982,0.024122 -0.4566086,0.051245 -0.05071,0.027123 -0.4098853,0.066613 -0.7981676,0.087722 -0.4906746,0.026687 -0.7243615,0.060539 -0.7662829,0.1110521 -0.063723,0.07678 -0.4073803,0.098309 -0.5070445,0.031762 C 3.3880193,6.3376094 3.3814251,6.0511846 3.5730297,5.8433842 3.6272596,5.7845699 3.7260785,5.655825 3.7926289,5.5572758 c 0.06655,-0.098549 0.1931796,-0.2188516 0.281398,-0.2673295 0.088219,-0.048461 0.1796382,-0.118223 0.203154,-0.1549839 0.023516,-0.036783 0.07404,-0.066831 0.1122757,-0.066831 0.038234,0 0.16916,-0.072179 0.2909418,-0.1603976 0.1217818,-0.088218 0.2602452,-0.1603977 0.307696,-0.1603977 0.047452,0 0.1932232,-0.072179 0.3239376,-0.1603977 0.130715,-0.088218 0.2750729,-0.1603976 0.3207948,-0.1603976 0.045722,0 0.1900792,-0.072179 0.3207942,-0.1603977 C 6.084336,4.1779251 6.2321828,4.105489 6.2821691,4.105167 6.3321581,4.104845 6.5290301,3.9597662 6.7196676,3.7827618 7.1839946,3.3516402 7.6150565,3.143365 8.0430248,3.143365 c 0.3689397,0 0.4293386,0.039184 1.1124107,0.7217867 0.2059859,0.2058412 0.4581836,0.412501 0.5604384,0.4592325 0.1022559,0.046715 0.3182471,0.1460175 0.4799801,0.2206252 0.161734,0.074608 0.354211,0.1629354 0.427727,0.1962908 0.07352,0.033345 0.205842,0.1081434 0.294061,0.1662098 0.08822,0.058061 0.214531,0.1293889 0.280695,0.158504 0.06616,0.029088 0.120298,0.075628 0.120298,0.1033626 0,0.027724 0.09022,0.106004 0.200497,0.173921 0.110273,0.067917 0.282084,0.2047989 0.381803,0.3041831 0.160839,0.1602941 0.181964,0.2145622 0.18713,0.4807511 0.0057,0.2917894 6.55e-4,0.3026113 -0.181306,0.3926634 -0.206885,0.1023804 -0.828237,0.1309715 -0.962384,0.044259 z"
       id="path221" />
  </g>
</svg>
