<?xml version="1.0" encoding="UTF-8" standalone="no"?>
<svg
   xmlns:dc="http://purl.org/dc/elements/1.1/"
   xmlns:cc="http://creativecommons.org/ns#"
   xmlns:rdf="http://www.w3.org/1999/02/22-rdf-syntax-ns#"
   xmlns:svg="http://www.w3.org/2000/svg"
   xmlns="http://www.w3.org/2000/svg"
   width="16.0px"
   height="16.0px"
   viewBox="0 0 16.0 16.0"
   version="1.1"
   id="SVGRoot">
  <defs
     id="defs33" />
  <metadata
     id="metadata36">
    <rdf:RDF>
      <cc:Work
         rdf:about="">
        <dc:format>image/svg+xml</dc:format>
        <dc:type
           rdf:resource="http://purl.org/dc/dcmitype/StillImage" />
        <dc:title></dc:title>
      </cc:Work>
    </rdf:RDF>
  </metadata>
  <g
     id="layer1">
    <path
       style="fill:#000000;stroke-width:0.0532973"
       d="m 7.332487,12.751698 c 0,-0.143123 0.021992,-0.32976 0.048877,-0.414747 0.08847,-0.279681 0.11806,-1.217105 0.041714,-1.321515 -0.065304,-0.08931 -0.074231,-0.08914 -0.187724,0.0037 -0.1003706,0.08205 -0.1320724,0.197057 -0.2010471,0.729367 -0.1065058,0.821954 -0.1361362,0.89945 -0.3272137,0.855789 -0.2934539,-0.06705 -0.5201364,-0.206047 -0.537683,-0.32969 -0.00945,-0.06659 0.0534,-0.235794 0.1396746,-0.376004 0.086272,-0.140209 0.1754552,-0.31357 0.1981854,-0.385246 0.022732,-0.07168 0.093612,-0.214264 0.1575144,-0.316861 0.0639,-0.102599 0.2097506,-0.371969 0.3241066,-0.598603 0.1612798,-0.319627 0.2428563,-0.42424 0.3636568,-0.466352 0.2246784,-0.07833 1.2663763,-0.06686 1.3656683,0.01503 0.043967,0.03627 0.1972001,0.293327 0.3405122,0.571251 0.1433105,0.277924 0.3819079,0.738012 0.5302137,1.022418 0.2602864,0.499147 0.2663721,0.520723 0.1752896,0.621366 -0.101265,0.111897 -0.594415,0.295791 -0.6692282,0.249554 -0.046464,-0.02872 -0.061075,-0.09924 -0.157422,-0.759898 -0.1094817,-0.750709 -0.3199637,-1.149417 -0.4123865,-0.781173 -0.019336,0.07705 -0.015351,0.358857 0.00886,0.626244 0.024211,0.267386 0.045573,0.666036 0.047464,0.885887 l 0.00353,0.39973 -0.6262446,0.01501 -0.6262429,0.01501 V 12.751722 Z M 5.4136463,11.980162 c -0.2524971,-0.121569 -0.6394314,-0.431313 -0.6394314,-0.51187 0,-0.07233 0.3495874,-0.429652 1.2432233,-1.270721 C 6.4352723,9.8043161 6.6886614,9.4595012 6.6548444,9.3301821 6.6396282,9.2720159 6.5999316,9.2244279 6.5666267,9.2244279 c -0.071348,0 -0.6851481,0.5457366 -1.427826,1.2695001 C 4.8476057,10.777706 4.5745667,11.01763 4.532048,11.027091 4.450074,11.045331 4.379491,10.904181 4.2699579,10.502992 4.1980131,10.239471 4.2457129,10.047427 4.3954301,9.9979005 4.4425331,9.9823144 4.5650226,9.8950592 4.6676209,9.8039941 4.7702175,9.7129281 4.9844068,9.5512683 5.1435968,9.4447482 5.302785,9.3382299 5.486067,9.2151015 5.550888,9.1711309 5.8580658,8.9627604 6.3118866,8.6914398 6.3534579,8.691307 c 0.025481,-1.203e-4 0.1422605,0.046901 0.2595143,0.104404 0.1172546,0.057502 0.2731491,0.116488 0.3464331,0.1310762 0.073282,0.014586 0.1784472,0.059587 0.2336971,0.099999 0.09472,0.06928 0.088636,0.080578 -0.1065948,0.1979181 -0.4063925,0.2442568 -0.5754999,0.6134419 -0.3548845,0.7747596 0.086169,0.063008 0.083908,0.083655 -0.035687,0.3256621 -0.070221,0.142111 -0.1436526,0.270377 -0.1631722,0.285033 -0.01952,0.01466 -0.099123,0.158561 -0.1768953,0.319785 -0.2830867,0.586845 -0.652762,1.123822 -0.7688758,1.116841 -0.021984,-0.0013 -0.099994,-0.0313 -0.1733528,-0.06662 z m 4.8171157,0.02958 C 10.154277,11.957876 9.8276022,11.419496 9.471289,10.758076 9.3177215,10.47301 9.1694006,10.22576 9.1416869,10.208633 c -0.09664,-0.05973 -0.049406,-0.18296 0.082857,-0.2161549 0.096467,-0.024211 0.1332426,-0.069246 0.1332426,-0.163157 0,-0.1365364 -0.051928,-0.2180867 -0.2602515,-0.4087221 -0.069852,-0.063925 -0.1580813,-0.1462032 -0.1960579,-0.1828448 -0.037982,-0.036645 -0.094746,-0.066623 -0.126154,-0.066623 -0.031408,0 -0.057107,-0.023362 -0.057107,-0.051928 0,-0.067615 0.2852716,-0.2145587 0.4165436,-0.2145587 0.056132,0 0.1630352,-0.047969 0.2375668,-0.106594 0.1604921,-0.1262439 0.3724007,-0.1383841 0.4651325,-0.026649 0.036494,0.043967 0.08994,0.079948 0.1187754,0.079948 0.028835,0 0.1399146,0.065959 0.2468466,0.1465692 0.106932,0.080612 0.234754,0.1705508 0.28405,0.199865 0.228468,0.1358554 0.844226,0.5773906 1.045579,0.7497412 0.240255,0.2056501 0.267016,0.3093571 0.148284,0.5746371 -0.04134,0.09237 -0.09729,0.239899 -0.124336,0.327838 -0.02704,0.08794 -0.08502,0.166853 -0.128846,0.175358 -0.04382,0.0085 -0.293666,-0.193043 -0.555205,-0.447888 C 10.097068,9.8217802 9.4621828,9.2695947 9.3944766,9.2918793 9.1439593,9.3743326 9.42559,9.7179242 10.749447,10.944978 l 0.495299,0.45908 -0.103095,0.113918 c -0.289217,0.319581 -0.776708,0.582767 -0.910891,0.491771 z M 7.1292592,9.6348573 c 0.016401,-0.1152757 0.031349,-0.1172925 0.8694439,-0.1172925 0.8172254,0 0.8527573,0.00446 0.8527573,0.1065941 0,0.1018013 -0.0391,0.1070766 -0.8694439,0.1172933 C 7.1138849,9.7521287 7.1125979,9.751969 7.1292592,9.6348573 Z M 4.4667562,9.10451 C 4.3880188,9.0074156 4.2412414,8.5488246 4.2412414,8.3999278 c 0,-0.070348 -0.025203,-0.1941955 -0.056006,-0.2752104 C 4.099466,7.8991252 4.1166956,7.1077505 4.2158278,6.7194548 4.3395018,6.235036 4.6021736,5.7901777 4.9951725,5.3995623 l 0.3359289,-0.3338926 0.067397,0.2967404 c 0.060394,0.2659184 0.055846,0.3365822 -0.043816,0.6803247 -0.061167,0.2109714 -0.1234041,0.4362479 -0.1383093,0.5006139 -0.037082,0.16015 0.2333206,1.008981 0.4014847,1.2602987 0.082378,0.1231183 0.1370289,0.2795424 0.1370289,0.3922381 0,0.2072722 -0.043421,0.2526282 -0.6811279,0.7114359 C 4.6984291,9.1773594 4.5618179,9.2217394 4.4667579,9.10451 Z M 11.109639,9.077575 C 10.82027,8.8856463 10.394123,8.5878755 10.313061,8.5209655 10.187413,8.4172516 10.152832,8.2108528 10.235131,8.0558158 c 0.433,-0.8157181 0.426745,-0.7953141 0.427617,-1.3947977 4.8e-4,-0.3366017 -0.0232,-0.5949776 -0.05865,-0.6395681 -0.101354,-0.1275043 -0.120789,-0.3864077 -0.04298,-0.5726209 0.05332,-0.1275912 0.05896,-0.206894 0.01992,-0.2798242 -0.101781,-0.1901793 0.08248,-0.1128067 0.360529,0.1513889 0.479673,0.4557741 0.785896,1.0071438 0.873718,1.5731731 0.08635,0.5565663 -0.01364,1.4898745 -0.197342,1.8419822 -0.04087,0.078342 -0.07447,0.1796166 -0.07464,0.2250525 -8.32e-4,0.2081821 -0.21077,0.2648107 -0.433664,0.1169732 z M 7.5405183,8.7980439 C 7.3813679,8.6438375 7.2165245,8.5315571 7.1492807,8.5315571 c -0.063916,0 -0.1627603,-0.035872 -0.2196613,-0.079713 C 6.829317,8.3745614 6.8315498,8.3676552 7.0028,8.2253309 7.4766885,7.8314905 7.5578673,7.7346306 7.5247246,7.6025835 7.5000761,7.5043701 7.5313659,7.4348498 7.65638,7.3098063 7.8299816,7.1362056 8.0048517,7.1032932 8.2020712,7.2071021 c 0.1586578,0.083513 0.1945907,0.1487051 0.1955449,0.3547827 6.103e-4,0.129911 0.04596,0.2174495 0.1725869,0.3331076 0.094472,0.086288 0.1986822,0.1568882 0.2315761,0.1568882 0.086852,0 0.2362217,0.180042 0.2362217,0.2847302 0,0.057376 -0.1090295,0.1396662 -0.3020204,0.2279428 C 8.5698684,8.6405336 8.357178,8.7841131 8.2633353,8.8836152 8.0207665,9.1408128 7.8766751,9.1237547 7.5405175,8.7980431 Z M 6.0708924,7.8770163 C 5.9779425,7.7533406 5.8846967,7.5801997 5.8636782,7.4922594 5.8426613,7.4043182 5.8087486,7.3083831 5.7883202,7.2790696 5.7678918,7.2497554 5.722092,7.0904788 5.6865516,6.9251201 5.6279399,6.6524492 5.6330596,6.5929246 5.7415905,6.285552 5.8301412,6.0347606 5.8594134,5.8394969 5.8541676,5.5345889 c -0.00387,-0.226626 0.014746,-0.4255428 0.041437,-0.4420371 0.091598,-0.056611 1.8099617,1.4920213 1.8099617,1.6311825 0,0.026221 -0.092254,0.1059118 -0.20501,0.1770909 -0.1614732,0.1019327 -0.2307641,0.198284 -0.3262822,0.4536966 -0.067086,0.1793837 -0.1538012,0.324278 -0.1940737,0.324278 -0.040041,0 -0.1630318,0.095896 -0.273313,0.2131023 C 6.4393958,8.1761893 6.2931631,8.1727678 6.0708899,7.8770138 Z M 7.1859189,7.0183364 C 7.5058338,6.7754887 6.8574459,6.1331793 6.2923813,6.1331793 c -0.211442,0 -0.2602464,0.096363 -0.1868489,0.3689363 0.064875,0.2409402 0.2258923,0.3999146 0.507829,0.5013947 0.2741487,0.098678 0.4558998,0.1033844 0.5725575,0.01483 z M 9.1978927,7.8879232 C 8.8164791,7.5466611 8.8034462,7.5295138 8.7460811,7.2935015 8.7060735,7.1288976 8.6419351,7.0358956 8.5050281,6.9439656 8.4024306,6.8750732 8.3184868,6.7854577 8.3184868,6.7448202 c 0,-0.1625098 1.6144165,-1.67759 1.7875812,-1.67759 0.03727,0 0.04462,0.1047211 0.02163,0.3079318 -0.02612,0.2308157 -0.0053,0.4283659 0.0831,0.7888387 0.11383,0.4641508 0.114894,0.4927969 0.03051,0.8221505 C 10.087738,7.5856271 9.7589405,8.1068573 9.5362629,8.103846 9.4820647,8.1031247 9.3298003,8.0059479 9.1978893,7.8879232 Z M 9.3398261,6.9977576 C 9.6621202,6.8902748 9.8363217,6.6969703 9.8757409,6.4030731 9.915841,6.1040891 9.7812234,6.0425121 9.3889206,6.180396 9.0535432,6.2982715 8.9223224,6.3811109 8.7825462,6.5632015 8.6237968,6.7700074 8.6113514,6.8589494 8.7242118,6.9800883 8.8502204,7.1153417 8.9763878,7.1189634 9.3398286,6.9977593 Z M 7.3954845,5.8409291 C 7.1409841,5.5922541 6.8787931,5.3510559 6.8128372,5.3049374 6.7468822,5.2588181 6.6929185,5.1870841 6.6929185,5.145529 c 0,-0.087276 0.215695,-0.2086689 0.4669008,-0.2627693 0.3063667,-0.065981 0.3324721,-0.1300874 0.333375,-0.8186555 4.43e-4,-0.3423401 0.018705,-0.6505613 0.040571,-0.684936 0.021857,-0.034374 0.143941,-0.098395 0.2712828,-0.1422674 0.2139909,-0.073725 0.2497078,-0.071975 0.4715178,0.023105 0.2358737,0.1011072 0.2393902,0.1062877 0.2050504,0.3021595 -0.019218,0.1096085 -0.04812,0.3938654 -0.064227,0.6316815 -0.029045,0.4287499 -0.028011,0.4332873 0.122445,0.5385256 0.083454,0.058372 0.223688,0.123246 0.3116284,0.1441627 0.1914735,0.045542 0.3997293,0.1730903 0.3997293,0.2448183 0,0.028413 -0.076997,0.1177979 -0.1711048,0.1986363 C 8.9859782,5.400828 8.7671442,5.605478 8.5937889,5.7747676 8.1955232,6.1636935 8.0309723,6.2930767 7.9345958,6.2930767 c -0.042008,0 -0.2846092,-0.2034639 -0.5391096,-0.4521423 z M 6.0124059,4.654182 C 5.8607711,4.544256 5.7360001,4.4142053 5.7351367,4.3651794 5.7331401,4.252829 6.2483796,3.7956375 6.4264326,3.7517453 6.4997141,3.7336792 6.606984,3.6865023 6.6648047,3.6469054 6.7949923,3.557751 6.970609,3.5541363 7.0553404,3.6388685 7.1325395,3.7160676 7.140388,4.2353776 7.0664457,4.3735435 7.0373752,4.4278611 6.9441202,4.4875606 6.8592122,4.5062096 6.7743041,4.5248583 6.6361974,4.6100849 6.55231,4.6956014 6.4684192,4.7811188 6.3746589,4.8517531 6.3439474,4.8525674 6.3132376,4.8533771 6.1640424,4.7641084 6.0124085,4.6541828 Z m 3.3391342,0.042114 C 9.2565465,4.6095326 9.1164709,4.5248492 9.0402605,4.5081106 8.8322249,4.4624184 8.7568518,4.301664 8.7991747,3.9939346 8.8624018,3.5342345 9.0173169,3.4879465 9.5851372,3.7590952 c 0.3269653,0.1561346 0.6254048,0.4210987 0.6254048,0.5552554 0,0.101218 -0.5011255,0.5396963 -0.6168039,0.5396963 -0.038217,0 -0.1472044,-0.070988 -0.242198,-0.1577514 z"
       id="path250" />
  </g>
</svg>
