<?xml version="1.0" encoding="UTF-8" standalone="no"?>
<svg
   xmlns:dc="http://purl.org/dc/elements/1.1/"
   xmlns:cc="http://creativecommons.org/ns#"
   xmlns:rdf="http://www.w3.org/1999/02/22-rdf-syntax-ns#"
   xmlns:svg="http://www.w3.org/2000/svg"
   xmlns="http://www.w3.org/2000/svg"
   width="16.0px"
   height="16.0px"
   viewBox="0 0 16.0 16.0"
   version="1.1"
   id="SVGRoot">
  <defs
     id="defs33" />
  <metadata
     id="metadata36">
    <rdf:RDF>
      <cc:Work
         rdf:about="">
        <dc:format>image/svg+xml</dc:format>
        <dc:type
           rdf:resource="http://purl.org/dc/dcmitype/StillImage" />
        <dc:title></dc:title>
      </cc:Work>
    </rdf:RDF>
  </metadata>
  <g
     id="layer1">
    <path
       style="fill:#000000;stroke-width:0.0546528"
       d="M 6.8250394,12.847082 C 6.6740678,12.775382 6.4697771,12.642942 6.3710624,12.552779 6.2216583,12.41632 6.186951,12.339369 6.1639622,12.093619 6.1420534,11.859436 6.1589937,11.762407 6.246049,11.62436 6.3711133,11.425957 6.835931,11.110403 7.1563581,11.006373 7.5320445,10.884401 7.6735037,10.75221 7.672555,10.523994 7.6716003,10.293632 7.6504096,10.255 7.4337462,10.088609 7.3177789,9.9995541 7.2013633,9.9675238 6.9935923,9.9675238 6.797935,9.9675238 6.6196071,9.9225825 6.4134438,9.8213031 5.9385139,9.5879999 5.8983081,9.52814 5.6463955,8.6793019 5.6189977,8.5869942 5.5965803,8.4824675 5.5965803,8.4470279 c 0,-0.1073303 0.1604886,-0.072645 0.3568439,0.077123 0.1075444,0.082029 0.2841298,0.1524041 0.4199119,0.1673487 0.1288759,0.014184 0.2842245,0.035667 0.3452188,0.047733 0.1375435,0.02722 0.4629569,0.3118493 0.4629569,0.4049354 0,0.037773 0.032792,0.1339509 0.072871,0.2137356 0.040079,0.079792 0.10855,0.2186722 0.1521734,0.3086364 0.089149,0.1838737 0.230302,0.2353758 0.3569705,0.1302517 0.065277,-0.05418 0.080158,-0.1530394 0.064401,-0.4280733 C 7.8106569,9.0669872 7.7761849,8.9641143 7.6073859,8.7105029 7.3525667,8.3276442 7.1688646,8.2186281 6.7785306,8.2186281 6.2356494,8.2186281 5.8898522,7.9516876 5.6532296,7.349945 5.5294712,7.03522 5.5122045,6.3606379 5.6269438,6.3227882 c 0.031727,-0.010469 0.1131754,0.07971 0.1810061,0.2003929 0.1641523,0.2920698 0.4216533,0.4798898 0.7195648,0.5248466 0.3227197,0.048701 0.5267064,0.2447746 0.6322067,0.6076801 0.075379,0.2593033 0.2880182,0.5082676 0.4341041,0.5082676 0.092733,0 0.1855156,-0.2067051 0.1871351,-0.4168853 C 7.7843912,7.292517 7.4622311,6.848204 7.0468239,6.7348179 6.5161546,6.5899773 6.3090602,6.4357995 6.1492034,6.0665637 6.0346675,5.802007 5.9969566,5.3285454 6.0689975,5.0595665 c 0.044634,-0.1666294 0.2580144,-0.1446937 0.2827091,0.029063 0.017094,0.120294 0.074137,0.1740883 0.5559969,0.5243238 0.183365,0.1332785 0.2540881,0.2261183 0.2797882,0.3672826 0.052004,0.2856596 0.1997292,0.5880644 0.3182505,0.6514954 0.1368172,0.073222 0.1441043,0.072355 0.2457173,-0.029258 0.064484,-0.064485 0.085884,-0.2006186 0.085884,-0.5464011 0,-0.4496044 -0.0045,-0.4652367 -0.1877764,-0.6595967 C 7.4191364,5.1521749 7.369837,4.9051123 7.4586218,4.439544 7.5210239,4.1123433 7.5537332,4.0234176 7.7553645,3.6330302 c 0.045083,-0.0873 0.08198,-0.204797 0.08198,-0.2611036 0,-0.1365751 0.1505386,-0.3453082 0.2490368,-0.3453082 0.04338,0 0.078881,0.038469 0.078881,0.085482 0,0.047015 0.061562,0.2200712 0.1368065,0.3845698 0.075237,0.164499 0.1593754,0.3995362 0.1869589,0.522305 0.027587,0.1227689 0.076692,0.2497563 0.1091297,0.2821941 0.032437,0.032436 0.058983,0.2061877 0.058983,0.3861104 0,0.304957 -0.015663,0.345711 -0.2311076,0.6012118 C 8.2134518,5.5405994 8.1932797,5.5916949 8.174397,5.9258741 8.154594,6.2762859 8.236515,6.5699584 8.3785552,6.657742 8.528772,6.750582 8.8210987,6.3864865 8.8210987,6.1065489 c 0,-0.2223536 0.1066217,-0.3516818 0.4861137,-0.589615 C 9.5729237,5.3503372 9.6538382,5.2644635 9.7279458,5.070415 9.834461,4.7914944 9.9420859,4.7601536 9.9899314,4.9941201 c 0.018443,0.090177 0.047911,0.2329299 0.06549,0.3172275 0.107024,0.5132491 -0.5066451,1.3770097 -0.9783158,1.3770097 -0.1499956,0 -0.5839234,0.260729 -0.5839234,0.3508549 0,0.040141 -0.036897,0.1036004 -0.08198,0.1410204 C 8.2883904,7.2821567 8.294808,8.0297768 8.4188905,8.0773964 8.526151,8.1185534 8.7610548,7.9763311 8.8001794,7.8465447 8.9353582,7.3981372 9.199866,7.0902389 9.4915337,7.0417808 9.822539,6.9867878 9.993769,6.8842205 10.169707,6.6355545 10.413524,6.2909492 10.479128,6.3388426 10.450101,6.8402536 10.421249,7.3386232 10.196114,7.8707541 9.9681599,7.9793618 9.6096078,8.1501913 9.5366087,8.1728948 9.3892701,8.1594072 8.9956439,8.1233702 8.5945792,8.3353514 8.430764,8.6660183 8.2275073,9.0762996 8.1652519,9.2556105 8.1652519,9.4307597 c 0,0.1990016 0.127635,0.4274605 0.2388123,0.4274605 0.1253365,0 0.3659883,-0.3078757 0.3988266,-0.5102369 0.050229,-0.3094929 0.4069477,-0.6100329 0.7759466,-0.6537357 0.1969219,-0.023316 0.3588691,-0.086452 0.5135196,-0.2001862 0.124238,-0.091366 0.245636,-0.16612 0.269773,-0.16612 0.02414,0 0.04389,0.1110058 0.04389,0.24668 0,0.2235046 -0.02837,0.3176945 -0.172583,0.5731122 -0.02546,0.045083 -0.06821,0.1311674 -0.09502,0.1912851 -0.13826,0.3101695 -0.7602685,0.6285074 -1.2280567,0.6285074 -0.2133795,0 -0.4718482,0.1898119 -0.4718482,0.3465119 0,0.204522 -0.3581593,0.665154 -0.6064485,0.779958 -0.3575454,0.165322 -0.5525142,0.239849 -0.6274641,0.239849 -0.045367,0 -0.2187265,0.13301 -0.3852341,0.295575 l -0.302738,0.295576 0.127487,0.22742 c 0.1628522,0.290505 0.348802,0.423777 0.7297159,0.522993 0.3574401,0.0931 0.5157059,0.09851 0.7850769,0.02681 0.1086919,-0.02894 0.3196227,-0.0681 0.4687298,-0.08706 0.2183066,-0.02774 0.3127189,-0.07607 0.4847841,-0.248132 C 9.3130946,12.166356 9.3212087,12.14587 9.2457182,12.030521 9.025669,11.694288 8.1387485,11.5243 7.8919854,11.771063 c -0.2050502,0.20505 -0.1006477,0.382569 0.224988,0.382569 0.1127023,0 0.2142762,-0.03041 0.228175,-0.06832 0.016999,-0.04637 0.044066,-0.05062 0.084263,-0.0132 0.217081,0.202052 -0.5666295,0.342904 -0.9022555,0.162158 -0.1393133,-0.07503 -0.1816934,-0.133568 -0.1816934,-0.250989 0,-0.17557 0.2247609,-0.415844 0.4372236,-0.467399 0.075143,-0.01823 0.171159,-0.06051 0.2133605,-0.09393 0.1009435,-0.07997 0.7547406,-0.07097 0.8372332,0.01147 0.035371,0.03538 0.1094609,0.06432 0.1646207,0.06432 0.055162,0 0.1670648,0.04143 0.2486701,0.09207 0.5026127,0.311885 0.5316027,0.546439 0.1173986,0.949882 -0.1522988,0.148344 -0.3195363,0.269715 -0.3716393,0.269715 -0.052098,0 -0.1254311,0.03075 -0.1629504,0.06832 -0.047083,0.04715 -0.3256298,0.07318 -0.899039,0.08399 -0.7798303,0.01472 -0.8476669,0.0077 -1.1053146,-0.11469 z"
       id="path279" />
  </g>
</svg>
