<?xml version="1.0" encoding="UTF-8" standalone="no"?>
<svg
   xmlns:dc="http://purl.org/dc/elements/1.1/"
   xmlns:cc="http://creativecommons.org/ns#"
   xmlns:rdf="http://www.w3.org/1999/02/22-rdf-syntax-ns#"
   xmlns:svg="http://www.w3.org/2000/svg"
   xmlns="http://www.w3.org/2000/svg"
   width="16.0px"
   height="16.0px"
   viewBox="0 0 16.0 16.0"
   version="1.1"
   id="SVGRoot">
  <defs
     id="defs33" />
  <metadata
     id="metadata36">
    <rdf:RDF>
      <cc:Work
         rdf:about="">
        <dc:format>image/svg+xml</dc:format>
        <dc:type
           rdf:resource="http://purl.org/dc/dcmitype/StillImage" />
        <dc:title></dc:title>
      </cc:Work>
    </rdf:RDF>
  </metadata>
  <g
     id="layer1">
    <path
       style="fill:#000000;stroke-width:0.0475485"
       d="m 6.9733146,12.150622 c -0.053275,-0.03395 -0.049689,-0.0723 0.020636,-0.220482 l 0.085126,-0.179387 -0.1362815,-0.108667 c -0.1309738,-0.104435 -0.1339553,-0.115735 -0.076547,-0.290167 0.044105,-0.134016 0.046373,-0.216518 0.0087,-0.315354 -0.028085,-0.07362 -0.05159,-0.298286 -0.052226,-0.49926 C 6.8220788,10.336331 6.7992035,10.075612 6.7718891,9.9579288 6.7445747,9.8402462 6.7021464,9.5941818 6.6776172,9.4111198 6.5814055,8.6931528 6.5134727,8.4072095 6.4071671,8.272737 6.3479575,8.1978398 6.3120615,8.1240183 6.3273933,8.1086857 6.3427223,8.0933566 6.5039992,8.0778214 6.6857784,8.0741729 6.986737,8.0681668 7.050097,8.0478894 7.3944771,7.8477924 7.6024834,7.7269332 7.7962766,7.6280483 7.8251293,7.6280483 c 0.028847,0 0.2320307,0.096285 0.4515087,0.2139684 0.356179,0.1909811 0.4323939,0.2139684 0.7094114,0.2139684 0.3423499,0 0.3654358,0.026848 0.2103659,0.2446239 C 9.0995778,8.4366046 9.0546697,8.6562949 8.9683591,9.4162608 8.9472481,9.6021493 8.913309,9.7812061 8.892942,9.8141635 8.8332214,9.9107987 8.7266272,11.189819 8.7687847,11.30396 c 0.046893,0.126946 0.021568,0.214841 -0.1006302,0.349348 -0.074431,0.08193 -0.082759,0.121857 -0.041496,0.198956 0.02839,0.05305 0.051626,0.140658 0.051626,0.194681 0,0.09515 -0.023666,0.09822 -0.7568893,0.09822 -0.4162886,0 -0.7853853,0.01047 -0.8202136,0.02327 -0.034826,0.0128 -0.092346,0.0048 -0.1278174,-0.01782 z m 0.991691,-1.489977 c 0,-0.185759 0.030999,-0.446608 0.068891,-0.579665 C 8.1740597,9.5887772 8.2804433,8.8924995 8.2569433,8.6211466 8.2485168,8.5234423 7.9201981,8.2937271 7.7890316,8.2937271 c -0.054745,0 -0.1659302,0.058259 -0.2470747,0.1294596 C 7.411504,8.537658 7.3944216,8.582062 7.3944216,8.8067016 c 0,0.139731 0.024177,0.2992276 0.053723,0.354439 0.056484,0.1055365 0.097314,0.3489762 0.1991307,1.1871944 0.043836,0.360886 0.087134,0.537204 0.1486012,0.605123 0.047708,0.05272 0.1052765,0.08439 0.1279339,0.07039 0.022653,-0.014 0.041191,-0.177443 0.041191,-0.363201 z M 6.6811922,7.8035542 c 0,-0.034226 0.031411,-0.1037687 0.069814,-0.1545329 0.038394,-0.050765 0.070496,-0.1479289 0.07132,-0.2159227 C 6.8239406,7.2987274 6.6045488,6.9570384 6.4031735,6.7803832 6.2325468,6.6306999 5.8972314,6.4868785 5.7188802,6.4868785 5.5420753,6.4868785 5.2673357,6.6843462 5.246169,6.8266366 5.237829,6.8828696 5.193136,6.9524612 5.1469,6.9812834 5.0759027,7.0255494 5.02419,6.9919778 4.8140601,6.7652137 4.537222,6.4664604 3.7846087,5.6654126 3.2359461,5.0855389 3.0386926,4.8770656 2.8773028,4.6927351 2.8773028,4.6759179 c 0,-0.016817 0.1551273,-0.068057 0.3447279,-0.1138598 0.1895998,-0.045808 0.4025059,-0.1128882 0.4731244,-0.1490746 0.070621,-0.036189 0.1954884,-0.065789 0.2774881,-0.065789 0.1769035,0 0.7184385,-0.1265965 0.9389769,-0.2195084 0.085879,-0.03618 0.2107494,-0.065781 0.2774872,-0.065781 0.1313126,0 0.6253096,-0.1108702 0.9690506,-0.2174887 0.5091674,-0.1579286 0.7850042,-0.1400805 1.1173936,0.072307 0.4397546,0.2809851 0.6190883,0.3391799 0.7234908,0.2347774 0.062553,-0.062553 0.1842848,-0.1330284 0.5267241,-0.3049361 0.2220919,-0.1114932 0.2864013,-0.1226897 0.5468099,-0.0952 0.1623131,0.017131 0.4020989,0.063817 0.5328584,0.10374 0.4458113,0.1361103 0.5230953,0.1555208 0.7370033,0.1851014 0.117683,0.01627 0.310255,0.058492 0.427938,0.093823 0.117682,0.035328 0.385144,0.099368 0.594358,0.1423109 0.209213,0.042939 0.44458,0.1000575 0.523035,0.126921 0.07846,0.026866 0.24963,0.067331 0.380389,0.089921 0.421355,0.072808 0.458965,0.088586 0.442912,0.1858195 -0.0082,0.049878 -0.27187,0.354032 -0.585854,0.6758874 -0.313984,0.3218554 -0.804048,0.8372933 -1.089031,1.145418 -0.284982,0.3081246 -0.541612,0.5525127 -0.570287,0.5430849 -0.02868,-0.00943 -0.05943,-0.068954 -0.06836,-0.1322879 -0.02949,-0.2093742 -0.307056,-0.424214 -0.5480579,-0.424214 -0.1622248,0 -0.5039837,0.1545697 -0.6552062,0.2963348 C 9.012091,6.954015 8.8208813,7.2748484 8.8208813,7.4097477 c 0,0.064032 0.034172,0.1505931 0.075946,0.1923607 0.041765,0.041765 0.062966,0.109756 0.047108,0.1510862 C 8.9088286,7.8446791 8.7715431,7.8171998 8.4504004,7.6544133 8.3272705,7.5919945 8.130242,7.4947017 8.0125597,7.4381975 L 7.7985903,7.3354624 7.5608475,7.4617334 C 7.3444919,7.5766448 7.075641,7.7157313 6.8601504,7.8242296 6.7433798,7.8830179 6.6811976,7.8758464 6.6811976,7.8035668 Z M 7.1078203,6.654693 C 7.2307458,6.5238448 7.2142658,6.4811745 6.954597,6.2579781 6.7926837,6.1188056 6.7908469,6.0719345 6.9445659,6.001896 7.1098176,5.9266044 7.075372,5.8312962 6.8368717,5.7039217 6.7263565,5.6449004 6.518655,5.5080622 6.3753131,5.3998373 5.9860324,5.1059283 5.8272539,5.149123 6.1106109,5.4718479 c 0.097139,0.1106354 0.1426454,0.212752 0.1426454,0.3200966 0,0.096955 0.051348,0.2290115 0.133403,0.3430722 0.073373,0.1019929 0.1822651,0.2870773 0.2419857,0.4112982 0.090365,0.1879655 0.1304098,0.225856 0.2386966,0.225856 0.076896,0 0.1752541,-0.048049 0.2404805,-0.1174779 z M 8.8960562,6.735785 C 8.9243298,6.716574 9.0507675,6.5416417 9.1770353,6.3470515 9.351418,6.0783118 9.4082431,5.9449768 9.4133922,5.7924573 9.4188604,5.6315139 9.4511859,5.56269 9.5764547,5.4456747 9.7339603,5.2985409 9.7517653,5.1907705 9.6227018,5.165717 9.5842358,5.1582765 9.4104277,5.2598839 9.2364707,5.391573 9.0625135,5.5232621 8.9031909,5.6317192 8.8824187,5.6325887 c -0.050729,0.00215 -0.2517361,0.171715 -0.2517361,0.2123871 0,0.017767 0.046005,0.069564 0.1022402,0.1150943 L 8.8351622,6.042856 8.6615997,6.2349693 c -0.2008509,0.2223178 -0.2155488,0.3205125 -0.066578,0.444789 0.113219,0.094451 0.2162696,0.1136295 0.3010312,0.056027 z M 8.1296871,6.3972636 C 8.1453299,6.3479686 8.1146807,6.1974024 8.0615669,6.0626627 8.0084621,5.927923 7.9650047,5.7207801 7.9650047,5.6023466 c 0,-0.2431645 -0.065368,-0.399277 -0.1671871,-0.399277 -0.072548,0 -0.087062,0.042957 -0.1687146,0.4992609 -0.1395033,0.7796409 -0.1381748,0.7845516 0.2123334,0.7845516 0.212752,0 0.2649577,-0.016234 0.2882498,-0.089617 z"
       id="path314" />
  </g>
</svg>
