<?xml version="1.0" encoding="UTF-8" standalone="no"?>
<svg
   xmlns:dc="http://purl.org/dc/elements/1.1/"
   xmlns:cc="http://creativecommons.org/ns#"
   xmlns:rdf="http://www.w3.org/1999/02/22-rdf-syntax-ns#"
   xmlns:svg="http://www.w3.org/2000/svg"
   xmlns="http://www.w3.org/2000/svg"
   xmlns:sodipodi="http://sodipodi.sourceforge.net/DTD/sodipodi-0.dtd"
   xmlns:inkscape="http://www.inkscape.org/namespaces/inkscape"
   width="16.0px"
   height="16.0px"
   viewBox="0 0 16.0 16.0"
   version="1.1"
   id="SVGRoot"
   sodipodi:docname="18.svg"
   inkscape:version="1.0.1 (3bc2e813f5, 2020-09-07)">
  <defs
     id="defs33" />
  <sodipodi:namedview
     id="base"
     pagecolor="#ffffff"
     bordercolor="#666666"
     borderopacity="1.0"
     inkscape:pageopacity="0.0"
     inkscape:pageshadow="2"
     inkscape:zoom="22.4"
     inkscape:cx="15.499727"
     inkscape:cy="11.539346"
     inkscape:document-units="px"
     inkscape:current-layer="layer1"
     inkscape:document-rotation="0"
     showgrid="true"
     inkscape:window-width="1833"
     inkscape:window-height="1248"
     inkscape:window-x="220"
     inkscape:window-y="220"
     inkscape:window-maximized="0"
     inkscape:snap-global="false">
    <inkscape:grid
       type="xygrid"
       id="grid42" />
  </sodipodi:namedview>
  <metadata
     id="metadata36">
    <rdf:RDF>
      <cc:Work
         rdf:about="">
        <dc:format>image/svg+xml</dc:format>
        <dc:type
           rdf:resource="http://purl.org/dc/dcmitype/StillImage" />
        <dc:title></dc:title>
      </cc:Work>
    </rdf:RDF>
  </metadata>
  <g
     inkscape:label="Layer 1"
     inkscape:groupmode="layer"
     id="layer1">
    <path
       style="fill:#000000;stroke-width:0.0486121"
       d="M 5.3029335,12.759585 C 5.1498671,12.60652 5.1479625,12.540716 5.2926653,12.404776 l 0.1134708,-0.106601 2.7514401,-0.0038 c 1.513292,-0.0019 2.7747588,0.01046 2.8032598,0.02811 0.0285,0.01759 0.05182,0.105712 0.05182,0.195772 0,0.118998 -0.03501,0.191276 -0.128086,0.264499 -0.126043,0.09919 -0.170586,0.100794 -2.7929904,0.100794 H 5.426678 Z M 5.786551,11.959219 C 5.76954,11.931669 5.777971,11.838512 5.805278,11.75214 5.832583,11.66577 5.868708,11.409158 5.885553,11.1819 5.91982,10.719569 6.1131281,10.06791 6.3580908,9.5889254 6.4438108,9.4213101 6.6620748,9.1297443 6.8431214,8.9410041 7.0241679,8.7522577 7.1722969,8.5792328 7.1722969,8.5564989 c 0,-0.022728 0.034373,-0.075703 0.07639,-0.1177145 0.063609,-0.063613 0.2183238,-0.076391 0.924674,-0.076391 h 0.8482832 l 0.059217,0.1336802 c 0.03257,0.07353 0.2034318,0.2758756 0.3796898,0.4496643 0.426833,0.420857 0.7378341,1.0359452 0.8024781,1.5871201 0.01521,0.129711 0.05978,0.312559 0.09904,0.406338 0.04943,0.11809 0.067,0.304883 0.05716,0.607656 L 10.405002,11.984 8.1112387,11.99665 c -1.5336358,0.0084 -2.3040118,-0.0038 -2.3246884,-0.03738 z M 6.7800686,8.0424269 c -0.026585,-0.032057 -0.018802,-0.086572 0.019923,-0.1395281 0.057571,-0.078733 0.1850367,-0.08892 1.3521546,-0.1080536 1.0758539,-0.017656 1.2981046,-0.00964 1.3462066,0.048273 0.072694,0.087592 0.022433,0.2268576 -0.082949,0.2298441 -1.0501122,0.029803 -2.600197,0.011833 -2.6353366,-0.030554 z M 7.1864557,7.4550816 C 7.1385585,7.3842247 6.9858702,7.2182686 6.8471417,7.0862977 6.3585454,6.6214941 5.9942478,5.7916073 5.8815403,4.8866188 5.8482439,4.619252 5.8072526,4.3348739 5.7904504,4.2546633 c -0.016805,-0.080211 -0.012979,-0.1720106 0.00849,-0.2040047 0.029239,-0.043577 0.6098639,-0.060169 2.3130483,-0.066217 1.2507039,-0.00438 2.2886183,0.00657 2.3064763,0.024418 0.05358,0.053595 0.0062,0.765091 -0.06322,0.9493983 -0.03551,0.094279 -0.07866,0.2968627 -0.09588,0.4501777 -0.01722,0.153315 -0.05165,0.2913279 -0.07652,0.3066926 -0.02486,0.01534 -0.04521,0.078664 -0.04521,0.1406488 0,0.061985 -0.03281,0.1399476 -0.07292,0.1732315 -0.0401,0.033309 -0.072918,0.091518 -0.072918,0.1294164 0,0.1494893 -0.2143974,0.4746333 -0.5367068,0.8139398 C 9.269019,7.168255 9.1167784,7.3525561 9.1167784,7.3819331 c 0,0.128321 -0.2391793,0.1716101 -1.0309989,0.1865991 L 7.2735354,7.5839345 Z M 5.3358461,3.6199466 C 5.196874,3.5226057 5.1988199,3.3944539 5.3417941,3.2282349 l 0.1139904,-0.132522 2.7314742,-0.00376 c 2.9820213,-0.00438 2.8229833,-0.019535 2.8246523,0.2721189 4.84e-4,0.083304 -0.04536,0.1664194 -0.127343,0.2309085 -0.126032,0.099132 -0.170687,0.100747 -2.7843833,0.100747 -2.3254803,0 -2.6697538,-0.00945 -2.7643392,-0.075671 z"
       id="path343" />
  </g>
</svg>
