<?xml version="1.0" encoding="UTF-8" standalone="no"?>
<svg
   xmlns:dc="http://purl.org/dc/elements/1.1/"
   xmlns:cc="http://creativecommons.org/ns#"
   xmlns:rdf="http://www.w3.org/1999/02/22-rdf-syntax-ns#"
   xmlns:svg="http://www.w3.org/2000/svg"
   xmlns="http://www.w3.org/2000/svg"
   width="16.0px"
   height="16.0px"
   viewBox="0 0 16.0 16.0"
   version="1.1"
   id="SVGRoot">
  <defs
     id="defs24" />
  <metadata
     id="metadata27">
    <rdf:RDF>
      <cc:Work
         rdf:about="">
        <dc:format>image/svg+xml</dc:format>
        <dc:type
           rdf:resource="http://purl.org/dc/dcmitype/StillImage" />
        <dc:title></dc:title>
      </cc:Work>
    </rdf:RDF>
  </metadata>
  <g
     id="layer1">
    <path
       style="fill:#000000;stroke-width:0.0492112"
       d="M 8.1991807,12.30067 C 8.1717327,12.26594 8.1358697,12.006463 8.1194857,11.724064 8.0858007,11.143486 8.0205397,11.006483 7.833352,11.123383 7.678162,11.220303 7.5510034,11.069473 7.512285,10.742559 7.455524,10.263302 7.2032883,10.233855 7.1850882,10.704359 7.1756282,10.948934 7.1004612,11.025465 6.9953255,10.897567 6.9451635,10.836547 6.9336425,10.604728 6.9451465,9.8879441 6.9533565,9.3762178 6.9815175,8.9011477 7.0077185,8.8322326 7.101793,8.5848016 6.8376844,8.4803055 6.5969119,8.6696968 6.4268351,8.8034794 6.3330255,8.7936441 6.1636532,8.6242711 6.0478849,8.5085035 6.0202262,8.4388562 6.0219644,8.2674889 6.0231467,8.1503761 6.0546788,7.9688415 6.0920227,7.8640789 6.1759143,7.6287358 6.1289341,7.5069803 5.891445,7.3442501 5.7967564,7.2793682 5.6950871,7.180121 5.6655146,7.1237009 5.6359418,7.067281 5.5817608,7.0034095 5.5451131,6.9817648 5.508465,6.9601209 5.4784802,6.8915808 5.4784802,6.8294553 5.4784802,6.6572817 5.3361578,6.5690498 5.0109727,6.5396273 4.6692268,6.5087069 4.463149,6.410216 3.9692798,6.0417709 3.7377753,5.8690599 3.4481208,5.5033721 3.4040457,5.3281646 3.3735512,5.206943 3.2949639,4.9742648 3.211269,4.7573988 3.1526094,4.6054031 3.1141862,3.7816966 3.1621544,3.7044877 3.2414524,3.5768513 3.3471218,3.6855037 3.3802765,3.9287699 3.4439055,4.395634 4.0896223,5.0772725 4.468254,5.0772725 c 0.085152,0 0.1978091,0.032513 0.2503482,0.072252 0.1312067,0.099239 0.5921193,0.1003847 0.6300402,0.00157 0.015578,-0.040599 0.056702,-0.073919 0.091385,-0.074044 C 5.4747094,5.0769 5.5695211,5.0157135 5.6507198,4.9410266 6.0155571,4.6054501 6.3004435,4.4186936 6.987812,4.0644981 7.3612313,3.8720783 7.5440796,3.862316 7.4490543,4.0398731 c -0.066979,0.1251507 -0.066216,0.397656 0.00111,0.397656 0.1198038,0 0.2428212,-0.1094275 0.2428212,-0.2159965 0,-0.062761 0.054487,-0.1729038 0.1210831,-0.2447617 0.1184837,-0.1278456 0.13037,-0.1299712 0.5536273,-0.098992 0.237899,0.017413 0.4879066,0.060187 0.5555721,0.095054 0.067666,0.034868 0.2337539,0.1133701 0.3690848,0.1744496 0.3523246,0.1590165 0.7627762,0.4655517 0.7627762,0.5696602 0,0.033382 -0.055364,0.1422761 -0.1230291,0.2419869 -0.2472328,0.3643177 -0.070437,0.5080574 0.2363571,0.1921632 0.092,-0.094732 0.191738,-0.1722395 0.221635,-0.1722395 0.0299,0 0.135938,0.055363 0.235649,0.1230284 0.285284,0.1935989 0.689911,0.1819355 1.149731,-0.033142 0.320648,-0.1499825 0.789432,-0.5733508 0.789432,-0.7129537 0,-0.1287677 0.198872,-0.4641373 0.254751,-0.4296022 0.122598,0.075769 -0.06312,1.284525 -0.211448,1.3761949 -0.02382,0.01472 -0.0433,0.072668 -0.0433,0.1287744 0,0.1119814 -0.154634,0.3929438 -0.315531,0.5733054 -0.144703,0.1622077 -0.50953,0.4015224 -0.612108,0.4015224 -0.04736,0 -0.110181,0.024068 -0.139596,0.053483 -0.02942,0.029415 -0.238687,0.065558 -0.465047,0.080316 -0.22636,0.014758 -0.439839,0.049257 -0.474397,0.076665 -0.06912,0.054819 -0.355463,0.4667562 -0.355463,0.5113733 0,0.01537 -0.06538,0.1024091 -0.14529,0.1934212 L 9.9121753,7.486715 10.008124,7.7036224 c 0.114389,0.2585963 0.08905,0.4542283 -0.082856,0.639618 C 9.7889335,8.4902717 9.7009519,8.5059532 9.6122206,8.3990384 9.5335736,8.3042754 9.4165713,8.3052544 9.2786916,8.4018284 9.1760019,8.4737554 9.1692234,8.5151003 9.167754,9.0784837 9.166574,9.5279803 9.148061,9.7024993 9.093937,9.7740573 c -0.09965,0.13175 -0.098525,0.6826067 0.00157,0.7656727 0.1156774,0.096 0.087143,0.321343 -0.073817,0.582937 -0.081199,0.131964 -0.1476338,0.256377 -0.1476338,0.276473 0,0.0201 -0.09859,0.146193 -0.2190877,0.280216 -0.1456822,0.162035 -0.2325128,0.311566 -0.2591574,0.446298 -0.042495,0.214881 -0.1144945,0.278966 -0.1966342,0.175019 z M 8.4339324,9.1049173 C 8.6681043,8.8606811 8.7319743,8.7093491 8.6280033,8.6450915 8.600937,8.6283644 8.5787921,8.5068403 8.5787921,8.3750399 8.5787921,8.0222524 8.3537196,7.8382743 8.2814902,8.1320213 8.2550832,8.2394145 8.2291522,8.2502172 8.0232283,8.239615 7.7304716,8.224541 7.6837184,8.303214 7.7031506,8.7782163 c 0.014309,0.3497596 0.015876,0.3534165 0.1681915,0.3927294 0.084561,0.021824 0.1813894,0.072989 0.2151735,0.1136957 0.033785,0.040708 0.071036,0.074014 0.082781,0.074014 0.011746,0 0.1308317,-0.114182 0.2646358,-0.2537381 z M 7.5169585,7.6351295 c 0.026445,-0.026445 0.1298632,-0.048081 0.2298187,-0.048081 0.2424082,0 0.2883171,-0.1179659 0.1159328,-0.2978959 C 7.7388848,7.1599064 7.7369849,7.1493438 7.8116187,7.0050182 c 0.042633,-0.082443 0.1001791,-0.1639049 0.127879,-0.1810244 0.077552,-0.047929 0.00661,-0.1227486 -0.1163978,-0.1227486 -0.063649,0 -0.1912675,0.083086 -0.3023511,0.1968452 -0.1057177,0.1082651 -0.2068452,0.1968455 -0.2247271,0.1968455 -0.017884,0 -0.091567,-0.059054 -0.1637437,-0.1312303 C 7.049032,6.8804596 6.9476116,6.8324755 6.8549052,6.8324755 c -0.1774143,0 -0.1519464,-0.027234 -0.3374842,0.3608827 L 6.3645065,7.5132314 6.4997258,7.6276216 c 0.1255897,0.1062433 0.1649157,0.1122962 0.5521857,0.084989 0.2293317,-0.016169 0.4386027,-0.051037 0.465047,-0.077481 z m 1.3353509,-0.00349 c 0.020657,-0.033426 0.1103667,-0.042224 0.2366578,-0.023209 0.433941,0.065335 0.4817062,0.058692 0.5873691,-0.081698 C 9.7653557,7.4084583 9.7689379,7.382282 9.7066383,7.3052843 9.6340691,7.2155949 9.4957008,6.9403332 9.4462907,6.7873657 9.4121888,6.6817904 9.2236367,6.6743968 9.0926138,6.7734993 9.0400745,6.8132376 8.9638702,6.8479257 8.9232711,6.8505833 8.7710487,6.8605481 8.4069437,7.1729247 8.3910412,7.3071999 8.3645251,7.5310858 8.7478311,7.8006916 8.8523094,7.6316422 Z"
       id="path22" />
  </g>
</svg>
