<?xml version="1.0" encoding="UTF-8" standalone="no"?>
<svg
   xmlns:dc="http://purl.org/dc/elements/1.1/"
   xmlns:cc="http://creativecommons.org/ns#"
   xmlns:rdf="http://www.w3.org/1999/02/22-rdf-syntax-ns#"
   xmlns:svg="http://www.w3.org/2000/svg"
   xmlns="http://www.w3.org/2000/svg"
   xmlns:sodipodi="http://sodipodi.sourceforge.net/DTD/sodipodi-0.dtd"
   xmlns:inkscape="http://www.inkscape.org/namespaces/inkscape"
   width="16.0px"
   height="16.0px"
   viewBox="0 0 16.0 16.0"
   version="1.1"
   id="SVGRoot"
   sodipodi:docname="2.svg"
   inkscape:version="1.0.1 (3bc2e813f5, 2020-09-07)">
  <defs
     id="defs33" />
  <sodipodi:namedview
     id="base"
     pagecolor="#ffffff"
     bordercolor="#666666"
     borderopacity="1.0"
     inkscape:pageopacity="0.0"
     inkscape:pageshadow="2"
     inkscape:zoom="15.839192"
     inkscape:cx="6.808243"
     inkscape:cy="11.253112"
     inkscape:document-units="px"
     inkscape:current-layer="layer1"
     inkscape:document-rotation="0"
     showgrid="true"
     inkscape:window-width="1833"
     inkscape:window-height="1248"
     inkscape:window-x="264"
     inkscape:window-y="238"
     inkscape:window-maximized="0"
     inkscape:snap-global="false">
    <inkscape:grid
       type="xygrid"
       id="grid42" />
  </sodipodi:namedview>
  <metadata
     id="metadata36">
    <rdf:RDF>
      <cc:Work
         rdf:about="">
        <dc:format>image/svg+xml</dc:format>
        <dc:type
           rdf:resource="http://purl.org/dc/dcmitype/StillImage" />
        <dc:title></dc:title>
      </cc:Work>
    </rdf:RDF>
  </metadata>
  <g
     inkscape:label="Layer 1"
     inkscape:groupmode="layer"
     id="layer1">
    <path
       style="fill:#000000;stroke-width:0.0442812"
       d="m 7.3192074,12.904032 c -0.044278,-0.05335 -0.044647,-0.118844 -0.00181,-0.32104 C 7.3993294,12.196298 7.3659644,6.3429341 7.2811014,6.215506 7.2269424,6.134184 6.9948173,5.9967474 6.9116238,5.9967474 c -0.034578,0 -0.2685714,0.3507307 -0.3988276,0.5977983 -0.1013493,0.1922367 -0.080019,0.285058 0.11891,0.5174613 C 6.808743,7.3188348 6.8258637,7.4359273 6.7040752,7.6069623 6.6319702,7.708225 6.4058467,8.1171501 6.1808824,8.5531144 6.1465714,8.6196054 6.0998344,8.6855417 6.0770223,8.6996411 5.9941353,8.7508671 6.0385883,8.954695 6.1683893,9.1185807 6.332898,9.326289 6.3351902,9.4291484 6.1794593,9.6153504 6.1124833,9.6954314 6.0377588,9.7922869 6.0134041,9.8305847 5.6152645,10.456665 5.4267191,10.709363 5.3565645,10.710914 c -0.044651,9.8e-4 -0.07393,-0.01315 -0.065066,-0.03142 C 5.8806926,9.4653716 5.8891008,9.4277426 5.6252269,9.186003 5.5342922,9.1026933 5.45989,8.9995124 5.45989,8.9567111 5.45989,8.8907681 5.7778268,8.3328238 6.0459597,7.9282216 6.1691069,7.7423979 6.2156292,7.6102741 6.1796989,7.5483998 6.1613025,7.5167206 6.0615623,7.3967024 5.958055,7.2816931 5.7787228,7.0824348 5.7175186,6.897808 5.8115349,6.8397014 5.8344568,6.8255416 5.8965954,6.719746 5.949621,6.604612 6.0026467,6.4894784 6.0632469,6.3653883 6.0842887,6.3288559 6.10533,6.2923234 6.1634305,6.1727643 6.2134003,6.0631684 6.2633709,5.9535725 6.3228924,5.8340118 6.3456704,5.7974809 6.4514389,5.6278473 6.5696003,5.326696 6.5788512,5.2031834 L 6.5890647,5.0668399 6.224359,5.0539953 C 5.9081293,5.0428503 5.8424748,5.0538291 5.730404,5.1367023 5.659317,5.1892603 5.5793328,5.2187753 5.552663,5.2022933 5.495432,5.1669233 5.484478,3.2401909 5.541003,3.1511498 5.56764,3.1091868 5.609216,3.1066808 5.7079042,3.1410828 c 0.1242736,0.043322 3.5161619,0.039206 3.7791471,-0.00459 l 0.1082622,-0.018033 3.921e-4,1.0184717 3.92e-4,1.0184699 -0.1012286,0.014634 c -0.055676,0.00804 -0.1370013,-0.01774 -0.1807227,-0.057309 -0.062227,-0.056314 -0.1552084,-0.069109 -0.428091,-0.058909 l -0.3486247,0.013027 0.00836,0.1219559 c 0.00792,0.1154664 0.1628881,0.4632173 0.6204697,1.3923153 L 9.3668263,6.9883561 9.135111,7.2547652 C 8.8613448,7.5695189 8.8622335,7.6002377 9.15759,8.0316487 c 0.1094735,0.1599029 0.199043,0.2996256 0.199043,0.3104948 0,0.010871 0.05978,0.1211487 0.1328443,0.2450652 0.073064,0.1239183 0.1328435,0.2580171 0.1328435,0.297999 0,0.03998 -0.079706,0.1672203 -0.1771247,0.2827541 -0.097419,0.1155323 -0.1770424,0.2363737 -0.1769401,0.2685379 9.96e-5,0.032161 0.049919,0.1565059 0.1107034,0.2763171 0.060785,0.1198132 0.1105179,0.2631056 0.1105179,0.3184262 0,0.05532 0.018664,0.112121 0.041477,0.126221 0.1116547,0.06901 0.2618397,0.526767 0.1878312,0.572507 -0.039624,0.02449 -0.4949965,-0.604225 -0.4949965,-0.683424 0,-0.02086 -0.024909,-0.05387 -0.055351,-0.073345 C 9.103939,9.9319367 8.7809765,9.4612071 8.7809765,9.408461 c 0,-0.019664 0.069743,-0.132829 0.1549841,-0.2514782 0.1710966,-0.2381546 0.1874349,-0.3105916 0.088563,-0.3926476 -0.036532,-0.030319 -0.066422,-0.073008 -0.066422,-0.094866 0,-0.021855 -0.053645,-0.1240317 -0.1192114,-0.2270534 C 8.725842,8.264783 8.6634835,8.1542863 8.4045858,7.6728478 8.3436989,7.5596234 8.2938824,7.4392093 8.2938824,7.4052583 c 0,-0.033949 0.079706,-0.1672968 0.1771256,-0.2963275 0.097419,-0.1290304 0.1771256,-0.2630362 0.1771256,-0.2977889 0,-0.034757 -0.045687,-0.132577 -0.101527,-0.217383 C 8.4907666,6.5089509 8.3961154,6.3447088 8.3362701,6.2287751 8.1884247,5.9423611 8.0947911,5.9206956 7.9041027,6.1287712 7.7689681,6.2762297 7.7559916,6.3117484 7.7847554,6.4554541 c 0.01775,0.088679 0.02777,0.201089 0.022266,0.2497988 -0.0055,0.04871 -0.018059,1.3924706 -0.0279,2.9861359 -0.011881,1.9239292 -0.0028,2.9126672 0.027027,2.9424942 0.069056,0.06906 0.05351,0.182835 -0.036058,0.263893 -0.1013294,0.0917 -0.3768129,0.09553 -0.4508976,0.0063 z"
       id="path67" />
  </g>
</svg>
