<?xml version="1.0" encoding="UTF-8" standalone="no"?>
<svg
   xmlns:dc="http://purl.org/dc/elements/1.1/"
   xmlns:cc="http://creativecommons.org/ns#"
   xmlns:rdf="http://www.w3.org/1999/02/22-rdf-syntax-ns#"
   xmlns:svg="http://www.w3.org/2000/svg"
   xmlns="http://www.w3.org/2000/svg"
   width="16.0px"
   height="16.0px"
   viewBox="0 0 16.0 16.0"
   version="1.1"
   id="SVGRoot">
  <defs
     id="defs24" />
  <metadata
     id="metadata27">
    <rdf:RDF>
      <cc:Work
         rdf:about="">
        <dc:format>image/svg+xml</dc:format>
        <dc:type
           rdf:resource="http://purl.org/dc/dcmitype/StillImage" />
        <dc:title></dc:title>
      </cc:Work>
    </rdf:RDF>
  </metadata>
  <g
     id="layer1">
    <path
       style="fill:#000000;stroke-width:0.0525371"
       d="M 7.6494408,12.864187 C 7.4218497,12.718565 6.9325531,12.285326 6.9325531,12.229432 c 0,-0.02715 0.079334,-0.138083 0.1762978,-0.246524 0.283945,-0.317554 0.3159205,-0.41493 0.3062687,-0.932688 -0.00947,-0.508102 -0.092125,-0.947485 -0.2033809,-1.081149 -0.03797,-0.04562 -0.069037,-0.106076 -0.069037,-0.1343492 0,-0.051774 -0.1180878,-0.2060581 -0.4923571,-0.6432659 C 6.4324141,8.9368778 5.9701906,8.588809 5.7685753,8.5274561 5.7008244,8.5068371 5.5701327,8.4336095 5.4781507,8.3647246 5.3861681,8.2958396 5.2786545,8.2394792 5.2392323,8.2394792 5.1133352,8.2394792 4.5004921,7.8999424 4.1647142,7.644158 3.7245919,7.3088863 3.437259,6.9712676 3.2182213,6.5320194 L 3.0348321,6.1642589 3.036442,5.3808678 C 3.037992,4.6215075 3.043142,4.5852461 3.2046801,4.1987801 3.5154219,3.4553908 3.7704938,3.038294 3.9143653,3.038294 c 0.142087,0 0.05212,0.3643218 -0.155686,0.6304467 -0.066051,0.084588 -0.2005772,0.5027101 -0.2907889,0.9038013 -0.0725,0.3223428 0.00789,0.9320585 0.1351685,1.0251227 C 3.7427023,5.6997749 3.8327667,5.5851133 3.8336504,5.304096 3.8355585,4.7016751 4.3640375,3.7483275 4.5390855,4.0315611 4.5552622,4.0577372 4.513291,4.1936797 4.4458144,4.3336505 4.1325533,4.9834472 4.0796137,5.4004361 4.2508874,5.8690207 4.3962705,6.2667728 5.1092293,6.9422735 5.4570834,7.0118436 5.6025911,7.0409474 5.64827,7.0160771 5.8694852,6.787356 6.4440509,6.1932882 6.9850813,5.5858473 6.9845632,5.5354054 6.9842483,5.5056338 6.831202,5.3292847 6.6444391,5.1435182 6.1948129,4.6962914 6.0039632,4.2945759 5.9491894,3.6801061 c -0.025371,-0.2846199 0.034411,-0.431663 0.1754982,-0.431663 0.039807,0 0.072373,0.033546 0.072373,0.074548 0,0.040999 0.033582,0.1414794 0.074624,0.2232837 0.041041,0.081804 0.1149311,0.2478201 0.1641959,0.3689238 0.049264,0.1211037 0.1220715,0.23266 0.161793,0.247903 0.039723,0.015241 0.072255,0.058005 0.072295,0.095034 1.574e-4,0.12293 0.3897317,0.5005301 0.6871595,0.6659949 0.3611789,0.200932 0.7006441,0.214738 1.027921,0.041804 C 8.5048634,4.9026261 8.6852772,4.8080939 8.7859695,4.7558645 9.2335165,4.5237179 9.6110862,4.0182953 9.6126979,3.6491897 9.61395,3.3591992 9.6673458,3.2413785 9.7895746,3.2588199 9.8904375,3.2732138 9.9023777,3.3128656 9.9162362,3.6794324 9.9297476,4.0367838 9.9133144,4.1228723 9.7757084,4.4149539 9.6126418,4.7611176 9.2638671,5.138853 8.9158622,5.3461943 8.7079628,5.4700605 8.6583748,5.6260912 8.8014605,5.7061657 c 0.1370181,0.076679 0.7110096,0.5900383 1.0531198,0.941876 0.1767727,0.181799 0.3668387,0.3305432 0.4223697,0.3305432 0.185187,0 0.829621,-0.3697532 1.044262,-0.5991611 0.208007,-0.2223165 0.213091,-0.2370688 0.275255,-0.798742 0.07107,-0.6421264 0.04075,-0.8241925 -0.203918,-1.2246785 -0.15871,-0.2597824 -0.147987,-0.3720399 0.03554,-0.3720399 0.145067,0 0.320928,0.1681385 0.422104,0.4035711 0.03951,0.091934 0.09584,0.1819862 0.125167,0.2001152 0.02934,0.018127 0.05369,0.084761 0.05412,0.1480699 0.0016,0.2369018 0.182903,0.6367623 0.265525,0.5856992 0.07663,-0.047362 0.05777,-0.7331264 -0.02475,-0.8997658 -0.0405,-0.081804 -0.11541,-0.2787646 -0.166456,-0.4376896 -0.05105,-0.1589249 -0.124564,-0.3384181 -0.163376,-0.3988737 -0.03881,-0.060455 -0.0762,-0.202301 -0.08309,-0.315212 -0.02702,-0.443013 0.353418,-0.1850748 0.665787,0.4513995 0.134722,0.2745031 0.293627,0.7434328 0.293627,0.8664881 0,0.059585 0.03724,0.1615116 0.08276,0.2264994 0.09961,0.142208 0.08244,0.8208939 -0.02817,1.113576 -0.03822,0.1011341 -0.105653,0.2784473 -0.149851,0.394029 -0.07568,0.1979077 -1.075378,1.2871622 -1.181333,1.2871622 -0.02412,0 -0.119106,0.056878 -0.211088,0.126392 -0.09198,0.069515 -0.356374,0.2266323 -0.587538,0.3491498 C 10.510362,8.2070899 10.250793,8.3570792 10.164705,8.4178824 9.9786822,8.5492711 9.8340532,8.637025 9.6907815,8.7054389 9.4873153,8.8025947 8.9061871,9.4575319 8.6833936,9.8407745 8.458268,10.228028 8.4036189,10.419047 8.4036189,10.818699 c 0,0.471973 0.075402,0.682328 0.3782649,1.055274 0.1098045,0.135213 0.1996447,0.265926 0.1996447,0.290471 0,0.06308 -0.6331538,0.674434 -0.7714705,0.744913 -0.1643629,0.08375 -0.3871636,0.0658 -0.5605934,-0.04517 z M 8.0635479,8.4800999 C 8.1205451,8.4390708 8.3326703,8.2476862 8.5349379,8.0548056 8.7372067,7.8619256 9.0031766,7.6314295 9.125982,7.5425928 9.2546637,7.4495059 9.3492651,7.3384594 9.3492651,7.2804957 9.3492651,7.164333 8.5581828,6.4018226 8.1269991,6.1023747 7.8852043,5.9344533 7.860046,5.9436859 7.3141852,6.400676 6.7061587,6.9097113 6.4597184,7.1629962 6.4597184,7.2788714 c 0,0.068267 0.1668547,0.2365465 0.4859687,0.4901188 0.2672829,0.2123869 0.4977904,0.3992618 0.5122379,0.4152782 0.084983,0.094211 0.4302112,0.3704341 0.4629737,0.3704341 0.02146,0 0.085653,-0.03357 0.1426492,-0.074603 z"
       id="path67" />
  </g>
</svg>
