<?xml version="1.0" encoding="UTF-8" standalone="no"?>
<svg
   xmlns:dc="http://purl.org/dc/elements/1.1/"
   xmlns:cc="http://creativecommons.org/ns#"
   xmlns:rdf="http://www.w3.org/1999/02/22-rdf-syntax-ns#"
   xmlns:svg="http://www.w3.org/2000/svg"
   xmlns="http://www.w3.org/2000/svg"
   width="16.0px"
   height="16.0px"
   viewBox="0 0 16.0 16.0"
   version="1.1"
   id="SVGRoot">
  <defs
     id="defs24" />
  <metadata
     id="metadata27">
    <rdf:RDF>
      <cc:Work
         rdf:about="">
        <dc:format>image/svg+xml</dc:format>
        <dc:type
           rdf:resource="http://purl.org/dc/dcmitype/StillImage" />
        <dc:title></dc:title>
      </cc:Work>
    </rdf:RDF>
  </metadata>
  <g
     id="layer1">
    <path
       style="fill:#000000;stroke-width:0.0465778"
       d="m 8.188709,12.845469 c -0.016525,-0.02674 0.0032,-0.09937 0.043827,-0.161385 0.040635,-0.06202 0.073881,-0.154178 0.073881,-0.204803 0,-0.05063 0.020954,-0.105 0.046579,-0.120832 0.025903,-0.01601 0.046577,-0.230406 0.046577,-0.482915 0,-0.317221 0.019794,-0.4812 0.065661,-0.543925 0.064433,-0.08811 0.067482,-0.08815 0.163023,-0.0017 0.082743,0.07488 0.097362,0.142088 0.097362,0.447595 0,0.385822 -0.092612,0.673488 -0.3107456,0.965195 -0.1183193,0.15821 -0.1757515,0.184303 -0.2261644,0.102733 z M 7.4957925,12.511607 C 7.336768,12.211799 7.3169407,12.13701 7.3113049,11.815725 c -0.00553,-0.315856 0.00629,-0.371728 0.09654,-0.455914 0.1276907,-0.119114 0.1640127,-0.119651 0.2686962,-0.004 0.072513,0.08013 0.075567,0.11046 0.023734,0.235624 -0.046292,0.111753 -0.047835,0.197354 -0.00697,0.385456 0.028897,0.13299 0.061712,0.325641 0.072901,0.428112 0.011179,0.102471 0.034954,0.243952 0.052811,0.314401 0.026942,0.106285 0.01735,0.128089 -0.056296,0.128089 -0.062627,0 -0.1412346,-0.09891 -0.2669398,-0.33591 z m 1.4006141,0.07197 c -0.014417,-0.01441 0.00571,-0.07493 0.044747,-0.134486 0.051363,-0.07839 0.074315,-0.261206 0.083148,-0.662222 0.00672,-0.304667 0.027338,-0.578419 0.045819,-0.608337 0.050196,-0.08121 0.1897567,-0.06571 0.2770811,0.03078 0.097844,0.108116 0.1048637,0.596879 0.011272,0.784383 -0.036202,0.07253 -0.1043231,0.211452 -0.1513789,0.308727 -0.084163,0.173993 -0.2593248,0.332507 -0.3106784,0.281153 z M 6.8633567,12.463249 C 6.7542745,12.295457 6.6667332,11.963355 6.64372,11.630032 6.624629,11.353667 6.633579,11.310369 6.727932,11.222475 c 0.058056,-0.05409 0.1435257,-0.09834 0.1899309,-0.09834 0.075931,0 0.084414,0.04777 0.084777,0.477424 2.443e-4,0.262583 0.013623,0.587465 0.029782,0.721958 0.032717,0.272406 -0.042432,0.334519 -0.1690619,0.139734 z m 2.7148752,-0.344558 c -0.01619,-0.04221 1.039e-4,-0.141766 0.036173,-0.221246 0.0412,-0.09073 0.063636,-0.286528 0.060292,-0.526134 -0.00579,-0.412975 0.034046,-0.48073 0.2100261,-0.357468 0.079296,0.05554 0.098502,0.117311 0.098502,0.316828 0,0.163474 -0.023765,0.267573 -0.069866,0.30582 -0.038426,0.03189 -0.069866,0.09614 -0.069866,0.142774 0,0.08105 -0.1736624,0.41616 -0.215666,0.41616 -0.011088,0 -0.033399,-0.03453 -0.049594,-0.07673 z m -3.2859293,-0.05136 c -0.076838,-0.08665 -0.2216251,-0.597105 -0.2216251,-0.781344 0,-0.06054 0.051082,-0.168896 0.1135143,-0.240773 0.1051906,-0.121104 0.1191837,-0.125109 0.1908563,-0.05461 0.061,0.06 0.066541,0.09627 0.026209,0.171605 -0.060779,0.113567 -0.067766,0.494356 -0.011119,0.605427 0.021993,0.04315 0.052923,0.14657 0.068701,0.229827 0.032736,0.17275 -0.046033,0.20579 -0.1665602,0.06987 z m 1.4086019,-0.985107 c -0.1362434,-0.11027 -0.2190378,-0.135809 -0.5040486,-0.155482 -0.1875636,-0.01294 -0.3646742,-0.04719 -0.3935828,-0.0761 -0.028896,-0.02891 -0.091024,-0.05256 -0.1380366,-0.05256 -0.047013,0 -0.1356724,-0.03289 -0.1970175,-0.07308 -0.099982,-0.06551 -0.1227361,-0.06577 -0.2196061,-0.0024 C 6.1455483,10.789943 6.129359,10.783084 5.8990161,10.574395 5.7661754,10.454047 5.5412757,10.273985 5.3992408,10.174261 5.151276,10.00017 4.9528046,9.7142327 4.9528046,9.5310859 c 0,-0.040218 -0.031309,-0.133162 -0.069577,-0.2065395 -0.089557,-0.1717145 -0.089557,-0.6074707 0,-0.7791849 0.038268,-0.073377 0.070323,-0.178178 0.07123,-0.2328896 9.141e-4,-0.054712 0.031606,-0.1518765 0.068215,-0.215921 C 5.1106351,7.942676 5.1088567,7.8112053 5.0159209,7.5974183 4.9737834,7.5004821 4.9109049,7.3530502 4.8761895,7.2697921 4.8414711,7.1865343 4.7831745,7.0502936 4.7466356,6.9670352 4.6735273,6.8004456 4.6204569,6.5533652 4.6190824,6.3731666 4.6172496,6.1325315 4.6878166,5.6244679 4.7263898,5.6006269 4.748444,5.5869974 4.7668447,5.5404006 4.7672754,5.4970809 4.7675808,5.4537617 4.8410466,5.2715981 4.9302526,5.0922731 5.0194586,4.9129477 5.0924662,4.7378035 5.0924906,4.7030631 5.0925608,4.6135538 5.345135,4.2976606 5.6565068,3.9976646 5.9124227,3.7510998 6.612212,3.3455999 6.7818055,3.3455999 c 0.041356,0 0.088149,-0.020961 0.103981,-0.046578 0.015823,-0.025619 0.095673,-0.04732 0.1774193,-0.048228 0.081744,-9.141e-4 0.2010281,-0.031605 0.2650735,-0.068217 0.1752229,-0.1001661 1.3783828,-0.096389 1.6170037,0.00508 0.2820356,0.1199262 1.0547164,0.483809 1.131093,0.5326725 0.03843,0.024583 0.113591,0.063781 0.167028,0.087107 0.11918,0.05202 0.367558,0.2961395 0.448547,0.4408552 0.0329,0.058775 0.138406,0.2245487 0.234475,0.3683861 0.09607,0.1438378 0.174667,0.2927332 0.174667,0.3308788 0,0.038146 0.01848,0.08077 0.04104,0.094721 0.02257,0.013951 0.05563,0.181079 0.07347,0.3713956 0.01784,0.190316 0.06158,0.3844988 0.09721,0.4315179 0.09199,0.1213913 0.09043,0.6840643 -0.0022,0.7608691 -0.03843,0.031891 -0.06987,0.1013925 -0.06987,0.1544476 0,0.053055 -0.07549,0.2513046 -0.167746,0.4405554 -0.143311,0.2939693 -0.163334,0.3735216 -0.137452,0.5461167 0.01668,0.1111132 0.06209,0.2284107 0.10095,0.2606625 0.163592,0.1357666 0.21713,0.3290916 0.190102,0.6864526 -0.01442,0.1904116 -0.04855,0.3685685 -0.07588,0.3959043 -0.02734,0.027335 -0.0497,0.1490727 -0.0497,0.2705265 0,0.1214541 -0.01793,0.231898 -0.03981,0.2454323 -0.0219,0.013539 -0.08663,0.1529805 -0.14383,0.3098807 -0.0973,0.2668473 -0.119548,0.2921753 -0.344454,0.3921133 -0.132242,0.05876 -0.339623,0.194484 -0.46085,0.301606 -0.2100182,0.185584 -0.2253307,0.191321 -0.3247636,0.121675 -0.147118,-0.103046 -0.2363053,-0.09237 -0.556798,0.06664 -0.1943539,0.09643 -0.3505621,0.139734 -0.5040426,0.139734 -0.1408712,0 -0.2436639,0.02561 -0.2803892,0.06987 -0.031893,0.03843 -0.084291,0.06987 -0.1164467,0.06987 -0.032153,0 -0.084551,0.03144 -0.1164437,0.06987 -0.09285,0.111879 -0.3310128,0.08158 -0.5123572,-0.0652 z M 7.9329092,10.47673 c 0.0354,-0.187604 0.047459,-0.415391 0.028988,-0.5472892 C 7.9444859,9.8051767 7.9177831,9.6027843 7.9025593,9.4796803 7.8781222,9.2820699 7.849849,9.2367406 7.6611644,9.0926701 7.5181734,8.9834868 7.4161748,8.9378895 7.3529389,8.9548809 c -0.051983,0.013969 -0.1317105,0.02568 -0.1771749,0.026031 -0.045467,3.666e-4 -0.1018153,0.051 -0.1252164,0.1125559 -0.023398,0.061556 -0.064806,0.1256734 -0.092004,0.1424831 -0.076172,0.047077 -0.060508,0.4236831 0.020405,0.4908438 0.038426,0.031892 0.069864,0.086934 0.069864,0.1223166 0,0.078879 0.1443932,0.3537937 0.2357252,0.4488087 0.036869,0.03835 0.1241565,0.166581 0.1939751,0.28495 0.1039657,0.176264 0.1510887,0.215217 0.260351,0.215217 0.1280786,0 0.1358343,-0.01284 0.1940453,-0.321357 z m 0.6751571,0.130137 c 0.095016,-0.10517 0.1972588,-0.24665 0.227212,-0.3144 0.029965,-0.06775 0.1086332,-0.207023 0.1748504,-0.3094945 C 9.0763427,9.8805014 9.1562231,9.7183695 9.1876334,9.6226797 9.2414825,9.4586446 9.2363511,9.4370043 9.0978749,9.2441769 8.8585298,8.9108949 8.5653297,8.8407019 8.3099911,9.0555547 L 8.1666854,9.1761408 v 0.7799214 c 0,0.4289558 0.01396,0.7938948 0.031049,0.8109728 0.082517,0.08252 0.2502221,0.01705 0.4103314,-0.160167 z M 6.8990739,9.0408884 c 0.069547,-0.044216 0.143211,-0.1070966 0.1636981,-0.1397339 0.020496,-0.032638 0.074147,-0.059341 0.1192478,-0.059341 0.091928,0 0.379153,-0.26096 0.379153,-0.3444814 0,-0.029678 -0.057866,-0.1162711 -0.1285857,-0.1924291 C 7.0861303,7.9318127 6.6270847,7.727059 6.1326733,7.7250885 5.9462094,7.7243554 5.7952703,7.6953277 5.7027196,7.6424318 5.5449688,7.55227 5.3952973,7.5992461 5.3952973,7.7389184 c 0,0.099948 0.3345713,0.492481 0.7659271,0.8986126 0.1935688,0.1822495 0.3833836,0.3639036 0.4218102,0.4036748 0.092939,0.096194 0.1643519,0.096122 0.3160393,-3.054e-4 z M 9.9182222,8.8540361 C 10.062878,8.7070511 10.246721,8.4746473 10.326763,8.337583 c 0.08004,-0.1370636 0.180679,-0.3050042 0.223638,-0.3732011 0.18669,-0.2963692 0.0099,-0.4726937 -0.317493,-0.3165887 -0.08783,0.041882 -0.2415802,0.07615 -0.3416701,0.07615 -0.1000926,0 -0.1932294,0.018196 -0.2069754,0.040439 -0.013747,0.02224 -0.1299449,0.054361 -0.258219,0.071377 C 9.2283327,7.8619859 9.1582423,7.9012709 8.9657884,8.0937246 8.686731,8.3727814 8.6572726,8.4681637 8.793232,8.6524448 c 0.1159855,0.1572105 0.3187272,0.329103 0.388167,0.329103 0.024834,0 0.071263,0.03144 0.1031563,0.069867 0.031893,0.038427 0.1283352,0.069867 0.2143216,0.069867 0.1286713,0 0.2028765,-0.047291 0.4193453,-0.2672457 z"
       id="path96" />
  </g>
</svg>
