<?xml version="1.0" encoding="UTF-8" standalone="no"?>
<svg
   xmlns:dc="http://purl.org/dc/elements/1.1/"
   xmlns:cc="http://creativecommons.org/ns#"
   xmlns:rdf="http://www.w3.org/1999/02/22-rdf-syntax-ns#"
   xmlns:svg="http://www.w3.org/2000/svg"
   xmlns="http://www.w3.org/2000/svg"
   width="16.0px"
   height="16.0px"
   viewBox="0 0 16.0 16.0"
   version="1.1"
   id="SVGRoot">
  <defs
     id="defs24" />
  <metadata
     id="metadata27">
    <rdf:RDF>
      <cc:Work
         rdf:about="">
        <dc:format>image/svg+xml</dc:format>
        <dc:type
           rdf:resource="http://purl.org/dc/dcmitype/StillImage" />
        <dc:title></dc:title>
      </cc:Work>
    </rdf:RDF>
  </metadata>
  <g
     id="layer1">
    <path
       style="fill:#000000;stroke-width:0.0436177"
       d="m 7.2560343,12.607635 c -0.214782,-0.21935 -0.2189958,-0.228712 -0.1914178,-0.425273 0.015512,-0.110543 0.055552,-0.222779 0.088982,-0.249413 0.03343,-0.02664 0.060778,-0.07011 0.060778,-0.09662 0,-0.02651 0.058882,-0.115261 0.1308538,-0.197229 0.071969,-0.08197 0.1308538,-0.168574 0.1308538,-0.192457 0,-0.02388 0.029446,-0.06786 0.065425,-0.09772 0.1027427,-0.08527 0.077521,-0.360049 -0.060768,-0.662129 -0.069409,-0.151609 -0.1392179,-0.33741 -0.155135,-0.41289 -0.015916,-0.07548 -0.067081,-0.171754 -0.1137031,-0.213945 -0.080928,-0.07324 -0.088713,-0.07314 -0.171999,0.0022 -0.06378,0.05772 -0.087231,0.134342 -0.087231,0.284935 0,0.129889 -0.024172,0.226048 -0.065425,0.260287 -0.035989,0.02987 -0.065425,0.07736 -0.065425,0.105533 0,0.103156 -0.3636584,0.415236 -0.6324589,0.542756 -0.047979,0.02276 -0.1587119,0.116837 -0.2460725,0.209058 -0.1410482,0.148895 -0.1623165,0.201865 -0.1899109,0.472996 -0.01709,0.167929 -0.050991,0.317738 -0.075337,0.332909 -0.024346,0.01518 -0.1294191,-0.01405 -0.2335013,-0.06494 C 5.2885361,12.129443 5.2319944,12.065393 5.122587,11.841004 5.049598,11.691299 4.9898875,11.514423 4.9899058,11.447947 4.9899713,11.261981 5.2287275,11.029878 5.6024427,10.852512 6.1529239,10.591251 6.2413479,10.439387 6.2848536,9.6805079 6.3163586,9.1310514 6.2801384,9.0926025 6.0180921,9.3969921 5.6113351,9.8694089 5.5531623,9.8980705 4.9591157,9.918745 c -0.5038693,0.01753 -0.5294833,0.03142 -0.8483254,0.459648 -0.093774,0.125946 -0.1877554,0.228993 -0.2088485,0.228993 -0.021093,0 -0.081063,-0.08824 -0.1332721,-0.196081 C 3.6265284,10.11768 3.6382807,9.6984255 3.7943917,9.4937552 3.8583447,9.4099112 3.9621143,9.331199 4.0249955,9.3188405 c 0.062885,-0.012356 0.1709328,-0.04083 0.2401131,-0.06326 0.079157,-0.025664 0.1548954,-0.025212 0.2043162,0.00125 0.043197,0.023114 0.2025014,0.042004 0.3540144,0.041984 0.2433771,-3.27e-5 0.2889353,-0.01402 0.3909573,-0.1199492 0.2963603,-0.3077057 0.4231561,-0.4525837 0.4945564,-0.565083 0.042533,-0.067013 0.1264129,-0.174653 0.1863976,-0.2391931 0.1669509,-0.1796261 0.1084634,-0.253406 -0.2008828,-0.253406 -0.1758857,0 -0.2749784,0.020776 -0.312034,0.065425 -0.034334,0.041369 -0.1305564,0.065426 -0.2617066,0.065426 -0.1311511,0 -0.2273715,-0.024057 -0.2617066,-0.065426 C 4.8291515,8.1506282 4.7746575,8.1211832 4.7379078,8.1211832 4.7011588,8.1211832 4.517,8.0034154 4.3286624,7.8594765 3.9704167,7.5856846 3.8203298,7.541283 3.6239495,7.6509955 3.4713019,7.7362728 3.2321906,7.8129907 3.1935233,7.7890934 3.1356998,7.7533543 3.1527226,7.5564967 3.2271935,7.3995535 3.316089,7.2122293 3.6532153,6.8647998 3.8003952,6.8088422 3.993189,6.7355453 4.3040528,6.8981996 4.7178162,7.2888826 5.0017833,7.5570077 5.0316332,7.5655566 5.3235545,7.4623462 5.4638916,7.412731 5.6940931,7.3560469 5.8351134,7.3363837 6.1066661,7.2985179 6.2866492,7.1766797 6.242186,7.0608106 6.2126633,6.9838858 5.9112058,6.833314 5.6603719,6.7702134 5.474289,6.7233984 5.1207259,6.3981254 5.1207259,6.273741 c 0,-0.033583 -0.029446,-0.085499 -0.065425,-0.1153601 -0.035989,-0.029859 -0.065425,-0.090348 -0.065425,-0.1344007 0,-0.1182287 -0.137558,-0.3644917 -0.2516845,-0.4505764 C 4.6833894,5.5320638 4.5654804,5.4881838 4.476174,5.4758918 4.386864,5.4635938 4.2745435,5.4372568 4.2265633,5.4173568 4.1785843,5.3974568 4.1000715,5.3679818 4.0520922,5.3518548 3.9744072,5.3257478 3.9902652,5.2990548 4.1967913,5.1080947 4.324356,4.9901489 4.48138,4.881951 4.5457344,4.8676544 c 0.064357,-0.014299 0.18427,-0.056159 0.2664796,-0.093033 0.1037232,-0.046526 0.1829112,-0.055283 0.2587284,-0.028618 0.1314638,0.046238 0.3947294,0.3999008 0.4433428,0.5955815 0.038838,0.156333 0.1247665,0.410913 0.1726351,0.5114733 0.042908,0.090146 0.3479828,0.2936466 0.4806351,0.3206155 0.3016124,0.061317 0.6221818,0.158069 0.6784309,0.2047512 0.049163,0.040801 0.077502,0.040377 0.1284991,-0.00192 C 7.0755085,6.2926556 7.0570395,6.2470676 6.7839231,5.9060084 6.4767756,5.5224588 6.3952031,5.3124121 6.4627475,5.0789917 6.4887964,4.9889608 6.5236117,4.7638583 6.5400956,4.5787598 L 6.5700803,4.2422166 6.3012701,3.9734073 C 6.0299474,3.7020837 5.9840456,3.5766533 6.1462428,3.5497835 c 0.0477,-0.00789 0.1485858,-0.042475 0.2241806,-0.076829 0.1758423,-0.079917 0.3251344,-0.079369 0.4321535,0.00154 0.046565,0.035219 0.1128957,0.064665 0.1473954,0.065425 0.034498,7.631e-4 0.1286155,0.045554 0.209144,0.099528 l 0.1464158,0.09814 -0.019034,0.327133 c -0.023422,0.4026769 -0.086114,0.7293298 -0.152765,0.7959764 -0.06811,0.06811 -0.063366,0.1951294 0.00885,0.2377796 0.032496,0.019188 0.111844,0.1192371 0.1763341,0.2223397 0.064492,0.1031026 0.1432114,0.1974205 0.1749378,0.2095953 0.031726,0.012173 0.133936,0.1285819 0.2271309,0.2586822 0.1156248,0.161411 0.1998022,0.2368461 0.2650131,0.237488 C 8.1231384,6.0279317 8.135827,5.9820567 8.08411,5.6718918 7.9901081,5.1081277 7.9895211,5.0828899 8.0668404,4.9318244 8.1083339,4.8507523 8.1984804,4.712893 8.2671622,4.6254756 8.3358401,4.5380621 8.3925849,4.4497334 8.3932517,4.4291964 8.3939186,4.4086613 8.4528073,4.3346042 8.5241055,4.2646368 8.6419483,4.1489957 8.6537218,4.1112858 8.6534784,3.8502672 8.6533148,3.6808856 8.6264864,3.5118774 8.5880529,3.4381821 8.5522176,3.3694656 8.5228969,3.2873706 8.5228969,3.2557452 c 0,-0.094284 0.1654103,-0.1179082 0.312339,-0.044611 0.075481,0.037654 0.1654632,0.068466 0.1999561,0.068466 0.034488,0 0.1687503,0.1030468 0.2983513,0.228994 C 9.5212804,3.6910368 9.5692366,3.7658811 9.5694531,3.8767714 9.569584,3.9533204 9.5498031,4.028269 9.5254481,4.04332 9.5010931,4.05837 9.4513331,4.142093 9.4148676,4.2293693 9.3783976,4.3166483 9.2197084,4.5215253 9.0622157,4.6846588 8.7401539,5.0182564 8.7627049,4.8987373 8.870565,5.7003883 c 0.068909,0.5121719 0.079561,0.5452224 0.1756345,0.5452224 0.063886,0 0.125339,-0.085171 0.2434609,-0.3374757 0.086904,-0.1856114 0.195674,-0.3903818 0.2417181,-0.4550451 0.084902,-0.1192362 0.7363895,-0.4723951 0.8714455,-0.4723951 0.108179,0 0.344584,-0.2380808 0.344584,-0.3470263 0,-0.1117833 0.154308,-0.4641031 0.221438,-0.5055919 0.06455,-0.039886 0.432829,0.3633543 0.432829,0.4739213 0,0.048942 0.0221,0.1501062 0.04912,0.224808 0.04162,0.1151051 0.0347,0.1640679 -0.04538,0.321037 -0.09861,0.1932885 -0.310523,0.3558235 -0.464291,0.3561025 -0.04939,9.82e-5 -0.127904,0.028984 -0.174471,0.064203 -0.04656,0.03522 -0.129614,0.064665 -0.184546,0.065425 -0.287019,0.00395 -0.564517,0.3010514 -0.6416733,0.6869191 -0.015435,0.077175 -0.075712,0.2105316 -0.1339524,0.2963575 -0.1119719,0.1649993 -0.1297404,0.2650505 -0.065185,0.3670523 0.04414,0.069746 0.016907,0.084623 0.4534637,-0.2475919 0.133983,-0.1019566 0.261667,-0.1853757 0.283743,-0.1853757 0.02208,0 0.06569,-0.030783 0.09691,-0.068409 0.05811,-0.070025 0.294085,-0.068871 1.02535,0.005 l 0.264513,0.026723 0.243511,-0.2474255 c 0.351935,-0.3575931 0.456378,-0.3035668 0.466223,0.2411687 0.0082,0.4533641 -0.231299,0.7311456 -0.640738,0.7431789 -0.196876,0.00577 -0.505541,-0.055119 -0.596823,-0.1177735 -0.164277,-0.1127389 -0.354041,-0.072022 -0.622272,0.1335097 -0.370581,0.2839632 -0.638847,0.5730939 -0.607509,0.6547598 0.03289,0.085701 0.158884,0.087885 0.319972,0.00558 0.06792,-0.034719 0.218954,-0.091648 0.335641,-0.126512 0.186126,-0.05561 0.236968,-0.055476 0.414369,0.00106 0.111217,0.035441 0.27091,0.1004034 0.354874,0.1443585 0.08397,0.043957 0.248819,0.130771 0.366343,0.1929238 0.117525,0.062154 0.234003,0.1130073 0.25884,0.1130073 0.06539,0 0.416739,-0.1748637 0.445785,-0.2218634 0.01354,-0.021911 0.07254,-0.039838 0.131095,-0.039838 0.101825,0 0.106471,0.012211 0.106471,0.2800005 0,0.2758397 -0.0033,0.2836178 -0.222466,0.5234133 -0.210626,0.2304585 -0.233556,0.2434137 -0.430837,0.2434137 -0.132007,0 -0.228271,-0.02398 -0.262671,-0.065425 -0.02986,-0.035989 -0.0775,-0.065425 -0.105867,-0.065425 -0.02836,0 -0.177003,-0.088328 -0.33031,-0.1962802 -0.285032,-0.2007132 -0.479602,-0.2469363 -0.643952,-0.152985 -0.10359,0.059219 -0.442806,0.1782404 -0.584793,0.2051881 -0.127893,0.024269 -0.3118946,0.1733394 -0.2792194,0.2262081 0.026184,0.04236 0.2835024,0.1205295 0.5919944,0.1798319 0.238824,0.04591 0.56703,0.2664988 0.56703,0.3811045 0,0.027743 0.05397,0.1348454 0.11995,0.2380044 0.205415,0.3212047 0.228065,0.3594227 0.269686,0.4550487 0.0423,0.09719 0.195598,0.141942 0.569956,0.166393 0.145598,0.0095 0.200178,0.0325 0.211375,0.08904 0.02046,0.103282 -0.375754,0.502097 -0.498815,0.502097 -0.05194,0 -0.118873,0.02945 -0.148737,0.06543 -0.03065,0.03693 -0.125734,0.06542 -0.218299,0.06542 -0.133669,0 -0.196859,-0.03286 -0.341681,-0.177683 -0.09773,-0.09773 -0.189709,-0.2204 -0.204407,-0.272611 -0.01469,-0.05221 -0.05357,-0.153812 -0.08637,-0.225782 -0.0328,-0.07197 -0.07149,-0.160296 -0.08595,-0.19628 C 10.614584,9.979666 10.335384,9.8262863 9.9349157,9.8235543 9.8294045,9.8228346 9.7324047,9.795244 9.7005821,9.7568972 c -0.06965,-0.083921 -0.3489432,-0.088414 -0.3489432,-0.00558 0,0.0329 0.1030478,0.1647938 0.228994,0.2930968 0.3842521,0.391438 0.3810438,0.382976 0.3813681,1.006014 l 2.945e-4,0.552001 0.1530835,0.183229 c 0.0842,0.100774 0.215171,0.225307 0.291057,0.276737 0.16808,0.113913 0.200235,0.193085 0.0938,0.230969 -0.04398,0.01566 -0.11527,0.05883 -0.158427,0.09596 -0.05622,0.04835 -0.165991,0.06615 -0.3870965,0.06273 -0.3427663,-0.0053 -0.5878861,-0.103727 -0.6266593,-0.25168 -0.012692,-0.04845 -0.045237,-0.161894 -0.072306,-0.252103 -0.038482,-0.128225 -0.036615,-0.187574 0.00856,-0.271972 0.031967,-0.05972 0.059036,-0.251517 0.060595,-0.429287 l 0.00279,-0.321332 -0.2824621,-0.26934 c -0.4046386,-0.385847 -0.582468,-0.501309 -0.7192245,-0.466986 -0.1564341,0.03926 -0.1724753,0.118393 -0.067889,0.334866 0.09387,0.194296 0.1226042,0.58497 0.053484,0.727207 -0.1327938,0.273247 -0.36137,0.687448 -0.4016511,0.727825 -0.063857,0.06401 -0.048874,0.268759 0.024086,0.329315 0.035989,0.02987 0.065425,0.08875 0.065425,0.130853 0,0.04211 0.029446,0.100989 0.065425,0.130854 0.035989,0.02987 0.065425,0.100966 0.065425,0.158003 0,0.09998 -0.011749,0.103704 -0.3273495,0.103704 H 7.4756133 L 7.2559968,12.607693 Z"
       id="path125" />
  </g>
</svg>
