<?xml version="1.0" encoding="UTF-8" standalone="no"?>
<svg
   xmlns:dc="http://purl.org/dc/elements/1.1/"
   xmlns:cc="http://creativecommons.org/ns#"
   xmlns:rdf="http://www.w3.org/1999/02/22-rdf-syntax-ns#"
   xmlns:svg="http://www.w3.org/2000/svg"
   xmlns="http://www.w3.org/2000/svg"
   width="16.0px"
   height="16.0px"
   viewBox="0 0 16.0 16.0"
   version="1.1"
   id="SVGRoot">
  <defs
     id="defs24" />
  <metadata
     id="metadata27">
    <rdf:RDF>
      <cc:Work
         rdf:about="">
        <dc:format>image/svg+xml</dc:format>
        <dc:type
           rdf:resource="http://purl.org/dc/dcmitype/StillImage" />
        <dc:title></dc:title>
      </cc:Work>
    </rdf:RDF>
  </metadata>
  <g
     id="layer1">
    <path
       style="fill:#000000;stroke-width:0.047221"
       d="m 4.9642626,12.744753 c -0.08739,-0.03794 -0.2121199,-0.06898 -0.2771787,-0.06898 -0.065058,0 -0.3161914,-0.09562 -0.5580731,-0.212494 C 3.8871299,12.346402 3.6559303,12.25078 3.6152357,12.25078 c -0.1562292,0 -0.062153,-0.150343 0.2211433,-0.353403 0.1623218,-0.116349 0.3611686,-0.275677 0.4418813,-0.35406 0.080713,-0.07838 0.1684959,-0.142516 0.1950738,-0.142516 0.026578,0 0.2199355,-0.127497 0.4296831,-0.283327 0.209748,-0.15583 0.3987849,-0.283326 0.4200818,-0.283326 0.021297,0 0.1125181,-0.06747 0.2027141,-0.149937 0.090195,-0.08247 0.3021138,-0.244241 0.4709291,-0.359501 0.1688151,-0.115259 0.3239299,-0.239033 0.3446992,-0.275052 0.020769,-0.03602 0.06021,-0.065489 0.087647,-0.065489 0.027436,0 0.1303733,-0.063749 0.2287484,-0.1416631 0.1865815,-0.1477757 0.3777687,-0.1873271 0.3777687,-0.07815 0,0.034932 0.044467,0.103755 0.098816,0.15294 0.2112594,0.1911863 0.2082997,0.2427753 -0.031838,0.5549053 -0.1231833,0.160113 -0.2754793,0.331411 -0.3384357,0.380661 -0.062957,0.04925 -0.128568,0.127071 -0.1458042,0.172935 -0.02906,0.07733 -0.2795946,0.4157 -0.7396544,0.998978 -0.1038862,0.131711 -0.2340035,0.316129 -0.2891499,0.409819 -0.088364,0.150125 -0.3596024,0.386084 -0.4379546,0.38099 -0.015637,-10e-4 -0.099933,-0.03289 -0.1873223,-0.07083 z M 10.552312,12.55119 C 10.302827,12.279816 10.236797,12.202797 10.031978,11.944254 9.9292829,11.814623 9.770886,11.626822 9.6799856,11.52692 9.589085,11.427018 9.4956003,11.309961 9.4722415,11.266793 9.4488834,11.223625 9.3320112,11.0771 9.2125257,10.941181 8.6707082,10.324844 8.6330467,10.272885 8.6620002,10.181661 c 0.015814,-0.04983 0.07071,-0.128565 0.1219905,-0.174972 0.05128,-0.046409 0.093237,-0.1319358 0.093237,-0.1900609 0,-0.1700815 0.11751,-0.1683599 0.3617677,0.0053 0.1255066,0.089232 0.2528129,0.1622397 0.2829032,0.1622397 0.03009,0 0.1455537,0.075899 0.2565857,0.1686632 0.1110316,0.09276 0.2808207,0.208937 0.3773097,0.258162 0.09649,0.04922 0.204212,0.118076 0.239386,0.153004 0.03517,0.03493 0.202075,0.14431 0.37089,0.243071 0.168815,0.09876 0.38131,0.235566 0.472211,0.304012 0.0909,0.06845 0.239646,0.165103 0.330547,0.214795 0.0909,0.04969 0.241824,0.149928 0.335384,0.222748 0.09356,0.07282 0.279493,0.18734 0.413184,0.254489 0.372754,0.187224 0.299241,0.340036 -0.205526,0.42723 -0.166884,0.02883 -0.287615,0.07631 -0.543042,0.213583 -0.03896,0.02094 -0.147929,0.07998 -0.242159,0.131199 -0.09423,0.05122 -0.269288,0.107823 -0.389017,0.125778 -0.209078,0.03135 -0.224323,0.02543 -0.38534,-0.149712 z M 3.2421804,11.747088 c -0.017313,-0.01731 -0.031481,-0.407136 -0.031481,-0.866271 0,-0.9074081 0.00717,-0.9330773 0.2833262,-1.014895 C 3.5589546,9.846686 3.6411088,9.807647 3.6765909,9.779171 3.7433176,9.7256164 3.9792624,9.6308054 4.2259521,9.5584179 4.3038669,9.5355552 4.5103656,9.4761417 4.6848383,9.4263878 4.8593109,9.3766343 5.0611812,9.2959632 5.1334386,9.2471191 5.2532463,9.166132 5.5335337,9.074562 5.8653652,9.0079973 5.9359522,8.9938383 6.018239,8.9526903 6.0482262,8.9165583 6.1377512,8.808687 6.3172557,8.8404193 6.4480763,8.9872433 6.5149103,9.0622523 6.6337724,9.13646 6.7122144,9.1521481 6.9025502,9.1902154 6.8671267,9.2672944 6.5834822,9.4322587 6.4555625,9.5066557 6.2871518,9.6244408 6.2092371,9.6940042 6.1313223,9.7635675 5.9932007,9.8602731 5.9023,9.9089069 5.8113992,9.9575402 5.6732776,10.053687 5.595363,10.122567 c -0.2640181,0.233401 -0.7141807,0.562481 -0.9951775,0.727499 -0.1538852,0.09037 -0.3313066,0.219383 -0.39427,0.286691 -0.062963,0.06731 -0.1377014,0.12238 -0.1660847,0.12238 -0.028383,0 -0.1578445,0.09031 -0.2876911,0.20069 -0.208341,0.177105 -0.4136792,0.318742 -0.4620975,0.318742 -0.00901,0 -0.030549,-0.01417 -0.047862,-0.03148 z m 9.1766266,-0.255662 c -0.142843,-0.101311 -0.323464,-0.213765 -0.401379,-0.249896 -0.07791,-0.03613 -0.226661,-0.142555 -0.330547,-0.2365 -0.103887,-0.09394 -0.208273,-0.170825 -0.231971,-0.170846 -0.05604,-3.5e-5 -0.518659,-0.29387 -0.539728,-0.342798 -0.0089,-0.02064 -0.104511,-0.08229 -0.212494,-0.136995 -0.107984,-0.05471 -0.270707,-0.157556 -0.361608,-0.228559 -0.0909,-0.071 -0.252746,-0.1734069 -0.3596571,-0.2275647 C 9.8745109,9.8441094 9.7239339,9.746699 9.6468052,9.6817999 9.569677,9.6169011 9.4069311,9.5132918 9.2851475,9.4515579 L 9.063723,9.3393146 9.344515,9.0950885 C 9.6389904,8.8389618 9.7438418,8.8056654 9.8952599,8.9201929 c 0.05041,0.038131 0.1514181,0.070006 0.2244531,0.070832 0.143047,0.00162 0.534957,0.1102422 0.76441,0.211869 0.07792,0.034509 0.219248,0.096917 0.314073,0.1386832 0.09483,0.041767 0.228317,0.075939 0.296649,0.075939 0.06833,0 0.200523,0.031874 0.293761,0.070832 0.09324,0.038957 0.218331,0.070832 0.277983,0.070832 0.05965,0 0.168618,0.031031 0.242144,0.068959 0.07353,0.037928 0.19047,0.080417 0.259874,0.094421 0.09095,0.018352 0.139585,0.068321 0.174164,0.1789518 0.06821,0.2182381 0.05872,1.7838911 -0.01078,1.7783671 -0.0294,-0.0023 -0.170336,-0.08714 -0.31318,-0.188452 z M 7.5960834,9.9959737 C 7.5310259,9.9245521 7.4414919,9.8075724 7.3971192,9.736019 7.3194828,9.6108256 7.3206309,9.5983672 7.4275852,9.4054716 7.5528815,9.1794972 7.7963354,8.9925263 7.9652808,8.9925263 c 0.2077737,0 0.4639958,0.1697731 0.5525295,0.3661062 0.081009,0.1796466 0.080538,0.1891057 -0.01893,0.3799393 C 8.2993382,10.121402 7.831767,10.254714 7.5960834,9.9959737 Z M 6.787695,8.8446993 C 6.6244746,8.7113605 6.6106159,8.6808945 6.6106159,8.4554106 c 0,-0.2848522 0.07249,-0.4096748 0.3336656,-0.5745478 0.21654,-0.1366954 0.3573747,-0.146246 0.5176117,-0.0351 0.2649762,0.1837959 0.3056391,0.2477767 0.3056391,0.4809062 0,0.1918892 -0.027162,0.2590853 -0.1802406,0.4458976 C 7.4188446,8.9781343 7.3925817,8.9924228 7.1859129,8.9909428 7.0105935,8.9896769 6.9280837,8.9593859 6.787695,8.8446993 Z M 8.3341851,8.831346 C 8.1547913,8.6795982 8.1453007,8.6581104 8.1453007,8.4036723 c 0,-0.2485923 0.01191,-0.2777718 0.1652737,-0.4049045 0.090901,-0.075354 0.1848504,-0.1375777 0.2087766,-0.1382765 0.023927,-6.888e-4 0.08043,-0.03469 0.1255642,-0.075535 0.074723,-0.067624 0.096169,-0.067056 0.2398234,0.00635 C 9.2728151,7.9895949 9.3023483,8.0290085 9.3007153,8.3464525 9.2990957,8.6595438 9.2499106,8.7617268 9.0314334,8.9057897 8.8183461,9.0462995 8.5550693,9.0181903 8.3341851,8.8313464 Z M 7.5777348,7.5079298 C 7.5262941,7.4690475 7.3946429,7.4365592 7.2851776,7.435733 7.0743038,7.4341507 6.9883846,7.3523996 6.9883846,7.1533685 c 0,-0.054003 -0.018402,-0.1350855 -0.040892,-0.1801844 C 6.8754415,6.8287053 6.7936572,6.5704791 6.6971896,6.1828735 6.6454794,5.9751003 6.5813182,5.741356 6.5546099,5.6634406 6.5279017,5.585527 6.4889349,5.4367796 6.4680164,5.332893 6.4269466,5.1289303 6.3353052,4.8750956 6.2432493,4.7103181 6.1238343,4.4965691 6.170048,4.3455022 6.4209528,4.1294263 6.5503822,4.017963 6.7637452,3.8559926 6.8950924,3.7694896 7.0264396,3.6829867 7.1664292,3.5796884 7.2061808,3.5399376 c 0.039752,-0.039753 0.089086,-0.072277 0.1096308,-0.072277 0.020545,0 0.1175719,-0.063749 0.2156153,-0.1416622 0.098043,-0.077915 0.2074247,-0.141664 0.2430699,-0.141664 0.054175,0 0.062796,0.3582668 0.052533,2.1833348 -0.010734,1.909085 -0.021289,2.1850704 -0.084022,2.1971455 -0.03946,0.0076 -0.1138328,-0.018004 -0.165273,-0.056885 z m 0.5702574,0.00894 c -0.00988,-0.032464 -0.01452,-1.0149286 -0.010323,-2.1832557 0.00851,-2.3691392 -0.00629,-2.2774424 0.326299,-2.0211987 0.4480346,0.3451853 1.1475339,0.8436473 1.2284363,0.875382 0.077368,0.030348 0.085464,0.064173 0.056458,0.2358591 -0.018624,0.1102365 -0.073615,0.274601 -0.122201,0.3652516 -0.048586,0.09065 -0.088339,0.2010675 -0.088339,0.2453698 0,0.044302 -0.02125,0.093681 -0.047221,0.1097339 -0.025972,0.016047 -0.047974,0.096991 -0.048894,0.1798661 -9.122e-4,0.082875 -0.032042,0.2038043 -0.069158,0.2687331 -0.037117,0.064929 -0.068238,0.1931634 -0.069158,0.2849644 -0.0016,0.160053 -0.1592881,0.6791806 -0.236167,0.7775103 -0.020306,0.025971 -0.051169,0.1534684 -0.068586,0.2833262 -0.054681,0.4076978 -0.1085077,0.4955786 -0.3047181,0.4974945 -0.094242,9.122e-4 -0.2244737,0.032042 -0.2894026,0.069158 -0.1473648,0.084242 -0.2337833,0.08821 -0.2570246,0.011804 z"
       id="path154" />
  </g>
</svg>
