<?xml version="1.0" encoding="UTF-8" standalone="no"?>
<svg
   xmlns:dc="http://purl.org/dc/elements/1.1/"
   xmlns:cc="http://creativecommons.org/ns#"
   xmlns:rdf="http://www.w3.org/1999/02/22-rdf-syntax-ns#"
   xmlns:svg="http://www.w3.org/2000/svg"
   xmlns="http://www.w3.org/2000/svg"
   width="16.0px"
   height="16.0px"
   viewBox="0 0 16.0 16.0"
   version="1.1"
   id="SVGRoot">
  <defs
     id="defs24" />
  <metadata
     id="metadata27">
    <rdf:RDF>
      <cc:Work
         rdf:about="">
        <dc:format>image/svg+xml</dc:format>
        <dc:type
           rdf:resource="http://purl.org/dc/dcmitype/StillImage" />
        <dc:title></dc:title>
      </cc:Work>
    </rdf:RDF>
  </metadata>
  <g
     id="layer1">
    <path
       style="fill:#000000;stroke-width:0.0411127"
       d="m 7.8596835,12.748834 c -0.033918,-0.02192 -0.1015674,-0.04014 -0.1503316,-0.04048 -0.048765,-3.35e-4 -0.235677,-0.111634 -0.4153605,-0.247305 -0.179684,-0.135673 -0.3395618,-0.246677 -0.355283,-0.246677 -0.03801,0 -0.8338968,-0.603548 -0.8674241,-0.657797 -0.0144,-0.0233 -0.088049,-0.06822 -0.1636633,-0.09981 C 5.832007,11.425175 5.7339824,11.363165 5.6897889,11.31897 5.6455949,11.27477 5.4820919,11.150052 5.3264492,11.041806 5.1708057,10.93356 5.0327146,10.828686 5.0195778,10.808753 5.006441,10.78882 4.9240381,10.734104 4.8364549,10.687163 4.7488736,10.640222 4.580285,10.525247 4.4618135,10.431665 4.3433402,10.338083 4.1991124,10.228275 4.1413048,10.187647 4.0201799,10.102522 4.0086061,10.010858 4.1021251,9.8773425 4.1493953,9.8098535 4.161051,9.7345568 4.1433125,9.61124 4.1281475,9.5058328 4.1386793,9.3999492 4.1704905,9.3377112 4.2396747,9.2023796 4.4505523,9.064709 4.641628,9.0301272 4.7269653,9.014683 4.8628086,8.9589948 4.9435033,8.9063787 5.0241999,8.8537607 5.1907064,8.7678428 5.313519,8.7154481 5.436331,8.6630534 5.6452286,8.5408419 5.7777351,8.4438657 c 0.1325066,-0.096976 0.2670046,-0.17632 0.2988843,-0.17632 0.03188,0 0.1362238,-0.050499 0.2318754,-0.1122194 C 6.5950896,7.9703948 6.6381704,7.9452116 6.8524216,7.8373612 6.9654817,7.7804486 7.0857364,7.7323504 7.1196544,7.7304766 c 0.033918,-0.00188 0.1171713,-0.038781 0.1850072,-0.082016 0.067836,-0.043236 0.1631679,-0.096245 0.2118482,-0.1177979 0.04868,-0.021553 0.1006493,-0.058829 0.1154865,-0.082836 0.057089,-0.092371 0.4262924,-0.048191 0.665935,0.07969 0.127122,0.067837 0.2609025,0.1239271 0.2972908,0.1246454 0.036388,7.443e-4 0.1020722,0.028471 0.1459648,0.06167 0.043893,0.033197 0.1112412,0.060361 0.1496631,0.060361 0.063386,0 0.308474,0.1175467 0.8189066,0.3927538 0.101754,0.054862 0.2082002,0.09994 0.2365469,0.1001748 0.0568,5.583e-4 0.2306955,0.091124 0.4829265,0.25176 0.09045,0.057603 0.267841,0.1532506 0.394206,0.2125505 0.126366,0.0593 0.252814,0.1355996 0.280996,0.1695562 0.02818,0.033957 0.202302,0.1341389 0.386935,0.2226264 0.184633,0.088488 0.370264,0.1995867 0.412516,0.2468867 0.101372,0.1134865 0.06339,0.2601072 -0.09955,0.3842521 -0.06903,0.052599 -0.196155,0.1557607 -0.282496,0.229248 -0.08634,0.07349 -0.192724,0.1336184 -0.236406,0.1336184 -0.09109,0 -0.359595,-0.1842934 -0.633498,-0.4348101 C 10.548307,9.5880273 10.400301,9.4969905 10.323035,9.4805063 10.24577,9.4640201 10.076383,9.3786196 9.94662,9.2907238 9.8168565,9.202828 9.6873514,9.1303243 9.6588306,9.1296061 9.6303099,9.1288618 9.5710626,9.1011349 9.5271696,9.0679374 9.4832768,9.0347381 9.4211869,9.007575 9.3891911,9.007575 9.3571961,9.007575 9.2636033,8.954544 9.1812071,8.8897269 9.0988117,8.8249099 8.9851446,8.7586861 8.9286148,8.7425628 8.7686611,8.6969412 8.5498655,8.5931808 8.416912,8.4998944 8.0936306,8.2730646 7.8364704,8.2085714 7.7363455,8.3292143 c -0.02815,0.033919 -0.070295,0.06167 -0.093657,0.06167 -0.023362,0 -0.1026442,0.045891 -0.1761823,0.1019816 C 7.3929679,8.5489566 7.2432159,8.6248133 7.1337236,8.6614364 7.0242317,8.6980595 6.8390083,8.7909216 6.722116,8.8677981 6.6052244,8.9446764 6.4809139,9.007575 6.4458713,9.007575 c -0.077863,0 -0.3714524,0.1455099 -0.5390424,0.2671595 -0.067836,0.049243 -0.2130834,0.1235066 -0.3227718,0.1650309 -0.2398899,0.090817 -0.3156425,0.2136892 -0.2301852,0.3733667 0.031183,0.058265 0.1036026,0.1303525 0.160932,0.1601925 0.05733,0.02984 0.1490872,0.1022674 0.2039059,0.1609454 0.054818,0.05868 0.1325275,0.106688 0.1726863,0.106688 0.040159,0 0.087811,0.02372 0.1058932,0.05271 0.029238,0.04688 0.3776968,0.314472 0.6273325,0.481754 0.050616,0.03392 0.1860461,0.131047 0.3009559,0.215842 0.11491,0.08479 0.2244996,0.154173 0.2435331,0.154173 0.019033,0 0.1187137,0.07753 0.2215114,0.172283 l 0.1869056,0.172284 0.1410779,-0.07598 c 0.077593,-0.04179 0.1410778,-0.08821 0.1410778,-0.103164 0,-0.01495 0.1940398,-0.126286 0.4311991,-0.247405 C 8.5513522,10.930437 8.7319497,10.812154 8.7470032,10.764723 8.775512,10.6749 8.6369341,10.504706 8.5007066,10.462235 8.4534056,10.447479 8.3725079,10.39362 8.320933,10.342528 8.269358,10.291436 8.1583535,10.236983 8.0742566,10.22152 7.9901593,10.206058 7.8751009,10.151223 7.818571,10.099664 7.7084528,9.9992286 7.5719355,9.9214756 7.2959476,9.8020068 7.2007064,9.7607802 7.1125091,9.701577 7.0999527,9.6704469 c -0.029537,-0.073233 0.050948,-0.169519 0.1417002,-0.169519 0.038949,0 0.1853144,-0.074003 0.3252551,-0.1644504 0.1399401,-0.090449 0.2812086,-0.1644522 0.313929,-0.1644522 0.032721,0 0.2174592,0.074003 0.4105304,0.1644522 0.1930711,0.090447 0.3671481,0.1644504 0.3868381,0.1644504 0.01969,0 0.1488914,0.083253 0.2871148,0.1850078 0.1382228,0.1017545 0.2664749,0.1850078 0.2850049,0.1850078 0.018529,0 0.152608,0.083052 0.2979519,0.1845635 0.1453435,0.101511 0.2802861,0.184764 0.2998713,0.185008 0.019586,1.86e-4 0.1539716,0.09346 0.2986366,0.207147 0.144664,0.113687 0.309022,0.227661 0.365239,0.253276 0.1368,0.06233 0.128763,0.141776 -0.02767,0.27348 -0.07143,0.06014 -0.235752,0.201854 -0.365153,0.314915 -0.5113747,0.446799 -0.7073678,0.595318 -0.8935767,0.677132 -0.051456,0.02261 -0.104575,0.06982 -0.118042,0.104913 -0.013466,0.03509 -0.07885,0.09192 -0.1452971,0.126281 -0.066446,0.03436 -0.1890842,0.124008 -0.2725287,0.199216 -0.1754739,0.158153 -0.5934534,0.393364 -0.6973873,0.392443 -0.039061,-3.54e-4 -0.098772,-0.01856 -0.1326897,-0.04048 z M 4.8984362,8.1974851 C 4.7743192,8.1119413 4.7327224,8.0625052 4.5422626,7.7741928 4.1828086,7.2300622 4.088791,6.9087348 4.2193293,6.6704931 4.3543353,6.4240976 4.6087097,5.854192 4.6350466,5.7391127 4.6505651,5.6712776 4.7120719,5.5325222 4.7717161,5.4307676 4.8313602,5.329013 4.9243191,5.1548943 4.9782898,5.0438342 5.0949322,4.8038136 5.6638911,4.2052359 5.7210569,4.2624016 c 0.021187,0.021186 0.045424,0.417617 0.053859,0.8809543 0.01641,0.9013312 0.05967,1.1918337 0.2176171,1.4613507 0.054617,0.093197 0.099303,0.1911575 0.099303,0.2176935 0,0.026534 -0.074003,0.1566576 -0.164451,0.2891628 -0.090448,0.132507 -0.1644509,0.2667463 -0.1644509,0.2983101 0,0.031562 -0.080248,0.1495718 -0.1783285,0.2622452 -0.098556,0.1132167 -0.1906211,0.2674739 -0.2058081,0.3448323 -0.015113,0.076988 -0.048136,0.1648653 -0.073382,0.1952866 -0.063972,0.077083 -0.2853799,0.069058 -0.4069792,-0.014756 z M 10.59425,7.7451411 C 10.469266,7.6161025 10.328432,7.4365188 10.281285,7.3460663 c -0.04715,-0.090454 -0.11633,-0.1868425 -0.15374,-0.2141972 -0.05883,-0.043018 -0.0663,-0.1280803 -0.05529,-0.6297786 0.01199,-0.5461142 0.01979,-0.5942757 0.133461,-0.8233774 0.0664,-0.1338338 0.120731,-0.2574967 0.120731,-0.2748071 0,-0.079214 0.394343,-0.7941285 0.431225,-0.781775 0.02502,0.00837 0.04233,0.2253281 0.04349,0.5448953 0.0015,0.4151144 0.0172,0.5615081 0.07195,0.6709066 0.03852,0.076964 0.07003,0.1845575 0.07003,0.2391013 0,0.054542 0.0191,0.1348516 0.04244,0.1784655 0.04458,0.08329 0.130955,0.738042 0.129847,0.9842272 -0.0016,0.3631885 -0.125377,0.7400293 -0.242998,0.7400293 -0.02801,0 -0.153193,-0.1055765 -0.278176,-0.2346151 z M 8.9970491,7.3914721 C 8.9329336,7.3193182 8.8425597,7.1770311 8.7962177,7.0752766 8.7498758,6.973522 8.6867045,6.8411638 8.6558363,6.7811438 8.5872961,6.6478758 8.582415,6.2593346 8.6472992,6.1015253 8.6734712,6.0378712 8.710069,5.8655351 8.7286271,5.7185571 8.7743714,5.3562785 8.857151,5.0034263 8.9128201,4.9334272 8.9633342,4.8699108 8.9878665,4.7778098 9.0755213,4.3226021 9.1393064,3.9913513 9.1756226,3.9262626 9.2753101,3.9645157 c 0.053918,0.02069 0.064433,0.1117207 0.064433,0.5578052 0,0.3120721 0.019856,0.5810625 0.047895,0.6488158 0.026342,0.063654 0.062354,0.2267405 0.080027,0.3624126 0.054492,0.4183427 0.1487999,0.8481885 0.1965712,0.8959593 0.062831,0.062832 0.057048,0.2409175 -0.010995,0.3385524 C 9.6221573,6.812663 9.5828693,6.9316981 9.5659333,7.0325819 9.4872443,7.501319 9.2356813,7.6600215 8.9970491,7.3914721 Z M 6.9750416,7.0976334 C 6.4956011,6.6688333 6.5029635,6.6777053 6.5029635,6.5287977 c 0,-0.078317 0.027751,-0.2088141 0.061669,-0.2899907 0.033918,-0.081177 0.061669,-0.1962709 0.061669,-0.2557625 0,-0.059492 0.024707,-0.1664655 0.054904,-0.2377188 0.087406,-0.2062407 0.1548221,-0.4045751 0.1977574,-0.581792 0.021914,-0.090447 0.057282,-0.182025 0.078598,-0.2035073 0.021315,-0.02148 0.038755,-0.098576 0.038755,-0.1713201 0,-0.1575824 0.1311632,-0.4782474 0.2701578,-0.660479 0.054921,-0.072005 0.099857,-0.1408971 0.099857,-0.1530905 0,-0.048403 0.503082,-0.7644571 0.5370898,-0.7644571 0.0754,0 0.1699168,0.2558778 0.142483,0.3857314 -0.014893,0.070498 -0.036399,0.2114303 -0.047789,0.3131849 -0.01139,0.1017545 -0.047197,0.2433047 -0.07957,0.314558 -0.079594,0.1751869 -0.081413,1.0675159 -0.00256,1.2566098 0.092219,0.221149 0.1573853,0.4157582 0.1789935,0.5345367 0.011179,0.061457 0.046066,0.1330987 0.077524,0.1592067 C 8.20396,6.2006152 8.228305,6.2890897 8.226601,6.3711167 8.223771,6.5073713 8.186456,6.5531064 7.7946495,6.9005475 7.5228051,7.1416119 7.3317655,7.2808399 7.272843,7.2808399 c -0.051979,0 -0.1832528,-0.08076 -0.2977995,-0.1832065 z"
       id="path183" />
  </g>
</svg>
