<?xml version="1.0" encoding="UTF-8" standalone="no"?>
<svg
   xmlns:dc="http://purl.org/dc/elements/1.1/"
   xmlns:cc="http://creativecommons.org/ns#"
   xmlns:rdf="http://www.w3.org/1999/02/22-rdf-syntax-ns#"
   xmlns:svg="http://www.w3.org/2000/svg"
   xmlns="http://www.w3.org/2000/svg"
   width="16.0px"
   height="16.0px"
   viewBox="0 0 16.0 16.0"
   version="1.1"
   id="SVGRoot">
  <defs
     id="defs24" />
  <metadata
     id="metadata27">
    <rdf:RDF>
      <cc:Work
         rdf:about="">
        <dc:format>image/svg+xml</dc:format>
        <dc:type
           rdf:resource="http://purl.org/dc/dcmitype/StillImage" />
        <dc:title></dc:title>
      </cc:Work>
    </rdf:RDF>
  </metadata>
  <g
     id="layer1">
    <path
       style="fill:#000000;stroke-width:0.0395804"
       d="M 7.8357324,12.812356 C 7.8183237,12.78244 7.5502696,12.493731 7.2400568,12.170781 6.9298441,11.847831 6.6760337,11.568802 6.6760337,11.550718 c 0,-0.01808 0.071245,-0.100654 0.1583225,-0.183489 l 0.1583222,-0.150608 v -1.1887 c 0,-1.3002083 -0.00335,-1.3194661 -0.2154554,-1.2388231 -0.058488,0.022237 -0.1428273,0.040431 -0.1874196,0.040431 -0.07079,0 -0.077548,-0.016322 -0.053265,-0.1286354 C 6.6110105,8.3564349 6.498601,8.0293124 6.2470176,7.8583562 6.0624926,7.7329681 6.0309975,7.7353655 5.8907094,7.8854735 5.8266527,7.9540142 5.7500522,8.0007793 5.7204861,7.9893968 5.6909197,7.9780127 5.6415187,7.8818616 5.6107057,7.7757219 5.5798929,7.669582 5.5301152,7.544576 5.5000887,7.4979298 5.460557,7.4365177 5.4453807,7.2641615 5.4450813,6.8732073 5.4446531,6.3155621 5.4563322,6.2602747 5.6923321,5.7026643 l 0.04188,-0.098951 0.1481071,0.1713018 c 0.351272,0.406283 0.5962127,0.4293746 0.9634559,0.090827 C 7.1600202,5.5761505 7.1367469,5.2487395 6.7784313,4.9184554 6.638283,4.7892715 6.5679016,4.7527299 6.4592249,4.7527299 c -0.07668,0 -0.1394164,-0.015681 -0.1394164,-0.034834 0,-0.048318 0.9871463,-1.0440353 1.3312468,-1.3428055 C 7.8063539,3.240251 7.9703873,3.129927 8.0155738,3.129927 c 0.045186,0 0.1229529,0.042107 0.1728151,0.09357 0.049862,0.051463 0.2331482,0.2146453 0.4073028,0.3626272 0.510213,0.4335367 1.1074743,1.0642476 1.0681137,1.127935 -0.013144,0.02127 -0.079634,0.038671 -0.1477523,0.038671 -0.1524955,0 -0.3422747,0.1255847 -0.4687544,0.3101953 -0.1952532,0.284992 -0.064191,0.7008691 0.2894526,0.9184682 0.10465,0.064393 0.2262199,0.1170768 0.2701556,0.1170768 0.1567548,0 0.4542581,-0.1861439 0.5339191,-0.3340671 0.09385,-0.1742699 0.177742,-0.168061 0.238674,0.017666 0.16835,0.513146 0.175429,0.5552242 0.175429,1.0427163 0,0.3445617 -0.01742,0.5380434 -0.05655,0.627976 -0.0311,0.07149 -0.08899,0.2164512 -0.128636,0.3221361 -0.03965,0.1056879 -0.09575,0.2016375 -0.124669,0.213223 -0.02892,0.01159 -0.10361,-0.034808 -0.165984,-0.1031004 C 9.9486967,7.7422562 9.9028444,7.7346155 9.7563278,7.8312454 9.5219376,7.9858294 9.4667069,8.1067827 9.4635657,8.4723892 l -0.00289,0.3373507 -0.1158435,-0.00766 C 9.2811121,8.797862 9.184454,8.7889694 9.1300307,8.7822914 l -0.098952,-0.012129 -0.010466,1.2163569 -0.010466,1.2163567 0.1337973,0.149172 c 0.087058,0.09706 0.1252814,0.17252 0.1094177,0.216005 -0.013409,0.03676 -0.2024926,0.251861 -0.4201855,0.478009 -0.217694,0.226148 -0.4816273,0.503318 -0.586519,0.615933 -0.1941408,0.208438 -0.3450055,0.263642 -0.4109247,0.150364 z m 0.2678041,-0.896935 c 0.073671,-0.03942 0.076559,-0.09886 0.076559,-1.575306 0,-1.6139418 -0.00168,-1.6293278 -0.1781125,-1.6293278 -0.1762813,0 -0.1781126,0.01654 -0.1781126,1.6086858 v 1.513691 l 0.087969,0.06161 c 0.1043764,0.07311 0.095458,0.07214 0.1916978,0.02064 z M 7.5374523,10.218623 c 0.00907,-1.1490614 0.00227,-1.3346472 -0.051977,-1.4174307 -0.040847,-0.06234 -0.092322,-0.090998 -0.1489682,-0.082934 l -0.086555,0.012319 -0.010427,1.3652867 c -0.00574,0.750907 -0.00141,1.388797 0.00962,1.417533 0.012432,0.0324 0.069022,0.04753 0.1489579,0.03982 l 0.1289093,-0.01242 z m 1.2269639,-0.04798 c 0.00922,-1.2146887 0.00323,-1.376111 -0.052794,-1.4226066 -0.045871,-0.03807 -0.081275,-0.041062 -0.1291435,-0.010908 -0.058685,0.03696 -0.068128,0.1849342 -0.085739,1.3434446 -0.01162,0.764474 -0.00455,1.339469 0.017127,1.392896 0.027322,0.06733 0.063333,0.08791 0.138532,0.07916 l 0.101614,-0.01182 z M 8.5363207,8.3055237 c 0,-0.065852 -0.039399,-0.1841715 -0.087552,-0.2629341 C 8.316893,7.8268883 8.0576489,7.5629506 7.9776583,7.5629506 c -0.090771,0 -0.3370813,0.2525171 -0.4371776,0.4481948 -0.093972,0.1837038 -0.08445,0.3961865 0.018631,0.4157249 0.039421,0.00747 0.1311694,-0.014651 0.2038842,-0.049152 0.1726509,-0.081927 0.3641812,-0.077058 0.5344233,0.013588 0.1717781,0.091464 0.2389015,0.067363 0.2389015,-0.085783 z M 7.5388903,7.3571319 C 7.6386751,7.2573469 7.5966406,7.1458099 7.3181235,6.7713405 7.0909322,6.4658763 6.8720442,6.256793 6.7794502,6.256793 c -0.089207,0 -0.3108301,0.2070379 -0.4327897,0.4043074 -0.036538,0.059101 -0.066433,0.1691233 -0.066433,0.2444976 0,0.1100783 0.029033,0.1609737 0.14755,0.2586658 0.081153,0.066893 0.1835674,0.122409 0.2275883,0.1233698 0.044021,9.499e-4 0.1690944,0.026475 0.2779412,0.0567 0.2481514,0.068905 0.5432395,0.075142 0.6055827,0.012795 z M 9.1275005,7.3432111 C 9.8280645,7.1775855 9.9110892,6.9134955 9.4161672,6.4250124 9.3166263,6.326767 9.2084346,6.2567961 9.1560647,6.2567961 c -0.1125841,0 -0.286476,0.1785445 -0.5182711,0.5321405 -0.2272467,0.3466561 -0.24133,0.3939207 -0.1533733,0.5147362 0.087191,0.1197627 0.2590481,0.1303286 0.6430802,0.039538 z"
       id="path212" />
  </g>
</svg>
