<?xml version="1.0" encoding="UTF-8" standalone="no"?>
<svg
   xmlns:dc="http://purl.org/dc/elements/1.1/"
   xmlns:cc="http://creativecommons.org/ns#"
   xmlns:rdf="http://www.w3.org/1999/02/22-rdf-syntax-ns#"
   xmlns:svg="http://www.w3.org/2000/svg"
   xmlns="http://www.w3.org/2000/svg"
   width="16.0px"
   height="16.0px"
   viewBox="0 0 16.0 16.0"
   version="1.1"
   id="SVGRoot">
  <defs
     id="defs24" />
  <metadata
     id="metadata27">
    <rdf:RDF>
      <cc:Work
         rdf:about="">
        <dc:format>image/svg+xml</dc:format>
        <dc:type
           rdf:resource="http://purl.org/dc/dcmitype/StillImage" />
        <dc:title></dc:title>
      </cc:Work>
    </rdf:RDF>
  </metadata>
  <g
     id="layer1">
    <path
       style="fill:#000000;stroke-width:0.0444744"
       d="M 7.6670175,12.16168 C 7.5288334,12.144107 7.3813302,12.088645 7.2889852,12.019535 7.2056983,11.957204 7.0675068,11.879226 6.9818935,11.846249 6.8962807,11.813272 6.7745151,11.738884 6.7113035,11.680942 6.6094132,11.587546 6.5688673,11.578826 6.3539286,11.604088 5.9636359,11.64996 5.6487632,11.514382 5.229646,11.119999 4.9724282,10.87796 4.9863474,10.657223 5.2496327,10.803029 c 0.066472,0.03681 0.2536481,0.06095 0.4801156,0.06191 0.4157683,0.0018 0.5444909,-0.04862 0.7912937,-0.309745 0.1315333,-0.139164 0.1472511,-0.183211 0.148327,-0.41566 C 6.6707936,9.8332542 6.5606688,9.4106782 6.4491463,9.2944306 6.3629508,9.2045832 6.2271128,9.1870538 6.0352563,9.2410199 5.9244936,9.2721754 5.8868697,9.2503445 5.6794614,9.0345751 5.3645521,8.7069716 5.0694942,8.3347267 5.0694942,8.2650411 c 0,-0.031518 0.080054,-0.1541816 0.1778976,-0.272586 C 5.4487977,7.7487264 5.4703152,7.6002544 5.3397632,7.3550871 5.2765031,7.2362884 5.2691417,7.1835801 5.3072812,7.1225093 5.3455446,7.06124 5.3379902,7.0109432 5.2735751,6.8980873 5.1485705,6.6790798 5.0262716,6.5990742 4.8147918,6.5979618 4.6070371,6.5968569 4.5710899,6.6331842 4.3566176,7.0608262 4.2816571,7.2102923 4.2040724,7.2991816 4.1239948,7.3273429 c -0.1677112,0.058981 -0.199293,0.00314 -0.085371,-0.1509494 0.060627,-0.082001 0.096909,-0.1960746 0.096909,-0.3046878 0,-0.1507513 -0.029029,-0.2007668 -0.220467,-0.379833 C 3.793809,6.3784513 3.6737859,6.2856521 3.6483474,6.2856521 c -0.025438,0 -0.1237854,0.070047 -0.218549,0.1556601 -0.094764,0.085614 -0.195384,0.1556605 -0.2236009,0.1556605 -0.097712,0 -0.1510859,-0.246761 -0.1556764,-0.7197367 C 3.0459417,5.4052655 3.0470931,5.3998574 3.2238073,5.0634119 3.3967015,4.7342409 3.7001148,4.3969863 4.0360632,4.1605606 4.3932813,3.9091658 4.5078117,3.8395607 4.5642452,3.8395607 c 0.092206,0 0.072389,0.112371 -0.044496,0.2523153 -0.1771966,0.2121535 -0.3842161,0.6770067 -0.3842161,0.862739 0,0.2153419 0.1413803,0.4908249 0.3793631,0.7391972 C 4.790176,5.9811103 4.9643507,5.9464049 5.4105023,5.5153564 5.6805021,5.2544966 5.6880519,5.2507127 5.8925448,5.2737622 c 0.201469,0.022708 0.2160281,0.016 0.4817691,-0.2219584 C 6.5250254,4.9168479 6.7183822,4.7608627 6.8039957,4.7051701 6.889609,4.6494774 7.0297031,4.538533 7.1153162,4.4586272 7.5084274,4.0917219 7.578672,4.0618288 8.0448327,4.0630619 l 0.4269526,0.00113 0.2668462,0.2251068 c 0.1467654,0.1238087 0.3682852,0.3013705 0.4922675,0.3945819 0.1239814,0.093211 0.3193653,0.2634196 0.4341869,0.3782408 0.2041908,0.2041911 0.214084,0.2084335 0.4514421,0.1935747 l 0.242676,-0.015192 0.281964,0.2793832 c 0.207459,0.2055605 0.32379,0.2861708 0.440254,0.30507 0.225763,0.036637 0.451078,-0.08445 0.613539,-0.3297217 0.194116,-0.293061 0.191141,-0.6441388 -0.0087,-1.0317013 -0.07886,-0.1529049 -0.188587,-0.3208271 -0.243841,-0.373161 -0.09781,-0.092645 -0.130264,-0.2077211 -0.07434,-0.2636414 0.03852,-0.038517 0.404023,0.1526906 0.665603,0.3481982 0.322248,0.2408507 0.672993,0.6333328 0.803808,0.8994548 0.102805,0.2091441 0.114866,0.2853296 0.112931,0.7133714 -0.0016,0.3517405 -0.02325,0.5319857 -0.08141,0.6775746 -0.105044,0.2629262 -0.299238,0.5462517 -0.461584,0.67344 -0.07236,0.056694 -0.191944,0.1496335 -0.265729,0.206531 -0.07378,0.056897 -0.134155,0.1395038 -0.134155,0.1835702 0,0.044067 -0.03002,0.1050352 -0.06672,0.1354862 -0.03669,0.030452 -0.06671,0.1015196 -0.06671,0.1579295 0,0.1037125 -0.104211,0.24234 -0.182175,0.24234 -0.02331,0 -0.06222,-0.04503 -0.08643,-0.1000672 C 11.581289,7.9095226 11.522379,7.8044519 11.4746,7.7310692 11.38871,7.599152 11.282522,7.3847563 11.202458,7.1816041 c -0.03422,-0.086824 -0.06206,-0.099599 -0.162908,-0.074754 -0.125436,0.030903 -0.384668,0.2516294 -0.461679,0.3931017 -0.0486,0.089276 0.09877,0.3844603 0.268722,0.538266 0.123782,0.1120221 0.118055,0.2102618 -0.01981,0.3397788 -0.06235,0.058578 -0.186765,0.2171702 -0.276474,0.3524293 -0.288887,0.4355229 -0.503669,0.582025 -0.7281781,0.4966672 -0.1837283,-0.069853 -0.3070371,0.024273 -0.39981,0.3051934 -0.044426,0.1345351 -0.080683,0.3646899 -0.080558,0.5114555 1.669e-4,0.218576 0.02243,0.298966 0.1229692,0.444405 0.190212,0.275154 0.4092643,0.377073 0.8082629,0.376063 0.206177,-5.23e-4 0.376018,-0.02512 0.444743,-0.0644 0.145795,-0.08334 0.266847,-0.0834 0.266847,-1.33e-4 0,0.170921 -0.622513,0.684746 -0.911725,0.752542 -0.3168511,0.07428 -0.3865355,0.07763 -0.514206,0.02475 -0.1241416,-0.05142 -0.1450797,-0.04617 -0.2617655,0.06562 -0.06976,0.06683 -0.2239014,0.169869 -0.3425448,0.228974 -0.1186428,0.0591 -0.2757547,0.145244 -0.3491376,0.191423 -0.1526333,0.09605 -0.5939381,0.142477 -0.9381913,0.0987 z m 0.6128754,-1.417471 c 0.067341,-0.07235 0.1255734,-0.200294 0.1425798,-0.313263 0.015811,-0.105027 0.046604,-0.225108 0.068428,-0.266846 C 8.7026389,9.7591472 8.7724959,9.5705933 8.7274685,9.5255662 8.6366971,9.4347951 8.4731348,9.5285869 8.2521936,9.7981037 8.1314181,9.9454331 8.0063129,10.065975 7.9741824,10.065975 7.9420518,10.065975 7.8228516,9.9463318 7.7092927,9.8000997 7.4969309,9.5266394 7.3649832,9.4427238 7.2803832,9.5273239 c -0.03482,0.03482 -0.004,0.1325209 0.110132,0.3490941 0.087167,0.165409 0.1716475,0.392077 0.1877345,0.503708 0.062136,0.431168 0.4512705,0.633091 0.7016432,0.364083 z M 7.3132455,8.2901844 c 0.025674,-0.020562 0.1114948,-0.051246 0.1907122,-0.068183 0.079218,-0.016937 0.154135,-0.047142 0.1664835,-0.067122 C 7.7172841,8.0790866 7.3730317,7.3554796 7.2271303,7.2230528 7.0662554,7.0770357 6.6339195,6.8638192 6.4987171,6.8638192 c -0.2215875,0 -0.272888,0.040014 -0.272888,0.2128539 0,0.087375 -0.023516,0.223896 -0.052258,0.3033802 -0.050196,0.1388136 -0.042185,0.1579007 0.2029938,0.4836492 0.3148042,0.4182557 0.4722577,0.5262921 0.7143089,0.4901227 0.09663,-0.014439 0.1966974,-0.043077 0.2223717,-0.063641 z M 9.36703,8.1640194 C 9.6446527,7.8939556 9.8727288,7.5951519 9.8727288,7.5014991 c 0,-0.047843 -0.029031,-0.1258354 -0.064528,-0.173317 C 9.7657686,7.271415 9.7522588,7.1861926 9.7687309,7.0793161 9.7898509,6.9422854 9.7780851,6.9083784 9.6937302,6.8632333 9.484945,6.7514912 8.9989927,6.9337284 8.7090399,7.232505 8.6152414,7.3291576 8.5384974,7.4492787 8.5384974,7.4994399 c 0,0.050161 -0.031643,0.126168 -0.070319,0.1689036 -0.0405,0.044752 -0.073504,0.1684715 -0.07783,0.2917604 l -0.00751,0.2140591 0.1898997,0.026171 c 0.1044449,0.014393 0.2135184,0.049789 0.2423857,0.078656 0.028866,0.028866 0.1261239,0.052485 0.2161255,0.052485 0.1290833,0 0.1999918,-0.035362 0.3357816,-0.1674545 z m 2.862842,-1.227491 c 0,-0.1350317 -0.401052,-0.5638818 -0.52217,-0.5583621 -0.342453,0.015608 -0.757965,0.3142445 -0.63813,0.4586371 0.04736,0.057066 0.08203,0.045257 0.255166,-0.086895 0.291546,-0.2225432 0.451185,-0.2111769 0.662904,0.047198 0.167518,0.2044333 0.24223,0.2474349 0.24223,0.139422 z M 4.63484,8.0090343 C 4.5479025,7.9022884 4.4468767,7.6079298 4.449809,7.4699109 4.4514362,7.3933998 4.5082875,7.2307328 4.5761479,7.1084279 4.6852726,6.9117544 4.7183474,6.8844606 4.8623543,6.8722482 5.0050082,6.8601492 5.0309697,6.8736782 5.071941,6.9814386 5.125323,7.1218433 5.086947,7.4318384 5.003915,7.5309348 4.973172,7.5676258 4.933969,7.6576869 4.916796,7.7310696 4.880823,7.8847947 4.7737101,8.0646275 4.7181206,8.0646275 c -0.020902,0 -0.058378,-0.025017 -0.083281,-0.055593 z M 3.5724108,7.5657876 C 3.370096,7.3429767 3.3227216,7.2258603 3.34717,7.0089571 3.3891586,6.6364337 3.7382443,6.4661389 3.9023628,6.738117 c 0.05905,0.097858 0.062998,0.1490323 0.022304,0.2890836 -0.027197,0.093597 -0.065929,0.2700879 -0.08607,0.3922027 -0.042121,0.2553723 -0.1255585,0.3012577 -0.266185,0.1463843 z"
       id="path241" />
  </g>
</svg>
