<?xml version="1.0" encoding="UTF-8" standalone="no"?>
<svg
   xmlns:dc="http://purl.org/dc/elements/1.1/"
   xmlns:cc="http://creativecommons.org/ns#"
   xmlns:rdf="http://www.w3.org/1999/02/22-rdf-syntax-ns#"
   xmlns:svg="http://www.w3.org/2000/svg"
   xmlns="http://www.w3.org/2000/svg"
   xmlns:sodipodi="http://sodipodi.sourceforge.net/DTD/sodipodi-0.dtd"
   xmlns:inkscape="http://www.inkscape.org/namespaces/inkscape"
   width="16.0px"
   height="16.0px"
   viewBox="0 0 16.0 16.0"
   version="1.1"
   id="SVGRoot"
   sodipodi:docname="27.svg"
   inkscape:version="1.0.1 (3bc2e813f5, 2020-09-07)">
  <defs
     id="defs24" />
  <sodipodi:namedview
     id="base"
     pagecolor="#ffffff"
     bordercolor="#666666"
     borderopacity="1.0"
     inkscape:pageopacity="0.0"
     inkscape:pageshadow="2"
     inkscape:zoom="22.4"
     inkscape:cx="9.870336"
     inkscape:cy="14.310458"
     inkscape:document-units="px"
     inkscape:current-layer="layer1"
     inkscape:document-rotation="0"
     showgrid="true"
     inkscape:window-width="1833"
     inkscape:window-height="1248"
     inkscape:window-x="176"
     inkscape:window-y="176"
     inkscape:window-maximized="0"
     inkscape:snap-global="false">
    <inkscape:grid
       type="xygrid"
       id="grid33" />
  </sodipodi:namedview>
  <metadata
     id="metadata27">
    <rdf:RDF>
      <cc:Work
         rdf:about="">
        <dc:format>image/svg+xml</dc:format>
        <dc:type
           rdf:resource="http://purl.org/dc/dcmitype/StillImage" />
        <dc:title></dc:title>
      </cc:Work>
    </rdf:RDF>
  </metadata>
  <g
     inkscape:label="Layer 1"
     inkscape:groupmode="layer"
     id="layer1">
    <path
       style="fill:#000000;stroke-width:0.0438441"
       d="m 7.3339781,12.900624 c -0.022908,-0.02162 -0.2290862,-0.0483 -0.4581724,-0.05929 -0.4233991,-0.02031 -0.6827196,-0.0875 -1.0718306,-0.277685 -0.1192778,-0.0583 -0.2418799,-0.106 -0.2724484,-0.106 -0.076506,0 -0.5983259,-0.515939 -0.697154,-0.689298 -0.076437,-0.134081 -0.076743,-0.149167 -0.00604,-0.297436 0.040965,-0.0859 0.074482,-0.176957 0.074482,-0.202341 0,-0.110791 0.5372197,-0.783914 0.6256426,-0.783914 0.020829,0 0.1023249,-0.04916 0.1811014,-0.109247 0.078777,-0.06009 0.206115,-0.121824 0.2829746,-0.137196 0.07686,-0.01537 0.1503631,-0.04513 0.1633419,-0.06613 0.012978,-0.021 0.066825,-0.0383 0.1196591,-0.03845 0.052835,-1.36e-4 0.1507889,-0.02882 0.2176763,-0.06371 C 6.5600986,10.035037 6.737668,9.993497 6.8878087,9.977616 7.2635825,9.9378689 7.570631,9.8337139 7.6279918,9.7265343 7.6562055,9.673819 7.6659451,9.5277177 7.6517148,9.3707581 7.6310114,9.1424434 7.6085858,9.088722 7.4945993,8.9943861 7.4214667,8.9338621 7.2368289,8.7807941 7.0842908,8.654235 6.4971633,8.1671004 6.3253988,8.1433523 5.9738331,8.500706 5.4981503,8.9842199 5.3986726,9.2825496 5.6319402,9.5260283 5.7008982,9.5980054 5.7366981,9.6738687 5.7210046,9.7147655 5.6988008,9.7726273 5.591676,9.7830474 5.024763,9.782489 4.4190779,9.7818893 4.0981551,9.7384558 4.0040331,9.644334 3.9910893,9.6313912 4.0549714,9.5691892 4.145994,9.5061105 4.2370167,9.4430315 4.3902808,9.2787052 4.486581,9.1409414 4.5828811,9.0031772 4.7997814,8.7398285 4.9685814,8.555722 5.5363416,7.9364779 5.6603256,7.7640971 5.6399157,7.6223259 5.632397,7.5700981 5.5796372,7.5042189 5.5226721,7.4759269 5.4657065,7.4476363 5.3224353,7.3292778 5.204291,7.2129109 5.0156389,7.0270952 4.9668565,7.0013343 4.8036557,7.0013449 c -0.1022054,7.7e-6 -0.2154227,0.00936 -0.2515943,0.020777 -0.054669,0.01726 -0.067903,-0.048413 -0.078431,-0.3892118 -0.013892,-0.4497284 0.025503,-0.5554662 0.1914376,-0.5138205 0.1136448,0.028524 0.4569684,0.2459311 0.4569684,0.2893749 0,0.016273 0.1233118,0.1248249 0.2740262,0.2412257 0.1507148,0.1164007 0.3134864,0.2580255 0.3617149,0.314721 0.061708,0.072542 0.1381997,0.104858 0.2581747,0.1090725 0.1529636,0.00537 0.19352,-0.018555 0.3945981,-0.2327814 C 6.6891078,6.5439285 6.8113037,6.3961343 6.8722111,6.282327 6.8982518,6.2336702 6.9541046,6.1826898 6.9963306,6.1690355 7.0385555,6.1553732 7.1224286,6.0714521 7.1827149,5.982526 7.2430004,5.8935985 7.3640921,5.7338472 7.4518071,5.6275192 7.6084641,5.4376217 7.6926113,5.1709402 7.6395252,5.0325982 7.5777535,4.8716239 7.1062589,4.8749066 6.9101334,5.0376744 6.8740564,5.0676164 6.7578564,5.1091874 6.6519115,5.1300554 6.5459669,5.1509244 6.4395552,5.1755184 6.415441,5.1847104 6.324521,5.2193694 6.376601,5.1093864 6.503127,4.9995336 6.655996,4.8668071 6.8412053,4.7793909 7.1952438,4.6728646 7.5201006,4.5751196 7.6650015,4.4148984 7.6650015,4.1534423 7.6650015,3.8769043 7.5268051,3.7604856 7.2420698,3.7971606 6.9558715,3.8340236 6.6539546,3.9117224 6.5469736,3.9760449 6.4987456,4.0050419 6.3211762,4.0639079 6.1523759,4.1068576 5.9835756,4.1498066 5.8267229,4.2015596 5.8038142,4.22186 5.7809052,4.242161 5.7182122,4.258773 5.6644941,4.258773 c -0.1854479,0 -0.9471879,0.432762 -1.2013921,0.6825372 -0.133328,0.1310064 -0.25931,0.238193 -0.2799598,0.238193 -0.04608,0 -0.1961089,0.1593869 -0.3007156,0.3194737 -0.042756,0.065432 -0.097013,0.1189681 -0.1205716,0.1189681 -0.056496,0 -0.05557,-0.381553 0.00101,-0.4165203 0.057026,-0.035244 0.057026,-0.3593538 0,-0.3945987 C 3.6171184,4.71675 3.850754,4.4779946 4.0846462,4.4779946 c 0.061024,0 0.1664942,-0.02094 0.2343784,-0.046528 0.1330347,-0.050151 0.7024819,-0.4233543 0.7409565,-0.4856075 0.012863,-0.020813 0.054144,-0.037839 0.091737,-0.037839 0.037593,0 0.135765,-0.05919 0.2181591,-0.1315324 0.082394,-0.072344 0.1793717,-0.1315341 0.2155058,-0.1315341 0.036134,0 0.163036,-0.049325 0.2820043,-0.109609 0.1189681,-0.060286 0.2591722,-0.1096112 0.311564,-0.1096112 0.052392,0 0.1898244,-0.058188 0.3054061,-0.1293061 0.2919465,-0.179636 0.6685697,-0.2352792 1.5971629,-0.2359713 0.8879011,-5.997e-4 1.1908981,0.045272 1.5510753,0.2351311 0.1355958,0.071476 0.2782848,0.1299999 0.317087,0.1300518 0.038801,6.56e-5 0.1867754,0.059035 0.3288314,0.131072 0.142055,0.072038 0.282648,0.1312275 0.312429,0.1315327 0.06979,7.76e-4 0.492681,0.2556041 0.59235,0.3570239 0.04209,0.042826 0.213233,0.1577095 0.380326,0.2552962 0.221267,0.129227 0.352722,0.1774309 0.483868,0.1774309 0.105232,0 0.187537,0.022778 0.198045,0.054805 0.0099,0.030143 0.02438,0.2767679 0.0322,0.548053 0.01164,0.4038693 0.0029,0.4932483 -0.04813,0.4932483 -0.03429,0 -0.249619,-0.1878786 -0.478503,-0.417507 C 11.394703,4.7990362 11.272353,4.7077502 10.899018,4.5208519 10.659256,4.4008238 10.440211,4.3024963 10.412251,4.3023482 10.384291,4.3022004 10.309414,4.2749458 10.245857,4.2417829 10.1823,4.20862 9.9850002,4.1368165 9.8074141,4.0822192 9.6298287,4.0276234 9.4746664,3.9700238 9.4626087,3.9542226 9.3935726,3.8637462 8.6479786,3.7823695 8.4796997,3.8469446 c -0.096344,0.036971 -0.097336,0.465557 -0.00127,0.5452916 0.042122,0.034959 0.2469654,0.064307 0.537092,0.076951 0.2945121,0.012837 0.5011755,0.042744 0.5554835,0.08039 0.047567,0.032972 0.1308191,0.059951 0.1850057,0.059951 0.2362081,0 0.6830741,0.3857537 0.8526441,0.7360381 0.123377,0.2548634 0.09151,0.4620439 -0.122278,0.7949906 -0.122882,0.1913713 -0.222335,0.2896931 -0.365522,0.3613629 -0.2268942,0.1135708 -0.3951883,0.279034 -0.3951883,0.3885411 0,0.2182428 0.3543113,0.2528033 0.5954193,0.058078 0.08504,-0.068683 0.217546,-0.1705299 0.294449,-0.2263255 0.0769,-0.055797 0.209023,-0.1646367 0.293601,-0.2418663 0.08458,-0.077229 0.249788,-0.2183345 0.367133,-0.3135668 l 0.213353,-0.1731477 0.0826,0.1020007 c 0.122466,0.1512385 0.120274,0.7899479 -0.0031,0.9015945 -0.0703,0.063618 -0.109456,0.069262 -0.217994,0.031427 -0.08031,-0.027998 -0.183272,-0.031505 -0.262003,-0.00892 -0.180342,0.051722 -0.629069,0.5011526 -0.629069,0.6300579 0,0.1140874 0.203257,0.40551 0.555256,0.7961095 0.130387,0.1446854 0.310026,0.3518493 0.399196,0.4603638 0.08917,0.1085144 0.208223,0.2466239 0.264561,0.3069094 0.186791,0.1998753 0.326496,0.363314 0.326496,0.3819605 0,0.010121 -0.02042,0.056565 -0.04539,0.1032082 -0.04127,0.07712 -0.09667,0.084807 -0.61123,0.084807 -0.329935,0 -0.577142,-0.01828 -0.592942,-0.043845 -0.0149,-0.024115 -0.113554,-0.043844 -0.219222,-0.043844 -0.222078,0 -0.295854,-0.069058 -0.137922,-0.1291032 C 10.657837,9.4678929 10.599731,9.1385853 10.248792,8.7159047 9.9445426,8.3494414 9.7990032,8.2339906 9.6413015,8.2339906 c -0.1460498,0 -0.5996886,0.3106756 -0.9549614,0.6540089 L 8.4103454,9.1547187 v 0.440381 c 0,0.2999375 -0.017479,0.4542163 -0.054805,0.4837643 -0.052946,0.04191 -0.2857383,0.07393 -0.9316897,0.128129 -0.1688,0.01417 -0.3266394,0.04111 -0.350754,0.05988 -0.024115,0.01877 -0.1622235,0.06788 -0.3069091,0.109147 -0.1446861,0.04126 -0.2926602,0.09898 -0.3288318,0.128258 -0.036172,0.02928 -0.1577314,0.105705 -0.2701329,0.169832 -0.1124022,0.06413 -0.3047687,0.229243 -0.4274814,0.366924 -0.1935129,0.217117 -0.2231144,0.274893 -0.2231144,0.435475 0,0.168477 0.020658,0.203219 0.2294292,0.385847 0.1261861,0.110384 0.2535618,0.200698 0.2830579,0.200698 0.029496,0 0.1537956,0.05906 0.2762211,0.131245 0.1224255,0.07218 0.3057958,0.143945 0.4074886,0.159467 0.1016927,0.01552 0.2229143,0.04781 0.2693805,0.07175 0.3196762,0.1647 1.7016453,0.165933 2.0200382,0.0018 0.048229,-0.02486 0.1811426,-0.05739 0.2953644,-0.07228 0.1142217,-0.01489 0.2819256,-0.07366 0.3726758,-0.130594 0.09075,-0.05693 0.2241899,-0.117998 0.2965327,-0.135701 0.1884795,-0.04612 0.3288315,-0.192981 0.3288315,-0.344079 0,-0.175005 -0.3404486,-0.486544 -0.6357406,-0.581757 -0.1205721,-0.03888 -0.2586813,-0.08657 -0.3069099,-0.105993 -0.1808756,-0.07283 -0.6314499,-0.133809 -0.9891341,-0.133863 -0.4697482,-9.9e-5 -1.0978793,0.08643 -1.1733258,0.161571 -0.031865,0.03174 -0.091055,0.05833 -0.1315326,0.0591 -0.2087281,0.004 -0.314429,0.238344 -0.1828938,0.405564 0.1694434,0.215412 0.3259215,0.26207 0.9531273,0.284203 0.7968782,0.02812 1.0436884,-0.007 1.2088821,-0.172241 0.097419,-0.09742 0.156749,-0.123998 0.2336841,-0.104688 0.2681902,0.06731 -0.031695,0.355159 -0.4116022,0.395079 -0.1389057,0.01459 -0.4060373,0.04814 -0.5936249,0.07454 -0.1875868,0.0264 -0.4243455,0.03647 -0.5261307,0.02239 -0.1017835,-0.0141 -0.313957,-0.04375 -0.4714951,-0.06591 C 7.0152519,11.946982 6.7761113,11.865147 6.4449228,11.700677 6.0880929,11.523473 6.3226257,11.11367 6.9361773,10.8423 c 0.1176082,-0.05202 0.2451932,-0.09458 0.2835219,-0.09458 0.070243,0 0.3906458,-0.105093 0.5570974,-0.182731 0.1874458,-0.08743 1.550749,0.02198 1.7838658,0.143156 0.041873,0.02176 0.1503873,0.04001 0.2411432,0.04054 0.090756,5.29e-4 0.2510174,0.03999 0.3561364,0.08769 0.10512,0.0477 0.20739,0.08673 0.227269,0.08673 0.06592,0 0.499236,0.283012 0.620716,0.405413 0.26455,0.266555 0.265279,0.431326 0.0028,0.627028 -0.09075,0.06766 -0.217067,0.184178 -0.280707,0.258941 -0.06364,0.07476 -0.221478,0.182156 -0.350754,0.23865 -0.129275,0.05649 -0.313965,0.138464 -0.4104217,0.182154 -0.2629397,0.119099 -0.7376347,0.216962 -1.0523938,0.216962 -0.1538235,0 -0.2918727,0.01973 -0.3067761,0.04384 -0.033995,0.055 -1.215738,0.05921 -1.2736748,0.0045 z M 8.3149124,8.500706 C 8.4270468,8.4223341 8.5458202,8.3328578 8.5788522,8.30187 8.6118846,8.2708836 8.7547169,8.166887 8.8962588,8.0707674 9.2569292,7.8258409 9.3412027,7.6275849 9.1516569,7.4699377 9.1012014,7.4279731 8.9525461,7.252015 8.8213126,7.0789174 8.690079,6.9058212 8.5682109,6.7578474 8.5504946,6.7500863 8.532779,6.7423256 8.4317212,6.6323942 8.3259227,6.5057941 8.0446637,6.1692341 7.9017574,6.1850505 7.6407906,6.581624 7.5697064,6.6896445 7.4128978,6.8791271 7.292326,7.0026973 6.6977853,7.6120183 6.6686442,7.7208746 7.039667,7.9464776 7.130401,8.0016486 7.24076,8.0871905 7.28491,8.1365701 7.4103149,8.2768287 7.9409909,8.6344798 8.03051,8.6390706 8.074797,8.6413306 8.2027776,8.5790776 8.3149124,8.500706 Z M 9.6589271,6.2512193 C 9.9186324,6.12798 10.0082,5.9933187 10.00442,5.7317818 10.002409,5.5935477 9.9696485,5.4456929 9.9238003,5.3680791 9.8313234,5.2115284 9.3601028,4.967288 8.9271051,4.8514806 8.6518339,4.7778572 8.6255255,4.7774759 8.5215461,4.8456107 8.4325784,4.9039056 8.4103535,4.954238 8.4103535,5.097435 c 0,0.2040777 0.1022706,0.3749568 0.5341363,0.8924594 0.2425352,0.2906297 0.2924905,0.3295662 0.4228337,0.3295662 0.081293,0 0.2125146,-0.030704 0.2916036,-0.068236 z"
       id="path270" />
  </g>
</svg>
