<?xml version="1.0" encoding="UTF-8" standalone="no"?>
<svg
   xmlns:dc="http://purl.org/dc/elements/1.1/"
   xmlns:cc="http://creativecommons.org/ns#"
   xmlns:rdf="http://www.w3.org/1999/02/22-rdf-syntax-ns#"
   xmlns:svg="http://www.w3.org/2000/svg"
   xmlns="http://www.w3.org/2000/svg"
   width="16.0px"
   height="16.0px"
   viewBox="0 0 16.0 16.0"
   version="1.1"
   id="SVGRoot">
  <defs
     id="defs24" />
  <metadata
     id="metadata27">
    <rdf:RDF>
      <cc:Work
         rdf:about="">
        <dc:format>image/svg+xml</dc:format>
        <dc:type
           rdf:resource="http://purl.org/dc/dcmitype/StillImage" />
        <dc:title></dc:title>
      </cc:Work>
    </rdf:RDF>
  </metadata>
  <g
     id="layer1">
    <path
       style="fill:#000000;stroke-width:0.0478805"
       d="M 6.3478053,12.755765 C 6.1708333,12.534559 5.9306135,12.1987 5.9306135,12.172475 c 0,-0.01497 -0.064639,-0.116459 -0.1436425,-0.22552 -0.079003,-0.10906 -0.1436422,-0.226147 -0.1436422,-0.260192 0,-0.03404 -0.046377,-0.140502 -0.1030592,-0.236573 C 5.4405709,11.281214 5.3881995,11.108639 5.2210896,10.398429 5.0790947,9.7949571 5.1233587,8.7318116 5.3088049,8.2916763 5.330996,8.2390079 5.3629803,8.1123063 5.3798801,8.0101172 5.3967803,7.9079306 5.4598217,7.7463329 5.5199732,7.6510137 5.5801245,7.5556919 5.6460465,7.4250189 5.6664668,7.3606269 5.6868858,7.296235 5.7676415,7.1394604 5.8459207,7.0122427 6.1181271,6.5698486 5.9170193,6.3969671 5.3614404,6.595757 5.1146644,6.6840537 4.9570904,6.7074907 4.6471261,6.7019989 4.4283953,6.6981342 4.2237043,6.6755413 4.1922584,6.6518145 4.1608125,6.6280928 4.0480057,6.5838376 3.9415732,6.5534824 3.7413646,6.4963748 3.407989,6.2088636 3.5419825,6.2088636 c 0.039162,0 0.091673,0.019272 0.1166891,0.042836 0.085386,0.08041 0.4954209,0.1372607 0.7029037,0.097461 0.4796894,-0.09202 0.9642943,-0.4971783 1.019032,-0.8519723 0.014775,-0.095764 0.0451,-0.2425314 0.067389,-0.3261448 C 5.551889,4.7813077 5.2496464,4.1540035 4.8361237,3.9011012 4.7402307,3.8424553 4.6351534,3.7685848 4.6026192,3.7369456 4.4977274,3.6349396 4.095795,3.5742953 3.8905498,3.6295062 3.6965603,3.681689 3.2014115,3.9925735 3.2014115,4.0621904 c 0,0.021967 -0.03232,0.03992 -0.071821,0.03992 -0.039501,0 -0.071821,-0.017238 -0.071821,-0.03832 0,-0.075513 0.4836288,-0.5792048 0.5878697,-0.6122576 C 3.7041599,3.4329717 3.8382247,3.3616869 3.9435614,3.293115 4.1249832,3.1750148 4.1679213,3.1684373 4.7575352,3.1684373 h 0.6224497 l 0.3425013,0.2287076 c 0.1883764,0.1257888 0.3555975,0.255066 0.3716034,0.2872849 0.016006,0.032216 0.071301,0.1232158 0.1228791,0.2022196 C 6.4786473,4.2874682 6.48126,4.2969517 6.4807713,4.8442631 6.4804408,5.2045819 6.4563353,5.4365669 6.4044283,5.5786762 6.2978272,5.87053 6.3339703,6.0173404 6.5124226,6.0173404 c 0.1028495,0 0.2371994,-0.083238 0.5091358,-0.3154408 C 7.3401548,5.4298546 7.5917485,5.2781041 8.0134256,5.1036386 8.3495757,4.9645601 8.4773185,4.9230533 8.6646923,4.8920269 8.780515,4.8728564 8.8968252,4.8439733 8.9231597,4.8278587 9.1211356,4.7067202 9.4951401,4.6317717 9.9086901,4.6303631 c 0.3813789,-0.00127 0.5342929,0.02268 0.9057589,0.1420788 0.245805,0.079004 0.486705,0.1436424 0.535333,0.1436424 0.04863,0 0.125829,0.020391 0.171558,0.045326 0.120513,0.065701 0.669529,0.2419593 0.753663,0.2419593 0.0394,0 0.07163,0.020086 0.07163,0.044654 0,0.024561 0.04309,0.058331 0.09576,0.075048 0.05267,0.01673 0.09576,0.052793 0.09576,0.080171 0,0.028413 -0.03596,0.035212 -0.08379,0.01584 -0.04609,-0.018662 -0.256162,-0.071407 -0.466837,-0.1172078 -0.210679,-0.045801 -0.417648,-0.098587 -0.459935,-0.1173023 -0.04228,-0.018713 -0.3978,-0.026676 -0.790032,-0.017696 -0.8845348,0.020264 -1.3174378,0.133495 -2.1390466,0.5595 C 7.9527066,6.0612294 7.7361962,6.2080373 7.5126165,6.4626813 l -0.158773,0.1808319 0.099781,0.1058681 c 0.054879,0.058226 0.1949725,0.1576848 0.3113171,0.2210166 L 7.9764779,7.0855462 8.2582958,6.9198652 C 8.6727008,6.6762329 8.7529866,6.6422063 9.0428617,6.5873539 9.7691101,6.4499305 10.008099,6.4312556 10.304177,6.4887904 c 0.162145,0.03151 0.424087,0.080385 0.582093,0.1086091 0.158007,0.028225 0.351924,0.099375 0.430927,0.1581093 0.079,0.058734 0.179221,0.1198699 0.222706,0.1358598 0.183411,0.067432 0.55734,0.3803259 0.641683,0.5369403 0.05008,0.093001 0.105614,0.1690905 0.123399,0.1690905 0.06792,0 0.366924,0.5144264 0.445291,0.766093 0.0451,0.1448395 0.107135,0.3145959 0.137853,0.3772368 0.0721,0.1470352 0.07216,1.3606888 3.5e-5,1.4500018 -0.02843,0.03523 -0.06715,0.139464 -0.08605,0.231634 -0.0473,0.230817 -0.289407,0.703095 -0.478623,0.933675 -0.430491,0.524603 -0.726456,0.76 -1.135445,0.903084 -0.165997,0.05807 -0.32336,0.117713 -0.349693,0.132529 -0.180438,0.10152 -0.539091,0.14384 -1.0345046,0.122065 -0.6102141,-0.02682 -0.8114932,-0.0573 -1.0316044,-0.156206 -0.082961,-0.03729 -0.1739613,-0.06779 -0.2022008,-0.06779 -0.02824,0 -0.1973922,-0.0901 -0.3758941,-0.200238 C 7.9524986,11.940388 7.7779068,11.77605 7.5105836,11.446056 7.3131222,11.202303 7.1300161,10.927886 7.1036819,10.83624 7.0773469,10.7446 7.0396409,10.653484 7.0198909,10.633772 c -0.01975,-0.01971 -0.036043,-0.06995 -0.036206,-0.11165 -1.434e-4,-0.0417 -0.034268,-0.140451 -0.075792,-0.219454 C 6.7952915,10.088429 6.798402,9.0045375 6.9124008,8.730609 7.0603695,8.3750578 7.0732491,8.3412449 7.106951,8.21985 7.1252266,8.1540139 7.183156,8.0391528 7.2356803,7.9646035 7.3143627,7.8529256 7.321357,7.8107071 7.275401,7.7248384 7.2035219,7.5905296 6.9339831,7.4058787 6.8098082,7.4058787 6.631127,7.4058787 6.3348533,7.8622212 6.125922,8.459254 6.06602,8.6304279 5.9998443,8.8135718 5.9788651,8.8662401 c -0.2064478,0.5183085 -0.187025,2.3785239 0.030071,2.8800819 0.035918,0.08298 0.065307,0.180283 0.065307,0.216223 0,0.03594 0.087153,0.214487 0.1936747,0.396772 0.1065213,0.182285 0.1873202,0.370117 0.1795528,0.417405 -0.012695,0.07729 -0.022764,0.07517 -0.099678,-0.02096 z m 4.1314787,-1.06745 c 0.366435,-0.124699 0.592944,-0.243924 0.8511,-0.447984 0.279305,-0.220778 0.615357,-0.70862 0.662405,-0.961604 0.01714,-0.09217 0.05529,-0.197826 0.08478,-0.234792 0.0309,-0.03874 0.05318,-0.2517332 0.05259,-0.5027479 -0.0012,-0.4715977 -0.07399,-0.7303004 -0.319797,-1.1351044 -0.07373,-0.1214174 -0.134048,-0.2388248 -0.134048,-0.2609041 0,-0.02207 -0.106257,-0.1399049 -0.236127,-0.2618316 C 11.212354,7.6694546 10.833852,7.4543164 10.383523,7.2827468 10.124741,7.1841554 9.6365825,7.1388604 9.5557511,7.2059398 9.5238383,7.2324227 9.3576773,7.301793 9.1865039,7.3600981 9.01533,7.4184007 8.8429594,7.4930492 8.8034579,7.52598 8.7639559,7.558913 8.6627717,7.62073 8.5786034,7.6633475 8.4218454,7.7427255 8.1810085,7.9445353 8.1810085,7.9965121 c 0,0.015967 -0.064727,0.1212225 -0.1438378,0.2339135 -0.2510459,0.3576086 -0.3514767,0.6825705 -0.3713496,1.20157 -0.010034,0.26217 0.00255,0.4950593 0.02845,0.5266875 0.025546,0.03118 0.069973,0.1447149 0.098726,0.2522889 0.062382,0.233384 0.3908319,0.739293 0.6349003,0.977931 0.1713953,0.167581 0.3259561,0.259664 0.6628441,0.394902 0.09217,0.037 0.2214485,0.091 0.2872843,0.120009 0.1792624,0.07898 0.8514372,0.06951 1.1012572,-0.0155 z M 9.5456094,11.236343 c -0.016275,-0.02633 -0.0768,-0.04809 -0.1344979,-0.04835 -0.1968567,-8.64e-4 -0.5833499,-0.224463 -0.811147,-0.469247 -0.1250884,-0.134417 -0.2274333,-0.273327 -0.2274333,-0.30869 0,-0.03536 -0.025164,-0.08946 -0.055918,-0.120215 C 8.1592378,10.132467 8.0596436,9.2300236 8.1739631,8.9972679 8.1964237,8.9515398 8.2530089,8.8345761 8.2997102,8.7373487 8.4134089,8.5006392 8.8200245,8.0502027 9.0623644,7.8925052 9.250092,7.7703445 9.2854821,7.7649975 9.904715,7.7651806 c 0.706448,1.805e-4 0.87041,0.048031 1.185428,0.3457324 0.18526,0.1750762 0.483366,0.6356849 0.540622,0.8353234 0.07058,0.2461051 0.05387,0.8257893 -0.03101,1.0758066 -0.161724,0.476347 -0.62197,0.971631 -1.016734,1.094138 -0.149225,0.04631 -0.308732,0.103062 -0.35446,0.12612 -0.114303,0.05763 -0.646518,0.05299 -0.6829506,-0.006 z"
       id="path299" />
  </g>
</svg>
