<?xml version="1.0" encoding="UTF-8" standalone="no"?>
<svg
   xmlns:dc="http://purl.org/dc/elements/1.1/"
   xmlns:cc="http://creativecommons.org/ns#"
   xmlns:rdf="http://www.w3.org/1999/02/22-rdf-syntax-ns#"
   xmlns:svg="http://www.w3.org/2000/svg"
   xmlns="http://www.w3.org/2000/svg"
   width="16.0px"
   height="16.0px"
   viewBox="0 0 16.0 16.0"
   version="1.1"
   id="SVGRoot">
  <defs
     id="defs24" />
  <metadata
     id="metadata27">
    <rdf:RDF>
      <cc:Work
         rdf:about="">
        <dc:format>image/svg+xml</dc:format>
        <dc:type
           rdf:resource="http://purl.org/dc/dcmitype/StillImage" />
        <dc:title></dc:title>
      </cc:Work>
    </rdf:RDF>
  </metadata>
  <g
     id="layer1">
    <path
       style="fill:#000000;stroke-width:0.0464163"
       d="m 7.8667034,13.166707 c -0.029438,-0.02944 -0.053527,-0.119898 -0.053527,-0.201017 0,-0.08112 -0.031333,-0.173493 -0.069625,-0.205274 -0.038296,-0.03178 -0.069625,-0.103452 -0.069625,-0.15927 0,-0.05582 -0.030668,-0.142031 -0.068149,-0.191586 -0.037481,-0.04955 -0.068813,-0.130231 -0.069625,-0.179278 -7.984e-4,-0.04905 -0.030029,-0.122155 -0.064928,-0.162458 -0.0349,-0.0403 -0.076866,-0.161718 -0.093263,-0.269808 -0.026994,-0.177952 -0.016609,-0.208293 0.1098687,-0.320983 0.076824,-0.06845 0.1396792,-0.163512 0.1396792,-0.211249 0,-0.13716 -0.1404314,-0.315541 -0.2490247,-0.316319 -0.054504,-3.68e-4 -0.1279679,-0.019 -0.1632519,-0.04134 -0.04964,-0.03144 -0.039344,-0.04851 0.045519,-0.07544 0.1832575,-0.05817 0.3668447,-0.219288 0.3652824,-0.320588 -0.00207,-0.133794 -0.1072954,-0.258166 -0.2184359,-0.258166 -0.051498,0 -0.1196385,-0.03133 -0.1514199,-0.06963 -0.03178,-0.0383 -0.091778,-0.06975 -0.133328,-0.06991 -0.041548,-1.33e-4 -0.1353733,-0.03148 -0.2084961,-0.06962 -0.1881213,-0.098112 -0.2997605,-0.086648 -0.4776863,0.04906 -0.1029797,0.07855 -0.1552345,0.157419 -0.1552345,0.234308 0,0.113101 -0.2011649,0.338993 -0.3046264,0.342068 -0.027133,7.99e-4 -0.1093704,0.06413 -0.1827454,0.140717 -0.073375,0.07658 -0.1582753,0.139248 -0.1886662,0.139248 -0.030391,0 -0.082274,0.03255 -0.1152958,0.07234 -0.1054146,0.127018 -0.6072047,0.490377 -0.6551332,0.4744 -0.025403,-0.0084 0.028597,-0.119282 0.1199973,-0.246255 0.091401,-0.126975 0.1865251,-0.277859 0.2113882,-0.335299 0.024865,-0.05744 0.066612,-0.104436 0.092773,-0.104436 0.026159,0 0.047713,-0.02611 0.047889,-0.05802 1.672e-4,-0.03191 0.1056393,-0.21258 0.2343568,-0.401487 C 5.7004019,10.118018 5.8312189,9.9803326 5.9495751,9.9217738 6.0667191,9.8638114 6.1419627,9.7852254 6.1793825,9.6817416 6.2564634,9.4685822 6.2507686,9.427345 6.1233302,9.2758932 6.0619017,9.202889 5.9974224,9.0589937 5.9800417,8.9561252 5.962661,8.8532573 5.9293743,8.7573053 5.9060661,8.7429004 5.8827601,8.7285004 5.8636871,8.6556784 5.8636871,8.5810863 5.8636871,8.47302 5.8386461,8.4391743 5.7404622,8.4145316 5.566999,8.3709974 5.4776145,8.4439323 5.4148631,8.6802305 5.3850046,8.7926602 5.3588969,8.8617336 5.3568431,8.8337275 5.354767,8.8057216 5.311334,8.7346434 5.2602737,8.6757738 5.2092177,8.6169021 5.1674413,8.5420082 5.1674413,8.5093417 c 0,-0.1675513 -0.3944101,-0.118534 -0.4378181,0.054413 -0.028703,0.1143711 -0.179148,0.1563301 -0.2352197,0.065601 -0.015773,-0.02553 -0.077114,-0.046413 -0.1363054,-0.046413 -0.059189,0 -0.1336197,-0.031334 -0.165402,-0.069626 -0.03178,-0.03829 -0.1034515,-0.069624 -0.1592686,-0.069624 -0.055818,0 -0.1420307,-0.030668 -0.1915866,-0.068148 C 3.7922861,8.338062 3.7073018,8.306731 3.6529879,8.3059181 3.5986741,8.3050664 3.5303209,8.2756284 3.5010926,8.240412 3.4718677,8.2051928 3.3839641,8.163583 3.3057554,8.1479421 3.2206992,8.1309287 3.171179,8.0960396 3.1825251,8.0611186 3.2013058,8.0033057 3.7957926,7.680826 3.980694,7.6281495 4.0334748,7.6131112 4.1861654,7.5569165 4.3200093,7.5032664 l 0.2433542,-0.097544 0.1077617,0.1012374 c 0.073348,0.068908 0.1665488,0.1012369 0.2918615,0.1012369 0.1560544,0 0.1928002,-0.019446 0.2411919,-0.1276454 0.031397,-0.070206 0.086608,-0.1780663 0.1226867,-0.2396902 0.065521,-0.1119177 0.065632,-0.1118373 0.095951,0.069624 0.048512,0.2903278 0.054804,0.2977118 0.2537475,0.2977118 0.1850234,0 0.1871394,-0.00197 0.1885996,-0.1740621 8.517e-4,-0.095734 0.032142,-0.2146062 0.069624,-0.2641621 0.037481,-0.049555 0.068148,-0.1343336 0.068148,-0.1883984 0,-0.054063 0.030668,-0.138843 0.068148,-0.1883983 C 6.1085654,6.743621 6.1398974,6.6263373 6.1407094,6.532544 6.141882,6.3952101 6.1142273,6.3409949 5.9985546,6.2540458 5.7721855,6.0838852 5.4459375,5.747502 5.4459375,5.6842605 5.4459375,5.6264666 5.0160054,4.9895312 4.9493286,4.948547 4.9161164,4.9281321 4.8885809,4.8759121 4.8881392,4.8325062 4.8876377,4.7890986 4.8354797,4.704394 4.7720975,4.6442749 4.6204482,4.5004297 4.6084468,4.3491721 4.7590187,4.4794952 c 0.05619,0.048632 0.1520406,0.1458623 0.2130007,0.2160681 0.060958,0.070204 0.1514081,0.1276456 0.200997,0.1276456 0.049592,0 0.1023995,0.031884 0.1173533,0.070855 0.014953,0.03897 0.1187362,0.1245047 0.2306256,0.190076 0.1118905,0.065571 0.2034357,0.1346064 0.2034357,0.1534102 0,0.018804 0.1096594,0.1044331 0.2436875,0.1902867 0.2772708,0.177611 0.3116083,0.2161032 0.3126001,0.350422 0.00101,0.1249947 0.186507,0.2981936 0.3195215,0.2981936 0.057174,0 0.2165768,-0.062663 0.3542267,-0.1392493 0.1376499,-0.076588 0.2906189,-0.1392491 0.3399311,-0.1392491 0.04931,0 0.1156605,-0.031333 0.1474412,-0.069626 0.03178,-0.038293 0.086557,-0.069624 0.1217247,-0.069624 0.038935,0 0.063941,-0.050328 0.063941,-0.1286942 0,-0.098347 -0.035576,-0.1469761 -0.1508535,-0.2062205 -0.082968,-0.04264 -0.1926274,-0.08423 -0.2436856,-0.09242 C 7.0544708,5.2027336 7.1372607,5.10868 7.4138235,5.0259037 7.61756,4.9649251 7.6622679,4.8600504 7.5684209,4.6632509 7.5146063,4.5504018 7.4584852,4.498294 7.3907607,4.498294 c -0.081391,0 -0.093193,-0.018574 -0.066359,-0.1044382 0.017951,-0.057439 0.049544,-0.1879855 0.070209,-0.2901022 0.020665,-0.1021168 0.09196,-0.2884197 0.1584398,-0.4140098 0.066479,-0.1255901 0.1208709,-0.2744661 0.1208709,-0.3308356 0,-0.056371 0.030167,-0.1275267 0.067033,-0.1581248 0.036869,-0.030598 0.073421,-0.1323703 0.081229,-0.2261615 0.010929,-0.1313033 0.034383,-0.170528 0.1019694,-0.170528 0.1032821,0 0.1305743,0.047072 0.2422114,0.4177477 0.046132,0.1531743 0.1108593,0.3114748 0.14384,0.3517784 0.032978,0.040303 0.059964,0.1173982 0.059964,0.1713224 0,0.053923 0.019281,0.109959 0.042847,0.1245214 0.023567,0.014568 0.057221,0.094125 0.074791,0.1768015 0.017567,0.082676 0.061455,0.1838527 0.097522,0.224837 0.084155,0.095624 0.03746,0.2176736 -0.090325,0.2360809 -0.078019,0.011239 -0.1069728,0.0589 -0.134611,0.2215856 -0.040116,0.2361345 -0.01408,0.2774566 0.2027464,0.3218024 0.1979223,0.040481 0.2005823,0.1495033 0.0049,0.2002146 -0.1999537,0.051812 -0.396714,0.4079186 -0.2253885,0.4079186 0.035911,0 0.2049597,0.062661 0.3756581,0.1392493 0.1706982,0.076586 0.3371869,0.1392491 0.3699743,0.1392491 0.032787,0 0.085617,0.031331 0.117398,0.069624 0.03178,0.038293 0.093519,0.069626 0.1371965,0.069626 0.1030633,0 0.4198002,-0.3167615 0.4198002,-0.4198317 0,-0.04467 0.1158064,-0.1581114 0.2645628,-0.2591595 0.145509,-0.098842 0.302163,-0.2162671 0.348123,-0.2609424 0.04596,-0.044676 0.09944,-0.081228 0.118847,-0.081228 0.01942,0 0.08848,-0.049327 0.153501,-0.1096145 0.06502,-0.060289 0.169242,-0.1367105 0.231608,-0.169824 0.06237,-0.033115 0.140687,-0.09867 0.174046,-0.1456766 0.06145,-0.086589 0.194638,-0.1182344 0.194638,-0.046244 0,0.021573 -0.04403,0.079013 -0.09785,0.1276456 -0.05382,0.048632 -0.145743,0.182416 -0.204279,0.2972955 -0.05853,0.1148811 -0.160716,0.2595125 -0.227065,0.3214027 -0.06635,0.06189 -0.120636,0.1378377 -0.120636,0.1687719 0,0.1280068 -0.376875,0.6166712 -0.5119,0.6637415 -0.2587359,0.090195 -0.2964895,0.5123218 -0.07262,0.812007 0.06,0.080313 0.127485,0.2504609 0.14998,0.3781068 l 0.0409,0.2320822 h 0.185219 0.185218 l 0.02321,-0.2552897 c 0.02236,-0.2460106 0.100744,-0.3328175 0.130432,-0.1444591 0.0079,0.050215 0.04447,0.116263 0.08123,0.1467705 0.03676,0.030508 0.06684,0.1051325 0.06684,0.1658285 0,0.097921 0.02105,0.1103584 0.186814,0.1103584 0.154546,0 0.19414,-0.019265 0.22922,-0.1115327 0.06598,-0.1735516 0.111955,-0.1766323 0.412278,-0.027628 0.154261,0.076536 0.32193,0.1391592 0.372595,0.1391592 0.05067,0 0.119723,0.026899 0.153457,0.059781 0.03373,0.032877 0.144887,0.096535 0.247002,0.1414536 0.28704,0.1262661 0.323833,0.15134 0.339603,0.2314332 0.0097,0.049091 -0.03,0.085737 -0.116041,0.1071863 -0.0719,0.017924 -0.245034,0.091776 -0.384739,0.1641155 -0.139706,0.072338 -0.273459,0.131526 -0.297229,0.131526 -0.02376,0 -0.156785,0.053725 -0.295591,0.1193916 -0.270465,0.1279498 -0.377604,0.1209258 -0.416367,-0.027303 -0.02497,-0.095517 -0.17773,-0.1589424 -0.315523,-0.131014 -0.04264,0.00864 -0.124419,0.1268213 -0.181729,0.2626167 -0.05731,0.1357959 -0.123291,0.250677 -0.146621,0.2552903 -0.02333,0.00463 -0.05286,-0.1064927 -0.06563,-0.2469012 -0.0217,-0.2387744 -0.03164,-0.2562599 -0.15365,-0.2702502 -0.164228,-0.018828 -0.249275,0.050726 -0.290279,0.237414 -0.01769,0.080528 -0.08169,0.2248818 -0.142232,0.3207847 -0.080739,0.1278955 -0.110075,0.241234 -0.110075,0.4252438 0,0.2710966 0.063727,0.3503772 0.335426,0.4172757 0.08642,0.021275 0.185779,0.12033 0.313311,0.3123326 0.102718,0.154643 0.186759,0.299542 0.186759,0.321998 0,0.02246 0.02682,0.05754 0.0596,0.07795 0.03278,0.02041 0.129648,0.152 0.215257,0.292409 0.08561,0.14041 0.219736,0.312615 0.298061,0.382678 0.11477,0.102662 0.130987,0.138697 0.08356,0.185665 -0.04727,0.04681 -0.06748,0.043 -0.102662,-0.01934 -0.02409,-0.04269 -0.122011,-0.125095 -0.217586,-0.183119 -0.09558,-0.05803 -0.190478,-0.132755 -0.210893,-0.166066 -0.02041,-0.03332 -0.05823,-0.06057 -0.08401,-0.06057 -0.05075,0 -0.403337,-0.254845 -0.610727,-0.441433 -0.07064,-0.06356 -0.15004,-0.115563 -0.1764306,-0.115563 -0.02639,0 -0.078133,-0.07216 -0.1149747,-0.160335 C 9.8036878,10.058274 9.5902095,9.8361826 9.49535,9.8361826 c -0.03268,0 -0.1373302,0.049166 -0.232557,0.1092611 -0.095226,0.060094 -0.2253577,0.1255683 -0.2891802,0.1455013 -0.063823,0.01993 -0.157242,0.06475 -0.2075979,0.09961 -0.050354,0.03486 -0.1365695,0.06337 -0.1915861,0.06337 -0.1163631,0 -0.1800582,0.06828 -0.2199353,0.235772 -0.02263,0.09504 -0.00239,0.138761 0.098037,0.212009 0.069598,0.05075 0.1683183,0.109533 0.2193764,0.130621 0.080081,0.03308 0.06733,0.04597 -0.092833,0.09389 l -0.1856659,0.05554 v 0.251101 c 0,0.239424 0.00594,0.251785 0.1276448,0.265789 0.1410192,0.01623 0.1611898,0.06215 0.063067,0.143583 -0.035518,0.02948 -0.079054,0.150119 -0.096745,0.268092 -0.017689,0.117974 -0.082204,0.293763 -0.143363,0.390644 -0.061158,0.09688 -0.1248043,0.261241 -0.141435,0.365242 -0.01663,0.104002 -0.048384,0.200305 -0.070557,0.214012 -0.022177,0.01371 -0.040319,0.07517 -0.040319,0.136588 0,0.133621 -0.1447807,0.230086 -0.2249713,0.149894 z M 7.7346183,9.3796282 c 0.043204,-0.097929 0.078557,-0.2242914 0.078557,-0.2808038 0,-0.1434343 0.1333094,-0.3863053 0.1999926,-0.3643571 0.030412,0.010003 0.060859,0.068783 0.067657,0.130604 0.0068,0.061823 0.031876,0.1855115 0.055727,0.2748636 0.023854,0.089351 0.055883,0.2224549 0.071181,0.2957863 0.026718,0.1280785 0.036455,0.1324981 0.2473127,0.1122369 0.3086347,-0.029654 0.4721253,-0.1467193 0.4721253,-0.338054 0,-0.083289 -0.031333,-0.1774376 -0.069625,-0.2092184 -0.03829,-0.03178 -0.069625,-0.1166548 -0.069625,-0.1886103 0,-0.071954 -0.020889,-0.1437346 -0.046414,-0.1595129 -0.02553,-0.015773 -0.046414,-0.052281 -0.046414,-0.081117 0,-0.028836 0.042587,-0.00672 0.094642,0.049155 0.052052,0.055873 0.1226009,0.1015866 0.1567741,0.1015866 0.034176,0 0.088135,0.031328 0.1199164,0.069624 C 9.2084802,8.9629779 9.4226829,8.8120877 9.4999707,8.4864162 9.535259,8.3377271 9.3664223,8.1968171 9.0912361,8.145283 8.8572759,8.1014721 8.6374225,7.9888689 8.6731059,7.9311315 c 0.015107,-0.024439 0.1053618,-0.044439 0.200569,-0.044439 0.1950563,0 0.6692955,-0.1531894 0.6928326,-0.2238002 0.00847,-0.025403 -0.0066,-0.059783 -0.033468,-0.076394 -0.026878,-0.016609 -0.048868,-0.071035 -0.048868,-0.1209457 0,-0.049906 -0.046994,-0.1632979 -0.1044367,-0.2519765 C 9.2533075,7.0183958 9.1356168,7.007038 8.8995507,7.1672361 8.8055027,7.2310581 8.7105822,7.2832783 8.6886155,7.2832783 c -0.055361,0 -0.050209,-0.1568289 0.00702,-0.214068 0.025834,-0.025835 0.086257,-0.1240314 0.1342755,-0.218217 L 8.9172224,6.6797468 8.7891133,6.57195 C 8.6245422,6.4334737 8.3911293,6.3369748 8.3027647,6.3708844 c -0.037993,0.014584 -0.080867,0.084841 -0.095276,0.1561394 -0.014411,0.071298 -0.046366,0.1937776 -0.071008,0.2721769 -0.024642,0.078401 -0.044806,0.1972707 -0.044806,0.2641552 0,0.066886 -0.023753,0.1362904 -0.052786,0.1542332 C 7.9498947,7.2725903 7.8153253,7.0438527 7.814208,6.8356841 7.8135691,6.7129857 7.7892788,6.63421 7.747151,6.6180436 7.710835,6.6041126 7.673789,6.5444346 7.664821,6.4854327 7.655851,6.4264327 7.628121,6.3828392 7.6032,6.3885607 7.513799,6.4090827 7.2318298,6.518889 7.1749501,6.5553341 c -0.094854,0.060778 -0.066222,0.2638406 0.05802,0.4114942 0.1078777,0.1282043 0.1576817,0.3164505 0.083723,0.3164505 -0.017774,0 -0.1065459,-0.05013 -0.1972692,-0.1113992 C 6.8529746,6.9919392 6.7768734,6.9860904 6.6653178,7.1369748 6.5493747,7.2937952 6.4439999,7.6510239 6.4985327,7.7023861 c 0.074636,0.070296 0.4851895,0.1843041 0.6636955,0.1843041 0.099718,0 0.1944408,0.021256 0.2104965,0.047234 C 7.4071937,7.9896952 7.047913,8.1627 6.8945719,8.1641697 6.7602641,8.1654997 6.5133692,8.3449152 6.5139682,8.4408118 c 1.671e-4,0.039877 0.051508,0.1821588 0.1139063,0.3161864 0.080452,0.1728021 0.1399828,0.243687 0.2046591,0.243687 0.1105971,0 0.3770525,-0.1362165 0.4539783,-0.2320833 0.049523,-0.061718 0.059044,-0.061445 0.083822,0.00239 0.015374,0.039611 -0.033947,0.1880136 -0.1096025,0.3297886 L 7.1231763,9.3585601 7.247698,9.4555447 c 0.068486,0.053342 0.188386,0.098146 0.266442,0.099563 0.1209619,0.00223 0.1535226,-0.023716 0.2204778,-0.1754746 z"
       id="path328" />
  </g>
</svg>
