<?xml version="1.0" encoding="UTF-8" standalone="no"?>
<svg
   xmlns:dc="http://purl.org/dc/elements/1.1/"
   xmlns:cc="http://creativecommons.org/ns#"
   xmlns:rdf="http://www.w3.org/1999/02/22-rdf-syntax-ns#"
   xmlns:svg="http://www.w3.org/2000/svg"
   xmlns="http://www.w3.org/2000/svg"
   width="16.0px"
   height="16.0px"
   viewBox="0 0 16.0 16.0"
   version="1.1"
   id="SVGRoot">
  <defs
     id="defs33" />
  <metadata
     id="metadata36">
    <rdf:RDF>
      <cc:Work
         rdf:about="">
        <dc:format>image/svg+xml</dc:format>
        <dc:type
           rdf:resource="http://purl.org/dc/dcmitype/StillImage" />
        <dc:title></dc:title>
      </cc:Work>
    </rdf:RDF>
  </metadata>
  <g
     id="layer1">
    <path
       style="fill:#000000;stroke-width:0.0542021"
       d="m 6.9932165,12.928742 c -0.029754,-0.07826 -0.054101,-0.165097 -0.054101,-0.192968 0,-0.122283 -0.2315914,0.02078 -0.2829206,0.174763 -0.034529,0.103588 -0.1506968,-0.003 -0.1506968,-0.138299 0,-0.184601 -0.059456,-0.209503 -0.1953626,-0.08183 -0.2203708,0.207028 -0.2653559,0.121411 -0.2653559,-0.505034 0,-0.550867 -0.00547,-0.577385 -0.1482304,-0.720195 -0.1027882,-0.102811 -0.2229155,-0.156683 -0.3918528,-0.175725 -0.2211702,-0.02492 -0.2586719,-0.01135 -0.4069106,0.147341 -0.089808,0.09614 -0.1939707,0.23731 -0.2314721,0.313712 -0.0375,0.0764 -0.1346651,0.188107 -0.2159192,0.248236 -0.1459721,0.10802 -0.1491181,0.108078 -0.2636806,0.0049 -0.06377,-0.05746 -0.1374796,-0.153251 -0.1637985,-0.212874 -0.026321,-0.05962 -0.072567,-0.14499 -0.1027743,-0.189706 C 4.0899344,11.556338 4.0159554,11.409992 3.9557449,11.275842 3.8955345,11.141691 3.82588,10.995346 3.8009569,10.950629 3.7226806,10.810184 3.6202382,10.496938 3.5931102,10.31508 3.5712484,10.168511 3.6032077,10.099151 3.7908488,9.8859803 3.9139493,9.7461324 4.0275734,9.5686995 4.0433482,9.4916874 4.0591226,9.4146762 4.1053094,9.2784924 4.1459851,9.1890593 4.3890839,8.6545628 4.4861032,7.9941319 4.4167122,7.3461664 4.3872576,7.0711101 4.3542886,6.9777104 4.2709077,6.9330839 4.0935261,6.8381538 4.04403,6.9456523 4.1230965,7.2541774 4.179353,7.4736761 4.1790658,7.5856121 4.1215575,7.8566286 4.0827066,8.0397039 4.032096,8.2011259 4.0090897,8.215344 3.9860818,8.2295626 3.9163945,8.1588947 3.8542261,8.0583044 3.7547435,7.8973348 3.7413475,7.7917044 3.7424855,7.1771808 3.743768,6.4845619 3.7583542,6.3766829 3.9284812,5.8014205 3.9769714,5.6374624 4.0366671,5.427591 4.0611393,5.335042 4.1255995,5.0912657 4.4272034,4.5145414 4.6475096,4.2137883 4.8205085,3.9776172 5.3950792,3.5249313 5.5218382,3.5249313 c 0.028668,0 0.2109662,-0.071268 0.4051079,-0.1583707 0.3044521,-0.1365984 0.4560564,-0.1653947 1.1026471,-0.209444 0.7457988,-0.050804 1.4880754,-0.022999 1.5699024,0.058845 0.023589,0.023598 0.012427,0.091668 -0.024803,0.1512872 -0.041553,0.06654 -0.05413,0.1807076 -0.032567,0.2956489 0.02854,0.1521336 0.01834,0.1872482 -0.054402,0.1872482 -0.1518253,0 -0.4143761,0.2271551 -0.3816678,0.3302078 0.030579,0.096345 -0.1988095,0.3202171 -0.3281027,0.3202171 -0.037393,0 -0.1253595,0.046456 -0.1954781,0.1032365 C 7.4580241,4.7045813 7.4573692,4.7096727 7.554961,4.8175091 7.6535834,4.9264868 7.6512086,4.930035 7.3791144,5.0801422 6.9103008,5.3387698 7.0909404,5.4529117 7.6164351,5.2300956 7.7059881,5.1921338 7.9378001,5.1179245 8.1315732,5.0652097 8.3253459,5.0124952 8.514376,4.9462671 8.5516397,4.9180394 c 0.080668,-0.061111 0.09097,-0.2548613 0.013552,-0.2548613 -0.1366966,0 -0.035187,-0.154301 0.1219548,-0.1853844 0.096886,-0.019152 0.2231144,-0.070375 0.2805078,-0.1138041 0.091181,-0.068999 0.095504,-0.095494 0.034259,-0.2099313 -0.08167,-0.1526038 -0.04371,-0.2369535 0.1376671,-0.305913 0.1769856,-0.067292 0.172031,-0.2558062 -0.00853,-0.3244537 -0.076322,-0.029027 -0.1236638,-0.077193 -0.1052058,-0.1070625 0.049118,-0.079471 0.3202317,-0.066258 0.4970408,0.02424 0.084397,0.043194 0.1900345,0.092241 0.2347515,0.1089992 0.044718,0.016757 0.1544762,0.079267 0.24391,0.1389111 0.08943,0.05964 0.204155,0.1228969 0.254935,0.1405697 0.0828,0.028813 0.174334,0.1383939 0.340631,0.4077901 0.345565,0.5598124 0.454504,0.7604542 0.52561,0.9680727 0.04594,0.1341488 0.114046,0.3292759 0.151335,0.4336151 0.204389,0.5718979 0.218751,1.8192849 0.02506,2.1764507 -0.04291,0.079126 -0.07802,0.1970178 -0.07802,0.2619782 0,0.070469 -0.02733,0.108944 -0.06775,0.095388 -0.06723,-0.022546 -0.09242,-0.8786441 -0.037,-1.2579415 0.01832,-0.1253936 7.27e-4,-0.1651593 -0.08041,-0.181866 -0.131989,-0.027189 -0.299829,0.1841062 -0.301447,0.3794726 -6.83e-4,0.080041 -0.02336,0.2037881 -0.05043,0.2749964 -0.03059,0.080464 -0.02786,0.2202853 0.0072,0.3693922 0.06015,0.2556773 0.07228,0.2921528 0.251567,0.7558938 0.06362,0.1645379 0.115674,0.4084475 0.115697,0.542022 4.1e-5,0.3258322 0.158145,0.7231696 0.346742,0.8715211 0.150032,0.1180135 0.153253,0.1314605 0.127505,0.5321365 -0.01453,0.226086 -0.06073,0.472044 -0.102686,0.546572 -0.131284,0.233243 -0.371328,0.595368 -0.468302,0.706472 -0.05116,0.05861 -0.135694,0.155343 -0.187865,0.214966 -0.12507,0.142937 -0.279933,0.137417 -0.380147,-0.01355 -0.304198,-0.458267 -0.7915981,-0.703269 -1.0243694,-0.514922 -0.2132435,0.172547 -0.2621993,0.328536 -0.2621993,0.835445 0,0.274814 -0.022264,0.513423 -0.049478,0.530241 -0.02721,0.01681 -0.097755,-0.03569 -0.1567595,-0.116695 -0.092336,-0.126758 -0.1194228,-0.137197 -0.194432,-0.07495 -0.047933,0.03978 -0.08715,0.13032 -0.08715,0.201197 0,0.07842 -0.031832,0.128869 -0.081303,0.128869 -0.044717,0 -0.081303,-0.04735 -0.081303,-0.105206 0,-0.178691 -0.093418,-0.174851 -0.2391363,0.0098 L 8.0782431,12.983217 7.9512699,12.825419 C 7.8065644,12.64558 7.7220473,12.668812 7.670713,12.902539 c -0.04687,0.213401 -0.1895709,0.215341 -0.1895709,0.0026 0,-0.08768 -0.025928,-0.175433 -0.057618,-0.195018 -0.068475,-0.04232 -0.2675952,0.124452 -0.2675952,0.224121 0,0.137646 -0.1096981,0.133957 -0.1627076,-0.0055 z m 1.196112,-1.383794 C 8.3527182,11.457503 8.3128211,11.243024 8.0334052,10.70672 7.8201035,10.297316 7.7560999,10.216222 7.6352381,10.202237 c -0.1600893,-0.01852 -0.179372,-7.7e-4 -0.4592423,0.42318 -0.1164808,0.17644 -0.2076087,0.389901 -0.2232757,0.523007 -0.023325,0.198155 -0.00933,0.236125 0.117688,0.319351 0.2163951,0.141788 0.3983971,0.04238 0.4208454,-0.229856 0.01354,-0.16419 0.038978,-0.205985 0.1253889,-0.205985 0.086061,0 0.111862,0.04172 0.1251787,0.202441 0.011017,0.132968 0.05701,0.230626 0.1340145,0.284563 0.1387572,0.09719 0.1748913,0.100186 0.3134929,0.02601 z M 6.4500248,10.09446 C 6.6580182,9.9421335 6.9246738,9.5162528 6.966291,9.269921 6.998037,9.0820192 6.9821556,9.0220527 6.8572929,8.8583492 6.7769058,8.7529557 6.6465736,8.6409658 6.5676644,8.6094815 6.488756,8.5779963 6.3754127,8.5300674 6.3157905,8.5029696 6.1536701,8.4292887 5.5875086,8.2876796 5.334029,8.2574094 5.126484,8.2326273 5.1031046,8.2437252 4.9952654,8.4182105 4.9315576,8.5212922 4.8794327,8.6477715 4.8794327,8.6992756 c 0,0.051505 -0.041437,0.1637881 -0.092078,0.2495197 -0.086636,0.1466627 -0.086636,0.1672881 0,0.3489655 0.050642,0.1061984 0.092078,0.2236726 0.092078,0.2610503 0,0.177124 0.309068,0.4305584 0.6785623,0.5564169 0.4199112,0.143032 0.6765273,0.137057 0.8920298,-0.02077 z m 3.1802896,0.01109 c 0.093939,-0.042 0.2114,-0.07636 0.2610234,-0.07636 0.1493472,0 0.2838932,-0.096797 0.4034672,-0.2902717 0.09131,-0.1477442 0.11325,-0.271356 0.11325,-0.6381154 0,-0.4152081 -0.01234,-0.468178 -0.14147,-0.6074422 C 10.128795,8.3447625 10.114349,8.3416584 9.7110131,8.3739799 8.9496122,8.4349954 8.380951,8.6550993 8.2925312,8.9230147 c -0.0671,0.2033146 -0.014967,0.5925604 0.1045959,0.7809663 0.3016099,0.47527 0.7452294,0.619731 1.2331873,0.401573 z"
       id="path96" />
  </g>
</svg>
