<?xml version="1.0" encoding="UTF-8" standalone="no"?>
<svg
   xmlns:dc="http://purl.org/dc/elements/1.1/"
   xmlns:cc="http://creativecommons.org/ns#"
   xmlns:rdf="http://www.w3.org/1999/02/22-rdf-syntax-ns#"
   xmlns:svg="http://www.w3.org/2000/svg"
   xmlns="http://www.w3.org/2000/svg"
   width="16.0px"
   height="16.0px"
   viewBox="0 0 16.0 16.0"
   version="1.1"
   id="SVGRoot">
  <defs
     id="defs24" />
  <metadata
     id="metadata27">
    <rdf:RDF>
      <cc:Work
         rdf:about="">
        <dc:format>image/svg+xml</dc:format>
        <dc:type
           rdf:resource="http://purl.org/dc/dcmitype/StillImage" />
        <dc:title></dc:title>
      </cc:Work>
    </rdf:RDF>
  </metadata>
  <g
     id="layer1">
    <path
       style="fill:#000000;stroke-width:0.0490856"
       d="M 6.4881696,11.764206 C 6.4354068,11.716962 6.3436694,11.598388 6.2843156,11.500712 6.1802918,11.329524 6.1763993,11.275926 6.1763993,10.014654 V 8.7061891 L 6.05049,8.6583154 c -0.06925,-0.02633 -0.4950619,-0.047874 -0.94625,-0.047874 -0.6630282,0 -0.8412599,0.014655 -0.9294343,0.076412 -0.1417102,0.099259 -0.1379473,0.1936625 0.012959,0.3248656 0.1456489,0.1266393 0.1591319,0.2032167 0.1951341,1.108109 l 0.027832,0.699471 H 3.9682564 3.525784 v -0.411057 c 0,-0.239911 0.030656,-0.4979449 0.073627,-0.6197429 0.040495,-0.1147769 0.073628,-0.3280893 0.073628,-0.4740259 0,-0.1905775 0.02075,-0.2733017 0.07363,-0.2935944 0.088011,-0.033776 0.097839,-0.2684199 0.014734,-0.3515342 -0.032394,-0.032394 -0.1007741,-0.0589 -0.151952,-0.0589 -0.1868407,0 -0.3655637,-0.184593 -0.4271076,-0.4411402 C 3.1301687,7.9518207 3.134034,7.9061092 3.2166224,7.7641738 3.320456,7.5857187 3.5555539,7.5183149 3.6460886,7.6410443 c 0.028329,0.038402 0.097097,0.094097 0.152819,0.1237656 0.08559,0.045573 0.1224196,0.031582 0.2373183,-0.090154 0.1659542,-0.1758284 0.223018,-0.1789329 0.3930168,-0.021383 0.1590531,0.1474064 0.1673399,0.1481952 0.2959887,0.028181 0.18463,-0.1722357 0.3398148,-0.1754462 0.4957254,-0.010255 0.1100526,0.1166 0.1579493,0.1375587 0.2283125,0.099902 C 5.6045352,7.6880011 5.5520359,7.5231879 5.2909728,7.2741848 5.0330517,7.0281805 4.9620705,7.0186486 4.8042394,7.208823 4.7116109,7.3204339 4.5677099,7.3021924 4.4381704,7.1624172 4.294862,7.0077831 4.211,7.0077831 4.0657292,7.1624172 3.9184046,7.3192401 3.7784301,7.3168932 3.6247763,7.1550257 3.5577355,7.0843989 3.4424085,7.005532 3.3684921,6.9797653 3.1948327,6.9192276 3.1689384,6.779875 3.1902004,6.020328 3.2088967,5.3526308 3.2316885,5.3033734 3.6059024,5.122221 3.7238213,5.0651372 3.8202999,4.9911206 3.8202999,4.9577388 c 0,-0.033381 0.052878,-0.1103719 0.1175135,-0.1710898 L 4.0553239,4.6762525 4.1677368,4.8762638 4.2801503,5.0762756 h 0.3534589 c 0.3215123,0 0.3606225,-0.010935 0.4327311,-0.1209872 0.043602,-0.066543 0.079765,-0.1604194 0.080367,-0.2086145 6.664e-4,-0.048195 0.043584,-0.1428485 0.09552,-0.2103415 C 5.3613657,4.3815096 5.4199883,4.4319993 5.536427,4.789722 L 5.621715,5.0517327 6.0360987,5.0657667 6.450483,5.0797987 6.538416,4.8804953 C 6.58678,4.7708787 6.6669962,4.5657664 6.7166777,4.4246905 c 0.049679,-0.1410759 0.1141111,-0.2542928 0.143177,-0.251593 0.029068,0.0027 0.073181,0.00822 0.098033,0.012271 0.024852,0.00405 0.060536,0.079151 0.079296,0.1668912 0.018763,0.087741 0.062204,0.2147505 0.096539,0.2822433 0.034333,0.067493 0.085247,0.1806355 0.1131369,0.2514288 0.031328,0.079526 0.1371253,0.1705477 0.2768429,0.2381839 0.1277947,0.061864 0.2567816,0.1687355 0.2966085,0.2457517 0.038762,0.074955 0.1032689,0.1488668 0.1433521,0.1642478 0.040083,0.015381 0.1079442,0.095778 0.150804,0.1786594 0.075919,0.1468111 0.073772,0.1564973 -0.083334,0.3759819 C 7.9424406,6.2126656 7.8445982,6.358138 7.8137063,6.4120286 7.7828144,6.4659195 7.6681611,6.6015818 7.558921,6.7135005 L 7.3603033,6.9169894 7.7030679,7.2810795 c 0.1885207,0.2002495 0.3789868,0.4254083 0.4232569,0.5003524 0.089218,0.151034 0.1258275,0.092491 -0.5141515,0.8222135 -0.1147375,0.1308281 -0.208614,0.262505 -0.208614,0.2926147 0,0.03011 0.1814529,0.229509 0.4032283,0.4431074 0.3927794,0.3782948 0.4016241,0.3918809 0.34131,0.5242563 -0.034054,0.074743 -0.1823756,0.2730992 -0.3296003,0.4407902 -0.1472246,0.167691 -0.2676813,0.341098 -0.2676813,0.385349 0,0.147895 0.1811046,0.08352 0.374163,-0.132991 0.4144159,-0.464768 0.6075525,-0.7164217 0.6075525,-0.7916286 0,-0.043324 -0.1656647,-0.2433627 -0.3681434,-0.444531 C 7.9619094,9.1194435 7.7962447,8.9246269 7.7962447,8.8876869 c 0,-0.036938 0.07731,-0.1491373 0.1718007,-0.2493255 0.09449,-0.1001888 0.1717994,-0.2000136 0.1717994,-0.221833 0,-0.021822 0.088354,-0.1307151 0.1963433,-0.2419901 C 8.5463513,7.9579798 8.5801731,7.8275499 8.4534399,7.7223703 8.3045989,7.5988432 7.7962447,6.9493421 7.7962447,6.8827014 c 0,-0.036601 0.0633,-0.1358519 0.1406664,-0.220558 C 8.0142784,6.5774381 8.1233422,6.4340855 8.1792773,6.3435812 8.2352147,6.2530771 8.3375761,6.1258558 8.4067531,6.0608669 8.5755814,5.902261 8.5630029,5.7723616 8.3591702,5.5694945 8.2655372,5.476304 8.188929,5.3728875 8.188929,5.3396794 c 0,-0.075476 0.2584991,-0.2634052 0.3623176,-0.2634052 0.1077509,0 0.2133626,-0.1788079 0.2758026,-0.4669533 0.029177,-0.1346344 0.094639,-0.2994427 0.1454774,-0.3662406 0.089252,-0.1172742 0.095759,-0.1184383 0.1892228,-0.033855 0.053235,0.048177 0.1078043,0.1470071 0.1212655,0.2196221 0.013462,0.072615 0.066455,0.2424698 0.1177674,0.3774558 l 0.093294,0.2454284 0.3931828,0.014101 0.3931849,0.014101 0.144571,-0.3064131 c 0.07952,-0.1685271 0.17166,-0.314593 0.204768,-0.3245909 0.03344,-0.010099 0.107168,0.087101 0.165876,0.2186828 0.05812,0.1302737 0.121796,0.2699936 0.141497,0.3104891 0.02734,0.056202 0.127496,0.073629 0.423153,0.073629 0.360287,0 0.388397,-0.00745 0.402533,-0.1067144 0.0084,-0.058693 0.0676,-0.1410471 0.131638,-0.1830097 0.11213,-0.07347 0.120376,-0.069929 0.222699,0.095633 0.05844,0.094561 0.168681,0.2042087 0.244974,0.2436619 0.07629,0.039453 0.20729,0.1343649 0.291101,0.210915 l 0.152386,0.1391823 -0.0136,0.7573379 -0.0136,0.7573379 -0.147257,0.015891 c -0.08702,0.00939 -0.221039,0.087282 -0.327611,0.1904035 l -0.18035,0.1745119 -0.216285,-0.1772287 -0.216284,-0.177229 -0.140217,0.146354 c -0.170976,0.1784611 -0.265855,0.1838483 -0.416363,0.02364 -0.06341,-0.067493 -0.129309,-0.1227147 -0.146451,-0.1227147 -0.07967,0 -0.540749,0.5023769 -0.540749,0.5891861 0,0.1319913 0.211548,0.1318949 0.3436,-1.472e-4 0.117537,-0.1175376 0.259,-0.1264809 0.345824,-0.021862 0.140227,0.1689624 0.239171,0.1812408 0.396143,0.049157 0.193383,-0.1627211 0.267986,-0.1581651 0.440885,0.026924 l 0.142354,0.1523895 0.173562,-0.1523895 c 0.09546,-0.083814 0.189361,-0.1522879 0.20867,-0.1521628 0.01931,1.474e-4 0.106893,0.06751 0.194634,0.1497448 0.134868,0.1264045 0.159529,0.1841722 0.159529,0.3736906 0,0.1949553 -0.02484,0.2490104 -0.190568,0.4147413 -0.11819,0.1181896 -0.236479,0.1905678 -0.31145,0.1905678 -0.06649,0 -0.161206,0.04456 -0.21049,0.099017 -0.08728,0.096445 -0.08614,0.1026376 0.04383,0.2382931 0.124751,0.1302107 0.136026,0.1788768 0.173245,0.7477117 0.0219,0.3346392 0.06863,0.6769672 0.103853,0.7607262 0.115844,0.275467 0.05929,0.314024 -0.460623,0.314024 -0.376552,0 -0.468145,-0.01444 -0.492397,-0.07764 -0.05112,-0.133218 -0.03283,-0.360017 0.04383,-0.543499 0.041,-0.09812 0.07363,-0.3244177 0.07363,-0.5106277 0,-0.3768463 0.05814,-0.5734895 0.198652,-0.6719087 0.05273,-0.036932 0.09586,-0.107365 0.09586,-0.1565231 0,-0.1900801 -0.11689,-0.2155067 -1.055887,-0.2296798 C 10.073941,8.6175147 9.9475442,8.6262817 9.8589385,8.6990267 9.7615275,8.7790157 9.7570873,8.835494 9.7449019,10.149489 L 9.7322209,11.516725 9.5503238,11.68342 9.3684274,11.850116 H 7.9762739 c -1.2565888,0 -1.4014954,-0.0084 -1.4880904,-0.0859 z M 6.3120517,6.3092659 C 6.3589317,6.2854859 6.5022064,6.2176699 6.6304427,6.158565 6.758679,6.0994602 6.8634492,6.0360849 6.863265,6.0177312 6.8627113,5.9630679 6.5449728,5.7634746 6.4585021,5.7634746 c -0.043978,0 -0.093617,-0.022088 -0.1103022,-0.049086 -0.016685,-0.026997 -0.135344,-0.049085 -0.2636857,-0.049085 -0.1940503,0 -0.2565914,0.024261 -0.3713683,0.1440628 C 5.6072143,5.9199359 5.582399,5.982413 5.6064146,6.0780969 5.6605886,6.293949 6.0747686,6.429635 6.3120517,6.3092659 Z m 4.0332933,-0.099326 c 0.129486,-0.1818464 0.128189,-0.289029 -0.0052,-0.4310307 -0.120443,-0.1282056 -0.4563937,-0.1573697 -0.6450567,-0.055997 -0.058967,0.031685 -0.1734819,0.071245 -0.2544734,0.087912 -0.1131787,0.023291 -0.1472573,0.056961 -0.1472573,0.1454985 0,0.1543408 0.4512541,0.3935994 0.7452154,0.395119 0.171174,8.785e-4 0.222135,-0.02262 0.306787,-0.141502 z"
       id="path366" />
  </g>
</svg>
