<?xml version="1.0" encoding="UTF-8" standalone="no"?>
<svg
   xmlns:dc="http://purl.org/dc/elements/1.1/"
   xmlns:cc="http://creativecommons.org/ns#"
   xmlns:rdf="http://www.w3.org/1999/02/22-rdf-syntax-ns#"
   xmlns:svg="http://www.w3.org/2000/svg"
   xmlns="http://www.w3.org/2000/svg"
   width="16.0px"
   height="16.0px"
   viewBox="0 0 16.0 16.0"
   version="1.1"
   id="SVGRoot">
  <defs
     id="defs24" />
  <metadata
     id="metadata27">
    <rdf:RDF>
      <cc:Work
         rdf:about="">
        <dc:format>image/svg+xml</dc:format>
        <dc:type
           rdf:resource="http://purl.org/dc/dcmitype/StillImage" />
        <dc:title></dc:title>
      </cc:Work>
    </rdf:RDF>
  </metadata>
  <g
     id="layer1">
    <path
       style="fill:#000000;stroke-width:0.0466016"
       d="m 8.995387,11.773721 c 0,-0.03002 0.028266,-0.08769 0.062817,-0.128156 0.1780254,-0.208506 0.2537447,-1.126685 0.097848,-1.186508 -0.098485,-0.03779 -0.3004711,0.101733 -0.3004711,0.207555 0,0.112055 -0.4253416,0.74227 -0.5009712,0.742273 -0.069111,2e-6 -0.078873,-0.214764 -0.011648,-0.25631 0.070049,-0.04329 0.055054,-0.683992 -0.018271,-0.780583 -0.044643,-0.05881 -0.1278145,-0.08155 -0.2982572,-0.08155 -0.207691,0 -0.248036,0.01641 -0.3327275,0.135349 -0.1124545,0.157927 -0.1256343,0.413981 -0.027956,0.543123 0.076335,0.100924 0.094966,0.373298 0.028349,0.414469 C 7.637163,11.41857 7.3382529,11.04528 7.3023139,10.894108 7.2867989,10.828843 7.2016905,10.692532 7.1131864,10.591194 6.9776081,10.435957 6.9388472,10.415048 6.8670312,10.45841 c -0.1175441,0.07097 -0.1464191,0.629413 -0.040873,0.790495 0.039678,0.06055 0.072141,0.151542 0.072141,0.202193 0,0.05065 0.020971,0.105054 0.046602,0.120895 0.075721,0.0468 0.054033,0.209709 -0.027919,0.209709 -0.1012102,0 -0.4622454,-0.389369 -0.53169,-0.573417 -0.068883,-0.182556 -0.1760189,-0.431149 -0.2616261,-0.60706 -0.035312,-0.07256 -0.064902,-0.177417 -0.065755,-0.23301 -8.938e-4,-0.05559 -0.043411,-0.151347 -0.094575,-0.212788 -0.081095,-0.09738 -0.1080694,-0.104855 -0.2103509,-0.05825 -0.1531983,0.0698 -0.2847892,0.06789 -0.3304076,-0.0048 C 5.4024688,10.06034 5.3724929,9.8885738 5.3559631,9.7106739 5.3297192,9.4282375 5.3088904,9.3736006 5.191714,9.2798365 5.1179065,9.2207766 5.0129013,9.1723506 4.9583696,9.1722237 4.9038384,9.1720838 4.8331154,9.140535 4.8012077,9.102089 4.7277587,9.013588 4.6003504,9.013165 4.4307654,9.100889 4.3137711,9.161388 4.2911759,9.161388 4.2409645,9.100889 4.2096185,9.063114 4.1449945,9.032213 4.0973594,9.032213 4.0407514,9.032213 4.0010224,8.98782 3.9826683,8.9040572 3.9346735,8.6850141 3.9203187,8.6581389 3.8352738,8.6280902 3.708758,8.583387 3.5429533,8.4186934 3.5429533,8.3377251 c 0,-0.039826 0.085152,-0.1502457 0.1892248,-0.2453784 C 3.9037889,7.9354793 3.9200561,7.9011141 3.9069364,7.7231697 3.8876555,7.4617162 3.7218688,7.3242558 3.5188885,7.4014286 3.417726,7.4398909 3.3570427,7.4388155 3.2792521,7.3971816 3.1337468,7.3193096 3.113559,7.2356134 3.193902,7.0433263 c 0.038191,-0.091407 0.06944,-0.2061726 0.06944,-0.2550355 0,-0.048863 0.062913,-0.2134712 0.1398058,-0.3657961 0.076893,-0.1523245 0.1398059,-0.3023155 0.1398059,-0.3333121 0,-0.2111217 0.9811372,-1.380192 1.2986341,-1.5473816 0.4750353,-0.2501484 0.6866155,-0.3550999 0.7169017,-0.3556117 0.0634,-0.00107 0.03658,0.1183996 -0.081554,0.3632754 -0.096647,0.2003428 -0.1165038,0.3101287 -0.1165038,0.6441553 0,0.3696348 0.00955,0.411506 0.1165038,0.5106253 0.1370353,0.1269998 0.1481907,0.2826544 0.04047,0.5647194 -0.061463,0.1609379 -0.064836,0.2125976 -0.017595,0.2695194 0.074883,0.090228 0.1854793,0.089485 0.3162718,-0.00213 C 5.9393332,6.4500308 5.957088,6.144238 5.8497536,5.9564754 5.7727031,5.82169 5.7545889,5.1853541 5.8265359,5.1408883 c 0.025677,-0.01587 0.1986884,0.1260018 0.3844673,0.31527 0.365379,0.372241 0.9360695,0.7799277 1.0917646,0.7799277 0.053207,0 0.1228458,0.031457 0.154754,0.069903 0.031906,0.038447 0.1026311,0.070224 0.1571624,0.070616 0.1445248,0.00104 0.2149231,0.05962 0.2559345,0.2129675 0.043768,0.1636433 0.1894851,0.1835566 0.263075,0.03595 C 8.2244557,6.4434724 8.306341,6.375892 8.4361636,6.375892 c 0.070616,0 0.1544997,-0.031456 0.186408,-0.069903 0.031906,-0.038447 0.08891,-0.069903 0.1266709,-0.069903 0.077349,0 0.337956,-0.1363979 0.4091328,-0.2141335 C 9.1840709,5.9938883 9.2784945,5.9212488 9.3682038,5.8605318 9.4579122,5.7998148 9.6681774,5.6078247 9.8354596,5.4338876 10.002743,5.2599503 10.165267,5.117638 10.196625,5.117638 c 0.09142,0 0.07653,0.7436365 -0.01758,0.8779998 -0.114576,0.1635804 -0.102625,0.4043207 0.02692,0.5422113 0.136012,0.1447782 0.150496,0.1450158 0.313045,0.00513 l 0.130754,-0.11254 -0.102793,-0.139116 c -0.170264,-0.2304276 -0.176913,-0.3465218 -0.02985,-0.5212883 0.126783,-0.1506725 0.129702,-0.1668941 0.115792,-0.6434044 -0.01374,-0.4706889 -0.05685,-0.642459 -0.181201,-0.7220132 -0.05899,-0.037737 -0.0796,-0.182159 -0.0327,-0.229064 0.03757,-0.037566 0.727033,0.3285781 0.813282,0.4318961 0.01281,0.015352 0.09703,0.078749 0.187147,0.1408827 0.171308,0.1181163 0.651689,0.6103578 0.651689,0.667779 0,0.01825 0.06111,0.1105925 0.135809,0.2052062 0.208644,0.2642833 0.525783,0.8934809 0.568233,1.1273659 0.02093,0.1153398 0.05173,0.2779037 0.06843,0.361253 0.02057,0.1026627 0.0067,0.1876633 -0.043,0.263522 -0.06513,0.099395 -0.105235,0.1112449 -0.356946,0.1054589 -0.308981,-0.0071 -0.37053,0.034977 -0.371809,0.2541944 -4.47e-4,0.084312 0.06441,0.1854084 0.208995,0.325526 0.245545,0.2379625 0.268392,0.3757305 0.08155,0.4917522 -0.213679,0.1326877 -0.337865,0.2605707 -0.337865,0.3479225 0,0.048655 -0.06624,0.1143252 -0.160363,0.1589914 -0.135835,0.064458 -0.185132,0.067142 -0.322279,0.017549 -0.138728,-0.050165 -0.178926,-0.047402 -0.280715,0.019295 -0.06534,0.042814 -0.156238,0.078406 -0.201995,0.079095 -0.04575,6.947e-4 -0.153123,0.059267 -0.238592,0.1301733 -0.143203,0.118801 -0.157834,0.1561957 -0.186409,0.4764168 -0.02863,0.3209004 -0.03957,0.3487064 -0.142817,0.3633004 -0.0615,0.0087 -0.160903,-0.01047 -0.220907,-0.04258 -0.14976,-0.08015 -0.2964099,0.05009 -0.2964099,0.263237 0,0.08366 -0.030628,0.211477 -0.068059,0.28404 -0.037437,0.07257 -0.1237383,0.25633 -0.1917856,0.408367 -0.182336,0.407395 -0.718803,0.942912 -0.718803,0.717531 z M 6.6847768,9.4233156 c 0.040544,-0.015557 0.073714,-0.067559 0.073714,-0.1155581 0,-0.088801 0.2987976,-0.2755731 0.4408623,-0.2755731 0.052936,0 0.07176,-0.050088 0.07176,-0.1909431 0,-0.1738112 -0.027437,-0.2177126 -0.305813,-0.4893211 C 6.797103,8.1878124 6.6378861,8.0535421 6.6114852,8.0535421 c -0.0264,0 -0.1023606,-0.042758 -0.1687999,-0.095019 -0.0897,-0.070558 -0.1575754,-0.087168 -0.2636616,-0.064521 -0.2427061,0.051811 -0.2593683,0.08843 -0.2593683,0.5700018 V 8.9096541 L 6.2109176,9.1801218 C 6.503702,9.4520031 6.5491865,9.4753467 6.6847768,9.4233156 Z M 9.8088072,9.1741277 10.083387,8.8966525 10.074073,8.5181737 C 10.062713,8.0564266 9.989513,7.9137363 9.7639989,7.9137363 c -0.1153627,0 -0.2097466,0.051284 -0.3859541,0.209709 -0.128285,0.11534 -0.2531288,0.209709 -0.2774289,0.209709 -0.0958,0 -0.384842,0.4423504 -0.384842,0.5889622 0,0.031147 0.11534,0.1094376 0.2563107,0.1739761 0.1409715,0.064539 0.2563115,0.1457656 0.2563115,0.1805042 0,0.034736 0.025163,0.088326 0.055922,0.1190831 0.1127704,0.1127704 0.2517463,0.054064 0.5244891,-0.2215522 z m -1.5918444,0.00951 C 8.2827926,9.0875243 8.3635756,8.9459705 8.3964805,8.8690771 8.4293873,8.7921841 8.5061432,8.6618353 8.5670524,8.5794137 L 8.6777966,8.4295556 8.5824563,8.2956628 C 8.4159203,8.0617844 8.3701815,8.0420162 8.2373423,8.1465078 8.0879039,8.2640556 8.0423712,8.2633896 7.8439404,8.1407509 L 7.6834355,8.0415531 7.5025913,8.2181432 7.3217467,8.3947328 7.4595374,8.568707 c 0.075784,0.095686 0.1377898,0.1946029 0.1377898,0.2198145 0,0.025214 0.031457,0.071947 0.069903,0.1038548 0.038446,0.031906 0.069903,0.1063516 0.069903,0.1654305 0,0.1078749 0.1941699,0.3005891 0.30286,0.3005891 0.031503,0 0.1111405,-0.078641 0.1769698,-0.1747569 z"
       id="path395" />
  </g>
</svg>
