<?xml version="1.0" encoding="UTF-8" standalone="no"?>
<svg
   xmlns:dc="http://purl.org/dc/elements/1.1/"
   xmlns:cc="http://creativecommons.org/ns#"
   xmlns:rdf="http://www.w3.org/1999/02/22-rdf-syntax-ns#"
   xmlns:svg="http://www.w3.org/2000/svg"
   xmlns="http://www.w3.org/2000/svg"
   width="16.0px"
   height="16.0px"
   viewBox="0 0 16.0 16.0"
   version="1.1"
   id="SVGRoot">
  <defs
     id="defs24" />
  <metadata
     id="metadata27">
    <rdf:RDF>
      <cc:Work
         rdf:about="">
        <dc:format>image/svg+xml</dc:format>
        <dc:type
           rdf:resource="http://purl.org/dc/dcmitype/StillImage" />
        <dc:title></dc:title>
      </cc:Work>
    </rdf:RDF>
  </metadata>
  <g
     id="layer1">
    <path
       style="fill:#000000;stroke-width:0.0508861"
       d="M 9.3715187,12.02477 C 9.3106683,10.74996 9.2147301,10.230433 8.9340611,9.6558397 8.8177592,9.4177445 8.4495964,8.9147868 8.2790938,8.7610699 8.0352071,8.5411945 8.0794165,8.0606524 8.3711904,7.7599989 8.6180325,7.5056453 8.8546883,7.4068513 9.2171375,7.4068513 c 0.2513019,0 0.3031247,0.018156 0.4214454,0.1476653 0.2439205,0.2669823 0.4186821,0.8695258 0.5478881,1.8890089 0.07174,0.5660905 0.07577,0.7496985 0.0254,1.1595255 -0.08648,0.703673 -0.199942,1.210954 -0.3271502,1.462608 -0.461207,0.912404 -0.4677254,0.911885 -0.5132039,-0.04089 z m -2.963644,0.578607 C 6.3514166,12.550778 6.2801403,12.442009 6.2494835,12.361667 6.2188265,12.281326 6.1351392,12.063796 6.0635113,11.878267 5.8394058,11.297791 5.7804882,10.944038 5.7796822,10.174091 5.7788074,9.33443 5.8613495,8.809859 6.1060334,8.1001655 6.3111983,7.5050967 6.4139684,7.4077129 6.8373448,7.4071869 7.3843733,7.4065096 7.865262,7.8238166 7.865262,8.2992016 c 0,0.202817 -0.1551092,0.5423069 -0.2940495,0.6435935 -0.155072,0.1130456 -0.6219009,0.8175841 -0.6219009,0.9385729 0,0.062728 -0.025304,0.178515 -0.05623,0.257302 -0.1297052,0.330432 -0.2427839,1.058031 -0.2773069,1.784328 -0.020287,0.426807 -0.052268,0.776013 -0.071068,0.776013 -0.0188,0 -0.080373,-0.04303 -0.1368317,-0.09563 z M 4.2403632,8.1948724 4.0520973,8.0669419 4.0825254,7.672355 C 4.1115454,7.2960311 4.1065486,7.2701564 3.9745819,7.1133219 3.8455768,6.9600085 3.8144939,6.9488762 3.5154176,6.9488762 c -0.2141903,0 -0.3291226,-0.021709 -0.3458599,-0.065325 -0.035582,-0.092724 0.00321,-0.4851039 0.067098,-0.6786838 C 3.3061045,5.9944359 3.6715639,5.6574651 3.9188482,5.5758534 4.2043685,5.4816236 4.632063,5.531495 4.7870415,5.67709 4.9428537,5.8234679 4.9428681,5.8209558 4.7851508,6.0043474 4.5911321,6.2299516 4.5687053,6.3864602 4.7135852,6.5037765 c 0.087501,0.070855 0.1660364,0.089357 0.287545,0.067744 0.091941,-0.016353 0.2458299,-0.043515 0.3419752,-0.060359 0.1026772,-0.01799 0.275905,0.00189 0.4198105,0.048204 C 6.4144478,6.769 6.8195936,6.6862827 7.0274723,6.3011845 7.1433808,6.086462 7.2994952,6.060266 7.4502129,6.2302475 c 0.046358,0.052284 0.1843742,0.1332414 0.306702,0.1799054 0.2045195,0.078018 0.2419072,0.078369 0.4647123,0.00437 0.1332642,-0.044263 0.2828887,-0.1253307 0.3324993,-0.1801492 0.1254901,-0.1386657 0.3200301,-0.129515 0.3759952,0.017685 0.02454,0.064546 0.1315237,0.1836411 0.2377405,0.2646568 0.2364709,0.1803656 0.5162984,0.1878652 1.0876318,0.029149 0.354467,-0.09847 0.394253,-0.1002718 0.587188,-0.026588 0.306266,0.1169634 0.620904,-0.033452 0.511729,-0.2446359 -0.0743,-0.143723 -0.164152,-0.2866468 -0.230352,-0.3664124 -0.06119,-0.073731 -0.05375,-0.1011926 0.05758,-0.2125236 0.271739,-0.2717384 0.837389,-0.2359308 1.278627,0.080942 0.269405,0.1934724 0.256614,0.1691709 0.342359,0.6504096 0.05887,0.3303849 0.0569,0.3783912 -0.0189,0.4621493 -0.06787,0.074997 -0.138259,0.089016 -0.356189,0.070944 -0.250572,-0.020778 -0.280553,-0.011251 -0.387196,0.1230413 -0.105014,0.1322418 -0.113248,0.1841642 -0.08996,0.5672864 l 0.02563,0.4217219 -0.184402,0.1253041 c -0.137473,0.093414 -0.251697,0.1253036 -0.448829,0.1253036 -0.316583,0 -0.424354,-0.085919 -0.424354,-0.3383089 0,-0.2638853 -0.230258,-0.4816515 -0.468415,-0.4430036 C 10.314861,7.5634218 10.199751,7.5315451 9.9477546,7.4024051 9.6476802,7.2486244 9.5810324,7.2346157 9.136161,7.2318082 8.6523982,7.2287549 8.6509889,7.2291273 8.3855902,7.4239069 8.2393464,7.5312432 8.1196921,7.6375627 8.1196921,7.6601718 c 0,0.022609 -0.038065,0.055715 -0.084589,0.073568 C 7.9767658,7.7561266 7.9042774,7.7101092 7.8015352,7.5854645 7.6274236,7.374237 7.4773247,7.2902698 7.1266653,7.2079326 6.8204422,7.1360292 6.404825,7.2153825 5.9860947,7.4256983 5.8132126,7.5125317 5.6495291,7.5557012 5.5133904,7.550366 5.3441134,7.543736 5.2828134,7.568164 5.1858323,7.6809111 5.1116763,7.7671221 5.0665237,7.8845702 5.0665237,7.9912453 c 0,0.2388983 -0.1114817,0.3315568 -0.3989116,0.3315568 -0.171424,0 -0.2922054,-0.036165 -0.4272489,-0.1279297 z M 6.0556017,6.3445896 C 5.900149,6.2497932 5.422727,5.7268877 5.422727,5.6514214 5.422727,5.6295454 5.358496,5.5060724 5.2799906,5.3770337 5.1402164,5.1472874 5.0156381,4.6393856 5.0156381,4.2992786 V 4.1293931 L 5.4250577,4.5410166 C 5.72551,4.8430862 5.925275,4.9952797 6.1756282,5.1128487 c 0.6430601,0.3019889 0.6963288,0.335158 0.7634205,0.4753657 0.042853,0.089553 0.055457,0.2186825 0.034768,0.3562028 -0.060911,0.404869 -0.5563983,0.6208105 -0.918215,0.4001724 z M 9.2498642,6.3139738 C 9.1674789,6.2446511 9.0487756,6.0686899 8.9860794,5.9229479 8.8854754,5.6890878 8.8659622,5.6695247 8.8199488,5.7563934 8.791273,5.8105301 8.6995249,5.9272993 8.6160628,6.0158798 8.4922763,6.1472585 8.4105729,6.1831731 8.1726642,6.2107849 7.7205113,6.2632626 7.5013344,6.1814872 7.2842426,5.879311 7.1059302,5.6311138 7.1019699,5.6151645 7.1019699,5.1453033 c 0,-0.2653078 -0.022779,-0.4943748 -0.050886,-0.5117467 C 7.0230958,4.6162581 6.9998602,4.5633856 6.9994476,4.5160596 6.9982342,4.3774362 6.6531771,3.8420465 6.3415542,3.4952881 6.0700619,3.1931853 6.2361981,3.176191 6.8365016,3.4446588 c 0.363326,0.1624866 0.7671542,0.4879907 0.9541485,0.7690869 0.069819,0.1049529 0.1487932,0.1908232 0.1755003,0.1908232 0.026707,0 0.2267463,-0.1795797 0.444532,-0.3990656 C 8.8143339,3.598699 9.209757,3.3591104 9.5754453,3.2997672 9.7984132,3.2635846 9.794616,3.3187956 9.5531265,3.6243031 9.4459192,3.7599308 9.2594351,4.0272878 9.1387185,4.2184296 8.9288676,4.5507044 8.9181352,4.5869438 8.8942299,5.0439696 8.8655576,5.5921258 8.920759,5.6765606 9.1617775,5.453194 9.2377603,5.3827752 9.3835811,5.2981182 9.485824,5.2650674 9.8675214,5.1416802 10.09118,4.9894363 10.549506,4.5410214 l 0.470697,-0.4605179 v 0.2230743 c 0,0.122691 -0.06297,0.4246815 -0.139937,0.6710899 C 10.722759,5.4789343 10.306177,6.1229909 10.007677,6.3237349 9.7675033,6.485253 9.4485352,6.4811446 9.2498642,6.3139749 Z"
       id="path482" />
  </g>
</svg>
