<?xml version="1.0" encoding="UTF-8" standalone="no"?>
<svg
   xmlns:dc="http://purl.org/dc/elements/1.1/"
   xmlns:cc="http://creativecommons.org/ns#"
   xmlns:rdf="http://www.w3.org/1999/02/22-rdf-syntax-ns#"
   xmlns:svg="http://www.w3.org/2000/svg"
   xmlns="http://www.w3.org/2000/svg"
   width="16.0px"
   height="16.0px"
   viewBox="0 0 16.0 16.0"
   version="1.1"
   id="SVGRoot">
  <defs
     id="defs24" />
  <metadata
     id="metadata27">
    <rdf:RDF>
      <cc:Work
         rdf:about="">
        <dc:format>image/svg+xml</dc:format>
        <dc:type
           rdf:resource="http://purl.org/dc/dcmitype/StillImage" />
        <dc:title></dc:title>
      </cc:Work>
    </rdf:RDF>
  </metadata>
  <g
     id="layer1">
    <path
       style="fill:#000000;stroke-width:0.0451894"
       d="m 4.7982367,12.15349 c -0.2453042,-0.206411 -0.2213526,-0.695483 0.04369,-0.892116 0.1102352,-0.08178 0.1297448,-0.08318 0.2711366,-0.01936 0.3796557,0.171348 0.4802508,0.188633 0.6438385,0.110623 0.2082572,-0.09931 0.5048582,-0.455031 0.6561239,-0.786902 0.024382,-0.05351 0.065929,-0.11063 0.092317,-0.126938 0.026386,-0.01631 0.048701,-0.08437 0.04958,-0.151256 9.899e-4,-0.06688 0.030661,-0.172443 0.066183,-0.234578 C 6.7251875,9.8708931 6.7079694,9.5743689 6.588453,9.4906578 6.3656713,9.3346141 5.9733398,9.4489102 5.2619851,9.8770928 5.11097,9.9679915 4.9034526,10.056549 4.8008314,10.073887 4.5672676,10.113345 4.1542257,10.030549 4.0070264,9.9147627 3.9456733,9.8665006 3.8638027,9.8270173 3.8250934,9.8270173 c -0.03871,0 -0.142261,-0.063113 -0.2301166,-0.1402497 C 3.3232481,9.4481864 3.4066122,9.1300188 3.7815436,8.9747175 c 0.1080253,-0.044748 0.1625515,-0.041964 0.2995848,0.015293 0.092138,0.0385 0.1675237,0.089536 0.1675237,0.1134188 0,0.02388 0.064187,0.076614 0.1426347,0.1171816 0.3183594,0.1646312 0.9713671,-0.0074 1.4301315,-0.3767778 C 5.9945929,8.7044043 6.0143995,8.6692269 6.0021753,8.522801 L 5.9884471,8.3583559 5.7399066,8.3704385 c -0.1366992,0.00663 -0.4188129,0.023447 -0.6269173,0.037374 -0.2431581,0.016259 -0.3957669,0.00791 -0.4270411,-0.023379 -0.02677,-0.02677 -0.088754,-0.048671 -0.1377479,-0.048671 -0.048992,0 -0.1211843,-0.026689 -0.160422,-0.059305 C 4.3485363,8.2438408 4.2249268,8.1789291 4.1130806,8.1322118 3.876997,8.0335983 3.5708074,7.736177 3.5708074,7.6054646 c 0,-0.049537 0.059441,-0.1495075 0.132092,-0.2221581 0.1670776,-0.167077 0.3673095,-0.1734789 0.6403201,-0.020478 0.4475697,0.2508313 0.5373375,0.2950883 0.5985354,0.2950883 0.035227,0 0.089366,0.0305 0.1203083,0.067783 0.086637,0.1043912 0.5016194,0.090176 0.6443173,-0.022074 C 5.84567,7.5940606 6.0110432,7.2878537 6.0110432,7.1395074 c 0,-0.059905 0.018566,-0.1203961 0.041277,-0.1344275 C 6.0905422,6.9814599 6.1449452,6.872644 6.3423457,6.4249642 6.4424595,6.1979218 6.4374457,6.0629245 6.3251347,5.9612714 6.1070901,5.7639417 5.6205284,5.9703314 5.4452398,6.3344861 5.2901631,6.6566621 5.1212493,6.799311 4.8948435,6.799311 4.7873113,6.799311 4.6640198,6.781877 4.6208628,6.760576 4.5777045,6.7392633 4.4782508,6.6884318 4.3998541,6.647603 4.3090444,6.6003059 4.1450391,6.5729733 3.9479574,6.5722878 3.5138493,6.570803 3.2960083,6.5111821 3.1756338,6.3610108 3.0695016,6.2286039 3.0417637,6.0561835 3.1189206,6.0084961 c 0.024858,-0.015374 0.045187,-0.063854 0.045187,-0.1077624 0,-0.090559 0.1795221,-0.2763476 0.2670262,-0.2763476 0.031812,0 0.1942383,0.091507 0.3609398,0.2033506 0.2690888,0.180541 0.3313965,0.2033531 0.5553982,0.2033531 0.2183026,0 0.2621443,-0.015003 0.3252897,-0.1113822 C 4.7892858,5.7418652 4.7606441,5.650049 4.513555,5.4093513 4.3179513,5.2188065 4.2859477,5.1649312 4.3104252,5.0674009 4.4251792,4.6101813 5.1015563,4.4711392 5.1798838,4.8886677 c 0.035493,0.189172 0.2861405,0.4645793 0.42282,0.4645793 0.1779648,0 0.363243,-0.1690345 0.3624765,-0.3307018 C 5.9644379,4.8747588 5.8923853,4.637939 5.7950563,4.4637257 5.7647293,4.4094377 5.7399143,4.2633904 5.7399143,4.1391777 c 0,-0.2007918 0.015473,-0.2368643 0.139555,-0.3252154 0.1221915,-0.087006 0.1601473,-0.093209 0.3050309,-0.049846 0.091008,0.02724 0.2112256,0.061774 0.2671487,0.076747 0.089282,0.023893 0.1016753,0.056515 0.1016753,0.2675218 0,0.2115894 0.014854,0.2503705 0.1242721,0.3245801 0.071874,0.048745 0.2385905,0.093805 0.3954081,0.1068739 l 0.2711391,0.022594 0.022983,0.2937328 c 0.013629,0.174321 0.055996,0.3425938 0.1042026,0.413926 0.093606,0.1385113 0.4724265,0.4446744 0.5502046,0.4446744 0.028867,0 0.1002511,-0.050836 0.1586247,-0.1129734 0.058371,-0.062136 0.1295462,-0.1129734 0.1581633,-0.1129734 0.1495811,0 0.3389201,-0.4443434 0.3389201,-0.7953844 0,-0.1278047 0.1397493,-0.1987855 0.3913763,-0.1987855 0.087893,0 0.2173968,-0.041197 0.2883677,-0.091733 0.1054888,-0.075114 0.1313125,-0.1303443 0.142545,-0.3048546 0.012441,-0.1932973 0.028434,-0.220294 0.1718822,-0.2902089 0.213183,-0.1039006 0.370715,-0.1001484 0.513585,0.012231 0.09497,0.074703 0.118931,0.1318619 0.118388,0.2824322 -6.81e-4,0.1877188 -0.06479,0.4152592 -0.170123,0.6038101 -0.03033,0.054288 -0.05514,0.1793749 -0.05514,0.2779711 0,0.1582244 0.01927,0.1906357 0.164178,0.2761311 l 0.164178,0.096868 0.167681,-0.1109652 c 0.152814,-0.1011278 0.317375,-0.3491745 0.317375,-0.4783842 0,-0.028582 0.07381,-0.082804 0.164024,-0.1204976 0.135036,-0.056422 0.188943,-0.058711 0.305029,-0.012942 0.181488,0.071546 0.330864,0.2381042 0.368916,0.4113548 0.02668,0.1214479 0.0041,0.1631213 -0.200603,0.370406 -0.255014,0.2582201 -0.282256,0.3698429 -0.126071,0.5165732 0.126947,0.1192597 0.483823,0.1382292 0.573254,0.030469 0.03094,-0.037281 0.08282,-0.067783 0.11528,-0.067783 0.03246,0 0.08689,-0.027865 0.120947,-0.061925 0.0912,-0.091194 0.334253,-0.2092118 0.430874,-0.2092118 0.136074,0 0.28188,0.2401154 0.28188,0.4642062 0,0.1563605 -0.0255,0.2205298 -0.124271,0.3127339 -0.109812,0.1025105 -0.176807,0.1196773 -0.575788,0.1475506 -0.248333,0.01736 -0.472182,0.048695 -0.497441,0.069659 -0.08681,0.072044 -0.452098,0.1794627 -0.612516,0.1801178 -0.122944,4.913e-4 -0.19329,-0.033773 -0.300044,-0.1462069 C 10.738308,6.5716753 10.660286,6.455139 10.641623,6.3934846 10.596547,6.2445834 10.446184,6.0449776 10.354852,6.0128045 10.314496,5.9985875 10.22047,5.9475377 10.145906,5.8993547 9.9600171,5.7792357 9.8747364,5.7848025 9.7650748,5.9242127 9.6519832,6.0679864 9.6367046,6.3979241 9.7392022,6.4829877 c 0.037281,0.030939 0.067784,0.085439 0.067784,0.1211088 0,0.035666 0.050836,0.1559113 0.112974,0.2672075 0.062136,0.1112937 0.1129748,0.2358825 0.1129748,0.2768636 0,0.1566432 0.18966,0.4608834 0.344122,0.5520197 0.185666,0.1095454 0.478837,0.122911 0.559668,0.025514 0.03094,-0.037281 0.09484,-0.067783 0.142,-0.067783 0.04716,0 0.171765,-0.05542 0.276902,-0.1231492 0.507686,-0.3270628 0.810188,-0.3707574 1.000552,-0.1445205 0.06435,0.076469 0.116991,0.1781443 0.116991,0.2259468 0,0.1140122 -0.297694,0.4038702 -0.522596,0.5088362 -0.09781,0.045651 -0.235412,0.1117435 -0.305775,0.1468677 -0.07036,0.035128 -0.173057,0.063862 -0.228207,0.063862 -0.05515,0 -0.122368,0.022099 -0.149373,0.049097 -0.03164,0.031639 -0.167439,0.039496 -0.381852,0.022099 -0.764311,-0.062016 -0.777516,-0.060877 -0.824295,0.071184 -0.03469,0.097921 -0.02256,0.1445415 0.06639,0.255357 0.05986,0.07456 0.190166,0.1790197 0.289583,0.2321303 0.09942,0.053113 0.211261,0.1129734 0.248542,0.1330287 0.03728,0.020057 0.114655,0.060827 0.171942,0.090609 0.05729,0.029776 0.233417,0.066215 0.391403,0.080969 0.312746,0.029207 0.470948,-0.033328 0.699313,-0.2764096 0.143479,-0.1527257 0.20564,-0.1466282 0.488046,0.047872 0.307173,0.2115579 0.316788,0.331349 0.04796,0.5975152 -0.104321,0.1032894 -0.213675,0.1877986 -0.243008,0.1877986 -0.02934,0 -0.07865,0.030506 -0.109589,0.067785 -0.03094,0.037281 -0.100538,0.067784 -0.154659,0.067784 -0.05412,0 -0.120668,0.022266 -0.14788,0.049475 -0.02722,0.02721 -0.18888,0.05019 -0.359258,0.05106 -0.258213,0.0013 -0.347391,-0.01966 -0.535726,-0.12602 C 10.789859,9.8669152 10.606842,9.7635886 10.507424,9.7074837 9.9866817,9.4136086 9.6245503,9.3380577 9.4712919,9.4913155 c -0.077421,0.077422 -0.1029374,0.5817675 -0.031657,0.6258175 0.021635,0.01338 0.052314,0.08914 0.068159,0.168355 0.015844,0.07922 0.079476,0.210463 0.1414054,0.291658 0.061929,0.08119 0.1125991,0.163139 0.1125991,0.182102 0,0.08842 0.2637836,0.399949 0.4431446,0.523351 0.190742,0.131234 0.207626,0.134698 0.386537,0.07931 0.102895,-0.03186 0.234149,-0.08654 0.291673,-0.121516 0.170064,-0.103412 0.356862,-0.03447 0.461308,0.170267 0.136571,0.267699 0.117229,0.446231 -0.07233,0.667693 -0.160351,0.187334 -0.164217,0.188891 -0.468746,0.188891 -0.406768,0 -0.631542,-0.106403 -0.9773285,-0.462651 C 9.590142,11.561545 9.2647118,11.13365 9.2647118,11.066506 c 0,-0.01171 -0.065306,-0.155222 -0.1451267,-0.318928 -0.093744,-0.192267 -0.1999059,-0.334871 -0.299852,-0.402786 -0.1459297,-0.09916 -0.161066,-0.100985 -0.2662578,-0.03206 -0.061341,0.04019 -0.1914091,0.181203 -0.2890353,0.313357 -0.097629,0.132154 -0.2063907,0.24028 -0.2416949,0.24028 -0.035301,0 -0.1260984,-0.08999 -0.2017668,-0.199965 -0.075668,-0.109981 -0.1696055,-0.231993 -0.2087522,-0.271137 -0.098174,-0.09817 -0.3008595,-0.08911 -0.4391103,0.01964 -0.118727,0.09339 -0.348637,0.464896 -0.348637,0.563351 0,0.03042 -0.061007,0.139528 -0.1355701,0.24246 -0.074563,0.10293 -0.1355696,0.203083 -0.1355696,0.22256 0,0.05913 -0.6453511,0.662578 -0.7977879,0.745981 -0.099256,0.05431 -0.2457243,0.07799 -0.4823208,0.07799 -0.2971293,0 -0.3567501,-0.01428 -0.474976,-0.113761 z M 7.899301,8.7072353 C 7.9162958,8.0964158 7.8765156,8.0777333 7.4532984,8.4977098 7.281416,8.668273 7.1407876,8.8391572 7.1407876,8.8774514 c 0,0.065673 0.31851,0.2415533 0.5196805,0.2869664 0.2164261,0.048856 0.2252316,0.032004 0.2388329,-0.4571825 z m 0.6911107,0.3684281 c 0.039236,-0.034132 0.1012602,-0.062061 0.1378265,-0.062061 0.083904,0 0.1749396,-0.089104 0.1749396,-0.1712282 0,-0.083802 -0.6306819,-0.6955286 -0.6950986,-0.6742093 -0.054981,0.018195 -0.095416,0.7496847 -0.051207,0.9263207 0.023058,0.092116 0.044358,0.1001707 0.1940465,0.073358 0.092482,-0.016568 0.2002517,-0.05805 0.2394918,-0.09218 z M 7.3176995,8.3622263 C 7.7552056,7.9217799 7.742093,7.8836354 7.1535024,7.884556 c -0.5020166,7.424e-4 -0.608434,0.037151 -0.5210987,0.1780732 0.031069,0.05013 0.056311,0.1168413 0.056101,0.1482454 -7.424e-4,0.096136 0.1994802,0.4864014 0.249432,0.4864014 0.025823,0 0.1967154,-0.1507714 0.3797628,-0.3350497 z m 1.9469946,0.054443 c 0,-0.046252 0.032072,-0.1330379 0.071271,-0.1928629 0.039199,-0.059825 0.064618,-0.155701 0.05649,-0.2130606 -0.014316,-0.1009898 -0.030896,-0.1046931 -0.524014,-0.1170739 -0.432382,-0.010851 -0.5134087,-0.00198 -0.536918,0.059367 -0.017682,0.046066 0.011223,0.099195 0.079929,0.1469462 0.059194,0.041135 0.2266936,0.1938819 0.372228,0.3394361 L 9.0482897,8.7040641 9.1564944,8.6024123 C 9.2160039,8.5465034 9.2646966,8.4629179 9.2646966,8.4166677 Z M 7.6378719,7.6033469 c 0,-0.030011 -0.1538858,-0.20451 -0.341968,-0.3877769 C 6.960139,6.8884045 6.8244611,6.8307405 6.8244611,7.0152057 c 0,0.045738 -0.029857,0.1226333 -0.066349,0.1708781 -0.036489,0.048244 -0.066993,0.1322714 -0.067784,0.1867289 -7.424e-4,0.054455 -0.021783,0.1115764 -0.046629,0.1269385 -0.024858,0.015374 -0.045187,0.057233 -0.045187,0.093046 0,0.052921 0.097329,0.065117 0.5196796,0.065117 0.3758622,0 0.5196804,-0.015102 0.5196804,-0.054566 z m 1.7623918,-0.049772 c 0,-0.057387 -0.029857,-0.1438102 -0.066347,-0.192055 -0.036489,-0.04825 -0.06767,-0.1283893 -0.069289,-0.1780979 -0.00266,-0.081881 -0.1423396,-0.2937328 -0.193661,-0.2937328 -0.049524,0 -0.7011146,0.7009525 -0.6813352,0.7329561 0.011984,0.019401 0.2442853,0.03527 0.516215,0.03527 0.4863384,0 0.494417,-0.00173 0.494417,-0.1043374 z M 7.8991903,6.9687711 7.886421,6.4603896 7.7374635,6.4460737 C 7.5700407,6.4299884 7.2105057,6.5843982 7.1423293,6.7016738 c -0.035017,0.060233 0.025174,0.1438918 0.305046,0.4239471 0.1917655,0.1918979 0.3747515,0.3494963 0.4066344,0.3502183 0.044544,9.898e-4 0.055006,-0.1164039 0.045187,-0.5070656 z M 8.5812796,7.0986539 C 8.8781163,6.7998208 8.90705,6.7554142 8.8609934,6.6693534 c -0.028254,-0.052797 -0.083173,-0.09599 -0.1220343,-0.09599 -0.038865,0 -0.138335,-0.032115 -0.2210457,-0.071361 -0.082711,-0.039248 -0.1976292,-0.064668 -0.2553718,-0.05649 -0.1014866,0.01439 -0.1054176,0.031082 -0.1178163,0.5006612 -0.00995,0.3766897 4.912e-4,0.4857884 0.04632,0.4857884 0.032529,0 0.2081366,-0.1499888 0.3902348,-0.3333095 z"
       id="path424" />
  </g>
</svg>
