<?xml version="1.0" encoding="UTF-8" standalone="no"?>
<svg
   xmlns:dc="http://purl.org/dc/elements/1.1/"
   xmlns:cc="http://creativecommons.org/ns#"
   xmlns:rdf="http://www.w3.org/1999/02/22-rdf-syntax-ns#"
   xmlns:svg="http://www.w3.org/2000/svg"
   xmlns="http://www.w3.org/2000/svg"
   width="16.0px"
   height="16.0px"
   viewBox="0 0 16.0 16.0"
   version="1.1"
   id="SVGRoot">
  <defs
     id="defs24" />
  <metadata
     id="metadata27">
    <rdf:RDF>
      <cc:Work
         rdf:about="">
        <dc:format>image/svg+xml</dc:format>
        <dc:type
           rdf:resource="http://purl.org/dc/dcmitype/StillImage" />
        <dc:title></dc:title>
      </cc:Work>
    </rdf:RDF>
  </metadata>
  <g
     id="layer1">
    <path
       style="fill:#000000;stroke-width:0.0476223"
       d="M 7.2758052,12.867925 C 7.2103233,12.841649 6.9853086,12.80061 6.7757701,12.776731 6.3010193,12.722625 5.9415343,12.637412 5.8433841,12.555716 5.8020331,12.521296 5.7333039,12.49314 5.6906527,12.49314 5.5008999,12.49314 4.7658099,12.043572 4.4550071,11.737441 4.2786639,11.563748 4.1340107,11.397473 4.1335556,11.367939 4.1330884,11.338404 4.1005814,11.287564 4.061295,11.254958 3.8603445,11.088184 4.1436184,10.517294 4.67414,10.019875 4.9134813,9.7954667 5.4854251,9.3500635 5.534246,9.3500635 c 0.015194,0 0.1400236,-0.055586 0.2774042,-0.1235298 0.2402522,-0.118815 0.6163283,-0.2372487 0.9164979,-0.2886233 0.078577,-0.013448 0.2071575,-0.05214 0.2857344,-0.085984 0.078577,-0.033841 0.2683429,-0.075352 0.4217035,-0.092246 0.1533598,-0.016887 0.3180341,-0.051694 0.3659426,-0.077333 0.047909,-0.025637 0.1474474,-0.047302 0.2211981,-0.048135 0.073751,-7.33e-4 0.1756908,-0.032981 0.2265335,-0.071433 0.050841,-0.038452 0.1411712,-0.069918 0.2007306,-0.069918 0.1316374,0 0.5173737,-0.120723 0.6904347,-0.2160835 0.069522,-0.038305 0.1608311,-0.069651 0.2029085,-0.069651 0.1600453,0 0.906251,-0.440597 1.125599,-0.6646094 0.18847,-0.1924805 0.230774,-0.2695067 0.258422,-0.4705298 0.04127,-0.3000296 0.0063,-0.4182815 -0.182764,-0.6186289 -0.144218,-0.1528 -0.568225,-0.3892397 -0.6980224,-0.3892397 -0.0347,0 -0.096921,-0.029722 -0.1382723,-0.066055 C 9.5149223,5.8281672 7.6339508,5.7440191 6.7757701,5.8668685 6.4262059,5.9169095 6.294897,5.9600045 5.9350307,6.1427832 c -0.069522,0.035313 -0.1576249,0.064202 -0.1957831,0.064202 -0.095548,0 -0.5112042,0.3943785 -0.5112042,0.4850341 0,0.09838 0.1783364,0.3202953 0.3038935,0.3781527 0.055492,0.02557 0.1973318,0.098756 0.3151971,0.162629 0.1178654,0.063876 0.268465,0.1163592 0.3346659,0.1166291 0.066202,2.459e-4 0.1626363,0.029549 0.2143007,0.065062 0.1797432,0.1235499 1.3268411,0.1917107 1.736907,0.1032036 0.400994,-0.086547 0.570662,-0.508416 0.3039415,-0.7557342 C 8.1840962,6.5275034 7.4776693,6.5448848 7.1956476,6.7925036 7.0067378,6.9583688 6.9145268,6.9187478 6.964106,6.6930173 6.9869507,6.5890221 7.0651497,6.5052698 7.2536536,6.3829202 7.8827538,5.974605 8.9844633,6.1616834 9.3130541,6.732623 c 0.1225982,0.2130179 0.1385335,0.5461536 0.032808,0.685932 -0.038452,0.050841 -0.069919,0.128476 -0.069919,0.1725173 0,0.044043 -0.091078,0.1633201 -0.2023952,0.2650582 C 8.8869854,8.0266418 8.7986329,8.0740086 8.3234941,8.2582527 8.0699555,8.3565668 6.7333268,8.3759368 6.5151095,8.2844628 6.4227412,8.2457441 6.2188745,8.2010031 6.0620732,8.1850425 5.905272,8.1690885 5.7563331,8.1353813 5.7310974,8.1101435 5.7058603,8.0849064 5.6385498,8.0642609 5.5815147,8.0642609 5.5244767,8.0642609 5.45328,8.0346989 5.4232934,7.9985659 5.3933047,7.9624395 5.3063617,7.9203914 5.2300826,7.9051346 5.0999539,7.8791111 4.5405186,7.5264114 4.3889408,7.3748329 4.2270081,7.2128996 3.9898587,6.7937692 3.9898587,6.6695069 c 0,-0.2007086 0.633078,-0.8144133 1.0816234,-1.0485219 0.1889117,-0.098599 0.3562596,-0.1999542 0.3718837,-0.2252339 0.015621,-0.025277 0.081572,-0.045963 0.1465497,-0.045963 0.064982,0 0.202476,-0.043024 0.3055489,-0.095609 C 6.0742606,5.162966 6.080271,5.1525712 6.0262808,5.0279745 5.9951593,4.9561457 5.9445238,4.8545155 5.9137635,4.8021307 5.8830018,4.7497439 5.8434481,4.5711829 5.8258634,4.4053231 5.8082768,4.2394633 5.7709109,4.0533166 5.7428169,3.9916633 5.7147276,3.9300066 5.706604,3.8408398 5.7247704,3.7935017 c 0.030069,-0.078351 0.041258,-0.075423 0.12487,0.032681 0.050514,0.065308 0.1367355,0.2044651 0.1916034,0.3092347 0.054866,0.1047697 0.1782911,0.2724315 0.2742747,0.3725842 0.1758927,0.1835337 0.5889888,0.4131853 0.743231,0.4131853 0.1402721,0 0.3504285,-0.1521096 0.4230549,-0.3062006 0.1107174,-0.2349103 0.3654668,-1.1896624 0.3654668,-1.3697001 0,-0.040958 0.032148,-0.101143 0.071434,-0.1337493 0.098793,-0.08199 0.1976871,0.00686 0.2271253,0.204064 0.012568,0.084207 0.045216,0.2173936 0.072548,0.2959711 0.02733,0.078577 0.085357,0.2928783 0.1289451,0.4762228 0.089531,0.376596 0.225931,0.628927 0.3750854,0.6938824 0.055619,0.024217 0.1381103,0.070442 0.1833185,0.1027164 0.066782,0.047675 0.1083532,0.04323 0.2216489,-0.023698 0.076698,-0.045303 0.1705387,-0.082376 0.2085336,-0.082376 0.1148152,0 0.5402239,-0.4891192 0.699038,-0.803728 0.08197,-0.1623738 0.169736,-0.2824256 0.195046,-0.2667822 0.067,0.041404 0.0563,0.292891 -0.0188,0.4418805 -0.03565,0.070727 -0.07857,0.2506863 -0.09536,0.3999078 -0.0168,0.1492181 -0.07467,0.3460914 -0.1285948,0.4374921 l -0.09805,0.1661817 0.1100756,0.071222 c 0.060544,0.039172 0.1743662,0.086461 0.2529422,0.1050861 0.154105,0.036526 0.619377,0.2770217 0.741897,0.3834827 0.04135,0.035933 0.09763,0.065329 0.125074,0.065329 0.06497,0 0.62831,0.5507559 0.76522,0.7481231 0.108646,0.1566233 0.144042,0.4609412 0.05968,0.5130828 -0.02549,0.015761 -0.08014,0.09985 -0.121435,0.1868792 -0.08186,0.1724999 -0.755297,0.8616447 -1.022775,1.0466239 -0.284002,0.1964062 -0.9225526,0.5054224 -1.0476925,0.5070152 -0.065482,7.33e-4 -0.1606544,0.032981 -0.2114972,0.071433 -0.050841,0.038452 -0.1620852,0.069919 -0.2472069,0.069919 -0.085121,0 -0.1667068,0.019326 -0.181302,0.042937 -0.014594,0.023624 -0.1605127,0.058411 -0.3242619,0.077323 -0.1637489,0.018906 -0.3399968,0.063883 -0.3916605,0.09993 -0.051667,0.036053 -0.1629076,0.065542 -0.247207,0.065542 -0.084299,0 -0.1649535,0.018906 -0.1792314,0.042004 -0.014281,0.023111 -0.1653273,0.056925 -0.3356661,0.07517 -0.1703387,0.01824 -0.3208477,0.051194 -0.3344645,0.073228 -0.013615,0.022025 -0.1799258,0.08569 -0.3695746,0.1414597 -0.5808332,0.1708086 -1.1921535,0.4977028 -1.4342004,0.7669168 -0.3384737,0.376464 -0.3803971,0.77386 -0.1156102,1.095892 0.1572664,0.191268 0.9263189,0.519805 1.2167788,0.519805 0.086874,0 0.2348877,0.03215 0.3289173,0.07143 0.2353222,0.09832 1.9575663,0.103594 2.1499329,0.0066 0.070729,-0.03567 0.2512461,-0.07692 0.4011506,-0.09167 0.314898,-0.03098 0.9338466,-0.311522 1.1125766,-0.504275 0.147023,-0.158558 0.150057,-0.377801 0.007,-0.505946 -0.167732,-0.15025 -0.7003688,-0.394954 -0.9873406,-0.453607 -0.2404829,-0.04915 -1.0700429,-0.15128 -1.2381825,-0.152436 -0.039292,-2.95e-4 -0.2059346,0.02 -0.370325,0.04505 -0.8748357,0.133289 -0.732583,0.96185 0.1656892,0.965068 0.2228349,8e-4 0.3941599,-0.06168 0.6139216,-0.223877 0.188656,-0.139239 0.209806,-0.13687 0.209806,0.02351 0,0.185142 -0.1220959,0.339096 -0.3515723,0.443305 -0.2767927,0.125695 -1.2527334,0.130857 -1.474542,0.0078 C 6.7573224,11.326946 6.5621084,11.067485 6.5617105,10.751987 6.5610961,10.259969 7.0835301,9.7258758 7.7044034,9.5838063 8.2078266,9.4686126 9.83402,9.5368774 10.096215,9.6842095 c 0.04517,0.025384 0.21661,0.091516 0.380979,0.146967 0.4912,0.1657075 1.045649,0.5794775 1.376355,1.0271365 0.232727,0.315031 0.222375,0.369432 -0.14194,0.745982 -0.421076,0.435218 -1.107054,0.882426 -1.364163,0.889338 -0.05239,0.0014 -0.136843,0.03402 -0.187686,0.07248 -0.05084,0.03845 -0.137635,0.06992 -0.1928711,0.06992 -0.055239,0 -0.1222283,0.0218 -0.1488715,0.04844 -0.026643,0.02664 -0.2291565,0.06202 -0.4500308,0.07862 -0.2208743,0.0166 -0.4846471,0.05909 -0.5861613,0.09443 -0.2183415,0.076 -1.3235613,0.08365 -1.5060228,0.01043 z"
       id="path453" />
  </g>
</svg>
