<?xml version="1.0" encoding="UTF-8" standalone="no"?>
<svg
   xmlns:dc="http://purl.org/dc/elements/1.1/"
   xmlns:cc="http://creativecommons.org/ns#"
   xmlns:rdf="http://www.w3.org/1999/02/22-rdf-syntax-ns#"
   xmlns:svg="http://www.w3.org/2000/svg"
   xmlns="http://www.w3.org/2000/svg"
   width="16.0px"
   height="16.0px"
   viewBox="0 0 16.0 16.0"
   version="1.1"
   id="SVGRoot">
  <defs
     id="defs33" />
  <metadata
     id="metadata36">
    <rdf:RDF>
      <cc:Work
         rdf:about="">
        <dc:format>image/svg+xml</dc:format>
        <dc:type
           rdf:resource="http://purl.org/dc/dcmitype/StillImage" />
        <dc:title></dc:title>
      </cc:Work>
    </rdf:RDF>
  </metadata>
  <g
     id="layer1">
    <path
       style="fill:#000000;stroke-width:0.0470051"
       d="M 5.7075675,11.720629 C 5.5620685,11.619538 5.4416744,11.469985 5.4398137,11.388028 5.4389581,11.350146 5.5598757,11.200162 5.7085299,11.054731 5.8571836,10.9093 5.999962,10.76685 6.0258153,10.738176 6.2271058,10.514919 7.3499485,9.4702067 7.4399642,9.4224258 7.5647112,9.3562095 7.595015,9.1483639 7.5017063,8.9989532 7.4604583,8.9329045 7.4778102,8.8685052 7.5870254,8.6823057 7.7172594,8.4602712 7.7358281,8.4473739 7.95789,8.4246996 8.1173695,8.408416 8.2521705,8.3561351 8.3820847,8.2601811 9.0580178,7.7609428 9.7935973,7.0549556 9.9121854,6.791635 9.9616654,6.6817602 10.02772,6.5918627 10.058967,6.5918627 c 0.08504,0 0.416875,-0.328166 0.587555,-0.5810649 0.08267,-0.1225055 0.150322,-0.2313132 0.150322,-0.2417954 0,-0.010482 0.0509,-0.094065 0.113109,-0.1857394 0.06286,-0.092632 0.127466,-0.2762797 0.145421,-0.4133832 0.01777,-0.1356863 0.06205,-0.3081214 0.09841,-0.3831886 0.03636,-0.075067 0.0661,-0.2039912 0.0661,-0.2864973 0,-0.1520305 0.117688,-0.3055975 0.234198,-0.3055975 0.09909,0 0.611897,0.5880908 0.611897,0.7017273 0,0.065598 0.18824,0.4209851 0.239893,0.4529093 0.06839,0.042262 0.04814,0.3119838 -0.02987,0.3981954 -0.06544,0.072314 -0.06086,0.086869 0.05015,0.1596129 0.154205,0.1010391 0.09086,0.1979876 -0.159133,0.2435397 -0.325405,0.059294 -0.605087,0.3575522 -0.478411,0.5101873 0.03292,0.03966 0.09628,0.07211 0.140816,0.07211 0.1175,0 0.246611,0.1628633 0.228582,0.2883357 -0.0222,0.1545425 -0.242823,0.2708417 -0.36685,0.1933861 -0.131932,-0.082393 -0.522976,-0.073655 -0.648832,0.014498 -0.08095,0.056695 -0.104468,0.1195823 -0.104468,0.2792574 0,0.1133458 0.02115,0.2191566 0.047,0.2351348 0.02585,0.015978 0.04701,0.068333 0.04701,0.1163453 0,0.048013 0.08461,0.1780305 0.188021,0.2889295 0.21643,0.2320998 0.230638,0.3138885 0.07923,0.4561282 C 11.15514,8.7401449 11.026279,8.7339234 10.887284,8.5850094 10.624996,8.30399 10.155489,8.2000689 9.8535612,8.3562023 9.726186,8.4220703 9.7114165,8.4215286 9.6839593,8.3499759 9.6674186,8.3068679 9.6783776,8.232382 9.7083065,8.1844518 9.8009046,8.036179 9.7723703,7.9955469 9.5864611,8.0109335 9.4452692,8.0226197 9.4072209,8.0464245 9.395265,8.130558 9.387055,8.188327 9.413496,8.2829314 9.454022,8.3407891 9.5575414,8.4885842 9.546154,8.5951725 9.407403,8.7770814 9.320886,8.8905101 9.2358671,8.9434587 9.1046555,8.9656266 8.9734446,8.9877956 8.8884251,9.0407436 8.8019087,9.1541724 8.7357457,9.2409184 8.6816089,9.3403268 8.6816089,9.375078 c 0,0.034748 -0.03033,0.1064895 -0.067405,0.1594166 -0.037075,0.052924 -0.074087,0.189836 -0.082259,0.304242 -0.012461,0.1744814 -0.031902,0.2104314 -0.1206182,0.2230314 -0.058168,0.0083 -0.1057618,-0.0036 -0.1057618,-0.02639 0,-0.07318 -0.189135,-0.2471584 -0.2686917,-0.2471584 -0.042356,0 -0.398968,0.3195484 -0.7924723,0.7101084 -0.3935052,0.39056 -0.7652099,0.734815 -0.8260112,0.765011 -0.061391,0.03049 -0.1176049,0.106633 -0.1264192,0.171239 -0.036532,0.267768 -0.3734009,0.432656 -0.5844068,0.286052 z M 6.143328,11.491677 c 0,-0.05165 -0.2311669,-0.293302 -0.2805759,-0.293302 -0.039721,0 -0.1894761,0.129645 -0.1894761,0.164031 0,0.115378 0.079269,0.165005 0.2635576,0.165005 0.113572,0 0.2064944,-0.01608 0.2064944,-0.03574 z m 4.512501,0.285145 c -0.113551,-0.04058 -0.18802,-0.163231 -0.18802,-0.30965 0,-0.100941 -0.05841,-0.193076 -0.225255,-0.355306 -0.123889,-0.120464 -0.2736806,-0.298346 -0.3328696,-0.395295 -0.05919,-0.09695 -0.1250344,-0.17627 -0.1463219,-0.17627 -0.021289,0 -0.092568,-0.0899 -0.1584,-0.199772 C 9.5391298,10.230654 9.3777062,10.035603 9.2462422,9.9070818 8.8886988,9.5575407 8.8749859,9.3448283 9.2037348,9.2477406 c 0.087696,-0.025898 0.1860774,-0.064318 0.218625,-0.085376 0.083777,-0.054204 0.2463567,0.00731 0.2463567,0.093217 0,0.039654 0.098312,0.1746774 0.2184699,0.3000565 0.1201586,0.1253784 0.2535846,0.2814907 0.2965026,0.3469154 0.04292,0.065424 0.230164,0.2695845 0.416101,0.4536895 0.226941,0.224703 0.338068,0.370739 0.338068,0.444271 0,0.07308 0.0716,0.168212 0.215136,0.285825 0.201089,0.164777 0.213118,0.187236 0.184215,0.343934 -0.04654,0.252359 -0.189002,0.37992 -0.419297,0.375459 -0.105366,-0.002 -0.223307,-0.01505 -0.262086,-0.02891 z M 11.02247,11.61202 c 0.03102,-0.03102 0.0564,-0.126208 0.0564,-0.211523 0,-0.124674 -0.01877,-0.155117 -0.09567,-0.155117 -0.114051,0 -0.327384,0.131288 -0.327384,0.201477 0,0.07995 0.148865,0.22157 0.232911,0.22157 0.04253,0 0.102705,-0.02538 0.13373,-0.05641 z M 5.4617525,8.8205983 C 5.3583408,8.7604157 5.2168108,8.7102578 5.1472413,8.7091364 4.9799734,8.7064402 4.9491485,8.6448967 5.0633162,8.5415762 5.1687755,8.4461374 5.1878701,8.2840508 5.0936538,8.2840508 c -0.067197,0 -0.1583324,0.1526295 -0.1824334,0.3055339 -0.010971,0.069603 -0.051094,0.094011 -0.1545462,0.094011 -0.1628674,0 -0.2141073,-0.1252151 -0.1024158,-0.2502747 0.038688,-0.043319 0.077559,-0.1316428 0.086379,-0.1962749 0.014001,-0.1026057 0.039382,-0.1175131 0.2000638,-0.1175131 0.1012153,0 0.1924348,-0.025119 0.20271,-0.055819 C 5.1699322,7.98448 4.9861327,7.8139989 4.8741874,7.8139989 c -0.1291196,0 -0.2820312,0.1639367 -0.2820312,0.3023662 0,0.1133628 -0.1392672,0.2033657 -0.2289317,0.1479497 C 4.2756086,8.2101655 4.2748378,8.046807 4.3616897,7.9364082 4.4952038,7.7666653 4.4793058,7.5065692 4.3267711,7.3652042 4.1669344,7.217073 3.8929028,7.2076672 3.7676995,7.3460155 3.6650204,7.4594747 3.4952982,7.4501052 3.4723446,7.3297093 c -0.00889,-0.046609 0.03849,-0.1393913 0.1052819,-0.2061818 0.099778,-0.099778 0.1214381,-0.1655098 0.1214381,-0.368528 0,-0.2702701 -0.033188,-0.3041819 -0.297627,-0.3041168 -0.1036107,2.59e-5 -0.2051522,0.050082 -0.3337306,0.1645184 -0.101645,0.090465 -0.2126943,0.1644814 -0.2467774,0.1644814 -0.1494468,0 -0.031382,-0.1823012 0.3841048,-0.5930872 0.3897428,-0.3853337 0.4665592,-0.4410275 0.6082934,-0.4410275 0.089221,0 0.1754906,-0.021472 0.1917106,-0.047717 0.016221,-0.026245 0.096789,-0.076395 0.1790437,-0.1114449 C 4.2663361,5.5515559 4.6020356,5.2543086 4.9300815,4.9260555 5.4645442,4.3912547 5.5365962,4.33462 5.6234083,4.3810807 c 0.053285,0.028516 0.09688,0.081781 0.09688,0.1183672 0,0.036585 0.029542,0.083433 0.065649,0.1041076 0.036107,0.020674 0.1125511,0.1174574 0.1698777,0.2150739 0.057326,0.097616 0.1441222,0.1988342 0.1928805,0.2249283 0.048757,0.026095 0.088752,0.073141 0.088876,0.1045475 1.411e-4,0.031406 0.074156,0.1376013 0.1645184,0.2359883 0.090362,0.098387 0.1642933,0.1983731 0.1642933,0.222191 0,0.023819 0.058169,0.080297 0.1292645,0.1255078 0.071094,0.045212 0.2614664,0.218078 0.4230472,0.3841485 0.211632,0.2175129 0.2937824,0.3370419 0.2937824,0.4274542 0,0.087656 0.077972,0.2079632 0.2585287,0.3989037 0.142191,0.1503675 0.258529,0.2913586 0.258529,0.3133138 0,0.021954 0.1053478,0.1512847 0.2341071,0.2874003 0.1287589,0.1361152 0.2345206,0.2830588 0.2350261,0.3265411 0.00142,0.123945 -0.2483335,0.2734804 -0.4568039,0.2734804 -0.2067575,0 -0.3830969,-0.1449905 -0.7288956,-0.5993165 C 7.1096626,7.40799 7.0118167,7.293928 6.9955329,7.2902465 6.9792495,7.2865654 6.8961445,7.2777886 6.8108543,7.2707422 6.6931932,7.2610223 6.608648,7.2043856 6.4604082,7.0359761 6.143063,6.6754526 5.8351373,6.5953024 5.5828797,6.8075635 5.4018815,6.9598632 5.4011011,7.0759224 5.5792727,7.3439452 5.6566101,7.4602831 5.7199934,7.6083495 5.7201238,7.6729821 5.7204091,7.8212739 5.9732554,8.1062357 6.1903405,8.2029549 6.5660984,8.3703693 6.7061064,8.4014807 6.8052107,8.3395888 6.9285637,8.2625538 7.0043983,8.3092659 6.9428086,8.4243466 6.8624486,8.5745011 6.6096351,8.6724319 6.2689489,8.6853758 6.0289156,8.6944948 5.9222726,8.720705 5.8459019,8.7893501 5.6844671,8.9344548 5.6607196,8.9363868 5.4617597,8.8205974 Z M 12.207002,8.4758028 c -0.03878,-0.022134 -0.183214,-0.055393 -0.320966,-0.07391 -0.212046,-0.028503 -0.282333,-0.065541 -0.4583,-0.2415094 -0.118447,-0.1184462 -0.208487,-0.2528017 -0.209338,-0.3123686 -7.86e-4,-0.057488 -0.03109,-0.143597 -0.06728,-0.1913528 -0.08694,-0.1147461 -0.042,-0.2187056 0.09453,-0.2187056 0.06034,0 0.122783,-0.021153 0.138761,-0.047006 0.04309,-0.069716 0.20126,-0.056937 0.244442,0.019747 0.02067,0.036713 0.109492,0.07373 0.197366,0.082259 0.09999,0.0097 0.179143,0.050687 0.211525,0.1095167 0.02846,0.051705 0.06343,0.1045862 0.07773,0.117513 0.0999,0.09036 0.227047,0.3863501 0.240255,0.5592978 0.01621,0.2123375 -0.02518,0.2670342 -0.148726,0.196517 z M 3.7460618,7.9583718 c 0,-0.075713 0.031728,-0.1693868 0.070508,-0.2081659 0.038779,-0.038779 0.070508,-0.1139205 0.070508,-0.1669806 0,-0.1185277 0.2030084,-0.1833516 0.3061444,-0.097757 0.1365051,0.1132888 0.081777,0.264797 -0.1596751,0.4420392 -0.1262647,0.092686 -0.2426027,0.1685219 -0.2585286,0.1685219 -0.015927,0 -0.028956,-0.061946 -0.028957,-0.1376576 z M 2.9283391,7.2691763 c -0.015605,-0.040664 -0.028371,-0.080562 -0.028371,-0.088662 0,-0.00809 0.092008,-0.1121316 0.2044606,-0.2311815 0.2388074,-0.2528168 0.3596018,-0.2806049 0.3596018,-0.082724 0,0.129749 -0.1216889,0.2893167 -0.2206372,0.2893167 -0.026794,0 -0.1022589,0.042117 -0.1676996,0.093593 -0.1042702,0.082019 -0.1224921,0.08445 -0.1473546,0.019658 z M 11.956307,6.7015416 c -0.0609,-0.060899 -0.03024,-0.2371217 0.05463,-0.3139172 0.114556,-0.103672 0.279272,-0.098081 0.542635,0.018416 0.376389,0.1664943 0.246318,0.3268373 -0.265132,0.3268373 -0.165434,0 -0.314891,-0.0141 -0.332126,-0.031337 z"
       id="path125" />
  </g>
</svg>
