<?xml version="1.0" encoding="UTF-8" standalone="no"?>
<svg
   xmlns:dc="http://purl.org/dc/elements/1.1/"
   xmlns:cc="http://creativecommons.org/ns#"
   xmlns:rdf="http://www.w3.org/1999/02/22-rdf-syntax-ns#"
   xmlns:svg="http://www.w3.org/2000/svg"
   xmlns="http://www.w3.org/2000/svg"
   width="16.0px"
   height="16.0px"
   viewBox="0 0 16.0 16.0"
   version="1.1"
   id="SVGRoot">
  <defs
     id="defs33" />
  <metadata
     id="metadata36">
    <rdf:RDF>
      <cc:Work
         rdf:about="">
        <dc:format>image/svg+xml</dc:format>
        <dc:type
           rdf:resource="http://purl.org/dc/dcmitype/StillImage" />
        <dc:title></dc:title>
      </cc:Work>
    </rdf:RDF>
  </metadata>
  <g
     id="layer1">
    <path
       style="fill:#000000;stroke-width:0.0483396"
       d="m 8.8738915,12.751977 c -0.090502,-0.168053 -0.5817384,-0.646973 -0.6636101,-0.646973 -0.044267,0 -0.4690895,-0.193946 -1.1253142,-0.513743 -0.2392809,-0.116609 -0.4704602,-0.211867 -0.5137321,-0.211684 -0.043271,1.81e-4 -0.1045942,-0.0309 -0.1362738,-0.06907 -0.03168,-0.03817 -0.1206316,-0.08325 -0.1976724,-0.100168 -0.07704,-0.01692 -0.2174938,-0.08331 -0.3121197,-0.14752 -0.094626,-0.06421 -0.2313038,-0.131518 -0.303728,-0.149562 -0.072425,-0.01805 -0.1969393,-0.07251 -0.2767,-0.12104 -0.07976,-0.04853 -0.177648,-0.101051 -0.2175281,-0.116719 -0.21149,-0.08309 -0.484677,-0.225347 -0.509324,-0.265226 -0.015466,-0.02502 -0.067676,-0.0455 -0.1160248,-0.0455 -0.1073985,0 -0.2032077,-0.105805 -0.1574049,-0.173827 0.018418,-0.02735 0.2510179,-0.159048 0.516886,-0.2926519 C 5.1272131,9.7646955 5.41,9.6223424 5.4897603,9.5819594 5.5695206,9.5415751 5.7054757,9.4727858 5.7918827,9.4290915 5.8782897,9.3853963 6.008807,9.3177068 6.0819202,9.2786696 6.1550342,9.2396334 6.3834387,9.1275601 6.5894861,9.0296198 7.0943064,8.7896658 7.0963058,8.7069215 6.601571,8.5295046 6.5115766,8.4972297 6.0048867,8.2644509 5.6912854,8.1113069 c -0.075268,-0.036755 -0.1642433,-0.06683 -0.197722,-0.06683 -0.09292,0 -0.6563882,-0.2917775 -0.6563882,-0.3398932 0,-0.023271 0.048944,-0.076392 0.108764,-0.1180486 C 5.2237052,7.3931103 5.5698977,7.1788696 5.7621883,7.0813983 5.8782204,7.0225825 6.0819197,6.9096781 6.214854,6.8304994 6.3477878,6.7513211 6.5326866,6.6524175 6.6257403,6.6107144 6.718794,6.5690121 6.8567997,6.490931 6.9324185,6.4372045 7.0080381,6.3834777 7.182061,6.2826403 7.3191355,6.2131209 7.4562105,6.1436019 7.5748616,6.0514298 7.5828049,6.008294 7.5996699,5.9166995 7.3444231,5.7516834 7.1043009,5.6989438 7.015316,5.6794 6.8657988,5.615303 6.7720403,5.5565063 6.6782822,5.4977102 6.5400031,5.434395 6.4647541,5.4158059 6.3895047,5.3972164 6.1916231,5.317602 6.0250159,5.2388837 5.6598741,5.0663625 5.3546902,5.0517284 5.0769474,5.1934225 c -0.1695921,0.08652 -0.1914331,0.088645 -0.1914331,0.018628 0,-0.043469 0.051348,-0.1798664 0.1141081,-0.3031049 0.2363937,-0.4642016 0.4176281,-0.8601244 0.4176281,-0.9123484 0,-0.029746 0.028017,-0.082825 0.062258,-0.1179569 0.077274,-0.079284 0.2271729,-0.3941241 0.2295176,-0.4820695 9.414e-4,-0.035861 0.051383,-0.1258592 0.1120596,-0.1999934 0.1473625,-0.1800466 0.2382615,-0.1368251 0.4045431,0.1923539 0.15396,0.3047853 0.4003745,0.5036558 1.0285263,0.8300785 0.1462272,0.075988 0.4616434,0.241825 0.7009243,0.3685281 0.6552516,0.3469648 1.0755975,0.5565641 1.1161735,0.5565641 0.020002,0 0.070707,0.02898 0.1126805,0.064398 0.041972,0.03542 0.1948822,0.1140358 0.3397975,0.1747046 0.144914,0.060668 0.342916,0.1604514 0.440003,0.2217395 0.09709,0.061289 0.2395551,0.1186266 0.3165941,0.1274181 0.185526,0.02117 0.224706,0.2095916 0.05883,0.2829188 -0.06166,0.02726 -0.242633,0.1230446 -0.4021541,0.2128567 C 9.7774829,6.3179501 9.5164489,6.45849 9.3569286,6.5404487 9.197408,6.6224077 8.9581271,6.7511743 8.8251928,6.826597 8.6922586,6.9020202 8.4312248,7.0463615 8.2451175,7.147356 7.8885104,7.3408756 7.7375515,7.4520361 7.7375515,7.52111 c 0,0.03581 0.3756399,0.2248253 0.894283,0.449986 0.07976,0.034629 0.2445167,0.1084234 0.3661265,0.1639926 0.1216094,0.055569 0.3162888,0.1346169 0.4326209,0.1756614 0.116331,0.041043 0.307798,0.1284406 0.42548,0.1942142 0.117682,0.065774 0.2643271,0.1195896 0.3258761,0.1195896 0.06155,0 0.126199,0.023121 0.143665,0.051386 0.04142,0.067009 -0.114825,0.2386518 -0.217234,0.2386518 -0.04374,0 -0.100728,0.021209 -0.1266481,0.047128 -0.02592,0.02592 -0.274991,0.1570844 -0.553489,0.2914745 C 9.1497339,9.3875843 8.8892428,9.5178264 8.8493626,9.5426219 8.8094833,9.5674164 8.6789656,9.6346044 8.5593252,9.6919268 8.4396843,9.7492487 8.3091674,9.8148581 8.2692873,9.8377248 8.229408,9.8605937 8.094165,9.9256476 7.9687491,9.9822929 7.7597729,10.076679 7.6489552,10.212195 7.7056848,10.303986 c 0.034937,0.05653 0.5937283,0.330617 1.0073834,0.494119 0.3174934,0.125493 0.434995,0.14675 0.8112057,0.14675 0.331208,0 0.446313,0.01662 0.465745,0.06726 0.01419,0.037 -0.08662,0.303466 -0.224028,0.592159 -0.137411,0.288695 -0.33564,0.704359 -0.4405065,0.9237 -0.2166393,0.453123 -0.304684,0.496796 -0.4515934,0.224002 z"
       id="path154" />
  </g>
</svg>
