<?xml version="1.0" encoding="UTF-8" standalone="no"?>
<svg
   xmlns:dc="http://purl.org/dc/elements/1.1/"
   xmlns:cc="http://creativecommons.org/ns#"
   xmlns:rdf="http://www.w3.org/1999/02/22-rdf-syntax-ns#"
   xmlns:svg="http://www.w3.org/2000/svg"
   xmlns="http://www.w3.org/2000/svg"
   width="16.0px"
   height="16.0px"
   viewBox="0 0 16.0 16.0"
   version="1.1"
   id="SVGRoot">
  <defs
     id="defs33" />
  <metadata
     id="metadata36">
    <rdf:RDF>
      <cc:Work
         rdf:about="">
        <dc:format>image/svg+xml</dc:format>
        <dc:type
           rdf:resource="http://purl.org/dc/dcmitype/StillImage" />
        <dc:title></dc:title>
      </cc:Work>
    </rdf:RDF>
  </metadata>
  <g
     id="layer1">
    <path
       style="fill:#000000;stroke-width:0.0494802"
       d="M 6.5703642,12.626464 C 6.5124952,12.603098 6.4150864,12.513672 6.3538998,12.427743 L 6.2426516,12.271509 6.3838254,11.990933 c 0.077646,-0.154318 0.1783943,-0.32511 0.2238868,-0.379538 0.045492,-0.05443 0.1285903,-0.188026 0.1846631,-0.296883 0.056073,-0.108857 0.1533362,-0.29812 0.2161405,-0.420584 0.062804,-0.122464 0.175016,-0.311329 0.2493594,-0.419699 0.074344,-0.108372 0.1351708,-0.246222 0.1351708,-0.306335 0,-0.06011 0.021632,-0.122663 0.048072,-0.139003 0.053227,-0.032895 0.2488114,-0.4535879 0.2488114,-0.5351805 0,-0.028419 0.029221,-0.086817 0.064937,-0.1297808 0.035715,-0.042965 0.1066916,-0.1783149 0.1577252,-0.300779 0.051033,-0.1224641 0.1220096,-0.2578145 0.1577248,-0.300779 0.035715,-0.042964 0.065645,-0.1208955 0.06651,-0.1731812 8.509e-4,-0.052285 0.034265,-0.1382864 0.074221,-0.1911131 0.039956,-0.052826 0.072647,-0.1282369 0.072647,-0.1675792 0,-0.039342 0.1223273,-0.3202585 0.2718388,-0.6242589 0.3601263,-0.7322436 0.4220838,-0.7780201 1.0275222,-0.759189 0.4342086,0.013504 0.4580046,0.01993 0.4732976,0.1277727 0.0091,0.06391 -0.04811,0.2153329 -0.1307733,0.3463636 -0.080782,0.1280455 -0.1636464,0.2884758 -0.184143,0.3565117 -0.020497,0.068036 -0.089678,0.2067569 -0.1537389,0.3082694 -0.064062,0.1015125 -0.1164724,0.2103808 -0.1164724,0.24193 0,0.031549 -0.063322,0.1602759 -0.1407197,0.2860601 -0.077395,0.1257843 -0.1559162,0.3097036 -0.1744899,0.4087096 -0.018574,0.099006 -0.084006,0.2546153 -0.1454029,0.3457987 -0.1243222,0.184634 -0.2815943,0.5718452 -0.2815943,0.6932986 0,0.043386 -0.033399,0.1065973 -0.074221,0.1404763 -0.040821,0.03388 -0.074221,0.109582 -0.074221,0.16823 0,0.05865 -0.03033,0.150553 -0.0674,0.204233 -0.03707,0.05368 -0.1524629,0.253465 -0.2564283,0.443964 -0.2620488,0.48016 -0.4864434,0.824057 -0.6103727,0.935428 -0.057689,0.05184 -0.1048887,0.116241 -0.1048887,0.143106 0,0.02686 -0.1012813,0.167398 -0.2250687,0.312293 -0.1543257,0.18064 -0.282635,0.279434 -0.4082138,0.314312 -0.2108046,0.05855 -0.1996516,0.05846 -0.3378407,0.0026 z M 9.4217451,12.52247 C 9.0944234,12.257914 8.7031245,11.889571 8.5671561,11.718017 8.4202078,11.532609 8.4184554,11.524212 8.4984692,11.38876 c 0.045159,-0.07645 0.082107,-0.166049 0.082107,-0.199111 0,-0.03307 0.080263,-0.192241 0.1783624,-0.353729 0.1866539,-0.307266 0.2931246,-0.351952 0.3894203,-0.16344 0.068946,0.134976 0.4330995,0.620114 0.6861929,0.914175 0.077812,0.0904 0.2304392,0.563664 0.2304392,0.714523 0,0.152892 -0.1993756,0.324901 -0.3742926,0.32292 C 9.6108105,12.623162 9.48978,12.577461 9.4217451,12.52247 Z M 7.0296113,9.417988 C 6.9845723,9.36822 6.9477213,9.311 6.9477213,9.2908317 c 0,-0.043182 -0.2881769,-0.4705535 -0.3811209,-0.5652083 -0.035312,-0.035961 -0.064203,-0.087396 -0.064203,-0.1142994 0,-0.026904 -0.072365,-0.1471004 -0.1608113,-0.267106 C 6.2531397,8.2242132 6.1147606,8.0195859 6.0340767,7.889492 5.8825263,7.6451347 5.5104796,7.1141903 5.4015265,6.986787 5.3674709,6.9469644 5.3173408,6.8761684 5.2901262,6.8294631 5.2629109,6.7827575 5.1293149,6.5815449 4.9932435,6.3823234 4.8571724,6.1831018 4.7311521,5.9867034 4.7131988,5.9458821 4.6952454,5.9050605 4.5660905,5.7309904 4.4261881,5.5590589 4.2862854,5.387128 4.1504409,5.197865 4.1243108,5.1384754 4.0981808,5.0790854 4.022339,4.9414285 3.9557736,4.8325717 3.8582829,4.6731423 3.8343275,4.5665596 3.832599,4.2845418 3.8307303,3.9809964 3.8456837,3.9201251 3.944973,3.8268474 4.1436323,3.6402168 4.356931,3.681004 4.6114581,3.9542936 c 0.120393,0.1292677 0.274362,0.3296637 0.342153,0.4453241 0.067791,0.1156607 0.1389666,0.2102918 0.1581685,0.2102918 0.019202,0 0.098246,0.1001982 0.1756549,0.2226622 0.077409,0.1224642 0.1575813,0.2226619 0.1781608,0.2226619 0.039557,0 0.1847931,0.2245444 0.3840495,0.5937658 0.06609,0.1224641 0.1568979,0.2671944 0.2017958,0.3216229 0.1103269,0.133745 0.2767275,0.3791217 0.3187719,0.4700642 0.018872,0.040821 0.078271,0.1410194 0.1319955,0.2226622 0.053725,0.081643 0.1212343,0.1929736 0.1500207,0.2474021 0.069463,0.1313369 0.1369277,0.239392 0.3707169,0.5937655 0.2486546,0.3769062 0.2987457,0.4607693 0.3842093,0.6432459 0.038237,0.081643 0.106371,0.1790009 0.1514081,0.2163505 0.089335,0.074087 0.10707,0.2548916 0.0383,0.3904568 C 7.57289,8.8018255 7.502872,8.9518196 7.4412653,9.087891 7.3280281,9.3380002 7.2082039,9.5084748 7.1456432,9.5084748 c -0.01878,0 -0.070993,-0.040723 -0.1160319,-0.090487 z M 3.8304529,6.4875668 C 3.3168864,6.4167416 3.2230641,6.3755872 3.0661392,6.1523106 2.9428692,5.9769185 2.9282518,5.927656 2.9785835,5.8572346 c 0.03323,-0.046493 0.080969,-0.1317089 0.1060857,-0.1893675 0.077483,-0.1778689 0.297527,-0.3157505 0.5039036,-0.3157505 0.1713007,0 0.2095956,0.025688 0.3872685,0.2597722 0.1084433,0.142875 0.2890456,0.3777836 0.4013384,0.5220197 0.1149637,0.1476663 0.1921395,0.2935943 0.1766369,0.3339929 -0.03014,0.078544 -0.2525813,0.084591 -0.7233637,0.019665 z M 6.7451575,6.3061987 C 6.6826605,6.2032744 6.6024723,6.1012572 6.5669617,6.0794946 6.5314515,6.0577318 6.5023976,6.0082835 6.5023976,5.9696103 6.5023976,5.9309365 6.4312435,5.7983479 6.344278,5.6749688 6.2290224,5.5114547 6.200953,5.4358476 6.240734,5.396066 6.306021,5.330779 10.136844,5.2881482 11.685759,5.335471 l 1.002262,0.030622 0.09868,0.1596645 c 0.05427,0.087815 0.09868,0.2191686 0.09868,0.291898 0,0.1343901 -0.179129,0.4251099 -0.261934,0.4251099 -0.02497,0 -0.113217,0.057061 -0.1961,0.1268029 L 12.276646,6.4963714 11.405851,6.4668776 C 10.380167,6.4321396 9.8876449,6.4321914 8.152637,6.4672054 L 6.8587896,6.4933223 6.7451575,6.3061868 Z M 9.8050576,4.8777679 c -0.032197,-0.032195 0.1021812,-0.2615727 0.5024874,-0.8577341 0.230414,-0.3431464 0.291559,-0.4026232 0.443154,-0.4310627 0.122797,-0.023038 0.218782,-0.00836 0.31811,0.048649 0.07824,0.044902 0.169965,0.081641 0.203838,0.081641 0.03387,0 0.112714,0.054423 0.175203,0.1209412 0.09756,0.1038465 0.108865,0.1526399 0.07999,0.3452095 -0.0185,0.1233483 -0.05461,0.2372354 -0.08025,0.2530829 -0.02565,0.015848 -0.04662,0.063028 -0.04662,0.1048458 0,0.041818 -0.04605,0.1407017 -0.10233,0.219742 L 11.196309,4.906792 H 10.5152 c -0.374611,0 -0.6941711,-0.013062 -0.7101351,-0.029025 z"
       id="path183" />
  </g>
</svg>
