<?xml version="1.0" encoding="UTF-8" standalone="no"?>
<svg
   xmlns:dc="http://purl.org/dc/elements/1.1/"
   xmlns:cc="http://creativecommons.org/ns#"
   xmlns:rdf="http://www.w3.org/1999/02/22-rdf-syntax-ns#"
   xmlns:svg="http://www.w3.org/2000/svg"
   xmlns="http://www.w3.org/2000/svg"
   width="16.0px"
   height="16.0px"
   viewBox="0 0 16.0 16.0"
   version="1.1"
   id="SVGRoot">
  <defs
     id="defs33" />
  <metadata
     id="metadata36">
    <rdf:RDF>
      <cc:Work
         rdf:about="">
        <dc:format>image/svg+xml</dc:format>
        <dc:type
           rdf:resource="http://purl.org/dc/dcmitype/StillImage" />
        <dc:title></dc:title>
      </cc:Work>
    </rdf:RDF>
  </metadata>
  <g
     id="layer1">
    <path
       style="fill:#000000;stroke-width:0.0509126"
       d="M 7.3495205,12.90397 C 7.3224099,12.867766 7.2571626,12.735047 7.2045246,12.609038 7.1518867,12.483029 7.088324,12.352341 7.063274,12.318619 6.981656,12.208749 6.822679,11.876211 6.822679,11.815359 c 0,-0.03266 -0.034366,-0.08789 -0.076369,-0.122751 -0.1073654,-0.0891 -0.098011,-0.124551 0.089097,-0.337614 L 7.0008737,11.166575 V 9.8385677 c 0,-1.2829484 -0.00383,-1.3341667 -0.1129099,-1.5095511 C 6.7080733,8.0397764 6.5957011,7.9576303 6.4711258,8.0243011 6.4131235,8.0553431 6.3484889,8.1430848 6.3274939,8.2192818 c -0.049879,0.1810318 -0.05053,2.2211832 -8.645e-4,2.6969072 0.032573,0.311972 0.026663,0.369117 -0.038184,0.369117 -0.042197,0 -0.076723,-0.0186 -0.076723,-0.04132 0,-0.02272 -0.1366827,-0.188829 -0.3037399,-0.369118 -0.3084329,-0.33286 -0.3692375,-0.49296 -0.2308446,-0.607816 0.064038,-0.05314 0.076369,-0.262519 0.076369,-1.296619 -9e-7,-1.3875618 -0.00379,-1.4017573 -0.3743874,-1.4017573 -0.236594,0 -0.2874793,0.1117329 -0.2874793,0.6312326 0,0.2035216 -0.025343,0.496222 -0.056313,0.650446 -0.045416,0.2261448 -0.040508,0.356832 0.025365,0.6753644 0.044924,0.2172284 0.069984,0.4138844 0.055689,0.4370125 -0.035376,0.057243 -1.0429969,-0.7049063 -1.0429969,-0.7889044 0,-0.03678 0.033917,-0.07989 0.075371,-0.095796 0.062762,-0.024085 0.077667,-0.2144981 0.089098,-1.1382561 L 4.251581,6.8304401 4.4552319,6.8174963 C 4.7354349,6.7996862 5.263758,6.5181245 5.5035543,6.2588093 5.8499708,5.8841958 5.7568269,5.8119906 4.9714738,5.8463394 4.5802224,5.8634516 4.4739832,5.8864382 4.3555326,5.9796116 4.0987594,6.1815894 4.0733863,6.1457862 4.0733863,5.5814804 c 0,-0.4254306 0.013882,-0.5160521 0.083114,-0.5426196 0.045712,-0.017542 0.1249533,-0.00577 0.1760906,0.026173 0.057952,0.036192 0.3862497,0.060124 0.8715008,0.063529 l 0.7785236,0.00547 0.2931532,-0.3221424 C 6.6159779,4.4380327 6.654086,4.3520746 6.5472437,4.199536 6.3953896,3.9827345 6.0505983,3.9030456 5.2642129,3.9030005 4.5818408,3.9029624 4.536404,3.9093427 4.3582501,4.0302406 4.063232,4.2304458 4.0448457,4.2120844 4.0651069,3.7374924 c 0.00986,-0.2310165 0.032944,-0.4360656 0.051291,-0.4556646 0.018348,-0.019599 0.1250012,-0.016727 0.2370092,0.00638 0.1120082,0.02311 0.5816785,0.039146 1.0437118,0.035635 0.7113408,-0.00541 0.8593487,-0.020035 0.965943,-0.095481 0.2214162,-0.1567147 0.3726691,-0.1149229 0.6909801,0.1909235 0.1602883,0.1540111 0.3309527,0.2800202 0.3792547,0.2800202 0.084273,0 0.5421742,-0.3622454 0.6265433,-0.4956585 0.056535,-0.089399 0.3462227,-0.080607 0.4821989,0.014634 0.092239,0.064608 0.2887756,0.079128 1.0777494,0.079631 0.5874017,4.162e-4 1.0046427,-0.020637 1.0664207,-0.053698 0.145421,-0.077828 0.17059,-0.00908 0.177808,0.485669 0.0069,0.4686558 -0.04809,0.5568194 -0.243528,0.3908923 C 10.386593,3.9222019 10.295142,3.9029614 9.5853833,3.9030033 9.0266012,3.9030364 8.8343269,3.9221553 8.636276,3.9973702 8.1915736,4.166261 8.2014675,4.3318736 8.6846227,4.8066634 L 9.0084343,5.1248678 H 9.767637 c 0.612734,0 0.771429,-0.014733 0.822582,-0.076369 0.03486,-0.042003 0.106397,-0.076369 0.158973,-0.076369 0.08769,0 0.09559,0.046051 0.09559,0.5570351 0,0.3318221 -0.02147,0.5703076 -0.05312,0.5898616 -0.0292,0.018053 -0.137132,-0.03126 -0.239825,-0.1095882 C 10.375251,5.8747498 10.33608,5.8669178 9.829728,5.8650636 9.3543039,5.8633336 9.2923041,5.8733436 9.2762175,5.9545716 9.2550425,6.061505 9.5963706,6.4995122 9.70088,6.4995122 c 0.03915,0 0.179572,0.068733 0.312037,0.1527384 0.178387,0.11313 0.302071,0.152738 0.476953,0.152738 0.12986,0 0.250471,0.014359 0.268022,0.031912 0.01755,0.017551 -0.0015,0.096601 -0.04243,0.1756661 -0.111514,0.2156446 -0.107645,1.8397352 0.0046,1.9328946 0.129067,0.1071153 0.06791,0.3109433 -0.13622,0.4540102 -0.101507,0.071142 -0.325501,0.2384493 -0.497765,0.3717909 -0.257805,0.1995583 -0.318816,0.2278224 -0.344922,0.1597922 -0.01745,-0.045456 0.0061,-0.1466353 0.05228,-0.2248412 0.06798,-0.1150741 0.08399,-0.2875202 0.08399,-0.9042816 0,-0.6572276 -0.01434,-0.7945086 -0.104207,-0.997672 C 9.677598,7.588034 9.6542191,7.5686811 9.4886582,7.5686811 c -0.1248027,0 -0.2098238,0.035295 -0.2759446,0.1145537 -0.086916,0.1041877 -0.095717,0.2148493 -0.097258,1.2229172 -0.00167,1.0908582 3.009e-4,1.111495 0.1234357,1.306582 l 0.1251294,0.198219 -0.3542366,0.396696 c -0.1948304,0.218183 -0.3542373,0.414913 -0.3542373,0.43718 0,0.02226 -0.034366,0.04049 -0.076369,0.04049 -0.097297,0 -0.097165,-0.137117 3.013e-4,-0.324024 0.061151,-0.117251 0.076056,-0.379555 0.076056,-1.3384877 0,-1.0961846 -0.00832,-1.2089677 -0.1028599,-1.3942812 C 8.4118347,7.9524736 8.2618928,7.9561573 8.03612,8.2412099 l -0.1697443,0.214313 -0.0183,0.9610481 c -0.024412,1.282039 0.013754,1.672537 0.1831573,1.87386 0.1578545,0.187599 0.1629824,0.395679 0.014877,0.603674 -0.0589,0.08272 -0.1326673,0.225869 -0.1639276,0.318114 -0.03126,0.09225 -0.1013882,0.23167 -0.1558411,0.309834 -0.054452,0.07817 -0.1156006,0.204173 -0.1358842,0.280021 -0.040681,0.152119 -0.1642229,0.204367 -0.24095,0.101903 z M 7.2627392,7.5591025 c 0.1338625,-0.048405 0.1932579,-0.046577 0.297392,0.00915 0.1757459,0.094056 0.2757519,0.00664 0.1872377,-0.1636665 C 7.485672,6.9010667 7.3714297,6.8542139 7.134572,7.1532707 6.9833242,7.3442366 6.9349597,7.5112458 7.009359,7.585645 7.05457,7.630857 7.068272,7.629422 7.2627392,7.559101 Z M 7.0350493,6.8734618 C 7.1839142,6.738741 7.1458346,6.6322432 6.863226,6.3929235 6.5544779,6.1314677 6.3672658,6.0412922 6.1332063,6.0412922 c -0.2010421,0 -0.3796952,0.1921185 -0.3796952,0.4083126 0,0.1404468 0.069025,0.2066137 0.4327582,0.4148364 0.2069199,0.118453 0.7218117,0.1239257 0.84878,0.00903 z M 8.859189,6.8107209 C 9.0539926,6.692536 9.0906208,6.6442813 9.1038205,6.4884429 9.1237115,6.2535834 8.9185686,6.0412922 8.6717233,6.0412922 c -0.2281401,0 -0.7990998,0.4305389 -0.8209679,0.6190601 -0.036935,0.3184074 0.5798617,0.4103786 1.0084336,0.1503686 z M 7.6338166,5.9443356 C 7.7568144,5.7716004 7.7683165,5.5769547 7.666733,5.387282 7.6269266,5.3129562 7.5818238,5.2120505 7.5665052,5.163047 7.5114748,4.9870063 7.3422062,5.0612103 7.2323632,5.3095293 7.0998985,5.6089879 7.1013488,5.6444618 7.2560769,5.8895655 c 0.152213,0.241121 0.2363593,0.253321 0.3777409,0.05477 z"
       id="path212" />
  </g>
</svg>
