<?xml version="1.0" encoding="UTF-8" standalone="no"?>
<svg
   xmlns:dc="http://purl.org/dc/elements/1.1/"
   xmlns:cc="http://creativecommons.org/ns#"
   xmlns:rdf="http://www.w3.org/1999/02/22-rdf-syntax-ns#"
   xmlns:svg="http://www.w3.org/2000/svg"
   xmlns="http://www.w3.org/2000/svg"
   width="16.0px"
   height="16.0px"
   viewBox="0 0 16.0 16.0"
   version="1.1"
   id="SVGRoot">
  <defs
     id="defs33" />
  <metadata
     id="metadata36">
    <rdf:RDF>
      <cc:Work
         rdf:about="">
        <dc:format>image/svg+xml</dc:format>
        <dc:type
           rdf:resource="http://purl.org/dc/dcmitype/StillImage" />
        <dc:title></dc:title>
      </cc:Work>
    </rdf:RDF>
  </metadata>
  <g
     id="layer1">
    <path
       style="fill:#000000;stroke-width:0.053928"
       d="m 4.2809601,12.714972 c 0.010297,-0.05346 0.09727,-0.113096 0.2061868,-0.141376 0.1036071,-0.02691 0.316693,-0.0945 0.4735235,-0.150215 0.1568313,-0.05571 0.3211486,-0.101303 0.3651507,-0.101303 0.044004,0 0.2432998,-0.07568 0.4428847,-0.168174 0.1995848,-0.09249 0.5261862,-0.244167 0.7257807,-0.337051 0.3557801,-0.165564 0.4324088,-0.23532 0.2977213,-0.271023 -0.4701296,-0.12462 -0.8207949,-0.194459 -0.9763771,-0.194459 -0.1046086,0 -0.202436,-0.0198 -0.2173952,-0.04401 C 5.5834825,11.28315 6.3468036,10.488719 7.294717,9.541944 8.7705093,8.0679268 9.0316126,7.8290003 9.1115587,7.8794283 c 0.1026485,0.06475 0.3246337,0.6158986 0.3340813,0.8294562 0.00324,0.074151 0.041589,0.1819276 0.08514,0.2395024 0.043548,0.057577 0.079177,0.1679935 0.079177,0.2453731 0,0.1528275 0.087392,0.2701198 0.2012681,0.2701198 0.1262167,0 1.7704099,-1.7207454 1.7012279,-1.7804334 C 11.425363,7.6083124 10.859586,7.4770955 10.391916,7.4235729 9.5302936,7.3249626 9.438498,7.2861272 9.6773698,7.121276 9.7441048,7.0752178 10.287091,6.5487883 10.884008,5.9514325 l 1.0853,-1.0861047 0.249423,0.2299085 c 0.137181,0.1264504 0.249424,0.2667514 0.249424,0.3117817 0,0.045031 -0.268005,0.3481803 -0.595563,0.6736671 -0.327557,0.3254883 -0.587205,0.6168635 -0.576993,0.647501 0.02474,0.074224 0.430404,0.1824222 1.105144,0.2947611 0.304021,0.050618 0.552766,0.1168447 0.552766,0.1471719 0,0.073743 -3.5156468,3.5880419 -3.5894159,3.5880419 -0.068771,0 -0.2394907,-0.340442 -0.2394907,-0.477577 0,-0.25355 -0.3040576,-0.9784861 -0.4104022,-0.9784861 -0.034265,0 -0.3941278,0.3300998 -0.7996857,0.7335551 -0.8480665,0.843665 -0.8899697,0.940197 -0.434724,1.001487 0.1483037,0.01996 0.4516502,0.08628 0.6741044,0.14738 0.2224534,0.0611 0.4469298,0.111494 0.4988351,0.112 0.1692142,0.0017 0.1004442,0.132842 -0.2535448,0.483686 -0.3827946,0.379393 -0.2797013,0.343019 -1.4506675,0.511834 -0.3218611,0.0464 -0.608376,0.09869 -0.636701,0.116196 -0.028326,0.01751 -0.1775355,0.05232 -0.3315789,0.07736 -0.793177,0.12894 -1.2602781,0.222597 -1.3444272,0.269569 -0.0515,0.02874 -0.1564209,0.05227 -0.2331495,0.05227 -0.1027367,0 -0.134813,-0.02438 -0.121701,-0.09246 z M 3.1224803,11.418783 c 0.017084,-0.111228 0.056653,-0.234649 0.087945,-0.27427 0.031293,-0.03962 0.075039,-0.209495 0.097225,-0.377496 0.022188,-0.168004 0.1024223,-0.606839 0.1783053,-0.9751899 0.075882,-0.3683496 0.1379678,-0.758818 0.1379678,-0.8677055 0,-0.2467195 0.1918311,-1.0098155 0.2828759,-1.1252706 0.1372699,-0.1740725 0.5762185,-0.5999532 0.6183638,-0.5999532 0.1246115,0 0.1956466,0.230481 0.3573499,1.1594566 C 4.936062,8.6659729 4.967905,8.738635 5.0545502,8.7508863 5.1296813,8.7615147 5.3876692,8.5384729 5.9338286,7.990734 6.6526723,7.2698143 6.7005409,7.2093089 6.6176428,7.126413 6.5686183,7.0773885 6.4634662,7.0241417 6.3839747,7.0080909 6.3044824,6.9920483 6.1707392,6.9434653 6.0867706,6.900153 6.0027991,6.856839 5.8947947,6.8214002 5.8467607,6.8214002 c -0.1356379,0 -0.7128467,-0.1810958 -0.7128467,-0.2236515 0,-0.091049 3.6031459,-3.665132 3.6380305,-3.6086864 0.065122,0.1053646 0.1423468,0.3961488 0.1942584,0.7314654 0.102167,0.6599123 0.1436343,0.8426904 0.2051073,0.9041661 0.048052,0.048058 0.2149149,-0.08851 0.7032092,-0.5755308 l 0.6402036,-0.6385361 0.248682,0.2292298 c 0.136778,0.1260745 0.248687,0.2623448 0.248687,0.302821 0,0.1179331 -2.2393619,2.3394408 -2.3582426,2.3394408 -0.093324,0 -0.1104691,-0.063508 -0.1637739,-0.6066931 C 8.4394579,5.1596468 8.3816025,4.8225707 8.2808073,4.4561987 8.264778,4.3979391 8.23041,4.4026705 8.1128979,4.4793178 7.8489468,4.6514854 6.4821193,6.0296903 6.4821193,6.1236713 c 0,0.1234204 0.078378,0.1726393 0.4583908,0.2878653 0.1779632,0.053956 0.4085063,0.1308369 0.5123204,0.1708392 0.1038093,0.040003 0.2918828,0.1018547 0.4179407,0.1374491 0.12606,0.035596 0.2291968,0.097049 0.2291968,0.1365683 0,0.081433 -3.3671258,3.4703398 -3.4480348,3.4703398 -0.02883,0 -0.067391,-0.091 -0.085695,-0.202231 C 4.5479337,10.013275 4.5104616,9.8009328 4.4829664,9.6526299 4.4554749,9.5043278 4.4268795,9.3274253 4.4194307,9.2595147 4.4119726,9.1916057 4.3816142,9.1331244 4.3519564,9.129562 4.2948689,9.1227316 3.9567332,9.7124569 3.9509155,9.8290316 c -0.00186,0.037696 -0.073412,0.2197074 -0.1589576,0.4044614 -0.085545,0.184754 -0.1993013,0.445122 -0.2527951,0.578594 -0.053494,0.133472 -0.1291077,0.280988 -0.1680321,0.327816 -0.038927,0.04683 -0.070775,0.135845 -0.070775,0.19782 0,0.167263 -0.05619,0.283288 -0.1372002,0.283288 -0.052459,0 -0.063384,-0.05434 -0.040672,-0.20223 z"
       id="path22" />
  </g>
</svg>
