<?xml version="1.0" encoding="UTF-8" standalone="no"?>
<svg
   xmlns:dc="http://purl.org/dc/elements/1.1/"
   xmlns:cc="http://creativecommons.org/ns#"
   xmlns:rdf="http://www.w3.org/1999/02/22-rdf-syntax-ns#"
   xmlns:svg="http://www.w3.org/2000/svg"
   xmlns="http://www.w3.org/2000/svg"
   width="16.0px"
   height="16.0px"
   viewBox="0 0 16.0 16.0"
   version="1.1"
   id="SVGRoot">
  <defs
     id="defs33" />
  <metadata
     id="metadata36">
    <rdf:RDF>
      <cc:Work
         rdf:about="">
        <dc:format>image/svg+xml</dc:format>
        <dc:type
           rdf:resource="http://purl.org/dc/dcmitype/StillImage" />
        <dc:title></dc:title>
      </cc:Work>
    </rdf:RDF>
  </metadata>
  <g
     id="layer1">
    <path
       style="fill:#000000;stroke-width:0.0556145"
       d="m 4.4897563,12.311309 c -0.125219,-0.07739 0.019372,-0.21993 0.4670503,-0.460426 C 5.5820609,11.514991 6.05263,11.031866 6.1320607,10.644268 6.2693193,9.9744881 6.2064544,9.7355038 5.7869871,9.3324512 5.5526745,9.1073079 5.3862964,9.0115757 4.7303218,8.7244579 4.4478848,8.6008367 4.0685781,8.6188598 3.9933211,8.7594783 c -0.047762,0.089244 -0.041979,0.1447868 0.02585,0.2483079 0.048056,0.073343 0.087374,0.1618844 0.087374,0.1967596 0,0.034875 0.076591,0.1768959 0.1702022,0.3156009 C 4.4679339,9.8034308 4.4317537,9.9483021 4.206727,9.800517 4.0053101,9.668237 3.6032837,9.2487584 3.4582948,9.0195951 3.2170318,8.6382649 2.9740975,7.8412977 3.0038575,7.5287737 l 0.018206,-0.1911932 1.4056426,-0.01486 c 1.5405895,-0.016288 1.5383394,-0.016778 1.4120625,0.3078361 -0.032508,0.083568 -0.066641,0.26456 -0.075851,0.4022061 l -0.016747,0.2502644 0.2355728,-0.00474 c 0.1295653,-0.00262 0.3297772,-0.031901 0.4449157,-0.065099 1.0102919,-0.2912863 1.0771658,-0.2933591 1.028096,-0.031866 -0.016237,0.086528 -0.060815,0.2073761 -0.099062,0.2685522 -0.038247,0.061176 -0.086779,0.2425903 -0.1078495,0.4031422 -0.021069,0.160553 -0.060992,0.3059324 -0.088714,0.3230656 -0.027723,0.017133 -0.050405,0.112262 -0.050405,0.2113971 0,0.099135 -0.031283,0.2115006 -0.069518,0.2497011 -0.063138,0.063083 -0.1620238,0.4447941 -0.2470447,0.9536271 -0.017868,0.106935 -0.066861,0.246888 -0.1088736,0.311008 -0.042012,0.06412 -0.082352,0.213413 -0.089644,0.331765 -0.018041,0.292834 0.1130248,0.310608 0.2904491,0.03939 0.075275,-0.11507 0.2379472,-0.32249 0.3614942,-0.460934 C 7.370134,10.673588 7.5634421,10.448349 7.6761598,10.311503 7.7888775,10.174656 8.186492,9.6998059 8.5597471,9.2562803 8.9330031,8.812755 9.3913625,8.2666749 9.5783242,8.0427683 9.7652853,7.8188613 9.9811843,7.5632136 10.0581,7.4746615 l 0.139846,-0.1610034 1.250515,-0.00389 c 0.687783,-0.00214 1.278916,-0.003 1.313629,-0.00193 0.08717,0.00269 0.02826,0.7183485 -0.07098,0.8624427 -0.04156,0.060334 -0.07556,0.1496036 -0.07556,0.1983753 0,0.3243422 -0.924995,1.4993933 -1.180316,1.4993933 -0.123847,0 -0.128256,-0.1287912 -0.0078,-0.2287355 C 11.556713,9.5320222 11.75683,9.2001615 11.80162,9.0187882 11.86714,8.753471 11.76199,8.6445305 11.440398,8.6445305 c -0.154791,0 -0.347866,0.034842 -0.429056,0.077425 -0.08119,0.042583 -0.260236,0.1223977 -0.397882,0.177364 C 10.288305,9.0291645 9.9209053,9.3239168 9.7360729,9.6032172 9.614626,9.7867363 9.5905759,9.882651 9.5980844,10.153542 c 0.005,0.180437 0.044759,0.396485 0.088351,0.480106 0.043592,0.08362 0.1135904,0.225556 0.1555515,0.315411 0.1449234,0.310336 0.8054031,0.824556 1.3415221,1.04445 0.104768,0.04297 0.135909,0.299444 0.04023,0.331337 -0.112295,0.03743 -1.5304357,-0.06602 -1.6557095,-0.120781 -0.1727772,-0.07553 -3.1812213,-0.07781 -3.3553589,-0.0026 -0.1501683,0.0649 -1.641728,0.159961 -1.7228917,0.109798 z M 7.2765701,9.9743763 c 0,-0.038375 0.032843,-0.1092834 0.072987,-0.1575739 C 7.419596,9.7325476 7.5029832,9.5417038 7.679522,9.0616283 7.856985,8.5790402 7.9008533,8.4419757 7.941744,8.242332 7.9651211,8.1281865 8.0082136,8.0030541 8.037501,7.9642596 8.1276075,7.8449062 8.2380948,7.4363972 8.1978718,7.371315 8.145544,7.286647 7.9088481,7.2938025 7.6102566,7.3890797 7.0335179,7.5731094 6.4357091,7.6802901 6.3345875,7.6177936 6.3033249,7.5984731 6.3125522,7.5240362 6.3574161,7.4336635 6.4654084,7.2161208 6.6091979,6.6868471 6.6091979,6.5068816 c 0,-0.084453 0.034039,-0.2324124 0.075643,-0.3287992 0.070666,-0.163716 0.2065077,-0.7015132 0.2900998,-1.1485007 0.020021,-0.1070579 0.055395,-0.219677 0.078608,-0.2502652 0.023211,-0.030586 0.056317,-0.1306939 0.073564,-0.2224575 0.098484,-0.5239825 0.1885137,-0.8286968 0.2509995,-0.8495254 0.038963,-0.012987 0.1691649,0.041453 0.289338,0.1209799 0.1201727,0.079527 0.2332154,0.1445936 0.2512061,0.1445936 0.017989,0 0.118369,0.065335 0.2230633,0.1451894 C 8.2890166,4.2304454 8.3730875,4.2563023 8.5134061,4.232412 9.0108808,4.1477136 9.2176274,4.0915486 9.4615772,3.9748316 9.6080466,3.9047542 9.7421752,3.8617082 9.7596409,3.8791739 9.7771056,3.8966386 9.7180572,4.0187237 9.6284202,4.1504722 9.5387833,4.282221 9.3045489,4.627647 9.107899,4.9180854 8.9112493,5.2085238 8.7312138,5.4713018 8.7078198,5.5020366 c -0.5742365,0.7544323 -0.5765362,0.896297 -0.011752,0.724982 0.1522097,-0.046169 0.3518237,-0.085102 0.4435876,-0.086517 0.091764,-0.00141 0.2294096,-0.038339 0.3058793,-0.082053 0.07647,-0.043714 0.2766818,-0.080521 0.4449157,-0.081794 0.1682329,-0.00128 0.3775629,-0.039699 0.4651759,-0.085392 0.315098,-0.1643353 0.347826,-0.059411 0.07706,0.2470634 C 10.33328,6.2508486 10.114298,6.5256457 9.9460643,6.7489863 9.777831,6.9723265 9.5639603,7.2461798 9.4707976,7.3575491 9.3776343,7.4689185 9.2585316,7.6226052 9.2061248,7.6990749 9.1537176,7.7755449 9.0297305,7.9406132 8.9305971,8.0658932 8.7322886,8.3165049 8.4979949,8.6152814 7.8475103,9.4470672 7.4312935,9.9792901 7.2765712,10.122189 7.2765712,9.974377 Z"
       id="path67" />
  </g>
</svg>
