    <svg
        viewBox="0 0 40 31"
    >
        <path
            d="M17.4313 0H17.4381L22.9498 0.0106234C22.9529 0.00725778 22.9562 0.00567981 22.9582 0.00389181C22 0.665979 21.2461 1.63413 20.8521 2.80832L14.3475 22.1917C14.3174 22.2795 14.2921 22.3656 14.2666 22.4528L14.3037 3.18717C14.3072 1.4242 15.7077 0 17.4313 0ZM1.0859 15.5037C-0.223877 14.3516 -0.368423 12.3326 0.759228 10.9978L3.83662 7.35364C3.88037 7.49311 3.92567 7.63247 3.97962 7.76846L10.2806 23.6102L1.0859 15.5037ZM11.9874 3.18486L11.952 21.5261L6.12569 6.8774C5.47595 5.24348 6.24367 3.37943 7.84265 2.71388L12.5428 0.762006C12.1929 1.49488 11.9908 2.31673 11.9874 3.18486ZM39.8307 9.4536L33.326 28.8365C32.8816 30.1639 31.6661 31 30.3665 31C30.0299 31 29.6901 30.9432 29.3531 30.8245L18.4817 27.019C16.8489 26.448 15.9768 24.6283 16.5394 22.9587L23.0437 3.57548C23.4881 2.24952 24.7036 1.41505 26.003 1.41505C26.3367 1.41505 26.6798 1.47079 27.0164 1.58912L37.8844 5.39504C39.5207 5.96773 40.3894 7.7835 39.8307 9.4536Z"
        />
    </svg>
