<?xml version="1.0" encoding="UTF-8" standalone="no"?>
<svg
   xmlns="http://www.w3.org/2000/svg"
   viewBox="0 0 16.0 16.0"
   version="1.1"
   id="SVGRoot">
  <g
     id="layer1">
    <path
       d="M 4.840178,12.928697 C 4.7210133,12.903177 4.4816675,12.812178 4.3082972,12.726477 3.039166,12.099125 2.6852187,10.449998 3.5579602,9.2304622 3.7891362,8.9074248 6.0180843,6.7141022 6.2648033,6.5668804 6.5419051,6.4015311 6.9303417,6.2632065 7.2568029,6.2136252 7.9639839,6.1062228 8.7431671,6.3647476 9.1973525,6.8574794 9.3596597,7.0335616 9.3870825,7.1154823 9.3665595,7.3629629 9.3400534,7.6825807 9.0802245,7.9144051 8.7497735,7.9132701 8.5829365,7.9126985 8.4787583,7.8632735 8.2045531,7.6546165 7.9119015,7.431922 7.5044686,7.3929774 7.090139,7.548095 6.9036188,7.6179248 6.8137105,7.6989948 5.7558454,8.7512062 5.0515143,9.451773 4.5813258,9.9459683 4.5154436,10.054944 c -0.1388842,0.229718 -0.2216061,0.554013 -0.19261,0.755064 0.091538,0.634619 0.6834082,1.043185 1.2877577,0.888935 0.3347709,-0.08544 0.5157378,-0.220648 1.1640799,-0.869703 l 0.6060495,-0.606714 0.1414708,0.07906 c 0.3140846,0.175545 1.0454586,0.274714 1.3074141,0.177276 0.1238078,-0.04605 -1.7344601,1.821503 -2.0114519,2.021505 -0.5699002,0.411497 -1.3090972,0.571568 -1.9779757,0.428322 z M 8.1734536,9.8584115 C 7.6784655,9.7814205 7.2274433,9.570514 6.9124688,9.2687485 6.7237387,9.0879327 6.6734795,8.9860542 6.6734795,8.7842953 c 0,-0.2829825 0.099078,-0.4500022 0.3403342,-0.573726 C 7.2691992,8.0796009 7.477719,8.128873 7.8423627,8.4063494 8.1350143,8.6290439 8.5424471,8.6679886 8.9567733,8.512871 9.1432934,8.4430412 9.2332052,8.3619713 10.291071,7.3097598 10.995401,6.609193 11.465591,6.1149983 11.531473,6.0060225 11.670356,5.7763048 11.753079,5.4520088 11.724078,5.2509579 11.632544,4.6163385 11.040674,4.207772 10.436321,4.3620232 10.101554,4.4474681 9.9205857,4.5826712 9.2722412,5.2317261 L 8.6661917,5.8384406 8.5247242,5.7593723 C 8.2106397,5.5838268 7.4792657,5.4846577 7.2173068,5.582096 7.0935023,5.6281472 8.95177,3.7605919 9.2287619,3.5605912 10.434667,2.6898636 12.09348,3.0485256 12.719379,4.3153215 13.124068,5.1343907 13.03912,6.0616722 12.488966,6.8305038 12.257507,7.1539695 10.09875,9.2798044 9.8234249,9.455397 9.319847,9.7765637 8.6691216,9.9355063 8.1734536,9.8584115 Z"
       id="path22" />
  </g>
</svg>
