<?xml version="1.0" encoding="UTF-8" standalone="no"?>
<svg
   xmlns="http://www.w3.org/2000/svg"
   width="24"
   height="24"
   viewBox="0 0 24 24"
   fill="none"
   stroke="currentColor"
   stroke-width="2"
   stroke-linecap="round"
   stroke-linejoin="round"
   version="1.1"
   id="svg881">
  <g
     id="layer6">
    <path
       style="fill:none;stroke:#000000;stroke-width:1.88976;stroke-linecap:round;stroke-linejoin:round;stroke-miterlimit:4;stroke-dasharray:none;stroke-opacity:1"
       d="m 4,21 h 16.486772 -0.973544 c 0,0 1.015289,-3 -0.04233,-4 C 17.293531,14.941253 12,12 12,12 c 0,0 5.265132,-2.971709 7.470899,-5 1.0875,-1 -0.04233,-4 -0.04233,-4 H 20.486772 4 5 c 0,0 -1,3 0,4 2.0275875,2.0275875 7,5 7,5 0,0 -4.9724125,2.972412 -7,5 -1,1 0,4 0,4 z"
       id="path2323" />
    <path
       style="fill:none;stroke:#000000;stroke-width:1.88976;stroke-linecap:round;stroke-linejoin:round;stroke-miterlimit:4;stroke-dasharray:none;stroke-opacity:1"
       d="m 9.555556,18 h 5 L 12,16 Z"
       id="path2327" />
  </g>
</svg>
