<?xml version="1.0" encoding="UTF-8" standalone="no"?>
<svg
   xmlns="http://www.w3.org/2000/svg"
   width="24"
   height="24"
   viewBox="0 0 24 24"
   fill="none"
   stroke="currentColor"
   stroke-width="2"
   stroke-linecap="round"
   stroke-linejoin="round">
  <path
     d="m 4.2703142,21.269207 c -0.5706505,-0.332374 -0.6057549,-1.198076 -0.060946,-1.502965 0.2329877,-0.130387 0.5101333,-0.884695 0.6573163,-1.789023 0.3312332,-2.035176 1.413349,-3.756567 3.0553572,-4.860351 0.724553,-0.487057 1.317369,-0.982994 1.317369,-1.102082 0,-0.119086 -0.592816,-0.615023 -1.317369,-1.10208 C 6.2800339,9.8089205 5.1979181,8.0875293 4.8666849,6.0523537 4.7195019,5.1480262 4.4423563,4.3937183 4.2093686,4.2633316 3.6443894,3.9471536 3.7075345,3.0757871 4.3191463,2.7484621 c 0.693072,-0.3709206 14.7128457,-0.3709206 15.4059187,0 0.611612,0.327325 0.674757,1.1986915 0.109773,1.5148695 -0.232989,0.1303867 -0.510134,0.8846946 -0.657318,1.7890221 -0.331233,2.0351756 -1.413349,3.7565668 -3.055356,4.8603523 -0.724554,0.487057 -1.31737,0.982994 -1.31737,1.10208 0,0.119088 0.592816,0.615025 1.31737,1.102082 1.642007,1.103784 2.724123,2.825175 3.055356,4.860351 0.147184,0.904328 0.424329,1.658636 0.657318,1.789023 0.564978,0.316178 0.501834,1.187544 -0.109773,1.514868 C 19.039034,21.648263 4.9024201,21.637375 4.2703142,21.2692 Z m 4.5236259,-2.497058 c 1.0238801,-2.247171 5.4324519,-2.247171 6.4563309,0 0.237791,0.521895 0.497858,0.663156 1.220897,0.663156 h 0.918745 l -0.1267,-1.318578 c -0.181466,-1.888562 -1.161025,-3.238308 -2.971865,-4.094973 -1.561219,-0.738576 -1.952931,-1.384356 -1.62712,-2.682492 0.117308,-0.467395 0.51401,-0.824062 1.287569,-1.157629 2.053008,-0.885282 3.370678,-2.7035702 3.370678,-4.6512887 V 4.5942674 h -5.30037 -5.3003694 v 0.9360769 c 0,1.9477185 1.3176705,3.7660067 3.3706794,4.6512887 0.773557,0.333567 1.17026,0.690234 1.287568,1.157629 0.322971,1.286817 -0.06792,1.944874 -1.5802728,2.66033 -1.7988761,0.851005 -2.8414602,2.272437 -3.0185466,4.115411 l -0.1268645,1.320302 h 0.918744 c 0.723038,0 0.983106,-0.141261 1.220897,-0.663156 z M 10.697013,9.0995825 C 9.6796652,8.0822347 9.9874105,7.7744896 12.022105,7.7744896 c 1.472326,0 1.85513,0.08203 1.85513,0.3975278 0,0.6641207 -1.009885,1.4576016 -1.85513,1.4576016 -0.441697,0 -1.030627,-0.2355721 -1.325092,-0.5300365 z"/>
</svg>
