<?xml version="1.0" encoding="UTF-8" standalone="no"?>
<svg
   xmlns="http://www.w3.org/2000/svg"
   viewBox="0 0 16.0 16.0"
   version="1.1"
   id="SVGRoot">
  <g
     id="layer1">
    <path
       d="m 4.6110123,12.869759 c -0.028088,-0.04425 -0.079363,-0.286892 -0.1139694,-0.539195 l -0.062923,-0.458735 0.8104748,-0.81105 c 0.4457598,-0.446077 0.8104748,-0.82937 0.8104748,-0.85176 0,-0.02238 -0.05866,-0.09221 -0.1303526,-0.155162 l -0.130357,-0.1144553 -0.826238,0.8250463 -0.8262411,0.825048 -0.4648873,-0.0749 c -0.3923926,-0.06322 -0.4774344,-0.08848 -0.5453489,-0.162005 -0.044253,-0.04791 -0.080462,-0.113379 -0.080462,-0.145493 0,-0.03211 0.2886181,-0.349038 0.6413726,-0.704277 L 4.333928,9.8569343 4.2473361,9.2311242 C 4.1997142,8.8869286 4.1131848,8.2593313 4.0550549,7.8364617 3.7685356,5.7521804 3.5806238,4.3962521 3.5455045,4.1596739 3.5068943,3.8995665 3.5055177,3.8971529 3.3129388,3.7517527 3.098402,3.5897775 3.0511833,3.5234866 3.0511833,3.3842751 c 0,-0.1321462 0.056543,-0.2228612 0.1780871,-0.2857136 0.1455491,-0.075267 0.2216359,-0.067849 0.3619742,0.035292 0.066827,0.049117 0.2100148,0.1332967 0.3181908,0.1870722 0.1762822,0.087625 0.2356336,0.097839 0.5721712,0.098437 0.2065147,3.087e-4 0.7053762,-0.029599 1.1085749,-0.066609 0.9864569,-0.090531 1.8631546,-0.067297 2.4992648,0.066232 0.9125097,0.1915511 1.8837625,0.654361 2.2509967,1.0726193 0.135139,0.1539168 0.256215,0.3819659 0.256215,0.4825888 0,0.04012 0.01238,0.072946 0.02749,0.072946 0.01513,0 0.182449,-0.1569 0.371843,-0.3486648 0.286509,-0.2900987 0.33938,-0.3606799 0.314748,-0.4201864 -0.04724,-0.1141301 -0.03903,-0.299023 0.01821,-0.4096991 0.06455,-0.1248211 0.335797,-0.3040974 0.917908,-0.60667 0.357337,-0.1857411 0.460825,-0.2248584 0.54135,-0.2046381 0.114744,0.028828 0.187468,0.1590951 0.156109,0.2796547 -0.04837,0.1859702 -0.603025,1.1618927 -0.725555,1.2766307 -0.125598,0.1176058 -0.135157,0.1202656 -0.371614,0.1033479 l -0.242706,-0.017377 -0.325092,0.3264475 c -0.178801,0.1795499 -0.325093,0.3382165 -0.325093,0.3526001 0,0.014386 0.03283,0.026144 0.07295,0.026144 0.100623,0 0.328674,0.121074 0.482588,0.2562119 0.418257,0.3672369 0.881068,1.3384893 1.07262,2.2509976 0.133531,0.6361101 0.156762,1.5128078 0.06623,2.4992652 -0.037,0.403201 -0.06698,0.902059 -0.06661,1.108577 5.86e-4,0.336535 0.01082,0.395888 0.09844,0.572168 0.05377,0.108175 0.137956,0.251363 0.187072,0.318193 0.120516,0.163982 0.115596,0.304704 -0.01522,0.435529 -0.204693,0.204692 -0.474322,0.08646 -0.711442,-0.311955 -0.02533,-0.04256 -0.709,-0.142681 -4.6017527,-0.673888 C 7.0277568,11.790046 6.5048538,11.717627 6.3771242,11.698897 L 6.1448951,11.664843 5.4987968,12.307522 C 4.8097611,12.992913 4.7237192,13.0474 4.6110123,12.86974 Z m 7.2934627,-1.32314 c -0.0011,-0.260605 0.01184,-0.707164 0.02883,-0.992356 0.02494,-0.418498 0.02001,-0.5806125 -0.02557,-0.8403711 C 11.737416,8.7433062 11.337475,7.8479965 10.621789,6.8351676 10.461962,6.6089819 10.306173,6.3476956 10.275593,6.2545329 l -0.0556,-0.1693892 -2.0668631,2.0670921 -2.0668636,2.0670952 0.08443,0.515335 0.084434,0.515335 0.8029219,0.112998 c 0.4416082,0.06215 1.3017821,0.180985 1.9114995,0.264081 0.6097171,0.0831 1.4706523,0.203836 1.9131893,0.268313 0.442537,0.06448 0.853929,0.11899 0.914206,0.121143 l 0.109594,0.0039 z M 9.8549205,5.7584339 C 9.8203399,5.7464579 9.7429865,5.7209039 9.6830247,5.7016776 9.6230628,5.6824482 9.3897251,5.5367361 9.1644967,5.3778661 8.1506638,4.6627485 7.2568098,4.26376 6.2875112,4.0936701 6.0277559,4.0480904 5.8656386,4.0431549 5.4471396,4.0680823 c -0.2851889,0.017007 -0.7317512,0.029971 -0.9923554,0.028828 -0.4190606,-0.00185 -0.4738261,0.00481 -0.4738261,0.057481 0,0.032752 0.055667,0.4521893 0.1237041,0.9320866 0.068041,0.4798943 0.1984743,1.4196728 0.289856,2.0883959 0.091382,0.6687198 0.2091414,1.5215272 0.2616906,1.8951254 l 0.095546,0.6792679 0.4996732,0.092826 0.4996766,0.092823 2.083346,-2.077352 C 9.449835,6.2468257 9.903672,5.7753176 9.8549205,5.7584153 Z"
       id="path67" />
  </g>
</svg>
