<?xml version="1.0" encoding="UTF-8" standalone="no"?>
<svg
   xmlns="http://www.w3.org/2000/svg"
   viewBox="0 0 16.0 16.0"
   version="1.1"
   id="SVGRoot">
  <g
     id="layer1">
    <path
       d="M 7.8737351,12.62113 C 7.6614432,12.542953 7.6608633,12.538468 7.6394011,10.807172 7.6200231,9.2441371 7.6173141,9.1993706 7.5286194,8.9788469 7.3333651,8.493377 6.8074325,8.0895846 6.2689967,8.0117592 5.9773644,7.9696132 4.3961187,7.9607162 4.3961187,8.0012542 c 0,0.015043 0.2022377,0.2320877 0.4494137,0.4823468 0.4297016,0.43506 0.4494155,0.4622287 0.4494155,0.6192634 0,0.2189738 -0.1306041,0.3560921 -0.339185,0.3560921 -0.1398565,0 -0.1907948,-0.043462 -1.0039308,-0.856599 L 3.0952389,7.7457624 3.1192959,7.5975061 C 3.1401949,7.4686732 3.249679,7.3428316 3.9550131,6.6369061 4.808259,5.782931 4.9002718,5.7181672 5.1052022,5.8273528 c 0.1396871,0.074427 0.187137,0.1574943 0.1885029,0.3300083 0.00121,0.1486984 -0.022415,0.1805464 -0.4481725,0.6050995 -0.247176,0.2464757 -0.4494137,0.4616144 -0.4494137,0.4780867 0,0.016478 0.441502,0.02997 0.9811171,0.02997 1.0547883,0 1.2454465,0.025033 1.6496162,0.2168497 0.1113949,0.052879 0.2925688,0.1643726 0.4026081,0.2478077 l 0.200072,0.1517016 0.020325,-0.5915037 C 7.6730413,6.6205601 7.7379143,6.3561481 7.9806379,5.9471371 8.164203,5.6378096 8.5610164,5.2594351 8.8786323,5.0908712 9.330317,4.8511475 9.6025505,4.8084998 10.681083,4.8084998 h 0.957636 L 11.182866,4.342832 C 10.740433,3.8908691 10.727013,3.8720887 10.727013,3.7048281 c 0,-0.277181 0.228884,-0.4353126 0.475857,-0.3287681 0.179422,0.077407 1.660108,1.5772226 1.694633,1.7165279 0.01484,0.059901 0.0062,0.1579824 -0.01932,0.2196457 -0.02538,0.061279 -0.402846,0.4654152 -0.838807,0.8980754 -0.745046,0.739404 -0.801376,0.7866506 -0.937835,0.7866506 -0.191646,0 -0.291674,-0.058041 -0.353522,-0.2051314 -0.08587,-0.2042413 -0.01695,-0.3250707 0.457586,-0.8022271 l 0.439785,-0.442214 -1.055149,0.011598 -1.0551482,0.011598 -0.2823277,0.150863 C 8.91022,5.9044895 8.6898617,6.1348947 8.5254497,6.4819323 L 8.4017807,6.742974 8.3822457,9.5762411 c -0.014752,2.1388109 -0.031317,2.8538169 -0.067565,2.9170909 -0.026408,0.0461 -0.1037776,0.103254 -0.1719196,0.127009 -0.1413786,0.04928 -0.1375788,0.04927 -0.2690173,8.6e-4 z"
       id="path96" />
  </g>
</svg>
