<?xml version="1.0" encoding="UTF-8" standalone="no"?>
<svg
   xmlns:dc="http://purl.org/dc/elements/1.1/"
   xmlns:cc="http://creativecommons.org/ns#"
   xmlns:rdf="http://www.w3.org/1999/02/22-rdf-syntax-ns#"
   xmlns:svg="http://www.w3.org/2000/svg"
   xmlns="http://www.w3.org/2000/svg"
   width="16.0px"
   height="16.0px"
   viewBox="0 0 16.0 16.0"
   version="1.1"
   id="SVGRoot">
  <defs
     id="defs33" />
  <metadata
     id="metadata36">
    <rdf:RDF>
      <cc:Work
         rdf:about="">
        <dc:format>image/svg+xml</dc:format>
        <dc:type
           rdf:resource="http://purl.org/dc/dcmitype/StillImage" />
        <dc:title></dc:title>
      </cc:Work>
    </rdf:RDF>
  </metadata>
  <g
     id="layer1">
    <path
       style="fill:#000000;stroke-width:0.0328415"
       d="M 3.5320497,12.890087 C 3.3813534,12.834437 3.210896,12.682153 3.1349814,12.535353 c -0.027767,-0.0537 -0.057681,-0.180215 -0.066472,-0.28115 -0.031957,-0.36693 0.2541153,-0.702745 0.6417469,-0.753339 l 0.1633799,-0.02131 0.5048583,-0.64041 c 0.2776722,-0.35223 0.5476128,-0.696835 0.5998683,-0.765795 L 5.07337,9.9479696 4.5751512,9.4489743 C 4.3011317,9.1745255 4.0769356,8.9349738 4.0769356,8.9166404 c 0,-0.018336 0.1028091,-0.1353615 0.2284678,-0.260057 0.2092614,-0.2076557 0.2348037,-0.2235014 0.3037838,-0.1884493 0.041424,0.021052 0.4447836,0.301051 0.8963559,0.6222226 l 0.8210396,0.5839496 0.6145988,0.8697807 c 0.33803,0.478378 0.6151329,0.884957 0.6157812,0.903502 0.00146,0.04193 -0.4320592,0.475322 -0.4754619,0.475322 -0.017402,0 -0.2561797,-0.224198 -0.5306284,-0.498218 l -0.4989983,-0.498216 -0.1129727,0.08617 c -0.062136,0.04739 -0.4067415,0.31699 -0.7657885,0.599104 l -0.6528188,0.512933 -0.020935,0.160843 C 4.4382481,12.75533 3.9661379,13.050396 3.5320349,12.890096 Z M 6.8184363,9.7337708 C 6.6297448,9.430346 6.6092478,9.4097206 6.2881203,9.2000766 L 5.9540844,8.9820058 6.5672729,8.3076973 C 6.9045293,7.9368254 7.3419667,7.4568729 7.5393563,7.2411323 8.6133726,6.0672738 10.261948,4.2605065 10.442756,4.0591372 L 10.65078,3.8274517 11.510107,3.538512 c 0.47263,-0.1589184 0.986338,-0.3302633 1.141572,-0.3807699 l 0.282248,-0.09183 -0.09183,0.2822445 C 12.791587,3.5033931 12.620236,4.016751 12.461321,4.4889573 L 12.172385,5.3475101 10.8083,6.5908187 C 10.058056,7.274637 8.9422609,8.2910311 8.32876,8.8494735 7.7152621,9.4079162 7.1686245,9.9063509 7.1140127,9.9571086 l -0.099296,0.09228 z"
       id="path125" />
  </g>
</svg>
