<?xml version="1.0" encoding="UTF-8" standalone="no"?>
<svg
   xmlns:dc="http://purl.org/dc/elements/1.1/"
   xmlns:cc="http://creativecommons.org/ns#"
   xmlns:rdf="http://www.w3.org/1999/02/22-rdf-syntax-ns#"
   xmlns:svg="http://www.w3.org/2000/svg"
   xmlns="http://www.w3.org/2000/svg"
   width="16.0px"
   height="16.0px"
   viewBox="0 0 16.0 16.0"
   version="1.1"
   id="SVGRoot">
  <defs
     id="defs33" />
  <metadata
     id="metadata36">
    <rdf:RDF>
      <cc:Work
         rdf:about="">
        <dc:format>image/svg+xml</dc:format>
        <dc:type
           rdf:resource="http://purl.org/dc/dcmitype/StillImage" />
        <dc:title></dc:title>
      </cc:Work>
    </rdf:RDF>
  </metadata>
  <g
     id="layer1">
    <path
       style="fill:#000000;stroke-width:0.0345207"
       d="M 6.3583538,12.521014 C 6.0866831,12.486042 5.6100913,12.341256 5.3745134,12.222127 4.6037035,11.832352 4.0125641,11.109023 3.6746943,10.142204 3.5327732,9.7360921 3.5200909,9.6716984 3.5715096,9.6182561 3.7732564,9.4085636 3.8303244,9.1745531 3.7186137,9.0150592 3.6734295,8.9505415 3.6743719,8.9370557 3.7272439,8.8907159 3.8647507,8.7702213 4.0329788,8.7169278 4.3291214,8.7000444 c 0.166755,-0.00952 0.3031955,-0.027626 0.3031955,-0.040274 0,-0.080712 -0.2313472,-0.364534 -0.3615134,-0.4435195 C 4.1860397,8.1648124 4.1161951,8.1113006 4.115595,8.0973287 4.113611,8.0508549 4.375248,7.898543 4.5828027,7.8254051 4.6954706,7.7857263 4.9041661,7.7472875 5.0465633,7.7400461 5.1889606,7.7328047 5.3097527,7.7266049 5.3149853,7.7263073 5.3202428,7.7259948 5.3014946,7.6812223 5.2733226,7.6268028 5.2452003,7.5723883 5.1096873,7.4237318 4.9722202,7.2964571 4.6863544,7.0317897 4.6833934,7.041149 5.0874374,6.9321266 5.2759365,6.8812636 5.4325536,6.8631304 5.6230663,6.8701138 l 0.2692354,0.00987 V 6.6498371 c 0,-0.1833557 -0.015524,-0.2511369 -0.076347,-0.3333911 -0.094688,-0.1280384 -0.053487,-0.1504272 0.1712983,-0.093076 0.202952,0.051776 0.2923483,0.1288966 0.3809957,0.3286693 0.085324,0.1922933 0.1057638,0.2059378 0.3094002,0.2065925 0.1598856,4.96e-4 0.1639725,-0.00198 0.1639725,-0.104747 0,-0.3041874 -0.372301,-0.6661075 -1.0201067,-0.991657 C 5.4898745,5.4955665 5.2516778,5.3963447 4.6371974,5.168901 4.3835805,5.0750259 4.0527934,4.9340869 3.9021182,4.8556965 3.4861903,4.6393033 3.0331181,4.1675226 3.1392837,4.0613571 3.1549568,4.0456839 3.2759076,4.096324 3.4081025,4.173891 3.8489585,4.4325124 4.0501696,4.5194089 4.3683686,4.5885988 5.7003308,4.8782341 6.578814,5.2109158 7.3467671,5.7165177 l 0.3152776,0.2075697 0.2025305,-0.02475 C 8.0758498,5.8734969 8.1737175,5.8320376 8.5122073,5.6249639 8.687776,5.5175584 8.7426914,5.5011215 8.9128985,5.5050348 c 0.3051943,0.00699 0.4475221,0.1043155 0.6385308,0.4365261 0.1481754,0.2577137 0.4121088,0.5242609 0.7200707,0.727198 0.390741,0.2574803 0.49656,0.4632595 0.514128,0.9998059 l 0.0086,0.2632984 0.530813,0.5887835 c 0.291951,0.3238285 0.548266,0.5833079 0.569593,0.5766121 0.067,-0.02103 0.265327,-0.3429784 0.306802,-0.498058 0.02182,-0.081679 0.05141,-0.1485028 0.06569,-0.1485028 0.01428,0 0.05767,0.1026093 0.0964,0.2280191 0.07542,0.2441882 0.0903,0.5143709 0.03829,0.6956385 -0.01969,0.068719 -0.01974,0.1119636 -9.9e-5,0.1119636 0.06329,0 0.314817,0.2570242 0.383744,0.3921354 0.10993,0.2154754 0.121045,0.4890314 0.02862,0.7039114 -0.09386,0.218169 -0.34953,0.466052 -0.597002,0.57881 -0.238658,0.108744 -0.749721,0.194723 -0.749721,0.126134 0,-0.01572 0.09279,-0.143891 0.206201,-0.284795 0.113412,-0.140904 0.206617,-0.266969 0.207123,-0.280137 4.96e-4,-0.01319 -0.0651,0.0052 -0.145789,0.04087 -0.08069,0.03566 -0.232151,0.07456 -0.336576,0.08645 -0.104429,0.0119 -0.22482,0.02872 -0.267539,0.03745 -0.0427,0.0087 -0.07767,0.002 -0.07767,-0.01518 0,-0.01706 0.0918,-0.145517 0.204003,-0.285449 0.112202,-0.139937 0.199113,-0.25943 0.193137,-0.265541 -0.006,-0.0061 -0.0851,0.01409 -0.175822,0.04489 -0.143677,0.04875 -0.637861,0.130776 -0.659253,0.109385 -0.0045,-0.0045 0.07702,-0.114052 0.180588,-0.244015 0.168233,-0.211106 0.218149,-0.2961424 0.173833,-0.2961424 -0.0079,0 -0.10505,0.021923 -0.215753,0.048656 -0.27676,0.066923 -0.529231,0.094302 -0.529231,0.05739 0,-0.01686 0.0699,-0.1165073 0.155342,-0.2213932 0.222281,-0.2728709 0.206752,-0.3284113 -0.06863,-0.2455323 -0.162718,0.048954 -0.5009492,0.069621 -0.5009492,0.030602 0,-0.010763 0.069904,-0.1054067 0.1553424,-0.2102926 C 10.051183,9.2896364 10.120983,9.1935989 10.120849,9.1811001 10.120388,9.1364614 9.8821023,8.9970352 9.7182587,8.9455619 9.4899272,8.8738325 9.0348363,8.8729348 8.8697081,8.9440739 c -0.071199,0.030602 -0.129452,0.066016 -0.129452,0.078718 0,0.012697 0.045482,0.074914 0.1011115,0.1382508 0.114875,0.1308309 0.3472389,0.5186811 0.4300683,0.7178487 0.054732,0.1315996 0.056711,0.1326906 0.1406812,0.077671 0.046821,-0.030701 0.09573,-0.055803 0.1086355,-0.055803 0.012896,0 0.013987,0.1014286 0.00248,0.2254006 -0.020682,0.221645 0.0186,0.395969 0.089307,0.395969 0.017955,0 0.091484,-0.04662 0.1634021,-0.103562 0.071918,-0.05696 0.1469603,-0.103561 0.16677,-0.103561 0.043845,0 0.02093,0.192908 -0.050819,0.427926 -0.045978,0.150506 -0.045879,0.174745 4.959e-4,0.221298 0.046672,0.04667 0.071843,0.0376 0.2353644,-0.0849 0.282002,-0.211299 0.273809,-0.209975 0.250488,-0.04042 -0.01131,0.08208 -0.04404,0.226154 -0.07282,0.320148 -0.04831,0.157857 -0.04776,0.174224 0.0072,0.214449 0.05047,0.0369 0.08296,0.02673 0.212932,-0.0666 0.08436,-0.06058 0.160778,-0.122126 0.16983,-0.136773 0.009,-0.01463 0.03626,-0.02663 0.06043,-0.02663 0.03328,0 0.03784,0.04518 0.0187,0.186277 -0.01389,0.102455 -0.03497,0.21677 -0.04677,0.254033 -0.01265,0.03983 -0.0015,0.08453 0.02748,0.108418 0.180747,0.150005 -0.294163,0.483644 -0.631993,0.444 -0.07313,-0.0086 -0.1804496,0.01086 -0.2643404,0.04791 -0.077676,0.03432 -0.2252515,0.079 -0.3279501,0.09931 -0.1026936,0.02031 -0.2216754,0.04427 -0.2643946,0.05325 -0.1123753,0.02362 -0.09697,-0.02401 0.076749,-0.23727 C 9.482735,11.928258 9.492253,11.905343 9.4413899,11.863254 9.4104208,11.83761 9.1865184,11.583621 8.9438132,11.298826 8.3662439,10.621088 8.1919945,10.487589 7.8849304,10.487589 c -0.2517817,0 -0.5126995,0.287983 -0.7267368,0.802131 -0.116844,0.280673 -0.2819028,0.877843 -0.2826518,1.022616 -2.727e-4,0.05013 -0.00982,0.126106 -0.021278,0.168825 -0.023311,0.087 -0.089605,0.09235 -0.4960492,0.04003 z M 6.1738375,9.7624091 C 6.3200241,9.6340582 6.5919576,9.4940069 6.7638312,9.4585589 6.8778531,9.4350492 6.8947265,9.4184833 6.9042742,9.3205511 6.9126564,9.2345375 6.8917258,9.1858566 6.8119963,9.1061468 6.7552755,9.049426 6.6847018,9.0030167 6.6551609,9.0030167 c -0.070876,0 -0.4167511,0.3534685 -0.5207393,0.5321768 -0.088315,0.1517763 -0.1444357,0.3308417 -0.1036856,0.3308417 0.013788,0 0.078187,-0.046623 0.1431015,-0.1036261 z M 6.0728302,8.6692785 c 0.2189922,-0.075181 0.3269978,-0.091613 0.5880544,-0.089461 0.2769777,0.00248 0.3243492,-0.0059 0.3538355,-0.060981 C 7.0915383,8.3753034 6.9991462,8.0940502 6.8533267,8.027618 6.6883374,7.9524416 5.9552372,8.4026371 5.8214949,8.6612683 5.7930259,8.7163273 5.7775509,8.761373 5.7871229,8.761373 c 0.00957,0 0.1381367,-0.041464 0.2856822,-0.092094 z M 10.15531,8.1486284 C 10.155137,8.1153974 10.109134,8.0083193 10.053152,7.9106698 9.9514261,7.7333007 9.8038756,7.6152464 9.6341694,7.5754337 9.5330927,7.5517256 9.207692,7.6274427 9.0416065,7.7133323 L 8.9321774,7.7699193 9.0656965,7.88534 c 0.2088394,0.1805285 0.5366307,0.2821459 1.0295255,0.3191662 0.03636,0.00248 0.06028,-0.019542 0.06009,-0.055878 z M 7.253383,7.7038342 C 7.3361034,7.5986755 7.3532198,7.3089113 7.2802654,7.2483813 7.2054461,7.186284 6.8092386,7.1653336 6.4411932,7.2039907 5.8750613,7.2634791 5.843229,7.3035745 6.2759459,7.412101 6.5855594,7.489757 6.7412093,7.5577568 6.9451831,7.704479 7.1004313,7.81615 7.1651126,7.8160111 7.2533632,7.703983 Z M 7.7909611,5.3075287 C 7.5441789,5.1127109 7.1054209,4.8948148 6.5482167,4.69036 5.5450677,4.3222748 5.4367645,4.269626 5.150363,4.0108807 4.9228201,3.8053099 4.7016258,3.4451803 4.8029059,3.4451803 c 0.020434,0 0.1651778,0.08332 0.3216411,0.1851511 0.4458556,0.2901759 0.6174316,0.3631154 1.0711039,0.4553289 0.9963887,0.2025304 1.6629328,0.4507609 2.2483882,0.8373265 l 0.2388216,0.1576983 -0.13526,0.057872 C 8.473203,5.1703988 8.3191303,5.2528563 8.2052125,5.321818 8.0912947,5.3907798 7.9903172,5.4464342 7.9808241,5.4454968 7.9713508,5.4445048 7.8858926,5.382472 7.7909611,5.3075287 Z"
       id="path154" />
  </g>
</svg>
