<?xml version="1.0" encoding="UTF-8" standalone="no"?>
<svg
   xmlns:dc="http://purl.org/dc/elements/1.1/"
   xmlns:cc="http://creativecommons.org/ns#"
   xmlns:rdf="http://www.w3.org/1999/02/22-rdf-syntax-ns#"
   xmlns:svg="http://www.w3.org/2000/svg"
   xmlns="http://www.w3.org/2000/svg"
   width="16.0px"
   height="16.0px"
   viewBox="0 0 16.0 16.0"
   version="1.1"
   id="SVGRoot">
  <defs
     id="defs33" />
  <metadata
     id="metadata36">
    <rdf:RDF>
      <cc:Work
         rdf:about="">
        <dc:format>image/svg+xml</dc:format>
        <dc:type
           rdf:resource="http://purl.org/dc/dcmitype/StillImage" />
        <dc:title></dc:title>
      </cc:Work>
    </rdf:RDF>
  </metadata>
  <g
     id="layer1">
    <path
       style="fill:#000000;stroke-width:0.0325644"
       d="m 6.9149217,12.308335 c -0.053733,-0.008 -0.2515572,-0.05232 -0.4396206,-0.09844 C 5.0596898,11.862687 3.9105612,10.816168 3.420926,9.4282468 3.2439759,8.9266575 3.1705387,8.5187473 3.1751344,8.0629897 3.1877725,6.8110428 3.6087648,5.7814233 4.4544205,4.9343313 5.0704375,4.3172647 5.7208491,3.9584763 6.6218413,3.7386922 c 0.1788145,-0.043607 0.375359,-0.05541 0.9118025,-0.054715 0.6396901,0.00104 0.7055809,0.00663 1.0203237,0.089904 0.4167885,0.1102602 0.8246047,0.2768125 1.1484136,0.4690225 0.3130819,0.1858333 0.6317939,0.4233318 0.6317939,0.4707928 0,0.020054 -0.112684,0.1384298 -0.250409,0.263083 L 9.8333527,5.20342 9.6278678,5.0584779 C 9.2257127,4.7748136 8.8531737,4.6028613 8.3725575,4.4790751 8.052984,4.3967651 7.3939502,4.3623757 7.0451784,4.4098106 5.6299692,4.6022817 4.4604524,5.6086824 4.0486777,6.9883689 3.9307197,7.3836147 3.8798014,7.9772277 3.9276593,8.3992644 c 0.066381,0.5853302 0.2875707,1.173308 0.6250204,1.6614446 0.1965758,0.284359 0.5977282,0.689062 0.8827974,0.890615 0.3008616,0.212719 0.8207293,0.454499 1.1916649,0.554226 0.2887823,0.07764 0.3764975,0.08612 0.8902184,0.08612 0.5157054,0 0.6008355,-0.0083 0.8955192,-0.0874 0.6009351,-0.161305 1.2320081,-0.522751 1.6600764,-0.950819 0.428063,-0.428064 0.789515,-1.0591369 0.950814,-1.6600716 0.0791,-0.2946888 0.08741,-0.3798137 0.08741,-0.8955191 0,-0.5237009 -0.0074,-0.5962607 -0.09067,-0.895519 -0.04988,-0.1791017 -0.09281,-0.3535398 -0.09542,-0.3876368 -0.0037,-0.045226 0.07367,-0.1097067 0.284704,-0.2380886 0.159199,-0.096849 0.300595,-0.1642023 0.314209,-0.1496736 0.03625,0.038698 0.186789,0.5117155 0.246764,0.775399 0.03081,0.1355836 0.05851,0.452786 0.06829,0.7828304 0.0142,0.4785951 0.0069,0.6026111 -0.0526,0.9021202 -0.344584,1.7329811 -1.566701,3.0082291 -3.3053225,3.4490261 -0.2082479,0.0528 -0.3902166,0.06892 -0.8660805,0.07672 -0.3313447,0.0055 -0.6464008,0.0032 -0.7001339,-0.0047 z M 7.0851923,10.538876 C 6.5181926,10.43539 6.036699,10.171094 5.6372753,9.7441124 5.3792581,9.4682868 5.1956912,9.1564633 5.0668915,8.7751926 4.9709615,8.4912253 4.9637233,8.4384009 4.9626423,8.0141448 4.9615977,7.659738 4.9752282,7.5111193 5.0233211,7.3465776 5.1632445,6.8676169 5.3849923,6.4897408 5.7183789,6.16213 6.0744516,5.8122249 6.4602659,5.6013241 6.9522983,5.4876275 7.2041739,5.429424 7.3213904,5.4200658 7.6235055,5.4340304 c 0.4428844,0.020472 0.6649768,0.076743 1.0498927,0.2659761 0.2617198,0.1286744 0.6772183,0.444023 0.6350006,0.4819532 -0.00893,0.00804 -0.1446867,0.1106362 -0.3016245,0.227978 L 8.7214285,6.6232823 8.5020256,6.4790661 C 7.786423,6.0086806 6.8739625,6.1028141 6.2600292,6.7103709 5.8856363,7.0808731 5.71136,7.4928357 5.7153761,7.9978613 5.7195552,8.512632 5.8856572,8.9129122 6.2441218,9.2713767 6.8009326,9.8281872 7.626054,9.9650404 8.3198427,9.6156524 9.0786032,9.2335457 9.484581,8.3722959 9.2792791,7.5802793 9.2415729,7.4347837 9.2107123,7.302297 9.2107123,7.2858674 c 0,-0.049769 0.5896278,-0.4373644 0.6191971,-0.4070432 0.05438,0.055764 0.1603639,0.3700687 0.2139096,0.6343318 0.106145,0.5238419 0.02058,1.1621794 -0.2191058,1.6344136 -0.3239028,0.6381862 -0.912471,1.1226244 -1.6148401,1.3291334 -0.2499382,0.07349 -0.8737365,0.107974 -1.1246774,0.06217 z M 7.1754351,8.7496133 C 6.8784693,8.6107031 6.6949025,8.3251065 6.6902859,7.9948063 6.6831834,7.48683 7.2072447,7.063963 7.6924618,7.1861407 c 0.082801,0.020837 0.1505458,0.049455 0.1505458,0.063525 0,0.0141 -0.098917,0.099006 -0.2198103,0.1887057 -0.3439777,0.255218 -0.3826338,0.3069926 -0.3826338,0.5125301 0,0.2332474 0.093742,0.3362851 0.3135103,0.3445991 0.1569693,0.00596 0.1719993,-0.00156 0.6064339,-0.3078753 0.094029,-0.066267 0.1719732,-0.1093933 0.1732057,-0.095831 0.00104,0.013578 0.00773,0.066606 0.014466,0.1178796 0.0188,0.143699 -0.1093049,0.4458872 -0.2416871,0.5700181 C 8.0421793,8.639995 7.9309473,8.7166079 7.8593014,8.7499371 7.683965,8.8315111 7.3502075,8.8313541 7.1754508,8.7496133 Z M 7.4458816,8.0132047 C 7.4145995,7.9445199 7.4187775,7.917306 7.4710013,7.8492374 7.5054691,7.8043249 8.0465344,7.3857507 8.6733982,6.9190156 9.9417536,5.9746568 9.8558721,6.0667327 9.8601179,5.6467484 l 0.00205,-0.1855827 0.9299191,-0.8356444 c 0.511454,-0.4596013 0.935575,-0.8299886 0.942484,-0.8230742 0.0069,0.0069 -0.0037,0.2557768 -0.02319,0.5530298 -0.01969,0.2972582 -0.02799,0.5607171 -0.01849,0.585466 0.01076,0.027992 0.227884,0.093731 0.574953,0.1740308 0.306727,0.070961 0.55748,0.1368422 0.557224,0.146394 -3.86e-4,0.014675 -0.66551,0.4117799 -1.870074,1.1165513 l -0.264603,0.1548124 -0.281915,-0.0836 -0.28192,-0.0836 -0.8991175,0.6289215 C 7.518619,8.1897788 7.5249172,8.1861753 7.4461062,8.0132047 Z"
       id="path183" />
  </g>
</svg>
