<?xml version="1.0" encoding="UTF-8" standalone="no"?>
<svg
   xmlns="http://www.w3.org/2000/svg"
   width="1em"
   height="1em"
   viewBox="0 0 16.0 16.0">
  <g
     id="layer1">
    <path
       d="m 3.4273871,12.970108 c -0.099189,-0.06102 -0.1082091,-0.08356 -0.2809032,-0.70167 -0.058206,-0.208332 -0.065812,-0.254609 -0.045656,-0.277756 0.013303,-0.01527 0.1526087,-0.211095 0.3095697,-0.435152 0.1569615,-0.224056 0.3147677,-0.449039 0.3506807,-0.49996 0.2338678,-0.331608 0.6401875,-0.9171 0.6595336,-0.950364 0.012732,-0.02189 0.023148,-0.04824 0.023148,-0.05857 0,-0.04699 -0.041473,-0.0057 -0.1626214,0.161774 -0.071817,0.0993 -0.1734435,0.23887 -0.225838,0.31016 -0.052395,0.07129 -0.161172,0.219306 -0.2417281,0.328922 -0.3438559,0.4679 -0.5874968,0.802612 -0.6551138,0.899993 -0.06987,0.100625 -0.098891,0.131205 -0.1250835,0.131807 -0.011888,2.68e-4 -0.072626,-0.244867 -0.098571,-0.397835 -0.00692,-0.04073 -0.036433,-0.132396 -0.065606,-0.203687 -0.058003,-0.141735 -0.2459647,-0.847538 -0.2366423,-0.888598 0.00453,-0.01995 0.3212322,-0.259276 0.4779744,-0.361209 0.024495,-0.01593 0.6282206,-0.4422095 0.6456731,-0.4558984 0.00376,-0.00295 -0.00669,-0.018892 -0.023239,-0.035433 -0.02775,-0.027752 -0.042569,-0.020937 -0.1920044,0.088281 C 3.4518969,9.6900116 3.3081993,9.7923352 3.221632,9.8523047 3.135065,9.9122727 3.0559044,9.9680198 3.0457198,9.9761854 2.9575708,10.046861 2.6089587,10.28711 2.594553,10.28711 2.584439,10.28711 2.562747,10.239201 2.54635,10.180636 2.5299536,10.122078 2.4965432,10.01167 2.4721047,9.9352863 2.4476658,9.8589034 2.3932843,9.6630856 2.3512569,9.5001353 2.3092299,9.3371851 2.2710738,9.1905838 2.2664657,9.1743553 2.2595291,9.1499279 2.3493104,9.1214698 2.7879941,9.0090448 3.1069687,8.9272986 3.3216775,8.8633993 3.3273891,8.8485157 3.3326075,8.834916 3.3275628,8.8125847 3.316211,8.7988885 3.2992007,8.778394 3.2002184,8.7983307 2.756835,8.9115216 2.4605451,8.9871652 2.2162253,9.0463901 2.2139027,9.0431319 2.2042816,9.029637 2.0838439,8.6071389 2.0006291,8.2949623 1.8909444,7.8834851 1.8766468,7.9067125 2.2156819,7.9455955 c 0.2813397,0.032265 0.3465567,0.039453 0.5059887,0.055762 0.066199,0.00676 0.2078542,0.022766 0.3147905,0.035545 0.2036216,0.024332 0.2407219,0.02146 0.2407219,-0.018646 0,-0.025688 -0.043237,-0.038143 -0.1944292,-0.056002 C 3.0318318,7.9562445 2.9693368,7.9477865 2.9438757,7.9434685 2.9047237,7.9368285 2.3489017,7.8643145 2.0735722,7.829928 2.0277422,7.824208 1.9777472,7.817077 1.9624699,7.814089 1.9471929,7.811099 1.9167189,7.808019 1.8947479,7.807249 1.8603643,7.806018 1.8457103,7.7768221 1.7894884,7.597506 1.7535649,7.4829313 1.6909903,7.2641523 1.6504336,7.1113304 1.6098766,6.9585081 1.5597151,6.783522 1.5389642,6.7224719 1.5182128,6.6614218 1.4793717,6.5240678 1.4526503,6.4172416 1.4259287,6.3104149 1.3959896,6.2180196 1.3861183,6.2119187 c -0.010552,-0.00653 -0.00711,-0.020084 0.00835,-0.032915 0.021012,-0.01744 0.103983,0.01586 0.4128813,0.165698 0.212622,0.1031369 0.4532464,0.2189472 0.5347218,0.2573555 0.081474,0.038408 0.2814596,0.1342898 0.4444097,0.2130695 0.6660365,0.3220016 0.7895313,0.3796335 0.8134873,0.3796335 0.021812,0 0.057225,-0.053265 0.043364,-0.065221 -0.00279,-0.00241 -0.050895,-0.02527 -0.1069094,-0.050818 C 3.480407,7.0531748 3.2179276,6.9260994 2.9531338,6.7963324 2.6883394,6.6665648 2.2592062,6.4570186 1.9995039,6.3306731 1.7398021,6.2043278 1.4808718,6.0783315 1.4241031,6.0506811 L 1.3208872,6.0004081 1.2779013,5.8337545 C 1.2542586,5.7420945 1.2276342,5.652766 1.2187356,5.6352461 1.1894881,5.5776631 1.0366161,4.9742207 1.0366161,4.916353 c 0,-0.1139135 0.097646,-0.221399 0.2011335,-0.221399 0.041395,0 0.5762921,-0.130095 0.9436505,-0.2295093 0.1356883,-0.03672 0.259701,-0.066763 0.2755842,-0.066763 0.015884,0 0.045069,0.018749 0.064857,0.041664 0.019788,0.022914 0.058521,0.066661 0.086073,0.097214 0.027552,0.030553 0.062336,0.073109 0.077297,0.094569 0.014961,0.021459 0.073031,0.09139 0.1290448,0.1554012 0.1169269,0.133619 0.1563275,0.1793036 0.2001811,0.2321065 0.094963,0.1143433 0.2184656,0.2612931 0.2347629,0.2793335 0.010299,0.011397 0.055752,0.064497 0.1010077,0.1179944 0.045255,0.053497 0.091086,0.1066652 0.1018439,0.1181511 0.010758,0.011487 0.081994,0.095878 0.1583015,0.1875371 0.2058586,0.2472758 0.2100155,0.2521729 0.2501183,0.2946571 0.020369,0.021578 0.070228,0.080766 0.110801,0.1315275 0.040572,0.050762 0.092855,0.1131253 0.1161832,0.1385863 0.023328,0.02546 0.07346,0.085539 0.1114042,0.1335058 0.068932,0.087143 0.1025347,0.1057848 0.1250416,0.069368 0.012994,-0.021032 -0.016251,-0.069964 -0.093595,-0.156582 C 4.2030268,6.3031624 4.1461496,6.2374949 4.1039148,6.1877886 4.0616798,6.1380816 4.0187914,6.088029 4.0086071,6.0765595 3.998422,6.0650895 3.9485195,6.0057672 3.8977118,5.94473 3.8469037,5.8836934 3.7969077,5.8244468 3.7866089,5.8130709 3.7602879,5.7839963 3.7137618,5.7285628 3.5553039,5.537481 3.4792935,5.4458214 3.408066,5.3614298 3.3970207,5.3499439 3.3859766,5.3384578 3.3399112,5.2852898 3.2946555,5.2317931 3.2493997,5.1782956 3.2040399,5.1251413 3.1938556,5.1136719 3.1836709,5.1022038 3.1336748,5.0429508 3.0827531,4.9820011 3.031831,4.921052 2.9735022,4.851256 2.9531338,4.8268988 2.9327642,4.8025416 2.9077665,4.7733059 2.8975824,4.7619298 2.8873976,4.7505554 2.8169229,4.6662525 2.7409712,4.5745931 2.6650199,4.4829338 2.5960784,4.4031597 2.5877679,4.3973179 2.5395869,4.363447 2.7138047,4.3080761 3.4624673,4.1193158 3.91561,4.005065 4.2891404,3.9045255 4.2925355,3.8958948 c 0.00339,-0.00863 0.017978,-0.015692 0.032406,-0.015692 0.020598,0 0.026233,0.034199 0.026233,0.1592151 0,0.159736 0.047971,1.9286338 0.061716,2.2757803 l 0.00733,0.1851712 -0.105956,0.069958 C 4.0274478,6.7597008 3.6977543,7.1273133 3.5383524,7.4354807 3.2589155,7.9757079 3.2472299,8.5515019 3.5045318,9.1020173 c 0.022023,0.047121 0.1425355,0.2333693 0.1965574,0.3037746 0.1316481,0.1715738 0.4396273,0.420284 0.6566111,0.5302506 0.049418,0.025046 0.093582,0.054717 0.098142,0.065938 0.00455,0.01122 0.028704,0.0165 0.053655,0.01173 l 0.045365,-0.0087 0.00138,0.256768 c 7.576e-4,0.141222 0.00744,0.465658 0.01485,0.720968 0.012047,0.414728 0.017397,0.470901 0.050209,0.527081 0.048808,0.08357 0.1316914,0.129193 0.2584883,0.142279 0.094032,0.0097 0.103367,0.01457 0.095344,0.04966 -0.00489,0.02139 -0.027336,0.122231 -0.049882,0.224074 -0.022546,0.101847 -0.056805,0.256 -0.076135,0.342567 -0.01933,0.08657 -0.048446,0.21989 -0.064704,0.296274 l -0.029559,0.138877 -0.2157238,0.06144 c -0.5181799,0.147582 -0.917621,0.244465 -0.9885844,0.239776 -0.041134,-0.0026 -0.096551,-0.01832 -0.1231498,-0.03469 z m 7.8655219,-0.196098 -0.455838,-0.155616 -0.0115,-0.114798 c -0.0063,-0.06313 -0.02438,-0.310616 -0.04011,-0.549948 -0.01573,-0.239334 -0.04108,-0.614305 -0.05633,-0.833269 -0.01525,-0.218964 -0.03286,-0.528663 -0.03913,-0.68822 l -0.01141,-0.290102 0.09067,-0.01118 C 11.307282,10.064497 11.840107,9.7777496 12.143773,9.3911558 12.650046,8.74663 12.741791,7.9159757 12.384924,7.2078115 12.088238,6.6190702 11.556053,6.2274542 10.889228,6.107181 l -0.0818,-0.014753 0.0044,-0.2311802 c 0.01077,-0.5613342 0.07033,-2.3520521 0.0785,-2.3602247 0.01264,-0.012638 1.019853,0.3233035 1.048054,0.3495625 0.01815,0.016902 -0.055,0.2554445 -0.345661,1.1271502 -0.202777,0.608141 -0.360984,1.1104703 -0.351572,1.1162877 0.02129,0.013162 -0.02486,0.143773 0.396232,-1.121312 0.204356,-0.613949 0.370752,-1.0853701 0.38408,-1.0881452 0.04346,-0.00904 1.612755,0.524652 1.63189,0.5549883 0.01465,0.023224 -0.0154,0.069313 -0.144157,0.221069 -0.08946,0.1054499 -0.293025,0.3451276 -0.452357,0.5326169 -0.159332,0.1874897 -0.343856,0.4049178 -0.410055,0.4831743 -0.0662,0.078257 -0.207855,0.2448224 -0.31479,0.3701457 -0.299069,0.3504943 -0.376087,0.4450394 -0.368273,0.4520838 0.004,0.00357 0.377994,-0.4264195 0.8312,-0.955521 0.453205,-0.5291024 0.844841,-0.9844584 0.870302,-1.0119033 0.09944,-0.1071875 0.06825,-0.1112518 0.558118,0.072746 0.248084,0.093184 0.47718,0.176901 0.5091,0.1860374 0.09441,0.027023 0.154909,0.085243 0.154909,0.1490846 0,0.062413 -0.107197,0.3668387 -0.174849,0.4965501 -0.0239,0.045831 -0.04957,0.1207184 -0.05704,0.1664188 -0.0074,0.045701 -0.04896,0.1829346 -0.09221,0.3049642 l -0.07863,0.2218715 -0.39581,0.2055595 c -0.217697,0.1130571 -0.668619,0.3460224 -1.002049,0.5177 -0.33343,0.171678 -0.602697,0.3156813 -0.598371,0.3200074 0.0043,0.00432 0.127144,-0.052363 0.27293,-0.1259776 0.396282,-0.2001022 1.377636,-0.7000796 1.513897,-0.771296 0.105505,-0.055141 0.122469,-0.059169 0.146791,-0.034848 0.02252,0.022517 0.02346,0.036365 0.0052,0.076434 -0.01226,0.026915 -0.139828,0.3792767 -0.283479,0.7830302 -0.143652,0.4037536 -0.268463,0.7433354 -0.277357,0.7546266 -0.01748,0.022192 -0.186874,0.047457 -0.60853,0.090766 -0.404733,0.041571 -0.574028,0.066653 -0.574028,0.085046 0,0.021654 0.136439,0.020886 0.333306,-0.00187 0.393973,-0.045556 0.742276,-0.075307 0.759196,-0.064849 0.0102,0.00629 0.01853,0.025537 0.01853,0.042754 0,0.062774 -0.355384,1.0960489 -0.376974,1.0960489 -0.01213,0 -0.207707,-0.062018 -0.434599,-0.137816 -0.337906,-0.1128869 -0.41444,-0.1328398 -0.423088,-0.1103043 -0.0058,0.015131 -0.0074,0.029956 -0.0037,0.032944 0.01427,0.011206 0.755467,0.2707291 0.773196,0.2707291 0.01018,0 0.02378,0.00853 0.03022,0.018948 0.0096,0.015485 -0.245893,0.7737757 -0.335162,0.9948586 -0.0431,0.106744 -0.02063,0.1211 -0.596883,-0.3812432 C 12.2719,9.6541325 12.140547,9.5465489 12.136027,9.5510685 c -0.0045,0.00452 0.131468,0.1361074 0.302197,0.2924159 0.417074,0.3818506 0.504611,0.4674316 0.504736,0.4934706 4.4e-5,0.01213 -0.115322,0.331922 -0.256401,0.710643 -0.255802,0.686689 -0.2908,0.757687 -0.344945,0.699754 -0.01294,-0.01384 -0.146481,-0.266808 -0.296774,-0.562155 -0.436957,-0.85869 -0.56757,-1.109789 -0.587553,-1.129541 -0.03031,-0.02997 -0.02619,-0.02139 0.443418,0.917976 l 0.448266,0.896698 -0.164772,0.4907 c -0.150631,0.448594 -0.169869,0.494279 -0.224169,0.532367 -0.04077,0.02859 -0.08323,0.04081 -0.135356,0.03895 -0.04178,-0.0014 -0.281086,-0.07275 -0.531795,-0.158329 z M 4.8701036,12.63415 c 2.681e-4,-0.01273 0.00928,-0.06064 0.020063,-0.106473 0.010784,-0.04584 0.023433,-0.09999 0.028109,-0.120362 0.00468,-0.02037 0.021229,-0.107522 0.036789,-0.193674 0.015561,-0.08615 0.031518,-0.161858 0.035458,-0.168234 0.00394,-0.0064 0.020464,-0.07754 0.036716,-0.158151 0.016249,-0.08061 0.033834,-0.161137 0.039072,-0.17896 0.00886,-0.03016 0.061075,-0.0324 0.7566964,-0.0324 h 0.7471735 l 0.039088,0.171578 c 0.021496,0.09437 0.050329,0.214195 0.064069,0.266282 l 0.024985,0.09471 -0.8838888,0.22442 c -0.4861394,0.123431 -0.89759,0.224419 -0.9143352,0.224419 -0.016743,0 -0.03024,-0.01042 -0.029992,-0.02314 z m 5.8293394,-0.105301 c -0.0034,-0.0096 -0.172826,-0.06758 -0.376514,-0.128983 -0.203688,-0.0614 -0.4950195,-0.15359 -0.6474042,-0.204862 -0.1523835,-0.05127 -0.2947326,-0.09322 -0.3163327,-0.09322 -0.021599,0 -0.044026,-0.0048 -0.049832,-0.01056 -0.00585,-0.0058 0.02062,-0.10372 0.058731,-0.217576 l 0.069292,-0.207011 0.4242579,-0.0048 0.424258,-0.0048 0.115351,-0.05483 c 0.201283,-0.09567 0.242214,-0.173047 0.244324,-0.461821 7.93e-4,-0.106088 0.0054,-0.188929 0.01021,-0.184092 0.01498,0.01498 0.02548,0.126052 0.03738,0.395495 0.0063,0.142581 0.01471,0.309235 0.01868,0.370341 0.004,0.0611 0.01214,0.198596 0.01816,0.305532 0.006,0.106936 0.01554,0.26734 0.0212,0.356454 0.0087,0.136586 0.0059,0.162025 -0.01764,0.162025 -0.01535,0 -0.03069,-0.0078 -0.03409,-0.01735 z M 6.7971716,12.106414 c -0.010013,-0.0382 -0.038558,-0.150487 -0.06344,-0.249543 l -0.04524,-0.180101 0.6413841,0.0053 c 0.5753367,0.0048 0.6537784,0.0091 0.7617452,0.0417 0.1506002,0.04558 0.1615329,0.08593 0.027777,0.102508 -0.050922,0.0063 -0.138415,0.02488 -0.1944292,0.04127 -0.056014,0.0164 -0.2976622,0.08021 -0.5369952,0.141819 -0.2393331,0.0616 -0.4625152,0.124278 -0.4959601,0.139265 -0.033445,0.01498 -0.064372,0.02726 -0.068725,0.02726 -0.00435,0 -0.016106,-0.03124 -0.026117,-0.06944 z m 1.8036874,-0.24338 -0.5369775,-0.180963 0.2684801,-0.01227 c 0.147664,-0.0067 0.4336124,-0.01231 0.6354398,-0.01234 0.3537075,-8.7e-5 0.3665511,0.0012 0.3556535,0.03556 -0.087754,0.276483 -0.1170187,0.344202 -0.1501723,0.347486 -0.019495,0.0019 -0.2770858,-0.07792 -0.5724236,-0.177451 z M 4.8382235,11.507771 C 4.7205299,11.449513 4.7074041,11.39454 4.6899421,10.886717 l -0.01472,-0.42809 0.7638298,-0.7829226 c 0.4201058,-0.4306065 0.7638293,-0.7907006 0.7638293,-0.800208 0,-0.00951 -0.00792,-0.014507 -0.017617,-0.011113 -0.00969,0.00339 -0.3464395,0.3290641 -0.7483368,0.7237089 C 5.03503,9.9827381 4.6984928,10.30563 4.6890665,10.30563 c -0.016408,0 -0.041515,-0.7998208 -0.041588,-1.3248448 L 4.6474404,8.7391909 5.1935713,8.4900835 C 5.493943,8.3530741 5.7396295,8.2368093 5.7395415,8.2317174 5.7383869,8.1660363 5.6905846,8.1821029 5.1920572,8.4156651 4.9080273,8.5487348 4.666457,8.65761 4.6552348,8.65761 c -0.019789,0 -0.044828,-0.5705499 -0.044828,-1.0214317 V 7.4539995 h 0.473473 0.4734737 l -0.00592,-0.041664 -0.00592,-0.041664 -0.4738749,-0.00493 -0.4738752,-0.00493 -0.012155,-0.40244 c -0.02009,-0.6651183 -0.017954,-0.7391964 0.021603,-0.7495405 0.019049,-0.00498 0.2559107,0.090206 0.5416247,0.2176588 0.3404781,0.1518835 0.5121284,0.2196719 0.5209918,0.2057514 0.00727,-0.011415 0.0031,-0.029973 -0.00926,-0.041236 C 5.6482167,6.5797332 5.3952658,6.4557714 5.0984641,6.3155217 L 4.5588246,6.0605223 4.5474491,5.6416075 C 4.5411932,5.4112043 4.529882,5.0326799 4.5223165,4.8004421 c -0.00873,-0.2679893 -0.00717,-0.428809 0.00426,-0.440203 0.011649,-0.011613 0.2943288,0.2583056 0.8004411,0.7643125 0.623238,0.6231081 0.7871071,0.7775863 0.8054256,0.7592677 0.024715,-0.024714 0.00733,-0.043053 -1.1003054,-1.1610878 L 4.500138,4.1857344 4.4885244,3.6286571 C 4.4772394,3.0873209 4.4780115,3.0694254 4.515807,2.9953394 c 0.02914,-0.057122 0.054006,-0.079947 0.099154,-0.091021 0.033142,-0.00813 0.3094158,-0.010614 0.6139398,-0.00552 l 0.55368,0.00926 0.5087536,1.2452733 c 0.3256278,0.7970377 0.5179122,1.2452735 0.534198,1.2452735 0.013995,0 0.025291,-0.00624 0.025101,-0.013886 C 6.8504584,5.377079 6.625924,4.8208719 6.3517004,4.1487018 5.9041416,3.0516547 5.8562121,2.9242056 5.8833982,2.9034283 5.9066076,2.8856891 6.1118298,2.8802821 6.7619297,2.8802821 H 7.610176 v 1.175834 c 0,1.1690206 2.175e-4,1.1758344 0.037565,1.1758344 0.037401,0 0.037541,-0.00512 0.032406,-1.1758392 l -0.00516,-1.1758393 0.8645796,4.7e-6 c 0.4755202,2.6e-6 0.8686033,0.00652 0.8735209,0.014471 0.00494,0.00795 -0.2108527,0.5584579 -0.4794872,1.2233369 -0.268635,0.6648795 -0.4935448,1.2249923 -0.499798,1.2446954 -0.00764,0.024154 -0.00261,0.035826 0.015424,0.035826 0.0167,0 0.059126,-0.078441 0.1126639,-0.2083173 C 8.6091152,5.0757144 8.8371874,4.5195078 9.0687099,3.9542739 9.3002312,3.38904 9.4986672,2.9113776 9.5096772,2.8928019 c 0.019119,-0.032258 0.044898,-0.032813 0.5740298,-0.012388 0.346111,0.013362 0.571382,0.029653 0.600302,0.043416 l 0.04629,0.022029 V 3.5776056 4.2093531 L 9.9298582,5.0303079 C 9.3679819,5.6065826 9.13539,5.8569322 9.1494597,5.870285 9.1635086,5.8836193 9.3975251,5.6581585 9.9322203,5.1161281 10.415662,4.626053 10.701411,4.3493985 10.712619,4.3605635 c 0.01657,0.016517 0.01288,0.2509987 -0.02154,1.3644335 l -0.01094,0.3541681 -0.511912,0.2342752 C 9.8866705,6.4422922 9.644681,6.5549704 9.6304666,6.5638379 c -0.036646,0.02286 -0.01066,0.080686 0.030381,0.067613 0.017878,-0.00569 0.2449369,-0.1054904 0.5045884,-0.2217717 0.25965,-0.1162815 0.478383,-0.207532 0.486073,-0.2027794 0.0077,0.00476 0.01398,0.2704834 0.01398,0.5905132 v 0.5818721 l -0.458297,0.00495 c -0.4501875,0.00486 -0.4583967,0.00564 -0.4638698,0.043983 -0.00548,0.0383 0.00179,0.039279 0.3893218,0.052321 0.217192,0.0073 0.417602,0.0076 0.445354,6.134e-4 l 0.05046,-0.012664 v 0.2212439 c 0,0.4368348 -0.02329,0.8916641 -0.0461,0.9004197 -0.01199,0.0046 -0.240762,-0.083242 -0.508376,-0.195212 C 9.7275814,8.2500054 9.5816891,8.1970809 9.567546,8.2112237 c -0.010921,0.010924 -0.016251,0.023012 -0.011838,0.026857 0.0044,0.00384 0.239255,0.1097065 0.521872,0.2352489 l 0.51385,0.2282591 -3.58e-4,0.065963 c -1.73e-4,0.036279 -0.01251,0.3732064 -0.02739,0.7487266 -0.0185,0.4669644 -0.03406,0.6912137 -0.04923,0.7094947 -0.01843,0.02222 -0.09892,-0.04922 -0.477204,-0.4235941 C 9.1777553,8.9515603 9.0964485,8.8745782 9.0729015,8.8891313 c -0.015065,0.00931 0.2206552,0.257398 0.7022593,0.7391174 l 0.7249312,0.7251063 -4.4e-5,0.524916 c -4.3e-5,0.477147 -0.0031,0.528229 -0.033,0.561317 -0.07604,0.08402 -0.106065,0.08816 -0.6398761,0.08816 H 9.3203296 L 8.8679947,10.417024 C 8.5820192,9.7148028 8.4063518,9.3061892 8.3903524,9.305999 c -0.015298,-1.738e-4 -0.02168,0.012512 -0.016143,0.032103 0.00503,0.017823 0.1931355,0.4969686 0.4179905,1.064768 0.2248549,0.5678 0.4112712,1.044588 0.4142599,1.059528 0.00468,0.02336 -0.093352,0.0286 -0.6982165,0.03742 -0.3870069,0.0057 -0.729373,0.01435 -0.7608145,0.01937 l -0.057164,0.0091 -0.012248,-0.736294 c -0.00673,-0.404976 -0.01226,-0.8717299 -0.012271,-1.0372262 -1.87e-5,-0.2551128 -0.00425,-0.300902 -0.027802,-0.300902 -0.023794,0 -0.02778,0.05505 -0.027802,0.3842292 -1.55e-5,0.211326 -0.00554,0.677956 -0.012259,1.036955 L 7.585651,11.527748 H 6.8027686 c -0.4305856,0 -0.7867218,-0.0063 -0.791415,-0.01388 -0.00469,-0.0076 0.1947417,-0.501353 0.4431871,-1.097139 0.2484459,-0.5957874 0.4517779,-1.0886075 0.4518496,-1.0951561 8.7e-5,-0.00655 -0.011516,-0.016377 -0.025752,-0.021838 -0.019241,-0.00738 -0.1451037,0.2721581 -0.4907021,1.0898691 -0.2556521,0.60489 -0.4648217,1.10712 -0.4648217,1.116066 0,0.01695 -0.4739643,0.04061 -0.8130797,0.04058 -0.1612394,-1.3e-5 -0.2099178,-0.0068 -0.2738213,-0.03849 z M 8.1101393,9.3335775 C 8.8634087,9.1548966 9.463076,8.5520839 9.6404222,7.7952687 9.691517,7.5772207 9.6871675,7.0569248 9.6325825,6.8577841 9.4516427,6.1976565 9.0229842,5.7012733 8.4218245,5.4557384 8.1766081,5.3555829 8.0096816,5.3210586 7.7212802,5.3108498 7.1154595,5.2894047 6.6412203,5.476512 6.2110244,5.9067087 5.8898357,6.2278965 5.7116682,6.5629632 5.6382741,6.983835 5.4453945,8.0898873 6.1751168,9.1445158 7.277168,9.3524406 c 0.189384,0.035732 0.6464506,0.025382 0.8329706,-0.018862 z"
       id="path22" />
  </g>
</svg>
