<?xml version="1.0" encoding="UTF-8" standalone="no"?>
<svg
   xmlns:dc="http://purl.org/dc/elements/1.1/"
   xmlns:cc="http://creativecommons.org/ns#"
   xmlns:rdf="http://www.w3.org/1999/02/22-rdf-syntax-ns#"
   xmlns:svg="http://www.w3.org/2000/svg"
   xmlns="http://www.w3.org/2000/svg"
   width="24.0px"
   height="24.0px"
   viewBox="0 0 24.0 24.0"
   version="1.1"
   id="SVGRoot">
  <defs
     id="defs856" />
  <metadata
     id="metadata859">
    <rdf:RDF>
      <cc:Work
         rdf:about="">
        <dc:format>image/svg+xml</dc:format>
        <dc:type
           rdf:resource="http://purl.org/dc/dcmitype/StillImage" />
        <dc:title></dc:title>
      </cc:Work>
    </rdf:RDF>
  </metadata>
  <g
     id="layer1">
    <path
       style="fill:#000000;stroke-width:0.0304499"
       d="m 11.54101,21.353694 c -0.30327,-0.01678 -0.332228,-0.02407 -0.441522,-0.111077 -0.148688,-0.118369 -0.25399,-0.322295 -0.25399,-0.491883 0,-0.143997 0.0067,-0.147318 0.187186,-0.09251 0.08958,0.0272 0.14577,0.07026 0.197,0.150939 0.03942,0.06208 0.09838,0.12717 0.131017,0.144637 0.03561,0.01906 0.307032,0.03176 0.67879,0.03176 0.687042,0 0.71912,-0.0079 0.798092,-0.19692 0.03207,-0.07675 0.06723,-0.106809 0.144195,-0.12328 0.05598,-0.01197 0.118739,-0.03543 0.13946,-0.05212 0.02072,-0.01669 0.06023,-0.02169 0.08779,-0.01111 0.122483,0.047 -0.03686,0.471714 -0.238356,0.635299 -0.165954,0.13473 -0.542575,0.165359 -1.429665,0.116265 z M 9.0897386,20.545333 C 9.0037573,20.487429 8.8395104,20.371574 8.724746,20.287877 8.6099816,20.204177 8.4634365,20.097401 8.3990892,20.050593 8.1052016,19.836814 7.989534,19.707697 7.9520932,19.551629 c -0.061261,-0.255366 0.0293,-0.606211 0.1564758,-0.606211 0.074274,0 0.1749109,0.189703 0.1897496,0.357682 0.017877,0.202403 0.03021,0.222524 0.2262431,0.369208 0.3832087,0.286738 0.8972362,0.643355 0.9273361,0.643355 0.017553,0 0.090576,-0.0293 0.1622755,-0.06511 0.1220536,-0.06096 0.1377398,-0.06216 0.2460616,-0.01896 0.2154841,0.08595 0.2085941,0.158131 -0.031763,0.332744 -0.105684,0.07677 -0.144272,0.08627 -0.3505803,0.08627 -0.2139538,0 -0.2438734,-0.0081 -0.3881534,-0.105278 z m 2.0754834,0.0081 C 11.031243,20.503285 10.839408,20.431274 10.738924,20.39338 10.63844,20.355487 10.467159,20.293458 10.358301,20.255539 10.249443,20.217621 10.050757,20.145682 9.9167782,20.095675 9.7827985,20.045669 9.645774,19.997414 9.61228,19.988442 9.4368776,19.941453 9.3897681,19.758936 9.5195462,19.629158 c 0.091112,-0.09111 0.1006655,-0.09102 0.3667821,0.0037 0.1172327,0.04174 0.3090657,0.108588 0.4262977,0.148543 0.117232,0.03995 0.329621,0.114064 0.471973,0.164685 0.9645,0.342979 0.974396,0.347873 0.974396,0.481902 0,0.03986 -0.02214,0.106251 -0.04917,0.147531 -0.06712,0.102427 -0.229214,0.09583 -0.544595,-0.02215 z m 1.189719,0.04936 c -0.05913,-0.05913 -0.06306,-0.267014 -0.006,-0.314409 0.04141,-0.03436 0.649221,-0.260426 0.825929,-0.307183 0.05024,-0.0133 0.141736,-0.04601 0.203319,-0.07269 0.06158,-0.02669 0.205456,-0.07721 0.319723,-0.112287 0.114265,-0.03507 0.248862,-0.0822 0.299105,-0.10474 0.179005,-0.0803 0.410768,-0.141233 0.468044,-0.123054 0.03201,0.01016 0.07883,0.0611 0.104071,0.113203 0.06158,0.127136 0.01706,0.26142 -0.09557,0.288274 -0.04438,0.01057 -0.0944,0.02943 -0.111142,0.04187 -0.01674,0.01244 -0.13322,0.05772 -0.258824,0.100588 -0.125606,0.04287 -0.385953,0.134685 -0.578549,0.204019 -0.192594,0.06933 -0.404982,0.143723 -0.471973,0.16531 -0.06699,0.02158 -0.194244,0.06843 -0.282788,0.104098 -0.190626,0.07679 -0.349107,0.08328 -0.415383,0.017 z m 1.869656,-0.0025 c -0.121507,-0.08126 -0.242762,-0.201769 -0.242762,-0.241279 0,-0.02014 0.06408,-0.06675 0.142404,-0.103562 l 0.142404,-0.06694 0.144781,0.06781 0.144782,0.06781 0.26147,-0.179315 c 0.14381,-0.09862 0.34686,-0.237928 0.451224,-0.30957 0.104364,-0.07164 0.247987,-0.184815 0.319165,-0.251499 0.119627,-0.112078 0.129411,-0.133038 0.129411,-0.277225 0,-0.174934 0.09208,-0.36109 0.178618,-0.36109 0.116513,0 0.20849,0.30642 0.169673,0.565264 -0.0253,0.168694 -0.13752,0.307667 -0.402789,0.498802 -0.09563,0.0689 -0.261583,0.189963 -0.368783,0.269017 -0.481539,0.355112 -0.513929,0.37084 -0.7651,0.371503 -0.163343,3.97e-4 -0.250847,-0.01386 -0.304498,-0.04974 z m -2.74168,-0.569349 c -0.04299,-0.02243 -0.118349,-0.05022 -0.167474,-0.06176 -0.138897,-0.03262 -0.256795,-0.08456 -0.256795,-0.113141 0,-0.01429 0.04453,-0.05031 0.09896,-0.08004 0.08747,-0.04779 0.189113,-0.05407 0.875432,-0.05407 0.701528,0 0.786582,0.0055 0.881232,0.05707 0.09995,0.05444 0.102074,0.05903 0.04626,0.09984 -0.03217,0.02352 -0.113575,0.05781 -0.180885,0.07617 -0.06732,0.01837 -0.165562,0.05222 -0.218337,0.07525 -0.1326,0.05783 -0.96787,0.05837 -1.078396,6.41e-4 z M 10.175602,19.579999 C 9.6806178,19.377127 9.7386065,19.412362 8.9946005,18.862389 8.8940218,18.78804 8.7319028,18.503177 8.762236,18.454095 c 0.024618,-0.03983 0.1850412,-0.03154 0.2953122,0.01527 0.1643907,0.06979 1.0826178,0.763131 1.1785608,0.889924 0.09257,0.12234 0.121167,0.25762 0.05368,0.253967 -0.02093,-0.0012 -0.07232,-0.0161 -0.114186,-0.03326 z m 3.501733,-0.02099 c 0,-0.135113 0.180773,-0.317979 0.671564,-0.67934 0.275416,-0.202784 0.544849,-0.387416 0.598741,-0.410292 0.111799,-0.04746 0.270796,-0.05494 0.29614,-0.01393 0.0094,0.01522 -0.02062,0.100115 -0.06671,0.188671 -0.07198,0.138282 -0.141842,0.203532 -0.494884,0.462201 -0.412322,0.302103 -0.537176,0.374883 -0.791696,0.461496 -0.178425,0.06072 -0.21315,0.05929 -0.21315,-0.0088 z M 8.5306559,19.32526 C 8.5094468,19.299705 8.4344149,19.166106 8.3639165,19.028373 8.2934183,18.89064 8.1819146,18.682032 8.1161314,18.564801 8.0503482,18.447569 7.9234163,18.207777 7.83406,18.031928 7.744704,17.85608 7.6391663,17.657395 7.59953,17.590405 7.559895,17.523415 7.52724,17.431458 7.526964,17.386055 c -7.635e-4,-0.119873 0.1103809,-0.21168 0.2426734,-0.200516 0.087405,0.0074 0.117976,0.0293 0.1678356,0.120356 0.03353,0.06124 0.1260492,0.228961 0.2056006,0.372722 0.07955,0.14376 0.1446361,0.267905 0.1446361,0.275876 0,0.0079 0.1008032,0.19651 0.2240064,0.418975 0.4029686,0.727628 0.436586,0.82486 0.3240909,0.937355 -0.073056,0.07305 -0.2495708,0.08141 -0.3051515,0.01444 z m 6.6328451,-0.0069 c -0.09048,-0.105349 -0.08611,-0.159219 0.03218,-0.397116 0.06419,-0.129095 0.148061,-0.289528 0.186372,-0.356518 0.08752,-0.153042 0.223668,-0.405193 0.41925,-0.776472 0.283752,-0.538658 0.321689,-0.592838 0.422114,-0.602867 0.122501,-0.01223 0.255467,0.09298 0.254799,0.201616 -2.59e-4,0.04484 -0.03303,0.136337 -0.07277,0.203327 -0.03975,0.06699 -0.149231,0.272526 -0.243293,0.456748 -0.09406,0.184222 -0.213572,0.410312 -0.265578,0.502423 -0.052,0.09211 -0.149251,0.270241 -0.216101,0.395848 -0.208121,0.391047 -0.237673,0.425855 -0.361745,0.42609 -0.06673,1.22e-4 -0.127336,-0.0206 -0.155233,-0.05308 z M 7.2535923,18.026639 c -0.1568255,-0.045 -0.3291549,-0.196134 -0.4135588,-0.362698 -0.067567,-0.133334 -0.074815,-0.184451 -0.074815,-0.52748 0,-0.208911 -0.013091,-0.387928 -0.029089,-0.397815 -0.015998,-0.0099 -0.4853063,-0.0187 -1.0429076,-0.0196 C 5.1356206,16.718137 4.628706,16.704546 4.5667448,16.688796 4.5006198,16.671986 4.4293581,16.625426 4.39421,16.576063 4.335415,16.493493 4.334185,16.411173 4.326322,12.032182 4.3201286,8.5793022 4.3267107,7.5569266 4.3552913,7.5038827 4.4477153,7.3326433 4.4651358,7.3300569 5.6371644,7.3135711 l 1.0823773,-0.015225 0.015226,-0.427676 c 0.012404,-0.3485082 0.025818,-0.4443302 0.072454,-0.5176473 0.086115,-0.1353829 0.206508,-0.2574986 0.3041045,-0.3084554 0.1053807,-0.05502 0.5201941,-0.092066 0.5469086,-0.048843 0.010226,0.016546 -0.018665,0.1003698 -0.064201,0.186271 -0.07222,0.1362371 -0.098267,0.1592712 -0.2039427,0.1803532 -0.0895,0.017852 -0.1394557,0.051332 -0.1912273,0.1281585 -0.064626,0.095897 -0.069415,0.1313742 -0.061551,0.4559135 l 0.00853,0.3519242 h 0.4415227 0.4415227 l 0.01701,-0.2435989 c 0.017437,-0.2497274 0.040536,-0.3183718 0.1928965,-0.5732245 0.08076,-0.135086 0.091792,-0.1429744 0.1368894,-0.09789 0.038856,0.038846 0.052217,0.139017 0.064277,0.4818752 l 0.015226,0.4328382 1.1570955,0.015225 c 1.2166594,0.016008 1.2398264,0.018766 1.3382314,0.15926 0.04216,0.060197 0.04722,0.5482214 0.04708,4.5444062 l -1.3e-4,4.476967 -0.07278,0.09097 c -0.06792,0.08489 -0.09079,0.09234 -0.34241,0.111535 -0.148295,0.01131 -0.6841247,0.02176 -1.1907348,0.02322 l -0.9211072,0.0026 -0.00245,0.342561 c -0.0025,0.350221 -0.04647,0.603245 -0.1083248,0.623375 -0.019062,0.0062 -0.087194,-0.08184 -0.1514053,-0.195661 -0.1049235,-0.18598 -0.1183752,-0.234695 -0.132816,-0.480988 l -0.016069,-0.274049 -0.3724671,-0.01522 c -0.5469489,-0.02236 -0.5091076,-0.04913 -0.5182422,0.366721 -0.00903,0.411311 0.013194,0.473056 0.205199,0.569942 0.08654,0.04367 0.1559895,0.10697 0.1899231,0.173113 0.029422,0.05735 0.066727,0.112449 0.082899,0.122446 0.016173,0.01 0.021685,0.03828 0.012248,0.06288 -0.020003,0.05213 -0.238072,0.05695 -0.4053078,0.009 z m 3.2624207,-1.684514 c 0.01903,-0.04177 0.08054,-0.103055 0.136675,-0.136176 l 0.102068,-0.06022 -9.1e-4,-4.109609 -9.09e-4,-4.1096093 -0.121151,-0.1148195 c -0.06665,-0.063151 -0.12117,-0.1319289 -0.12117,-0.1528399 0,-0.020912 -0.04453,-0.045848 -0.09896,-0.055414 -0.05443,-0.00957 -1.331041,-0.013613 -2.8369151,-0.00899 -2.3937772,0.00734 -2.7398536,0.014106 -2.7530774,0.053783 -0.00832,0.024961 -0.057419,0.086621 -0.1091095,0.1370243 L 4.618567,7.8768966 4.603342,11.987628 c -0.00837,2.260903 -0.010136,4.128366 -0.00393,4.14992 0.00622,0.02156 0.050749,0.05958 0.098963,0.08452 0.048212,0.02493 0.08766,0.06279 0.08766,0.08413 0,0.11173 0.00395,0.111882 2.8842539,0.111882 H 10.481452 Z M 4.8392632,16.175523 4.7250769,16.059817 V 12.004373 7.948929 L 4.8359103,7.8443991 4.9467436,7.7398693 h 2.7295279 2.7295295 l 0.09805,0.1039519 0.09805,0.1039516 v 4.0547972 4.054797 l -0.09135,0.09135 c -0.05024,0.05024 -0.09135,0.103998 -0.09135,0.119457 0,0.01698 -1.0812603,0.02711 -2.7328762,0.02558 L 4.9534506,16.291254 4.839263,16.175547 Z m 2.9443981,-1.439797 c 0.056323,-0.121419 0.1245755,-0.289274 0.1516711,-0.373011 0.095081,-0.293833 0.1819499,-0.40904 0.3094519,-0.410397 0.075942,-7.93e-4 0.4144842,-0.162985 0.5509293,-0.263921 0.1242035,-0.09188 0.1956106,-0.0903 0.3768307,0.0083 0.2128909,0.11587 0.2489152,0.09111 0.1908606,-0.131209 -0.025382,-0.0972 -0.058276,-0.199381 -0.073095,-0.227073 -0.019569,-0.03657 0.026194,-0.155857 0.167118,-0.435656 0.1067338,-0.211919 0.2028401,-0.442864 0.2135673,-0.513212 0.018701,-0.122634 0.027672,-0.131604 0.2176321,-0.217642 0.2577127,-0.116725 0.2804747,-0.145828 0.1774397,-0.226875 -0.04476,-0.03521 -0.095594,-0.06401 -0.1129692,-0.06401 -0.017376,0 -0.083695,-0.02398 -0.1473761,-0.05328 C 9.7129057,11.78505 9.6860041,11.75334 9.6700961,11.667902 9.642763,11.5211 9.4715824,11.137316 9.3137847,10.869049 c -0.052251,-0.08883 -0.059594,-0.125496 -0.033544,-0.167473 0.018347,-0.02956 0.050807,-0.12679 0.072138,-0.216069 0.054502,-0.228124 0.019059,-0.254737 -0.197692,-0.148434 -0.2075785,0.101806 -0.2658121,0.102735 -0.3922969,0.0063 -0.054892,-0.04186 -0.1111353,-0.07612 -0.1249826,-0.07612 -0.013848,0 -0.046812,-0.01808 -0.073251,-0.04018 -0.02644,-0.0221 -0.1302872,-0.06608 -0.2307715,-0.09774 -0.1004842,-0.0317 -0.2005055,-0.07067 -0.222268,-0.08664 -0.044275,-0.0325 -0.1282447,-0.2082888 -0.1982,-0.4149336 -0.080745,-0.238515 -0.2324836,-0.5527546 -0.2589999,-0.5363667 -0.01404,0.00868 -0.050057,0.074674 -0.080036,0.14666 -0.029981,0.071986 -0.094021,0.2210416 -0.1423124,0.3312357 -0.048293,0.1101937 -0.087803,0.2156044 -0.087803,0.2342458 0,0.018641 -0.028213,0.081707 -0.062691,0.1401461 -0.05143,0.087165 -0.098391,0.1177867 -0.2614133,0.1704537 -0.1092988,0.03531 -0.2880242,0.118453 -0.39717,0.184761 -0.1091459,0.06631 -0.2184616,0.120561 -0.2429262,0.120561 -0.024463,0 -0.1193265,-0.03665 -0.2108082,-0.08145 -0.2163749,-0.105949 -0.2508049,-0.07885 -0.1982416,0.156031 0.020675,0.09239 0.050362,0.175866 0.065973,0.185514 0.050816,0.0314 0.030362,0.100945 -0.086792,0.295072 -0.063345,0.104966 -0.1397992,0.252509 -0.1698978,0.327873 -0.030097,0.07536 -0.074186,0.175816 -0.097974,0.223228 -0.023788,0.04741 -0.043303,0.122777 -0.043365,0.167475 -9.2e-5,0.06874 -0.022395,0.0899 -0.1446374,0.137273 -0.079486,0.0308 -0.1746258,0.07041 -0.2114186,0.08802 -0.070388,0.03369 -0.1213562,0.122302 -0.079483,0.138194 0.013519,0.0051 0.1136238,0.05465 0.222456,0.110041 0.1795522,0.09139 0.1995751,0.111164 0.2162206,0.213562 0.010084,0.06206 0.034089,0.128595 0.053335,0.147841 0.019246,0.01924 0.034992,0.05502 0.034992,0.0795 0,0.02448 0.074381,0.191262 0.1652916,0.370625 0.1021393,0.201519 0.1544513,0.336956 0.1369168,0.354491 -0.039597,0.0396 -0.1238031,0.374153 -0.1027473,0.408223 0.02813,0.04552 0.090748,0.03258 0.2313419,-0.04779 0.1584432,-0.09058 0.2368074,-0.09539 0.3339491,-0.02052 0.1164529,0.08975 0.4270897,0.242374 0.5660594,0.278111 0.1685174,0.04334 0.2005784,0.07992 0.3002928,0.34264 0.046248,0.121852 0.1007601,0.248954 0.1211396,0.282449 0.020378,0.0335 0.046463,0.102007 0.057963,0.152249 0.021032,0.09188 0.095938,0.228374 0.1253326,0.228374 0.00868,0 0.061877,-0.09934 0.1182002,-0.220761 z m -0.097336,-1.139199 c -0.020934,-0.0084 -0.038062,-0.04908 -0.038062,-0.0903 0,-0.04122 -0.02214,-0.163076 -0.049197,-0.270797 -0.048165,-0.191742 -0.041717,-0.346764 0.018338,-0.440882 0.024743,-0.03877 0.036434,-0.03532 0.077403,0.02284 0.079625,0.113041 0.1364386,0.08726 0.1342017,-0.0609 -0.0031,-0.205298 -0.072918,-0.487383 -0.1294529,-0.523045 -0.069149,-0.04362 -0.1550253,0.01166 -0.1669661,0.107469 -0.005,0.04016 -0.031467,0.137479 -0.058806,0.216269 -0.039884,0.114947 -0.042651,0.158735 -0.014007,0.221604 0.022688,0.04979 0.02562,0.09746 0.00804,0.130796 -0.01521,0.02884 -0.044692,0.151786 -0.065515,0.273205 -0.023949,0.139655 -0.052211,0.220762 -0.076923,0.220762 -0.021484,0 -0.057851,0.02682 -0.080815,0.05961 -0.039658,0.05662 -0.043706,0.0542 -0.080731,-0.04819 -0.021442,-0.05929 -0.042495,-0.191259 -0.046789,-0.293266 -0.00669,-0.15868 -0.019706,-0.195699 -0.090168,-0.256308 -0.1078483,-0.09277 -0.151434,-0.08941 -0.2664548,0.02051 -0.052574,0.05024 -0.1106844,0.09095 -0.1291339,0.09046 -0.041297,-0.0011 -0.2782634,-0.32344 -0.3216376,-0.43752 -0.0364,-0.09574 -0.00862,-0.167644 0.116724,-0.302101 0.074591,-0.08002 0.079584,-0.103178 0.073643,-0.341676 -0.00397,-0.159348 -0.024067,-0.290057 -0.053287,-0.346563 -0.053394,-0.103253 -0.060131,-0.244328 -0.018186,-0.380857 0.015801,-0.05143 0.039987,-0.140397 0.053742,-0.197701 0.02877,-0.119833 0.085185,-0.154546 0.108192,-0.06657 0.011588,0.04431 0.046609,0.06264 0.1332891,0.06975 0.110062,0.009 0.1171178,0.01549 0.110482,0.101002 -0.00828,0.106751 -0.00993,0.178192 -0.00976,0.425416 9.07e-5,0.152061 -0.012208,0.194692 -0.075254,0.26049 -0.061661,0.06436 -0.075374,0.109363 -0.075374,0.247374 0,0.203382 0.052596,0.264423 0.2614534,0.303442 0.2831547,0.05289 0.4932891,-0.115874 0.5040296,-0.404819 0.0069,-0.185446 -0.026395,-0.275315 -0.094029,-0.253849 -0.099981,0.03174 -0.1620189,-0.117373 -0.1657245,-0.398309 -0.0018,-0.13793 0.00564,-0.259726 0.016566,-0.27066 0.010925,-0.01093 0.04839,-0.0021 0.083245,0.0197 0.053982,0.03371 0.071342,0.0316 0.1171517,-0.01426 0.044691,-0.04473 0.052479,-0.09964 0.046083,-0.324891 -0.010977,-0.386864 0.073293,-0.412047 0.1884561,-0.05631 0.059065,0.182448 0.058491,0.188735 -0.041166,0.451024 -0.078705,0.207146 -0.079134,0.250863 -0.00313,0.319636 0.081066,0.07336 0.1466836,0.01917 0.1725365,-0.142505 0.018662,-0.116694 0.077483,-0.207152 0.1347081,-0.207152 0.03665,0 0.035723,0.03735 -0.00348,0.140492 -0.026438,0.06953 -0.021509,0.09382 0.029376,0.144698 0.060517,0.06052 0.061811,0.06054 0.1264704,0.0022 0.058495,-0.05281 0.063337,-0.07969 0.046279,-0.256903 -0.012947,-0.134474 -0.00943,-0.183281 0.010937,-0.15225 0.025005,0.03808 0.040462,0.03918 0.092967,0.0066 0.057485,-0.03563 0.066858,-0.02974 0.1075038,0.06753 0.053593,0.128266 0.057501,0.347438 0.00907,0.509063 -0.0393,0.131172 -0.1856373,0.244888 -0.2980038,0.231573 -0.052869,-0.0063 -0.075168,0.01672 -0.108446,0.111785 -0.038996,0.111402 -0.036591,0.130874 0.034814,0.281811 0.087216,0.18436 0.1370942,0.219733 0.3394468,0.240737 0.1282748,0.01331 0.1544294,0.005 0.2427281,-0.07723 0.088936,-0.08282 0.098961,-0.10946 0.098961,-0.262971 0,-0.121895 -0.017406,-0.195261 -0.06078,-0.256174 C 8.506379,11.681492 8.503508,11.650688 8.528795,11.404568 8.550125,11.196955 8.547155,11.114056 8.51587,11.043692 8.451946,10.899919 8.439323,10.833775 8.467304,10.789225 c 0.058669,-0.09341 0.3380561,0.05189 0.3380561,0.175809 0,0.0308 0.020555,0.105187 0.045675,0.16531 0.025121,0.06012 0.045675,0.18556 0.045675,0.278746 0,0.09319 -0.020553,0.218622 -0.045675,0.278745 -0.025122,0.06012 -0.045293,0.17958 -0.044827,0.265458 6.414e-4,0.125254 0.01875,0.179805 0.091349,0.275755 0.142354,0.18814 0.1133299,0.380931 -0.094767,0.62948 l -0.1278814,0.15274 -0.096087,-0.09313 c -0.126897,-0.122995 -0.2312395,-0.12132 -0.3633076,0.0059 -0.1430044,0.13768 -0.181061,0.224628 -0.1760516,0.402235 0.00548,0.194516 -0.03147,0.262529 -0.082177,0.15124 -0.030091,-0.06605 -0.044364,-0.07355 -0.081406,-0.04281 -0.024704,0.0205 -0.044916,0.06154 -0.044916,0.09119 0,0.04163 -0.070413,0.103042 -0.1014525,0.08847 -0.00281,-0.0013 -0.02225,-0.0093 -0.043185,-0.01776 z m 8.6615197,4.425208 c -0.01029,-0.02682 -0.0055,-0.05698 0.01085,-0.06703 0.01626,-0.01005 0.05621,-0.07052 0.08879,-0.13438 0.04588,-0.08992 0.08246,-0.120471 0.162169,-0.135425 0.136117,-0.02553 0.236235,-0.137275 0.26739,-0.298427 0.03422,-0.17704 0.03367,-0.5773 -9.1e-4,-0.631905 -0.03369,-0.05326 -0.7142,-0.07943 -0.838327,-0.03223 -0.07248,0.02756 -0.07677,0.04173 -0.07677,0.253778 0,0.178319 -0.01487,0.25219 -0.07218,0.35854 -0.133765,0.248236 -0.186533,0.331485 -0.210237,0.331678 -0.05494,5.19e-4 -0.08298,-0.17965 -0.08298,-0.532865 0,-0.268605 -0.01094,-0.383614 -0.03806,-0.400413 -0.02094,-0.01297 -0.517649,-0.02037 -1.103808,-0.01645 -0.596086,0.004 -1.11818,-0.0056 -1.184728,-0.02178 -0.06544,-0.01589 -0.154505,-0.06441 -0.197923,-0.107832 l -0.07893,-0.07893 -0.0083,-4.446564 c -0.0074,-3.9894641 -0.0034,-4.4569234 0.03953,-4.5473488 0.08636,-0.1819812 0.09918,-0.1838597 1.369461,-0.2005738 l 1.157093,-0.015225 0.01522,-0.4481322 c 0.0123,-0.362011 0.0249,-0.4577859 0.06554,-0.4983622 0.04676,-0.046677 0.05317,-0.045139 0.09064,0.021838 0.02218,0.039632 0.05695,0.099469 0.07727,0.1329643 0.114833,0.189261 0.142391,0.2867128 0.149089,0.5272044 0.0039,0.1392354 0.01574,0.26185 0.02637,0.2724766 0.02176,0.021758 0.809878,0.010347 0.846451,-0.012256 0.01295,-0.008 0.02353,-0.1831715 0.02353,-0.3892674 0,-0.4272561 -0.03486,-0.5120948 -0.225101,-0.5477843 -0.08661,-0.016248 -0.117955,-0.045561 -0.184217,-0.1722812 -0.04392,-0.083986 -0.07174,-0.1658109 -0.06184,-0.1818332 0.05436,-0.087959 0.484282,0.00207 0.630139,0.1320092 0.197915,0.1762676 0.236868,0.2994979 0.236868,0.7493449 0,0.243658 0.01229,0.4028568 0.03203,0.4150597 0.01762,0.010887 0.486924,0.019057 1.042907,0.018155 0.592333,-9.592e-4 1.058733,0.011139 1.126455,0.029224 0.07862,0.020995 0.13457,0.062017 0.174973,0.1282793 0.05818,0.095413 0.0594,0.1884749 0.05951,4.5283447 1.22e-4,4.235248 -0.0023,4.435517 -0.05559,4.534802 -0.08931,0.166527 -0.150238,0.174979 -1.280334,0.177617 -0.558974,0.0013 -1.027127,0.01365 -1.040339,0.02744 -0.01321,0.01378 -0.02868,0.216902 -0.03437,0.451366 -0.0124,0.510851 -0.04909,0.595565 -0.33342,0.769885 -0.148464,0.09102 -0.555667,0.130976 -0.58394,0.0573 z m 2.864144,-1.700819 c 0.0216,-0.04506 0.06633,-0.09053 0.0994,-0.101023 0.07737,-0.02456 0.111251,-0.09643 0.103951,-0.220498 -0.0032,-0.05443 -0.0075,-1.898731 -0.0096,-4.098449 l -0.0038,-3.9994853 -0.09896,-0.108261 c -0.05443,-0.059544 -0.116629,-0.1301581 -0.138225,-0.1569205 -0.03545,-0.043934 -0.307983,-0.048659 -2.806508,-0.048659 -1.521986,0 -2.788922,0.00832 -2.815412,0.018483 -0.02649,0.010165 -0.04817,0.035049 -0.04817,0.055297 0,0.020248 -0.04796,0.079274 -0.106574,0.1311684 l -0.106575,0.094354 -0.005,2.4462004 c -0.01062,5.170897 -0.0095,5.706731 0.01275,5.786043 0.01258,0.04494 0.04728,0.08945 0.07711,0.09892 0.02983,0.0095 0.07858,0.05841 0.108318,0.108762 l 0.05408,0.09155 2.822001,-0.0078 2.822002,-0.0078 z m -5.70974,-0.145101 -0.09896,-0.115312 V 12.005251 7.95 l 0.102039,-0.1050655 0.102038,-0.1050652 h 2.72554 2.725539 l 0.110834,0.1045298 0.110834,0.1045299 v 4.05544 4.05544 l -0.121834,0.118236 -0.121835,0.118236 -2.717615,-0.0026 -2.717615,-0.0026 -0.09896,-0.115311 z m 2.945159,-1.424864 c 0.03542,-0.0963 0.08333,-0.216195 0.106457,-0.266437 0.02313,-0.05024 0.07142,-0.17002 0.10734,-0.266173 0.06773,-0.181344 0.150927,-0.2667 0.259949,-0.2667 0.07085,0 0.404115,-0.160867 0.551979,-0.266436 0.123307,-0.08804 0.206979,-0.08597 0.373498,0.0092 0.183895,0.105116 0.228187,0.08285 0.200757,-0.100912 -0.01184,-0.07935 -0.04319,-0.181037 -0.06965,-0.225956 -0.04593,-0.07797 -0.0435,-0.09038 0.05378,-0.274048 0.05604,-0.105809 0.112591,-0.212933 0.125668,-0.238054 0.0496,-0.09526 0.11425,-0.264878 0.163663,-0.42935 0.05024,-0.167213 0.05534,-0.172515 0.262655,-0.272807 0.285728,-0.138226 0.279402,-0.162219 -0.08508,-0.322681 -0.112448,-0.0495 -0.133139,-0.07514 -0.180403,-0.2235 -0.06741,-0.21162 -0.205017,-0.517044 -0.30256,-0.671562 -0.08635,-0.136783 -0.09146,-0.182714 -0.03307,-0.29684 0.02314,-0.04522 0.05144,-0.138649 0.0629,-0.207613 0.02754,-0.165801 -0.02949,-0.187728 -0.227407,-0.08744 -0.15257,0.07731 -0.286723,0.09772 -0.31729,0.04826 -0.03074,-0.04973 -0.341243,-0.211328 -0.508127,-0.264437 -0.195037,-0.06207 -0.252247,-0.1067 -0.301839,-0.2354723 -0.0205,-0.053217 -0.07552,-0.1858264 -0.122278,-0.2946847 -0.04676,-0.1088583 -0.108465,-0.2630106 -0.137129,-0.3425609 -0.02866,-0.079551 -0.0693,-0.1446369 -0.0903,-0.1446369 -0.04421,0 -0.143186,0.198753 -0.248935,0.4999021 -0.09259,0.2636768 -0.183536,0.4437497 -0.231243,0.4578657 -0.294998,0.08729 -0.401093,0.130979 -0.563704,0.232117 -0.10564,0.0657 -0.21796,0.119459 -0.249602,0.119459 -0.03164,0 -0.121956,-0.03426 -0.2007,-0.07612 -0.25699,-0.136642 -0.294123,-0.09285 -0.182356,0.215064 0.07599,0.209353 0.07604,0.210156 0.01761,0.301922 -0.125429,0.197032 -0.332235,0.663376 -0.351677,0.793029 -0.01125,0.075 -0.03255,0.136354 -0.04735,0.136354 -0.06331,0 -0.422924,0.190383 -0.422924,0.2239 0,0.02023 0.100755,0.08665 0.223898,0.147582 0.221988,0.109842 0.224062,0.111987 0.24319,0.251544 0.01144,0.08343 0.09548,0.287396 0.206356,0.500817 l 0.187063,0.360062 -0.06656,0.206033 c -0.09847,0.304786 -0.05746,0.352129 0.184956,0.213545 0.158973,-0.09088 0.237208,-0.09544 0.33395,-0.01946 0.117524,0.0923 0.49117,0.277915 0.559452,0.277915 0.146807,0 0.231695,0.111662 0.36014,0.473733 0.122792,0.346134 0.198703,0.500662 0.245952,0.500662 0.02649,0 0.0707,-0.07102 0.10898,-0.175086 z m -0.05242,-1.154424 c -0.02094,-0.0084 -0.03806,-0.04908 -0.03806,-0.0903 0,-0.04122 -0.02214,-0.163076 -0.0492,-0.270797 -0.04817,-0.191742 -0.04172,-0.346764 0.01834,-0.440882 0.02474,-0.03877 0.03643,-0.03532 0.0774,0.02284 0.07963,0.113041 0.13644,0.08726 0.134202,-0.0609 -0.0031,-0.205298 -0.07291,-0.487383 -0.129453,-0.523045 -0.06915,-0.04362 -0.155025,0.01166 -0.166964,0.107469 -0.005,0.04016 -0.03147,0.137479 -0.05881,0.216269 -0.03988,0.114947 -0.04265,0.158735 -0.01401,0.221604 0.02269,0.04979 0.02562,0.09746 0.008,0.130796 -0.01521,0.02884 -0.04469,0.151786 -0.06551,0.273205 -0.02395,0.139655 -0.05221,0.220762 -0.07692,0.220762 -0.02148,0 -0.05785,0.02682 -0.08082,0.05961 -0.03966,0.05662 -0.04371,0.0542 -0.08074,-0.04819 -0.02144,-0.05929 -0.04249,-0.191259 -0.04679,-0.293266 -0.0067,-0.15868 -0.0197,-0.195699 -0.09017,-0.256308 -0.107847,-0.09277 -0.151432,-0.08941 -0.266453,0.02051 -0.05257,0.05024 -0.110685,0.09095 -0.129136,0.09046 -0.04129,-0.0011 -0.278262,-0.323439 -0.321634,-0.437518 -0.0364,-0.09574 -0.0086,-0.167645 0.116722,-0.302101 0.07459,-0.08002 0.07959,-0.103178 0.07364,-0.341677 -0.004,-0.159349 -0.02407,-0.290057 -0.05328,-0.346562 -0.05339,-0.103254 -0.06013,-0.244328 -0.01818,-0.380859 0.0158,-0.05143 0.03999,-0.140396 0.05374,-0.1977 0.02877,-0.119833 0.08519,-0.154546 0.108192,-0.06657 0.01158,0.04431 0.04661,0.06264 0.133287,0.06976 0.110064,0.009 0.11712,0.01549 0.110484,0.101001 -0.0083,0.106752 -0.0099,0.178194 -0.0098,0.425415 9e-5,0.152062 -0.01222,0.194692 -0.07525,0.260491 -0.06166,0.06436 -0.07538,0.109363 -0.07538,0.247374 0,0.203382 0.0526,0.264423 0.261454,0.303442 0.283153,0.0529 0.493288,-0.115874 0.504029,-0.404819 0.0069,-0.185445 -0.02639,-0.275314 -0.09403,-0.25385 -0.09998,0.03174 -0.162019,-0.117372 -0.165722,-0.398308 -0.0018,-0.137929 0.0056,-0.259725 0.01656,-0.270659 0.01092,-0.01093 0.04839,-0.0021 0.08324,0.0197 0.05398,0.03371 0.07134,0.0316 0.117152,-0.01426 0.04469,-0.04473 0.05248,-0.09964 0.04608,-0.324891 -0.01098,-0.386864 0.07329,-0.412046 0.188455,-0.05631 0.05906,0.182448 0.05849,0.188735 -0.04116,0.451024 -0.0787,0.207145 -0.07913,0.250863 -0.0031,0.319636 0.08107,0.07336 0.146684,0.01917 0.172537,-0.142505 0.01866,-0.116695 0.07749,-0.207151 0.134708,-0.207151 0.03665,0 0.03572,0.03735 -0.0035,0.140491 -0.02643,0.06953 -0.02151,0.09382 0.02937,0.144698 0.06052,0.06052 0.06181,0.06053 0.126471,0.0021 0.05849,-0.05281 0.06334,-0.07969 0.04628,-0.256903 -0.01295,-0.134474 -0.0094,-0.183281 0.01094,-0.15225 0.025,0.03808 0.04047,0.03919 0.09297,0.0066 0.05748,-0.03563 0.06686,-0.02974 0.107504,0.06753 0.05359,0.128266 0.0575,0.347438 0.0091,0.509063 -0.0393,0.131172 -0.185636,0.244888 -0.298002,0.231573 -0.05287,-0.0063 -0.07517,0.01672 -0.108446,0.111784 -0.039,0.111403 -0.03659,0.130875 0.03481,0.281812 0.08722,0.18436 0.137094,0.219734 0.339447,0.240737 0.128275,0.01331 0.154428,0.005 0.242727,-0.07723 0.08894,-0.08282 0.09896,-0.10946 0.09896,-0.262971 0,-0.121895 -0.01741,-0.195261 -0.06078,-0.256174 -0.05551,-0.07795 -0.05838,-0.108754 -0.03309,-0.354874 0.02133,-0.207601 0.01837,-0.2905 -0.01292,-0.360864 -0.06392,-0.143773 -0.07655,-0.209917 -0.04856,-0.254467 0.05867,-0.09341 0.338058,0.05189 0.338058,0.175809 0,0.0308 0.02056,0.105187 0.04568,0.165311 0.02512,0.06012 0.04568,0.185559 0.04568,0.278744 0,0.09319 -0.02056,0.218623 -0.04568,0.278745 -0.02512,0.06012 -0.0453,0.17958 -0.04482,0.265459 6.42e-4,0.125254 0.01875,0.179806 0.09135,0.275755 0.142354,0.188139 0.11333,0.380931 -0.09477,0.62948 l -0.127883,0.152739 -0.09609,-0.09313 c -0.126898,-0.122995 -0.231239,-0.12132 -0.363308,0.0059 -0.143004,0.137679 -0.181059,0.224628 -0.176052,0.402235 0.0055,0.194516 -0.03147,0.262529 -0.08217,0.151241 -0.03009,-0.06605 -0.04436,-0.07355 -0.08141,-0.04281 -0.02471,0.0205 -0.04491,0.06154 -0.04491,0.09119 0,0.04163 -0.07042,0.103043 -0.101454,0.08847 -0.0028,-0.0013 -0.02225,-0.0093 -0.04319,-0.01776 z M 7.5895736,6.7765926 C 7.5104528,6.6760053 7.510165,6.6101656 7.5882258,6.4673748 7.6221921,6.4052354 7.7295764,6.2036738 7.8268593,6.0194518 7.998398,5.6946103 8.165613,5.3869792 8.3068469,5.1364057 8.3446052,5.0694125 8.4127355,4.9415013 8.4582483,4.8521503 8.545032,4.6817767 8.6275836,4.625905 8.7488076,4.6554987 8.9362347,4.7012495 8.9796724,4.8268795 8.8758002,5.0227728 8.8337802,5.1020202 8.7366038,5.2833267 8.659852,5.4256801 8.5831017,5.5680327 8.4934353,5.7393134 8.4605955,5.8063033 8.3447777,6.0425604 7.9461001,6.750924 7.8993393,6.8035362 7.8256303,6.886467 7.6650164,6.8724973 7.5895777,6.7765885 Z m 8.5469194,0.026948 C 16.090891,6.7520262 15.895292,6.4077259 15.751592,6.1260306 15.713151,6.0506695 15.637196,5.9067922 15.58281,5.8063074 15.528427,5.7058226 15.412117,5.4865834 15.324347,5.3191096 15.236578,5.151635 15.152101,5.0015933 15.136622,4.9856835 c -0.0474,-0.048719 -0.03147,-0.2175805 0.02514,-0.2665578 0.129667,-0.1121767 0.306827,-0.085364 0.38006,0.057526 0.02416,0.04714 0.08907,0.1679285 0.144248,0.2684124 0.05518,0.1004848 0.195709,0.3670145 0.312301,0.5922899 0.11659,0.2252746 0.272365,0.5222018 0.346165,0.6598395 0.154929,0.2889404 0.174134,0.4368521 0.06651,0.5122363 -0.08972,0.062842 -0.216114,0.060138 -0.274555,-0.00587 z M 8.7710428,5.6059936 C 8.7391677,5.5862892 8.7502701,5.5436227 8.8234913,5.4044279 8.9059353,5.2477001 8.9640435,5.1926958 9.3404518,4.9150786 9.7311336,4.6269353 9.9749825,4.4817383 10.06822,4.4817383 c 0.02042,0 0.0815,-0.022135 0.135729,-0.049191 0.146142,-0.072905 0.178475,-0.01987 0.09412,0.1543819 C 10.234779,4.717672 10.118359,4.8275509 9.7797524,5.07613 9.4313831,5.3318757 9.2651882,5.4496652 9.1698454,5.5083996 9.0402619,5.5882256 8.8268124,5.6404617 8.7710411,5.6059926 Z m 6.2917612,-0.00976 c -0.167487,-0.052969 -0.293833,-0.1219264 -0.362577,-0.1978869 -0.03187,-0.035208 -0.07294,-0.064736 -0.09128,-0.065604 -0.06836,-0.00322 -0.765009,-0.566308 -0.845725,-0.6835336 -0.08827,-0.1281982 -0.110256,-0.2283737 -0.05012,-0.2283737 0.06179,0 0.481135,0.152643 0.568512,0.2069429 0.229272,0.1424774 0.817056,0.5899721 0.855836,0.6515691 0.118801,0.1886946 0.15237,0.2787467 0.118929,0.3190402 -0.03938,0.047454 -0.03663,0.047487 -0.193582,-0.00215 z M 8.1137765,5.0999985 C 8.0934743,5.0925567 8.0469281,5.0379831 8.0103359,4.9787783 7.9587391,4.8952915 7.9438067,4.8239185 7.9438067,4.6607866 c 0,-0.1878264 0.010653,-0.2257823 0.099507,-0.3545585 C 8.1072567,4.2135561 8.2506277,4.0858329 8.4444636,3.9488632 8.6103672,3.831631 8.762865,3.7215091 8.7833457,3.7041472 8.9399912,3.5713574 9.2183712,3.4056606 9.3251117,3.381678 9.4599325,3.35139 9.6910411,3.371978 9.7949792,3.423534 c 0.087609,0.04346 0.2588238,0.2111921 0.2588238,0.2535569 0,0.036697 -0.093539,0.083779 -0.260646,0.131189 C 9.7268576,3.8270915 9.6834655,3.8226347 9.6427003,3.7928259 9.5417859,3.7190359 9.4035807,3.74304 9.2264755,3.8651276 8.7144998,4.2180489 8.5680751,4.3263128 8.4494238,4.4396687 8.3336277,4.5502975 8.3181604,4.5808479 8.3181604,4.6989434 c 0,0.077263 -0.02707,0.1851854 -0.064014,0.2552181 -0.077679,0.147251 -0.093062,0.1632344 -0.1403696,0.1458387 z m 7.7513685,-0.02961 c -0.08809,-0.1003227 -0.147669,-0.2484807 -0.147669,-0.367212 0,-0.064099 -0.02128,-0.1469269 -0.04731,-0.1840708 -0.02601,-0.037143 -0.234979,-0.200824 -0.464359,-0.3637351 -0.229383,-0.1629102 -0.423909,-0.3047981 -0.432283,-0.315306 -0.0731,-0.091728 -0.284931,-0.1146648 -0.388569,-0.042071 -0.05677,0.039764 -0.08728,0.041294 -0.197088,0.00989 -0.224313,-0.064149 -0.256218,-0.1218999 -0.137528,-0.2489297 0.121094,-0.1296031 0.264493,-0.1830372 0.49481,-0.1843783 0.236573,-0.00141 0.272541,0.01318 0.563323,0.2280404 0.108858,0.080438 0.259584,0.1904269 0.334949,0.2444266 0.334237,0.239491 0.467894,0.3488754 0.537003,0.4394824 0.133838,0.1754704 0.134952,0.5872286 0.0021,0.7539151 -0.06563,0.082307 -0.07031,0.083499 -0.117328,0.029949 z M 9.4774653,4.4015077 c -0.03471,-0.04413 -0.063109,-0.1173662 -0.063109,-0.162754 0,-0.1245525 0.1045111,-0.1955006 0.4458271,-0.3026549 0.102852,-0.032289 0.2124706,-0.072632 0.2435986,-0.089648 0.03113,-0.017017 0.145661,-0.0608 0.25452,-0.097299 0.492757,-0.1652119 0.628284,-0.2126991 0.68512,-0.2400628 0.0335,-0.016124 0.152986,-0.056798 0.265535,-0.090388 0.300576,-0.0897 0.417657,-0.034365 0.419172,0.1981102 6.42e-4,0.099481 -0.09535,0.1635362 -0.404198,0.2696933 -0.157054,0.053978 -0.301275,0.1078679 -0.320494,0.1197451 -0.01922,0.011882 -0.141405,0.054408 -0.271526,0.094522 -0.286056,0.088177 -0.670747,0.2210087 -0.754233,0.2604332 -0.1116419,0.052721 -0.3266922,0.1205339 -0.3822417,0.1205339 -0.030173,0 -0.083261,-0.036101 -0.117971,-0.080231 z m 4.7175187,0.031372 C 14.136364,4.4073207 14.013046,4.3605197 13.920934,4.3288832 13.828824,4.2972472 13.58218,4.2111177 13.372836,4.1374839 13.163494,4.0638509 12.903147,3.9729538 12.79429,3.9354907 12.685431,3.8980247 12.553187,3.8480297 12.500414,3.8243848 c -0.05277,-0.023649 -0.110693,-0.042989 -0.12871,-0.042989 -0.01802,0 -0.05486,-0.033736 -0.08188,-0.074964 -0.04117,-0.062826 -0.04326,-0.092715 -0.01295,-0.1845876 0.05336,-0.161665 0.142175,-0.1840707 0.407987,-0.1029174 0.118796,0.036267 0.229696,0.075965 0.246443,0.088222 0.01674,0.012254 0.119516,0.05096 0.228374,0.086009 0.231727,0.074617 1.08133,0.377094 1.279541,0.4555484 0.118448,0.046884 0.169323,0.1644962 0.121304,0.2804253 -0.06455,0.1558562 -0.174511,0.187064 -0.365549,0.103755 z M 11.227392,4.3082291 c -0.07859,-0.021218 -0.199195,-0.1011189 -0.199195,-0.1319728 0,-0.013437 0.06509,-0.047785 0.144638,-0.076329 0.07955,-0.028544 0.187814,-0.070788 0.240588,-0.093868 0.12344,-0.053986 1.03098,-0.059097 1.158123,-0.00653 0.04715,0.019498 0.146475,0.057178 0.220734,0.083737 0.165151,0.059072 0.183859,0.1035963 0.07385,0.1757607 -0.07495,0.049166 -0.166278,0.055781 -0.831648,0.060262 -0.4111,0.00273 -0.774287,-0.00223 -0.807084,-0.011064 z M 10.769157,3.384859 c -0.04458,-0.1404442 0.082,-0.4365428 0.243528,-0.5696882 0.189008,-0.1557975 0.367561,-0.1908734 0.971638,-0.1908734 0.41912,0 0.574995,0.011287 0.69767,0.050547 0.290158,0.092846 0.430405,0.238459 0.494265,0.5131781 0.05103,0.2195179 0.02955,0.2451079 -0.16629,0.1981267 -0.127284,-0.030536 -0.165571,-0.055467 -0.204641,-0.133271 -0.09934,-0.1978233 -0.112131,-0.2009596 -0.817958,-0.200638 -0.702261,2.588e-4 -0.719063,0.00422 -0.806695,0.1885094 -0.03452,0.072591 -0.08364,0.1100145 -0.198151,0.1509802 -0.189629,0.067836 -0.189653,0.067836 -0.213366,-0.00686 z"
       id="path845" />
  </g>
</svg>
