<svg
    version="1.1"
    xmlns="http://www.w3.org/2000/svg"
    viewBox="0 0 295.771 295.771"
>
    <path d="m257.764,224.086c-0.888-4.686-3.166-8.996-6.538-12.368l-26.112-26.112c2.88,22.33 9.967,56.375 14.155,75.647l20.943,3.967c1.249,0.237 2.535-0.16 3.434-1.059 0.899-0.899 1.296-2.185 1.059-3.434l-6.941-36.641z" />
    <path d="m79.188,119.725l12.324,12.324c4.522-5.186 9.638-9.59 16.036-13.38l-13.652-13.652-14.708,14.708z" />
    <path d="m48.13,129.57l80.926-80.926c5.2-5.2 5.2-13.631 0-18.83l-7.723-7.722c-6.514-6.514-17.558-4.607-21.477,3.777l-15.917,34.048c-13.684-13.683-10.738-10.738-24.622-24.622 1.525-9.186-1.247-18.946-8.334-26.033-11.663-11.663-30.573-11.663-42.236,0-11.663,11.663-11.663,30.572 0,42.236 7.086,7.086 16.847,9.859 26.032,8.334 13.886,13.884 10.939,10.938 24.623,24.622l-34.049,15.916c-8.369,3.912-10.294,14.96-3.777,21.478l7.722,7.722c5.201,5.2 13.632,5.2 18.832-2.84217e-14z" />
    <path d="m44.546,211.717c-3.373,3.372-5.651,7.682-6.539,12.368l-6.94,36.641c-0.237,1.249 0.16,2.535 1.059,3.434 0.899,0.899 2.184,1.295 3.434,1.059l20.943-3.967c4.188-19.272 11.276-53.317 14.155-75.647l-26.112,26.112z" />
    <path d="m204.26,132.049l12.324-12.324-14.708-14.708-13.652,13.652c6.39,3.786 11.508,8.188 16.036,13.38z" />
    <path d="m147.886,108.378l-28.675-28.675-14.708,14.707 17.768,17.768c7.738-2.38 16.223-3.589 25.42-3.606 0.066,0 0.129-0.004 0.195-0.004 9.273,0 17.822,1.212 25.615,3.61l17.768-17.768-14.708-14.708-28.675,28.676z" />
    <path d="m260.992,59.832c9.186,1.525 18.946-1.248 26.033-8.334 11.663-11.663 11.663-30.573 0-42.236s-30.572-11.663-42.235,0c-7.086,7.086-9.859,16.847-8.334,26.032-13.883,13.883-10.894,10.894-24.623,24.623l-15.916-34.049c-3.924-8.395-14.971-10.283-21.477-3.777l-7.722,7.722c-5.2,5.2-5.2,13.63 0,18.83l80.926,80.926c5.2,5.2 13.63,5.2 18.83,0l7.723-7.722c6.519-6.52 4.59-17.566-3.777-21.478l-34.049-15.916c13.682-13.683 10.736-10.737 24.621-24.621z" />
    <path d="m147.886,123.569c-34.308,0-56.898,19.425-62.119,62.119-3.287,26.878-12.937,71.378-16.525,87.49-0.767,3.442 1.19,6.912 4.535,8.028l41.063,13.696c2.027,0.676 4.252,0.373 6.025-0.82 1.772-1.193 2.891-3.141 3.027-5.273l3.507-54.728c0.18-2.803-1.361-5.434-3.893-6.649l-19.598-9.406c-6.607-3.171-9.393-11.097-6.222-17.704 3.169-6.603 11.098-9.392 17.704-6.222l29.517,14.166c1.884,0.904 4.076,0.904 5.96,0l29.516-14.166c6.603-3.169 14.534-0.385 17.704,6.222 3.171,6.607 0.385,14.534-6.222,17.704l-19.598,9.406c-2.532,1.215-4.073,3.846-3.893,6.649l3.507,54.728c0.137,2.132 1.255,4.08 3.027,5.273 1.772,1.193 3.998,1.496 6.025,0.82l41.063-13.696c3.352-1.118 5.303-4.579 4.535-8.028-3.588-16.113-13.238-60.612-16.525-87.49-5.222-42.694-27.813-62.119-62.12-62.119z" />
</svg>
