<?xml version="1.0" encoding="UTF-8" standalone="no"?>
<svg
   xmlns="http://www.w3.org/2000/svg"
   width="1em"
   height="1em"
   viewBox="0 0 16.0 16.0"
   id="SVGRoot">
  <g
     id="layer1">
    <path
       d="M 7.822903,13.97229 C 7.80432,13.88236 7.781831,13.740343 7.763485,13.59713 7.754505,13.52692 7.736652,13.462995 7.723833,13.455075 7.71101,13.447175 7.700538,13.399955 7.700538,13.350181 c 0,-0.04977 -0.012032,-0.09794 -0.026762,-0.107027 -0.014719,-0.0091 -0.026756,-0.05726 -0.026756,-0.107027 0,-0.04977 -0.012032,-0.09794 -0.026762,-0.107027 C 7.605539,13.02 7.593502,12.98389 7.593502,12.94883 c 0,-0.03505 -0.012032,-0.07118 -0.026756,-0.08027 -0.014719,-0.0091 -0.026762,-0.0693 -0.026762,-0.133786 0,-0.06449 -0.012032,-0.124691 -0.026756,-0.133786 -0.014719,-0.0091 -0.026756,-0.05725 -0.026756,-0.107027 0,-0.04977 -0.012032,-0.09794 -0.026755,-0.107027 -0.014719,-0.0091 -0.026756,-0.05726 -0.026756,-0.107027 0,-0.04977 -0.012032,-0.09794 -0.026756,-0.107028 -0.014719,-0.0091 -0.026762,-0.06399 -0.026762,-0.121987 0,-0.05799 -0.012032,-0.105455 -0.026756,-0.105455 -0.014719,0 -0.026756,-0.03541 -0.026756,-0.0787 0,-0.04328 -0.012032,-0.08613 -0.026761,-0.09523 -0.014719,-0.0091 -0.026756,-0.08134 -0.026756,-0.160543 0,-0.07921 -0.012032,-0.151449 -0.026756,-0.160544 -0.014719,-0.0091 -0.026756,-0.04522 -0.026756,-0.08027 0,-0.03505 -0.012032,-0.07118 -0.026756,-0.08027 -0.014719,-0.0091 -0.027138,-0.04292 -0.027609,-0.07516 -7.788e-4,-0.06036 -0.056429,-0.152281 -0.092029,-0.152281 -0.026607,0 -0.5405622,0.523694 -0.5940071,0.605261 -0.022939,0.03502 -0.058397,0.06367 -0.078779,0.06367 -0.020376,0 -0.037058,0.01844 -0.037058,0.04097 0,0.02254 -0.021068,0.04895 -0.046827,0.05871 -0.059451,0.02252 -0.098553,0.06161 -0.1210645,0.121065 -0.00976,0.02576 -0.035285,0.04683 -0.056744,0.04683 -0.021451,0 -0.042906,0.01737 -0.047664,0.0386 -0.00475,0.02123 -0.189321,0.222914 -0.410139,0.448184 -0.2208177,0.225271 -0.433175,0.451726 -0.4719086,0.503234 -0.1390833,0.184961 -0.1744582,0.214058 -0.2602398,0.214058 -0.071032,0 -0.08382,-0.01001 -0.08382,-0.06531 0,-0.03592 0.012031,-0.07275 0.026756,-0.08185 0.014719,-0.0091 0.026759,-0.04593 0.026759,-0.08186 0,-0.03592 0.0098,-0.06532 0.021784,-0.06532 0.03752,0 0.1387505,-0.215432 0.1387505,-0.29528 0,-0.04189 0.012031,-0.08361 0.026759,-0.0927 0.014719,-0.0091 0.026756,-0.04522 0.026756,-0.08027 0,-0.03505 0.012031,-0.07118 0.026758,-0.08027 0.014719,-0.0091 0.026756,-0.05725 0.026756,-0.107027 0,-0.04977 0.012031,-0.09794 0.026758,-0.107027 0.014719,-0.0091 0.026759,-0.05725 0.026759,-0.107027 0,-0.04977 0.012031,-0.09794 0.026756,-0.107027 0.014719,-0.0091 0.026758,-0.04521 0.026758,-0.08027 0,-0.03505 0.012031,-0.07118 0.026756,-0.08027 0.014719,-0.0091 0.026759,-0.04735 0.026759,-0.08502 0,-0.03767 0.023244,-0.142316 0.051646,-0.232547 0.028404,-0.09023 0.065898,-0.21824 0.083321,-0.284464 0.017432,-0.06623 0.04113,-0.14449 0.052682,-0.173923 0.04799,-0.122251 0.077549,-0.219399 0.093627,-0.307709 0.00936,-0.05151 0.041966,-0.155703 0.07242,-0.231544 0.030455,-0.07584 0.047993,-0.157117 0.038977,-0.180612 -0.020195,-0.05261 -0.1396618,-0.05574 -0.2347024,-0.0061 -0.038206,0.01994 -0.1525944,0.05237 -0.2541934,0.07207 -0.1016018,0.0197 -0.2242275,0.0575 -0.2725043,0.08399 -0.048277,0.02649 -0.1348621,0.04817 -0.1924107,0.04817 -0.057551,0 -0.1120794,0.01204 -0.1211745,0.02676 -0.00909,0.01472 -0.045217,0.02676 -0.08027,0.02676 -0.035055,0 -0.071177,0.01204 -0.080273,0.02676 -0.00909,0.01472 -0.045217,0.02675 -0.080273,0.02675 -0.035055,0 -0.071175,0.01204 -0.080273,0.02676 -0.00909,0.01472 -0.063989,0.02675 -0.121986,0.02675 -0.057996,0 -0.1054485,0.01204 -0.1054485,0.02676 0,0.01472 -0.036123,0.02676 -0.080273,0.02676 -0.04415,0 -0.080273,0.01204 -0.080273,0.02676 0,0.01472 -0.047452,0.02676 -0.1054486,0.02676 -0.057996,0 -0.112893,0.01204 -0.1219884,0.02675 -0.00909,0.01472 -0.045217,0.02676 -0.08027,0.02676 -0.035055,0 -0.071177,0.01204 -0.080273,0.02675 -0.00909,0.01472 -0.045217,0.02676 -0.080273,0.02676 -0.035053,0 -0.071175,0.01204 -0.08027,0.02676 -0.00909,0.01472 -0.051584,0.02675 -0.094416,0.02675 -0.042835,0 -0.1207546,0.02408 -0.1731578,0.05351 -0.065695,0.0369 -0.1448764,0.05352 -0.2550075,0.05352 -0.1525406,0 -0.1597313,-0.003 -0.1597313,-0.06689 0,-0.04189 0.015128,-0.0669 0.0405,-0.0669 0.053673,0 0.1395134,-0.05035 0.2392898,-0.140351 0.044788,-0.04041 0.093474,-0.07362 0.108191,-0.07381 C 3.1263712,10.66077 3.4996355,10.29952 3.94113,9.8581982 4.3826247,9.4168766 4.7589013,9.0557576 4.7772966,9.0557116 c 0.018406,-5.37e-5 0.033445,-0.019275 0.033445,-0.042725 0,-0.02345 0.024703,-0.049106 0.054919,-0.057003 0.078087,-0.020433 0.059192,-0.1249099 -0.024726,-0.136782 -0.034906,-0.00496 -0.1045074,-0.032031 -0.1546705,-0.060204 -0.050161,-0.028172 -0.1382898,-0.051229 -0.1958384,-0.051229 -0.057551,0 -0.1120794,-0.012043 -0.1211744,-0.026756 -0.00909,-0.014719 -0.057259,-0.026756 -0.1070283,-0.026756 -0.049772,0 -0.097934,-0.012043 -0.1070282,-0.026756 -0.00909,-0.014719 -0.057259,-0.026756 -0.1070306,-0.026756 -0.049769,0 -0.097934,-0.012043 -0.1070283,-0.026756 -0.00909,-0.014719 -0.075319,-0.026756 -0.1471648,-0.026756 -0.071845,0 -0.1380696,-0.012043 -0.1471649,-0.026756 -0.00909,-0.014719 -0.045217,-0.026756 -0.080273,-0.026756 -0.035055,0 -0.071177,-0.012043 -0.080273,-0.026756 -0.00909,-0.014719 -0.069298,-0.026756 -0.1337869,-0.026756 -0.064485,0 -0.1246891,-0.012043 -0.1337845,-0.026756 -0.00909,-0.014719 -0.045217,-0.026756 -0.080273,-0.026756 -0.035055,0 -0.071177,-0.012043 -0.080273,-0.026756 -0.00909,-0.014719 -0.045217,-0.026756 -0.080273,-0.026756 -0.035053,0 -0.071175,-0.012043 -0.08027,-0.026756 -0.00909,-0.014719 -0.069301,-0.026756 -0.133787,-0.026756 -0.064488,0 -0.1246918,-0.012043 -0.1337869,-0.026756 -0.00909,-0.014719 -0.043521,-0.026756 -0.0765,-0.026756 -0.032979,0 -0.0714,-0.010877 -0.085382,-0.024162 -0.013978,-0.013296 -0.079603,-0.030195 -0.145827,-0.037557 -0.238678,-0.026534 -0.3077102,-0.054955 -0.3077102,-0.1266858 0,-0.060012 0.01177,-0.066526 0.1337869,-0.074091 0.073581,-0.00455 0.1452245,-0.019611 0.1592067,-0.033446 0.013976,-0.013835 0.076484,-0.02515 0.1388964,-0.02515 0.062413,0 0.1209185,-0.012043 0.1300136,-0.026756 0.00909,-0.014719 0.057259,-0.026756 0.1070283,-0.026756 0.049772,0 0.097934,-0.012043 0.1070282,-0.026756 0.00909,-0.014719 0.045221,-0.026756 0.080273,-0.026756 0.035055,0 0.071177,-0.012043 0.080273,-0.026756 0.00909,-0.014719 0.045217,-0.026756 0.080273,-0.026756 0.035053,0 0.071175,-0.012043 0.08027,-0.026756 0.00909,-0.014719 0.069301,-0.026756 0.1337869,-0.026756 0.064489,0 0.1246917,-0.012043 0.1337869,-0.026756 0.00909,-0.014719 0.057259,-0.026755 0.1070282,-0.026755 0.049772,0 0.097936,-0.012043 0.1070306,-0.026756 0.00909,-0.014719 0.063989,-0.026756 0.121986,-0.026756 0.057996,0 0.1054485,-0.012043 0.1054485,-0.026756 0,-0.014719 0.047452,-0.026756 0.1054521,-0.026756 0.057996,0 0.1128907,-0.012043 0.121986,-0.026756 0.00909,-0.014719 0.045217,-0.026756 0.080273,-0.026756 0.035055,0 0.071177,-0.012043 0.080273,-0.026756 0.00909,-0.014719 0.069298,-0.026756 0.1337844,-0.026756 0.064488,0 0.1246916,-0.012043 0.1337869,-0.026756 0.00909,-0.014719 0.043521,-0.026755 0.0765,-0.026755 0.032981,0 0.071402,-0.011282 0.085382,-0.025066 0.013976,-0.013789 0.079604,-0.028838 0.1458286,-0.033446 C 4.962132,7.2990497 4.9588145,7.2303556 4.7715746,7.054502 4.6899322,6.9778224 4.6161949,6.9150839 4.6077089,6.9150839 c -0.00847,0 -0.3171843,-0.2980097 -0.6860041,-0.6622434 C 3.5528868,5.8885737 3.2134544,5.5537718 3.1674125,5.5088034 c -0.046045,-0.044968 -0.1045199,-0.089743 -0.1299447,-0.0995 -0.02542,-0.00976 -0.046229,-0.036179 -0.046229,-0.058716 0,-0.022537 -0.015052,-0.041356 -0.033447,-0.041821 -0.050756,-0.00129 -0.1806125,-0.1247998 -0.1806125,-0.1717935 0,-0.02278 -0.012032,-0.041419 -0.026756,-0.041419 -0.014719,0 -0.026758,-0.018063 -0.026758,-0.040136 0,-0.046318 0.173186,-0.057863 0.200679,-0.013378 0.00909,0.014716 0.039543,0.026758 0.06766,0.026758 0.028115,0 0.093996,0.024081 0.1463995,0.053515 0.052403,0.029434 0.1182813,0.053515 0.1463995,0.053515 0.028117,0 0.058562,0.012042 0.067658,0.026758 0.00909,0.014716 0.057259,0.026758 0.1070306,0.026758 0.049769,0 0.097934,0.012042 0.1070283,0.026757 0.00909,0.014716 0.045217,0.026758 0.080273,0.026758 0.035053,0 0.071175,0.012042 0.08027,0.026758 0.00909,0.014716 0.057259,0.026757 0.1070306,0.026757 0.049769,0 0.097933,0.012042 0.1070283,0.026758 0.00909,0.014716 0.051238,0.026758 0.093651,0.026758 0.042413,0 0.084555,0.012042 0.093651,0.026758 0.00909,0.014716 0.045217,0.026757 0.080273,0.026757 0.035053,0 0.071175,0.012042 0.08027,0.026758 0.00909,0.014716 0.058552,0.026758 0.1099005,0.026758 0.051351,0 0.1432073,0.024081 0.2041272,0.053515 0.06092,0.029434 0.1287185,0.053515 0.1506618,0.053515 0.021938,0 0.076879,0.011282 0.1220729,0.025069 C 5.4060597,5.7908112 5.6394464,5.8486167 5.6933139,5.83152 5.7393559,5.816905 5.7394449,5.81014 5.6953639,5.6766483 5.6700192,5.5998662 5.6163769,5.4286832 5.5761587,5.2962346 5.5359429,5.1637859 5.4917543,5.0184417 5.4779668,4.9732471 5.464169,4.9280526 5.4529056,4.8655493 5.4529056,4.8343505 c 0,-0.031199 -0.012031,-0.064166 -0.026756,-0.073262 -0.014719,-0.00909 -0.026758,-0.045217 -0.026758,-0.080272 0,-0.035054 -0.012031,-0.071177 -0.026759,-0.080271 -0.014719,-0.00909 -0.026756,-0.048084 -0.026756,-0.08664 0,-0.071649 -0.041478,-0.2243745 -0.083557,-0.3076666 -0.012902,-0.025555 -0.023473,-0.069996 -0.023473,-0.098761 0,-0.028764 -0.012031,-0.059741 -0.026759,-0.068836 -0.014719,-0.00909 -0.026759,-0.057259 -0.026759,-0.1070295 0,-0.04977 -0.012031,-0.097934 -0.026756,-0.1070294 -0.014719,-0.00909 -0.026759,-0.045217 -0.026759,-0.080272 0,-0.035054 -0.012031,-0.071177 -0.026756,-0.080271 -0.014719,-0.00909 -0.026759,-0.057259 -0.026759,-0.1070295 0,-0.04977 -0.012031,-0.097934 -0.026756,-0.1070294 -0.014719,-0.00909 -0.026759,-0.045217 -0.026759,-0.080271 0,-0.035054 -0.012031,-0.071177 -0.026759,-0.080271 -0.014719,-0.00909 -0.026756,-0.045217 -0.026756,-0.080272 0,-0.035054 -0.012032,-0.071177 -0.026759,-0.080271 -0.014719,-0.00909 -0.026756,-0.070009 -0.026756,-0.1353657 0,-0.1008168 0.00807,-0.1188281 0.053281,-0.1188281 0.055719,0 0.9425092,0.8805236 0.9587695,0.9519931 0.00475,0.020915 0.026203,0.038028 0.047664,0.038028 0.021451,0 0.046641,0.01987 0.055957,0.044153 0.00932,0.024285 0.2347049,0.2658669 0.5008605,0.5368504 0.266153,0.2709834 0.487808,0.5099911 0.4925667,0.5311284 0.00475,0.021137 0.030967,0.038432 0.058245,0.038432 0.058915,0 0.1337842,-0.1361802 0.1337842,-0.2433475 0,-0.04102 0.012032,-0.082024 0.026756,-0.091118 0.014719,-0.00909 0.026756,-0.0693 0.026756,-0.1337864 0,-0.064487 0.012032,-0.1246912 0.026756,-0.1337867 0.014719,-0.00909 0.026756,-0.045217 0.026756,-0.080272 0,-0.035054 0.012032,-0.071177 0.026756,-0.080271 0.014719,-0.00909 0.026762,-0.057259 0.026762,-0.1070295 0,-0.04977 0.012032,-0.097934 0.026756,-0.1070294 0.014719,-0.00909 0.026756,-0.07603 0.026756,-0.1487443 0,-0.072714 0.012032,-0.1322074 0.026762,-0.1322074 0.014719,0 0.026756,-0.035412 0.026756,-0.078693 0,-0.043281 0.012032,-0.086135 0.026755,-0.09523 0.014719,-0.00909 0.026756,-0.069299 0.026756,-0.1337865 0,-0.064488 0.012032,-0.1246913 0.026756,-0.1337866 0.014719,-0.00909 0.026755,-0.057259 0.026755,-0.1070294 0,-0.04977 0.012032,-0.097934 0.026756,-0.1070294 0.014719,-0.00909 0.026762,-0.045217 0.026762,-0.080271 0,-0.035054 0.012032,-0.071177 0.026756,-0.080271 0.014719,-0.00909 0.026756,-0.0693 0.026756,-0.1337866 0,-0.064487 0.010698,-0.1238691 0.023806,-0.1319592 0.027876,-0.017234 0.051797,-0.1418897 0.077853,-0.4058136 0.01723,-0.1744519 0.059665,-0.2783251 0.1137198,-0.2783251 0.026136,0 0.105713,0.1544317 0.105713,0.2051538 0,0.020013 0.010567,0.057296 0.023476,0.082851 0.050417,0.099798 0.083557,0.2430427 0.083557,0.3611812 0,0.06799 0.012032,0.1310601 0.026756,0.1401554 0.014719,0.00909 0.026756,0.045217 0.026756,0.080272 0,0.035054 0.012032,0.071177 0.026756,0.080271 0.014719,0.00909 0.026756,0.057259 0.026756,0.1070294 0,0.04977 0.012032,0.097934 0.026762,0.1070294 0.014719,0.00909 0.026756,0.0693 0.026756,0.1337865 0,0.064487 0.012032,0.1246913 0.026756,0.1337866 0.014719,0.00909 0.026762,0.045217 0.026762,0.080272 0,0.035054 0.012032,0.071177 0.026756,0.080271 0.014719,0.00909 0.026756,0.0693 0.026756,0.1337866 0,0.064487 0.012032,0.1246911 0.026756,0.1337865 0.014719,0.00909 0.026756,0.051949 0.026756,0.095229 0,0.043281 0.012032,0.078693 0.026756,0.078693 0.014719,0 0.026756,0.047452 0.026756,0.1054498 0,0.057998 0.012032,0.1128918 0.026762,0.121987 0.014719,0.00909 0.026756,0.069299 0.026756,0.1337866 0,0.064487 0.012032,0.1246912 0.026756,0.1337865 0.014719,0.00909 0.026756,0.045217 0.026756,0.080271 0,0.035054 0.012032,0.071177 0.026756,0.080272 0.014719,0.00909 0.026756,0.068144 0.026756,0.1312187 0,0.081783 0.015793,0.12898 0.055075,0.1645237 0.054641,0.04945 0.06037,0.044443 0.7291356,-0.6373812 0.8719941,-0.8890193 1.2225871,-1.2598907 1.2225871,-1.2933017 0,-0.014814 0.04075,-0.07143 0.09058,-0.1258131 0.107074,-0.1169054 0.203759,-0.1328311 0.203759,-0.033565 0,0.035923 -0.01203,0.072755 -0.02676,0.081851 -0.01473,0.00909 -0.02676,0.045217 -0.02676,0.080272 0,0.035054 -0.01203,0.071177 -0.02676,0.080271 -0.01471,0.00909 -0.02676,0.051582 -0.02676,0.094416 0,0.042833 -0.02409,0.1207543 -0.05351,0.1731573 -0.02944,0.052403 -0.05351,0.1303239 -0.05351,0.1731573 0,0.042833 -0.01203,0.08532 -0.02676,0.094416 -0.01471,0.00909 -0.02676,0.057259 -0.02676,0.1070294 0,0.04977 -0.01203,0.097934 -0.02676,0.1070294 -0.01471,0.00909 -0.02676,0.045217 -0.02676,0.080271 0,0.035054 -0.01203,0.071177 -0.02676,0.080271 -0.01471,0.00909 -0.02676,0.063279 -0.02676,0.120408 0,0.057129 -0.01203,0.1113122 -0.02676,0.1204078 -0.01471,0.00909 -0.02676,0.045217 -0.02676,0.080272 0,0.035054 -0.01203,0.071177 -0.02676,0.080272 -0.01472,0.00909 -0.02676,0.057259 -0.02676,0.1070294 0,0.04977 -0.01203,0.097934 -0.02676,0.1070294 -0.01472,0.00909 -0.02676,0.045217 -0.02676,0.080272 0,0.035054 -0.01203,0.071177 -0.02676,0.080272 -0.01472,0.00909 -0.02676,0.045217 -0.02676,0.080271 0,0.035054 -0.01203,0.071176 -0.02676,0.080272 -0.01472,0.00909 -0.02675,0.057258 -0.02675,0.1070294 0,0.049772 -0.01203,0.097934 -0.02676,0.1070294 -0.01472,0.00909 -0.02675,0.040072 -0.02675,0.068836 0,0.028764 -0.01112,0.073207 -0.02471,0.098761 -0.04775,0.089805 -0.112064,0.3829093 -0.09548,0.4351436 0.01743,0.05496 0.15576,0.076731 0.185171,0.029144 0.008,-0.01302 0.07181,-0.032245 0.141703,-0.042725 0.06989,-0.010484 0.163352,-0.037984 0.207697,-0.061118 0.0744,-0.038814 0.128585,-0.054562 0.348198,-0.1011956 0.04415,-0.00938 0.131313,-0.040016 0.193698,-0.06809 0.06239,-0.028074 0.161012,-0.051045 0.219169,-0.051045 0.05816,0 0.113186,-0.012042 0.122278,-0.026758 0.0091,-0.014716 0.04522,-0.026758 0.08027,-0.026758 0.03505,0 0.07118,-0.012042 0.08027,-0.026757 0.0091,-0.014716 0.04521,-0.026758 0.08027,-0.026758 0.03505,0 0.07118,-0.012042 0.08027,-0.026758 0.0091,-0.014716 0.05725,-0.026757 0.107027,-0.026757 0.04977,0 0.09794,-0.012042 0.107027,-0.026758 0.0091,-0.014716 0.04521,-0.026758 0.08027,-0.026758 0.03505,0 0.07118,-0.012042 0.08027,-0.026758 0.0091,-0.014716 0.06277,-0.026757 0.11927,-0.026757 0.0624,0 0.162644,-0.031516 0.255333,-0.080272 0.08393,-0.04415 0.169438,-0.080271 0.190017,-0.080271 0.02059,0 0.03751,-0.00903 0.03762,-0.020066 2.56e-4,-0.02715 0.132633,-0.086962 0.192426,-0.086962 0.06683,0 0.06314,0.1111907 -0.0054,0.1605439 -0.02942,0.021214 -0.05351,0.059995 -0.05351,0.086179 0,0.026184 -0.01751,0.047608 -0.03891,0.047608 -0.0214,0 -0.263303,0.2197444 -0.53757,0.4883209 -0.274267,0.2685764 -0.515638,0.4922142 -0.536379,0.4969723 -0.02074,0.00475 -0.03772,0.026209 -0.03772,0.047664 0,0.021455 -0.02107,0.046992 -0.04683,0.056744 -0.06059,0.022943 -0.113722,0.075877 -0.113722,0.1133052 0,0.016227 -0.01935,0.036933 -0.04301,0.046011 -0.07255,0.027841 -0.672352,0.6343736 -0.683439,0.6911099 -0.01234,0.063196 0.07906,0.120184 0.19278,0.120184 0.0416,0 0.08307,0.012043 0.09217,0.026756 0.0091,0.014719 0.05725,0.026756 0.107028,0.026756 0.04976,0 0.09794,0.012043 0.107027,0.026756 0.0091,0.014719 0.05725,0.026756 0.107027,0.026756 0.04977,0 0.09794,0.012043 0.107027,0.026756 0.0091,0.014719 0.06398,0.026756 0.121988,0.026756 0.05799,0 0.105455,0.012043 0.105455,0.026756 0,0.014719 0.04745,0.026756 0.105454,0.026756 0.05799,0 0.112889,0.012043 0.121987,0.026756 0.0091,0.014719 0.05725,0.026755 0.107027,0.026755 0.04977,0 0.09794,0.012043 0.107027,0.026756 0.0091,0.014719 0.05725,0.026756 0.107027,0.026756 0.04977,0 0.09794,0.012043 0.107027,0.026756 0.0091,0.014719 0.05725,0.026756 0.107027,0.026756 0.04977,0 0.09794,0.012043 0.107027,0.026756 0.0091,0.014719 0.04521,0.026756 0.08027,0.026756 0.03505,0 0.07118,0.012043 0.08027,0.026756 0.0091,0.014719 0.0693,0.026756 0.133787,0.026756 0.06448,0 0.123906,0.010769 0.132038,0.02393 0.01674,0.027107 0.161524,0.05267 0.416488,0.073542 0.182437,0.014935 0.26757,0.061748 0.26757,0.1471318 0,0.064861 -0.158217,0.1299985 -0.315765,0.1299985 -0.116653,0 -0.260089,0.033338 -0.359491,0.083557 -0.02554,0.01291 -0.09408,0.02347 -0.152278,0.02347 -0.05819,0 -0.113258,0.012043 -0.122349,0.026756 -0.0091,0.014719 -0.04522,0.026756 -0.08027,0.026756 -0.03505,0 -0.07118,0.012043 -0.08027,0.026756 -0.0091,0.014719 -0.05725,0.026756 -0.107027,0.026756 -0.04977,0 -0.09794,0.012043 -0.107027,0.026756 -0.0091,0.014719 -0.0693,0.026756 -0.133786,0.026756 -0.06449,0 -0.124692,0.012043 -0.133788,0.026756 -0.0091,0.014719 -0.04521,0.026756 -0.08027,0.026756 -0.03505,0 -0.07118,0.012043 -0.08027,0.026756 -0.0091,0.014719 -0.0693,0.026756 -0.133788,0.026756 -0.06449,0 -0.124691,0.012043 -0.133787,0.026756 -0.0091,0.014719 -0.05124,0.026756 -0.09365,0.026756 -0.04241,0 -0.08456,0.012043 -0.09365,0.026756 -0.0091,0.014719 -0.05725,0.026756 -0.107027,0.026756 -0.04977,0 -0.09794,0.012043 -0.107027,0.026756 -0.0091,0.014719 -0.0693,0.026756 -0.133788,0.026756 -0.06448,0 -0.124692,0.012043 -0.133787,0.026756 -0.0091,0.014719 -0.04406,0.026756 -0.0777,0.026756 -0.03364,0 -0.08388,0.025097 -0.11165,0.055777 -0.0503,0.055573 -0.04809,0.058119 0.598058,0.6935152 0.356693,0.3507556 0.659677,0.6417272 0.673302,0.6466022 0.01362,0.0049 0.175471,0.156365 0.359665,0.336642 0.184194,0.180277 0.348425,0.327777 0.364959,0.327777 0.04844,0 0.106515,0.0719 0.106515,0.131875 0,0.04988 -0.016,0.05543 -0.15973,0.05543 -0.110137,0 -0.189315,-0.01661 -0.255008,-0.05351 -0.05241,-0.02943 -0.142365,-0.05351 -0.199914,-0.05351 -0.05755,0 -0.112079,-0.01204 -0.121174,-0.02676 -0.0091,-0.01472 -0.04522,-0.02676 -0.08027,-0.02676 -0.03505,0 -0.07117,-0.01204 -0.08027,-0.02675 -0.0091,-0.01472 -0.04521,-0.02676 -0.08027,-0.02676 -0.03505,0 -0.07118,-0.01204 -0.08027,-0.02675 -0.0091,-0.01472 -0.05725,-0.02676 -0.107027,-0.02676 -0.04977,0 -0.09794,-0.01204 -0.107028,-0.02676 -0.0091,-0.01472 -0.04522,-0.02676 -0.08027,-0.02676 -0.03505,0 -0.07118,-0.01204 -0.08027,-0.02676 -0.0091,-0.01472 -0.06328,-0.02675 -0.120407,-0.02675 -0.05712,0 -0.111315,-0.01204 -0.120409,-0.02676 -0.0091,-0.01472 -0.04521,-0.02675 -0.08027,-0.02675 -0.03505,0 -0.07118,-0.01204 -0.08027,-0.02676 -0.0091,-0.01472 -0.04521,-0.02676 -0.08027,-0.02676 -0.03505,0 -0.07118,-0.01204 -0.08027,-0.02676 -0.0091,-0.01472 -0.06363,-0.02676 -0.121171,-0.02676 -0.05755,0 -0.144134,-0.02155 -0.192411,-0.04788 -0.04828,-0.02634 -0.154,-0.0635 -0.23494,-0.08257 -0.08094,-0.01908 -0.187143,-0.05267 -0.236,-0.07466 -0.128734,-0.05794 -0.174269,-0.03125 -0.156286,0.09163 0.02923,0.199727 0.05327,0.288131 0.101904,0.374714 0.02726,0.04854 0.04956,0.135333 0.04956,0.192883 0,0.05755 0.01203,0.112078 0.02675,0.121173 0.01472,0.0091 0.02676,0.04522 0.02676,0.08027 0,0.03505 0.01203,0.07118 0.02676,0.08027 0.01472,0.0091 0.02676,0.04522 0.02676,0.08027 0,0.03505 0.01203,0.07118 0.02676,0.08027 0.01472,0.0091 0.02676,0.05726 0.02676,0.10703 0,0.04977 0.01203,0.09794 0.02676,0.107028 0.01472,0.0091 0.02676,0.04521 0.02676,0.08027 0,0.03505 0.01203,0.07118 0.02676,0.08027 0.01472,0.0091 0.02676,0.06399 0.02676,0.121987 0,0.05799 0.01203,0.105454 0.02676,0.105454 0.01471,0 0.02676,0.03541 0.02676,0.0787 0,0.04328 0.01203,0.08613 0.02676,0.09523 0.01471,0.0091 0.02676,0.04522 0.02676,0.08027 0,0.03505 0.01203,0.07118 0.02676,0.08027 0.01471,0.0091 0.02676,0.05725 0.02676,0.107027 0,0.04977 0.01203,0.09794 0.02676,0.107027 0.01471,0.0091 0.02676,0.04521 0.02676,0.08027 0,0.03505 0.01203,0.07118 0.02676,0.08027 0.01472,0.0091 0.02676,0.05158 0.02676,0.09441 0,0.04283 0.02353,0.119771 0.05229,0.170972 0.0772,0.137427 0.08532,0.309895 0.01462,0.309895 -0.02206,0 -0.04013,-0.01204 -0.04013,-0.02676 0,-0.01471 -0.0191,-0.02676 -0.04242,-0.02676 -0.04844,0 -0.3307,-0.290401 -0.33159,-0.341156 -2.56e-4,-0.01839 -0.01726,-0.03344 -0.03764,-0.03344 -0.02038,0 -0.05671,-0.02998 -0.08073,-0.06664 -0.02397,-0.03664 -0.17699,-0.202205 -0.339998,-0.367904 -0.7347106,-0.746847 -1.0138272,-1.038525 -1.0138272,-1.059462 0,-0.01241 -0.030103,-0.03627 -0.066892,-0.05304 -0.036789,-0.01676 -0.066894,-0.04332 -0.066894,-0.05903 0,-0.0157 -0.030791,-0.05934 -0.068431,-0.09698 -0.065695,-0.06569 -0.07051,-0.06655 -0.1204094,-0.02139 -0.031374,0.02839 -0.051975,0.08189 -0.051975,0.134963 0,0.04836 -0.012032,0.09537 -0.026756,0.104461 -0.014719,0.0091 -0.026756,0.04522 -0.026756,0.08027 0,0.03505 -0.012032,0.07118 -0.026756,0.08027 -0.014719,0.0091 -0.026756,0.07603 -0.026756,0.148745 0,0.07272 -0.012032,0.132207 -0.026756,0.132207 -0.014719,0 -0.026762,0.04816 -0.026762,0.107027 0,0.05886 -0.012032,0.107027 -0.026756,0.107027 -0.014719,0 -0.026756,0.03541 -0.026756,0.0787 0,0.04328 -0.012032,0.08613 -0.026762,0.09523 -0.014719,0.0091 -0.026756,0.0693 -0.026756,0.133787 0,0.06449 -0.012032,0.124691 -0.026762,0.133786 -0.014719,0.0091 -0.026756,0.04522 -0.026756,0.08027 0,0.03505 -0.012032,0.07118 -0.026756,0.08027 -0.014719,0.0091 -0.026761,0.0693 -0.026761,0.133786 0,0.06448 -0.012032,0.124692 -0.026756,0.133786 -0.014719,0.0091 -0.026756,0.05725 -0.026756,0.107027 0,0.04977 -0.012032,0.09794 -0.026756,0.107027 -0.014719,0.0091 -0.026762,0.04521 -0.026762,0.08027 0,0.03505 -0.012032,0.07118 -0.026756,0.08027 -0.014719,0.0091 -0.026762,0.07661 -0.026762,0.150037 0,0.07875 -0.021962,0.178932 -0.053515,0.244262 -0.029432,0.06092 -0.053514,0.154797 -0.053514,0.208619 0,0.155842 -0.1702601,0.263983 -0.198721,0.126218 z m 0.6402155,-3.28446 c 0.00909,-0.01472 0.051951,-0.02675 0.09523,-0.02675 0.043278,0 0.078693,-0.01204 0.078693,-0.02676 0,-0.01472 0.035409,-0.02675 0.078693,-0.02675 0.043278,0 0.086133,-0.01204 0.095227,-0.02676 0.00909,-0.01472 0.038912,-0.02675 0.066252,-0.02675 0.060363,0 0.3409168,-0.146525 0.5180754,-0.270577 0.071201,-0.04985 0.1540716,-0.104593 0.1841579,-0.121638 0.074721,-0.04233 0.4222162,-0.3894043 0.4222162,-0.4217011 0,-0.014305 0.03162,-0.059014 0.07026,-0.099351 0.03865,-0.040338 0.08571,-0.1012003 0.104579,-0.135251 0.106012,-0.191268 0.226516,-0.4414067 0.226516,-0.4701962 0,-0.018263 0.01203,-0.033209 0.02676,-0.033209 0.01472,0 0.02675,-0.036123 0.02675,-0.080271 0,-0.044151 0.01203,-0.080273 0.02676,-0.080273 0.01472,0 0.02675,-0.048165 0.02675,-0.1070294 0,-0.058866 0.01203,-0.1070283 0.02676,-0.1070283 0.01698,0 0.02676,-0.2001535 0.02676,-0.546946 0,-0.3357677 -0.01036,-0.5533305 -0.02676,-0.5634827 -0.01472,-0.00909 -0.02676,-0.057259 -0.02676,-0.1070295 0,-0.049772 -0.01203,-0.097934 -0.02675,-0.1070294 -0.01472,-0.00909 -0.02676,-0.04007 -0.02676,-0.068836 0,-0.028765 -0.01072,-0.073206 -0.02383,-0.098761 -0.0131,-0.025559 -0.05186,-0.1066672 -0.08613,-0.18025 C 10.292198,6.8384296 10.257888,6.7785094 10.122614,6.564054 10.027865,6.413839 9.9710974,6.3444062 9.7897092,6.156883 9.678178,6.0415805 9.562845,5.9361759 9.5334113,5.9226511 9.5039781,5.9091247 9.4257125,5.8566285 9.3594884,5.80599 9.218211,5.6979615 8.8840623,5.5236691 8.8182298,5.5236691 c -0.025165,0 -0.088649,-0.024081 -0.1410517,-0.053515 -0.059315,-0.033314 -0.1448762,-0.053515 -0.2266719,-0.053515 -0.072268,0 -0.1388353,-0.012042 -0.1479305,-0.026758 -0.00983,-0.015899 -0.1781345,-0.026758 -0.4147386,-0.026758 -0.2366046,0 -0.4049119,0.010865 -0.4147391,0.026758 -0.00909,0.014716 -0.069298,0.026758 -0.1337868,0.026758 -0.064487,0 -0.1246917,0.012042 -0.1337869,0.026757 -0.00909,0.014716 -0.039904,0.026758 -0.068472,0.026758 -0.028564,0 -0.051935,0.012042 -0.051935,0.026758 0,0.014716 -0.032207,0.026757 -0.071574,0.026757 -0.079594,0 -0.4941357,0.1943007 -0.5448109,0.2553582 -0.017792,0.021434 -0.046677,0.038972 -0.064197,0.038972 -0.017509,0 -0.066462,0.036123 -0.1087592,0.080271 -0.042296,0.044149 -0.090597,0.080272 -0.1073308,0.080272 -0.035792,0 -0.3609227,0.3307534 -0.3609227,0.367161 0,0.01368 -0.031137,0.054062 -0.069191,0.089739 -0.038055,0.035678 -0.092453,0.1130312 -0.1208798,0.1718978 -0.028429,0.058866 -0.062965,0.12509 -0.076745,0.1471648 -0.074566,0.11945 -0.188059,0.3968055 -0.188059,0.4595863 0,0.039822 -0.012031,0.079844 -0.026756,0.088938 -0.014719,0.00909 -0.026759,0.045215 -0.026759,0.080273 0,0.035053 -0.012032,0.071177 -0.026756,0.080272 -0.016383,0.010126 -0.026759,0.222729 -0.026759,0.5485249 0,0.3257957 0.010364,0.5383975 0.026759,0.5485248 0.014719,0.00909 0.026756,0.045221 0.026756,0.080271 0,0.035053 0.012031,0.071177 0.026759,0.080273 0.014719,0.00909 0.026756,0.045628 0.026756,0.08118 0,0.058944 0.1249093,0.3707351 0.1872245,0.467344 0.014232,0.022075 0.04915,0.088299 0.077579,0.1471653 0.028427,0.058866 0.082824,0.1362197 0.1208798,0.1718973 0.038055,0.035678 0.069191,0.077568 0.069191,0.093092 0,0.03762 0.4321587,0.4708375 0.4696868,0.4708375 0.016155,0 0.058565,0.03138 0.094242,0.06973 0.035679,0.03835 0.08895,0.08091 0.1183838,0.09457 0.029432,0.01366 0.1137174,0.05946 0.187301,0.101767 0.073581,0.04231 0.1548575,0.07802 0.1806102,0.07935 0.025754,0.0013 0.046827,0.01446 0.046827,0.02918 0,0.01472 0.036123,0.02676 0.080273,0.02676 0.044151,0 0.080273,0.01204 0.080273,0.02675 0,0.01472 0.023372,0.02676 0.051935,0.02676 0.028564,0 0.059377,0.01204 0.068472,0.02676 0.00909,0.01472 0.069301,0.02675 0.1337869,0.02675 0.064488,0 0.1246917,0.01204 0.1337868,0.02676 0.010031,0.01622 0.2048901,0.02675 0.4950114,0.02675 0.2901192,0 0.484982,-0.01053 0.4950092,-0.02675 z M 7.9814873,10.538674 c -0.041315,-0.03121 -0.057321,-0.08438 -0.07021,-0.233276 C 7.9020926,10.19933 7.8755325,10.064385 7.8522495,10.005519 7.793362,9.8566428 7.7924459,9.4300502 7.8507008,9.3071833 7.9166028,9.1683061 8.0427279,9.1895 8.1309101,9.3542733 c 0.027361,0.051125 0.031127,0.051461 0.080096,0.00715 0.055373,-0.050112 0.072607,-0.2359941 0.024628,-0.2656462 -0.014719,-0.00909 -0.026756,-0.08134 -0.026756,-0.160544 0,-0.079204 -0.012032,-0.1514486 -0.026762,-0.1605439 -0.014719,-0.00909 -0.026756,-0.045215 -0.026756,-0.080272 0,-0.035053 -0.012032,-0.071177 -0.026762,-0.080273 -0.014719,-0.00909 -0.026756,-0.044286 -0.026756,-0.078202 -1e-7,-0.056827 -0.1155471,-0.2027511 -0.1605431,-0.2027511 -0.010698,0 -0.049183,0.029727 -0.085514,0.066056 -0.073705,0.073705 -0.1285446,0.2288036 -0.1285446,0.363555 0,0.048914 -0.014336,0.1583901 -0.031876,0.2432794 -0.02564,0.1241367 -0.024984,0.167228 0.00336,0.2201816 0.019379,0.03621 0.02922,0.099929 0.021864,0.1415971 C 7.7000055,9.4844447 7.6150569,9.8118182 7.589819,9.8717364 7.5774306,9.9011689 7.564138,10.021577 7.5602984,10.13931 l -0.00699,0.214058 -0.097504,0.0081 c -0.054099,0.0045 -0.1184767,0.03131 -0.1446232,0.0602 -0.06658,0.07357 -0.108777,0.0649 -0.1572736,-0.03232 -0.032413,-0.06497 -0.0421,-0.172688 -0.0421,-0.4682528 0,-0.2380743 -0.010162,-0.3838697 -0.026756,-0.3838697 -0.014719,0 -0.026756,-0.018919 -0.026756,-0.042048 0,-0.058183 -0.045856,-0.097504 -0.1945482,-0.1668172 C 6.7423161,9.2717999 6.7318772,9.2710316 6.6496867,9.312657 6.5273271,9.3746288 6.469633,9.4307823 6.469633,9.4878989 c 0,0.039858 -0.020861,0.049369 -0.1083136,0.049369 -0.08462,0 -0.12248,-0.016098 -0.1730762,-0.073583 -0.035621,-0.040472 -0.065147,-0.086768 -0.06561,-0.1028813 -5.12e-4,-0.016114 -0.024933,-0.051094 -0.054362,-0.077729 -0.029433,-0.026638 -0.053514,-0.062758 -0.053514,-0.080272 0,-0.017513 -0.024091,-0.053635 -0.053515,-0.080273 -0.029432,-0.026638 -0.053514,-0.060839 -0.053514,-0.076005 0,-0.015168 -0.022809,-0.052433 -0.050691,-0.082815 C 5.8291617,8.9333263 5.7980865,8.8578189 5.7879878,8.7959106 5.7705315,8.6889336 5.775703,8.6768514 5.8921926,8.5523202 5.9596039,8.4802533 6.0147573,8.4074869 6.0147573,8.390618 c 0,-0.016868 0.012032,-0.030673 0.026755,-0.030673 0.014719,0 0.026756,-0.023372 0.026756,-0.051936 0,-0.028564 0.012032,-0.059377 0.026762,-0.068473 0.014719,-0.00909 0.026756,-0.04007 0.026756,-0.068836 0,-0.028765 0.014951,-0.076216 0.033193,-0.1054498 0.026421,-0.042307 0.026421,-0.063998 0,-0.1063039 -0.018252,-0.029236 -0.033193,-0.1368898 -0.033193,-0.2392367 0,-0.1023464 -0.012032,-0.1935264 -0.026756,-0.2026221 -0.014719,-0.00909 -0.026762,-0.045215 -0.026762,-0.080271 0,-0.035053 -0.012032,-0.071177 -0.026756,-0.080273 -0.015689,-0.0097 -0.026755,-0.164755 -0.026755,-0.3746026 0,-0.2098474 0.011091,-0.3649105 0.026755,-0.3746019 0.014719,-0.00909 0.026756,-0.073373 0.026756,-0.1428376 0,-0.095605 0.013003,-0.1356746 0.053514,-0.1648717 0.029432,-0.021212 0.053515,-0.059994 0.053515,-0.086179 0,-0.032946 0.020608,-0.047607 0.066894,-0.047607 0.057457,0 0.067012,0.012264 0.067745,0.086961 7.749e-4,0.087882 0.050758,0.1806117 0.097188,0.1806117 0.034438,0 0.1845111,-0.1624389 0.2056789,-0.2226247 0.011186,-0.031819 0.038044,-0.045732 0.077454,-0.040136 0.055739,0.00791 0.060844,0.023812 0.067177,0.2092457 0.00475,0.1384752 -0.00528,0.2214153 -0.0323,0.2675731 -0.093763,0.1602051 -0.097152,0.1854314 -0.041372,0.3078819 0.04598,0.1009288 0.049535,0.1357939 0.025345,0.2485546 -0.015463,0.072137 -0.025548,0.1420105 -0.022401,0.1552744 0.014181,0.0596 -0.041547,0.1721737 -0.125542,0.2535803 -0.067306,0.065237 -0.091557,0.1118078 -0.091557,0.1758269 0,0.047896 -0.013288,0.1490421 -0.02953,0.2247687 -0.021528,0.1004021 -0.021528,0.14568 0,0.1672124 0.016233,0.016242 0.02953,0.054969 0.02953,0.086064 0,0.056673 0.094959,0.1577763 0.2070045,0.2204027 0.071874,0.040173 0.4886863,0.045876 0.4886863,0.0067 0,-0.014719 0.028584,-0.026756 0.063529,-0.026756 0.074881,0 0.2575568,-0.1579158 0.2575568,-0.2226475 0,-0.02471 0.012032,-0.044925 0.026756,-0.044925 0.014719,0 0.026756,-0.023372 0.026756,-0.051935 0,-0.028564 0.012032,-0.059377 0.026756,-0.068473 0.014719,-0.00909 0.026756,-0.069299 0.026756,-0.1337867 0,-0.064488 0.012032,-0.1246912 0.026756,-0.1337863 C 7.6640178,7.7843695 7.651179,7.7099235 7.5770952,7.5612577 7.5043921,7.41536 7.4647013,7.3995797 7.419901,7.4987593 c -0.014517,0.032159 -0.036459,0.058473 -0.048733,0.058473 -0.045385,0 -0.098772,-0.07851 -0.098772,-0.1452538 0,-0.037843 -0.012032,-0.068805 -0.026762,-0.068805 -0.014719,0 -0.026755,-0.02408 -0.026755,-0.053515 0,-0.029432 -0.012032,-0.053515 -0.026756,-0.053515 -0.016795,0 -0.026756,-0.1694629 -0.026756,-0.4548742 0,-0.4464707 0.00103,-0.4548746 0.057065,-0.4548746 0.031385,0 0.076538,0.02236 0.1003391,0.04969 0.1602381,0.1839827 0.3242269,0.022236 0.3242269,-0.3197916 0,-0.099886 -0.012032,-0.1890527 -0.026756,-0.198148 -0.039579,-0.02446 -0.032506,-0.1274194 0.015333,-0.2233263 0.1168815,-0.2342955 0.3860219,0.027413 0.3860219,0.3753637 0,0.1249161 -0.019683,0.1986799 -0.095875,0.3592294 -0.1190271,0.2508232 -0.1527325,0.5350091 -0.080114,0.6754386 0.036603,0.070779 0.055944,0.083624 0.1037986,0.068925 0.078355,-0.024069 0.075444,-0.019854 0.1040821,-0.1508313 0.079492,-0.3635798 0.097865,-0.4224879 0.1317725,-0.4224879 0.013003,0 0.023625,-0.018919 0.023625,-0.042048 0,-0.042829 0.060969,-0.1184969 0.095479,-0.1184969 0.074203,0 0.1318366,0.3199575 0.065064,0.3612239 -0.044379,0.027427 -0.030098,0.1626058 0.022168,0.209911 0.069432,0.062834 0.094026,0.056517 0.2025859,-0.052042 C 8.690031,6.8031553 8.724558,6.671687 8.663751,6.6341068 8.649032,6.6250168 8.636995,6.5451758 8.636995,6.4566935 c 0,-0.164846 0.03588,-0.2373253 0.1174927,-0.2373253 0.033374,0 0.042477,-0.046254 0.048733,-0.2475048 0.00577,-0.1854853 0.016693,-0.2475053 0.043629,-0.2475053 0.043939,0 0.118466,0.2041483 0.086278,0.2363363 -0.012822,0.012827 0.00985,0.085452 0.05128,0.1642067 0.050258,0.095536 0.079691,0.2007214 0.091014,0.3252069 0.00918,0.1011992 0.023936,0.2483718 0.032723,0.3270507 0.03465,0.3099355 -0.1188472,0.6207156 -0.3709958,0.7511501 -0.040369,0.020882 -0.073399,0.047974 -0.073399,0.060204 0,0.031272 -0.1271699,0.02783 -0.1468244,-0.00398 -0.036411,-0.058915 -0.1207472,0.037538 -0.1207472,0.1380955 0,0.054458 -0.012032,0.1064564 -0.026762,0.1155508 -0.014719,0.00909 -0.026756,0.051239 -0.026756,0.09365 0,0.042415 0.012032,0.084555 0.026756,0.093651 0.014719,0.00909 0.026762,0.04366 0.026762,0.076806 0,0.033147 0.021068,0.083611 0.046827,0.1121401 0.025754,0.028528 0.064365,0.087994 0.085807,0.1321424 0.060398,0.124373 0.111006,0.173923 0.1776426,0.173923 0.033642,0 0.06861,0.012043 0.077705,0.026756 0.026472,0.042829 0.3430418,0.031726 0.4373832,-0.015339 0.046409,-0.023149 0.084384,-0.053365 0.084384,-0.067137 0,-0.013774 0.036123,-0.06284 0.080273,-0.1090379 0.077808,-0.08142 0.080268,-0.091881 0.080148,-0.3409123 C 9.466219,7.7630103 9.4645441,7.7560983 9.381042,7.6670032 L 9.295854,7.5761012 9.301484,7.239621 C 9.304584,7.054557 9.318889,6.891371 9.333282,6.8769861 9.382609,6.8276591 9.359382,6.6795671 9.278089,6.5250227 9.20639,6.388721 9.197663,6.3482646 9.204506,6.1839534 c 0.00586,-0.1404707 0.01897,-0.1934632 0.053215,-0.214979 0.03574,-0.022455 0.056412,-0.015912 0.096789,0.030643 0.028239,0.032558 0.081173,0.059197 0.1176392,0.059197 0.036464,0 0.088091,0.024081 0.1147265,0.053515 0.026638,0.029433 0.059464,0.053515 0.072952,0.053515 0.039124,0 0.1009716,0.072584 0.1009716,0.1184969 0,0.023124 0.00903,0.042141 0.020071,0.042254 0.029917,3.069e-4 0.086962,0.135314 0.086962,0.2058054 0,0.033859 0.010293,0.061559 0.022886,0.061559 0.022603,0 0.065162,0.3127877 0.063707,0.4682532 -0.00129,0.1298352 -0.038272,0.3345247 -0.063375,0.3500379 -0.012776,0.00789 -0.023217,0.05377 -0.023217,0.1019557 0,0.048186 -0.00722,0.094822 -0.016025,0.1036366 -0.0088,0.00882 -0.021858,0.1260431 -0.028988,0.2605115 -0.011794,0.2223746 -0.00678,0.2570986 0.055255,0.3839218 0.037523,0.076688 0.104748,0.1744314 0.1493947,0.2172063 0.09398,0.090041 0.09896,0.1467113 0.03301,0.3754704 -0.04843,0.1679807 -0.1460125,0.3390953 -0.2426917,0.4255748 -0.031343,0.028038 -0.056985,0.063498 -0.056985,0.078807 0,0.064819 -0.14513,0.1779289 -0.2282979,0.1779289 -0.076446,0 -0.1730632,-0.06573 -0.1730632,-0.1177369 0,-0.02858 -0.056125,-0.077398 -0.1366691,-0.1188746 -0.061737,-0.031788 -0.083324,-0.029034 -0.1873015,0.02392 -0.064639,0.032919 -0.1335745,0.082652 -0.1531934,0.1105187 -0.019611,0.027867 -0.064537,0.079539 -0.099822,0.1148254 -0.081028,0.081027 -0.1722187,0.2419443 -0.1722187,0.3038986 0,0.026043 -0.013927,0.061288 -0.030976,0.078324 -0.021532,0.021528 -0.022554,0.041526 -0.00336,0.065555 0.015178,0.019017 0.035679,0.090473 0.045556,0.158785 0.015664,0.108273 0.00945,0.134012 -0.048516,0.20068 -0.054587,0.0628 -0.075145,0.07125 -0.1149254,0.04725 -0.026647,-0.01607 -0.064153,-0.06123 -0.083352,-0.10034 -0.043371,-0.08836 -0.085502,-0.09195 -0.085502,-0.0073 0,0.09451 -0.065477,0.203752 -0.1476923,0.246406 -0.088618,0.04598 -0.093344,0.04584 -0.1600155,-0.0046 z"
       id="path913" />
  </g>
</svg>
