<?xml version="1.0" encoding="UTF-8" standalone="no"?>
<svg
   xmlns:dc="http://purl.org/dc/elements/1.1/"
   xmlns:cc="http://creativecommons.org/ns#"
   xmlns:rdf="http://www.w3.org/1999/02/22-rdf-syntax-ns#"
   xmlns:svg="http://www.w3.org/2000/svg"
   xmlns="http://www.w3.org/2000/svg"
   xmlns:sodipodi="http://sodipodi.sourceforge.net/DTD/sodipodi-0.dtd"
   xmlns:inkscape="http://www.inkscape.org/namespaces/inkscape"
   width="128px"
   height="24px"
   viewBox="0 0 128 24"
   version="1.1"
   id="SVGRoot"
   sodipodi:docname="wunderworlds.svg"
   inkscape:version="1.0.1 (3bc2e813f5, 2020-09-07)">
  <defs
     id="defs47" />
  <sodipodi:namedview
     id="base"
     pagecolor="#ffffff"
     bordercolor="#666666"
     borderopacity="1.0"
     inkscape:pageopacity="0.0"
     inkscape:pageshadow="2"
     inkscape:zoom="5.6"
     inkscape:cx="74.590747"
     inkscape:cy="31.395775"
     inkscape:document-units="px"
     inkscape:current-layer="layer1"
     inkscape:document-rotation="0"
     showgrid="false"
     inkscape:window-width="1267"
     inkscape:window-height="770"
     inkscape:window-x="160"
     inkscape:window-y="0"
     inkscape:window-maximized="0" />
  <metadata
     id="metadata50">
    <rdf:RDF>
      <cc:Work
         rdf:about="">
        <dc:format>image/svg+xml</dc:format>
        <dc:type
           rdf:resource="http://purl.org/dc/dcmitype/StillImage" />
        <dc:title></dc:title>
      </cc:Work>
    </rdf:RDF>
  </metadata>
  <g
     inkscape:label="Layer 1"
     inkscape:groupmode="layer"
     id="layer1">
    <path
       style="fill:#000000;stroke-width:0.155264"
       d="m 82.640282,22.767401 c -0.129447,-0.307984 -0.280309,-0.762131 -0.335246,-1.009217 -0.07502,-0.337396 -0.262924,-0.521139 -0.754736,-0.737999 -0.360165,-0.158814 -0.776162,-0.350953 -0.924449,-0.426977 -0.148282,-0.07602 -0.375356,-0.138223 -0.504607,-0.138223 -0.129251,0 -0.235005,-0.06987 -0.235005,-0.155264 0,-0.0854 -0.133914,-0.155264 -0.297588,-0.155264 -0.163674,0 -0.320878,-0.0524 -0.349345,-0.116448 -0.02849,-0.06405 -0.276,-0.273653 -0.550073,-0.465792 -0.583075,-0.408759 -1.151255,-0.445586 -1.666463,-0.108011 -0.250806,0.164335 -0.401315,0.187945 -0.471734,0.074 -0.114385,-0.185078 0.236975,-1.091654 0.423089,-1.091654 0.244179,0 0.104371,-0.561868 -0.193166,-0.77632 -0.170788,-0.1231 -0.310529,-0.283252 -0.310529,-0.355895 0,-0.07264 -0.09985,-0.231938 -0.221908,-0.353988 -0.122047,-0.12205 -0.301869,-0.607082 -0.399602,-1.077849 -0.09773,-0.470767 -0.242411,-0.815941 -0.321511,-0.767053 -0.0791,0.04889 -0.152558,-0.02004 -0.163232,-0.153172 -0.02093,-0.260906 -0.07376,-0.506027 -0.135856,-0.63022 -0.05916,-0.118317 -0.114312,-0.364222 -0.135855,-0.605719 -0.02452,-0.27509 -1.017224,-0.869289 -1.452252,-0.869289 -0.180532,0 -0.455362,-0.115043 -0.610735,-0.255652 -0.267789,-0.242344 -0.268421,-0.266334 -0.0122,-0.460854 0.148645,-0.112861 0.459118,-0.207424 0.689936,-0.21014 0.449122,-0.0053 1.225457,-0.298626 1.38565,-0.523573 0.05356,-0.07524 0.0629,-0.268799 0.02071,-0.430136 -0.0422,-0.161338 0.0011,-0.293341 0.09666,-0.293341 0.09535,0 0.173369,-0.235986 0.173369,-0.524413 0,-0.2884273 0.102955,-0.6098573 0.228792,-0.7142896 0.125831,-0.1044325 0.274639,-0.4343085 0.330684,-0.7330583 0.0629,-0.3352532 0.146664,-0.4707565 0.218835,-0.3539821 0.07509,0.1215024 0.181412,-0.00618 0.297146,-0.3568629 0.09912,-0.3003344 0.312538,-0.6986309 0.474269,-0.8851036 0.269384,-0.3106047 0.269311,-0.7325472 -1.56e-4,-0.934948 -0.05685,-0.042696 -0.149161,-0.3128272 -0.205133,-0.6002882 -0.09896,-0.5081972 -0.08997,-0.5196634 0.32493,-0.4144717 1.053964,0.2672179 1.512841,0.261691 1.824081,-0.02197 0.170788,-0.1556577 0.520133,-0.3877058 0.776318,-0.5156626 0.256185,-0.1279566 0.500728,-0.2680668 0.543424,-0.311356 0.124874,-0.1266063 1.164397,-0.4652116 1.4282,-0.4652116 0.348494,0 0.612762,-0.3797075 0.69644,-1.0006802 0.141862,-1.0526793 0.29353,-1.4059125 0.60365,-1.4059125 0.279128,0 0.297465,0.1150202 0.271415,1.7020333 -0.02278,1.3878579 -0.07572,1.7369733 -0.286802,1.8913203 -0.142376,0.104108 -0.350571,0.1540963 -0.462655,0.1110852 -0.112085,-0.043011 -0.418975,0.033072 -0.681972,0.1690742 -0.262997,0.1360018 -0.531311,0.2547558 -0.59625,0.263898 -0.502256,0.070705 -1.799772,0.9438011 -2.448485,1.647578 -0.718925,0.7799457 -0.745081,0.8191996 -1.360384,2.0414706 -0.672949,1.3367927 -0.789215,2.3433347 -0.270671,2.3433347 0.403404,0 1.693934,0.308933 2.133093,0.510629 l 0.345332,0.158601 -0.33027,0.286441 c -0.181647,0.157543 -0.546654,0.286831 -0.811123,0.287307 -0.264469,4.81e-4 -0.743143,0.07371 -1.06373,0.162739 -0.579296,0.160879 -0.58228,0.165879 -0.484899,0.81427 0.177628,1.182711 1.356326,3.524782 1.773923,3.524782 0.08129,0 0.147806,0.104803 0.147806,0.232896 0,0.128092 0.05429,0.232895 0.120666,0.232895 0.06636,0 0.363304,0.211244 0.659868,0.469429 0.661447,0.575845 0.8276,0.706926 0.927371,0.731631 0.04271,0.01057 0.287238,0.100209 0.543423,0.19919 0.256186,0.09898 0.580147,0.20316 0.719916,0.231508 0.139763,0.02835 0.403901,0.144414 0.586976,0.257925 0.282049,0.174878 0.355474,0.170832 0.481008,-0.02651 0.08148,-0.128093 0.15365,-0.163027 0.160372,-0.07763 0.09054,1.149799 0.08798,3.161487 -0.0045,3.408205 -0.106795,0.285448 -0.143205,0.260604 -0.354382,-0.241838 z m 2.143508,0.182695 c -0.143692,-0.232491 -0.05273,-2.675998 0.112197,-3.01335 0.100756,-0.206116 0.242774,-0.259417 0.511508,-0.191969 0.231177,0.05802 0.592881,-0.025 0.955346,-0.219265 0.320822,-0.171952 0.706622,-0.31264 0.857327,-0.31264 0.150706,0 0.274013,-0.08151 0.274013,-0.181142 0,-0.09963 0.03896,-0.142178 0.08658,-0.09456 0.04763,0.04762 0.30773,-0.115407 0.578026,-0.362283 0.270296,-0.246876 0.580673,-0.448866 0.689735,-0.448866 0.109062,0 0.198897,-0.0524 0.199642,-0.116447 5.6e-4,-0.06405 0.231899,-0.360989 0.513685,-0.659872 0.521601,-0.55324 1.011067,-1.382537 1.351692,-2.290145 0.104159,-0.277534 0.237658,-0.504608 0.296658,-0.504608 0.0878,0 0.110339,-1.025299 0.03135,-1.426678 -0.02334,-0.118462 -1.383517,-0.363861 -1.690128,-0.304921 -0.106744,0.02052 -0.194084,-0.0431 -0.194084,-0.141374 0,-0.09827 -0.102563,-0.139324 -0.227924,-0.09122 -0.125356,0.0481 -0.269921,0.01951 -0.321253,-0.06355 -0.05133,-0.08306 -0.158374,-0.110819 -0.237871,-0.06169 -0.07949,0.04913 -0.144537,0.01534 -0.144537,-0.0751 0,-0.149756 0.340121,-0.238248 0.678624,-0.176564 0.07436,0.01355 0.474533,-0.08807 0.889282,-0.225829 0.414744,-0.137756 0.818197,-0.210839 0.896564,-0.162406 0.137725,0.08512 0.376246,-0.291349 0.385744,-0.608845 0.01069,-0.358089 -0.268034,-1.2570743 -0.539808,-1.7409403 -0.160584,-0.2859089 -0.291973,-0.6690906 -0.291973,-0.8515165 0,-0.1824254 -0.04187,-0.2898116 -0.09304,-0.2386356 C 90.299981,8.4368581 89.909261,8.0595669 89.482909,7.5472571 89.056563,7.0349474 88.609753,6.5781868 88.49,6.5322341 88.370248,6.4862809 88.3176,6.3753399 88.373001,6.2856986 c 0.05903,-0.095516 0.02608,-0.1168527 -0.07958,-0.051545 -0.09917,0.061292 -0.371981,-0.023228 -0.60623,-0.1878295 C 87.452936,5.8817265 86.999264,5.653666 86.679035,5.5395235 86.358801,5.425381 86.096795,5.2761587 86.096795,5.2079185 c 0,-0.06824 -0.299407,-0.1240734 -0.665348,-0.1240734 h -0.665344 l -0.0361,-1.4361921 c -0.01987,-0.7899058 -0.07136,-1.5485986 -0.11448,-1.6859837 -0.09119,-0.2905313 0.30492,-0.6777889 0.542864,-0.5307319 0.08914,0.055088 0.162062,0.2970897 0.162062,0.5377794 0,0.2406897 0.104808,0.5245962 0.232901,0.6309038 0.128092,0.1063076 0.232895,0.391172 0.232895,0.6330321 0,0.3881036 0.06838,0.4506694 0.58224,0.5327673 0.703891,0.1124577 2.056164,0.7287769 1.955694,0.8913385 -0.03963,0.064107 0.07182,0.1165587 0.247655,0.1165587 0.175831,0 0.319691,0.069869 0.319691,0.155264 0,0.085395 0.100095,0.155264 0.222434,0.155264 0.122338,0 0.269713,0.1489694 0.327499,0.3310428 0.07388,0.232777 0.140356,0.2739446 0.223951,0.1386876 0.07634,-0.1235144 0.153834,-0.1358054 0.21654,-0.034343 0.05373,0.086906 0.184714,0.1364812 0.291117,0.1101662 0.579767,-0.1433815 0.892153,-0.2863818 0.892153,-0.4083976 0,-0.075436 0.0778,-0.1371555 0.172893,-0.1371555 0.202306,0 0.04383,1.3849499 -0.185665,1.6225091 -0.198327,0.2053041 -0.179196,0.5921996 0.02312,0.4671709 0.204075,-0.1261251 0.627326,0.4001772 0.534306,0.6643943 -0.03722,0.1057193 0.01142,0.1755884 0.108138,0.1552637 0.0967,-0.020323 0.243995,0.2425217 0.327337,0.5841026 0.08334,0.3415809 0.193849,0.6559906 0.245579,0.6986885 0.283259,0.2338019 0.482212,0.8595642 0.482212,1.5166692 0,0.696421 0.02703,0.746801 0.418281,0.77918 0.230051,0.01904 0.457125,0.09692 0.504607,0.17306 0.04746,0.07614 0.400739,0.225025 0.785016,0.330848 0.399446,0.110001 0.598943,0.22638 0.465796,0.271731 -0.128098,0.04363 -0.288772,0.173884 -0.357064,0.289455 -0.06829,0.115571 -0.269646,0.210129 -0.447465,0.210129 -0.177812,0 -0.55862,0.145436 -0.846239,0.323191 -0.417844,0.258243 -0.522932,0.423256 -0.522932,0.821124 0,0.273862 -0.132123,0.757081 -0.293603,1.073819 -0.161485,0.316739 -0.340177,0.761451 -0.3971,0.98825 -0.123375,0.491555 -0.971366,1.762064 -1.176079,1.762064 -0.08776,0 -0.08872,0.145309 -0.0022,0.372196 0.07783,0.204707 0.09939,0.414313 0.04791,0.465793 -0.0515,0.05148 -0.01209,0.0936 0.08755,0.0936 0.243955,0 0.232324,0.733222 -0.01293,0.815744 -0.267195,0.0899 -0.737502,-0.0458 -0.737502,-0.212796 0,-0.261139 -0.729385,-0.135838 -1.009219,0.173372 -0.154562,0.170791 -0.374997,0.310529 -0.489852,0.310529 -0.114861,0 -0.208833,0.06987 -0.208833,0.155264 0,0.0854 -0.13974,0.155264 -0.310529,0.155264 -0.170793,0 -0.310528,0.06987 -0.310528,0.155264 0,0.08539 -0.178798,0.155264 -0.397325,0.155264 -0.225344,0 -0.355788,0.0672 -0.301366,0.155264 0.05278,0.0854 -0.01058,0.155264 -0.140832,0.155264 -0.507478,0 -1.31382,0.518815 -1.411553,0.908218 -0.0756,0.30122 -0.131154,0.343658 -0.233371,0.178272 -0.09083,-0.14696 -0.150062,0.0022 -0.18341,0.461821 -0.04741,0.653326 -0.301344,0.971178 -0.508329,0.636272 z m -0.915695,-4.55236 c -0.04198,-0.789906 -0.123978,-1.733135 -0.182229,-2.096064 -0.06714,-0.418361 -0.0473,-0.659872 0.05429,-0.659872 0.08811,0 0.182778,-0.117282 0.210389,-0.260626 0.04702,-0.24399 0.06684,-0.24399 0.310825,0 0.403891,0.403901 0.486427,0.315802 0.374024,-0.399246 -0.132582,-0.843401 -0.425798,-1.513824 -0.662085,-1.513824 -0.264419,0 -0.532235,0.825702 -0.528787,1.630272 0.0011,0.256185 -0.131854,0.960533 -0.295455,1.565216 -0.163596,0.604683 -0.257825,1.25097 -0.209387,1.436192 0.06868,0.262614 0.0197,0.336768 -0.222462,0.336768 -0.381585,0 -0.497061,-0.381439 -0.499888,-1.651231 -0.0017,-0.844562 -0.04629,-0.981492 -0.391862,-1.207912 -0.450056,-0.294889 -0.999055,-0.111026 -1.019893,0.341565 -0.0075,0.163499 -0.0426,0.190978 -0.09089,0.0712 -0.04327,-0.107276 -0.137077,-0.158926 -0.208508,-0.114778 -0.144235,0.08914 -1.102928,-1.256568 -1.159891,-1.628119 -0.01987,-0.129664 0.133577,-0.394403 0.341016,-0.588311 0.367816,-0.343831 0.375468,-0.399565 0.309107,-2.251328 -0.08739,-2.4384912 0.02883,-3.4672414 0.385017,-3.4081235 0.180158,0.0299 0.281764,-0.090132 0.328579,-0.3881599 0.03728,-0.2372956 0.04948,-0.1258626 0.02709,0.2476286 -0.02239,0.3734912 -0.125652,0.73158 -0.229486,0.7957522 -0.105637,0.065288 -0.146318,0.2504827 -0.09236,0.4204805 0.139007,0.4379698 0.753084,0.3538612 0.893233,-0.122343 0.07762,-0.2637498 0.101937,-0.1675402 0.08166,0.3230994 -0.02491,0.6023984 -0.07167,0.6925334 -0.339405,0.6540264 -0.289142,-0.04159 -0.286287,-0.02537 0.04148,0.2355633 0.274678,0.218675 0.338262,0.398999 0.289477,0.820982 -0.04103,0.355062 -0.140832,0.534646 -0.290569,0.522961 -0.173212,-0.01352 -0.233416,0.191844 -0.250342,0.853952 -0.02776,1.085279 0.08468,1.26224 0.868757,1.367407 0.544359,0.07301 0.690133,0.02258 1.11878,-0.387057 0.387602,-0.370415 0.494694,-0.60331 0.501416,-1.090476 0.01091,-0.790889 -0.127242,-1.006565 -0.573089,-0.894664 -0.330908,0.08305 -0.36012,0.03465 -0.410036,-0.67936 -0.07055,-1.0090823 0.03336,-1.3691178 0.379878,-1.3161473 0.153101,0.023402 0.362051,-0.091442 0.464324,-0.2552134 0.248433,-0.3978006 0.419887,-0.3763005 0.411312,0.051578 -0.0039,0.1921394 0.05793,0.6490574 0.137283,1.0153717 0.147375,0.680307 0.337088,1.036421 0.341364,0.640779 0.0022,-0.186036 0.0234,-0.186798 0.138554,-0.0049 0.08331,0.131543 0.103924,-0.07113 0.05312,-0.522062 -0.08291,-0.7355723 -0.08241,-0.7365113 0.241654,-0.4590343 0.178602,0.152925 0.296452,0.3238063 0.261883,0.3797363 -0.09552,0.15455 0.442064,0.130637 0.644969,-0.02869 0.09793,-0.0769 0.142181,-0.2769783 0.09834,-0.4446293 -0.04383,-0.16765 -0.0096,-0.3048191 0.07604,-0.3048191 0.259824,0 0.324024,0.9761154 0.100085,1.5216954 -0.143525,0.349671 -0.298142,0.497647 -0.486696,0.465792 -0.218421,-0.0369 -0.26588,0.04282 -0.226419,0.380289 0.02748,0.234838 -0.01931,0.426976 -0.103958,0.426976 -0.118823,0 0.181961,1.081567 0.381591,1.372138 0.01982,0.02881 0.303538,0.112737 0.630539,0.186492 0.908341,0.204877 1.272116,-0.100063 1.214336,-1.01795 -0.0248,-0.39403 -0.08706,-0.758391 -0.138364,-0.80969 -0.1515,-0.151499 -0.106347,-1.904686 0.04903,-1.904686 0.07828,0 0.177566,0.08734 0.220637,0.19408 0.0431,0.106744 0.08383,0.03907 0.09057,-0.150391 0.0087,-0.2449283 -0.05502,-0.3186453 -0.220637,-0.2551003 -0.128093,0.04915 -0.232895,0.01203 -0.232895,-0.08251 0,-0.09453 0.06987,-0.171876 0.155261,-0.171876 0.0854,0 0.155267,-0.1356145 0.155267,-0.3013652 0,-0.3447556 0.2433,-0.5540807 0.382403,-0.329005 0.05133,0.083059 0.203963,0.1085638 0.339175,0.056678 0.196709,-0.075485 0.223464,-0.023844 0.13388,0.2584111 -0.141375,0.4454411 -0.219081,2.0528754 -0.108564,2.2458304 0.04567,0.07976 0.08846,0.522089 0.09506,0.982959 0.0087,0.608971 0.08625,0.892225 0.283712,1.036584 0.524141,0.383181 0.246681,1.583959 -0.316103,1.367998 -0.157204,-0.06033 -0.20089,-0.02949 -0.127181,0.08977 0.06738,0.109019 0.01551,0.181649 -0.129794,0.181649 -0.13313,0 -0.242057,0.100177 -0.242057,0.222615 0,0.199612 -0.258631,0.213919 -0.912746,0.05049 -0.237468,-0.05933 -0.795159,0.233163 -0.795159,0.417032 0,0.111884 -0.104802,0.290402 -0.232895,0.396709 -0.146183,0.121319 -0.239606,0.489712 -0.250907,0.98941 -0.0099,0.43787 -0.04858,0.681026 -0.08595,0.540349 -0.03739,-0.140679 -0.203935,-0.291343 -0.37015,-0.33481 -0.275954,-0.07216 -0.302211,0.0064 -0.302211,0.904561 0,0.687154 -0.07353,1.057123 -0.243989,1.227576 -0.134188,0.134194 -0.269131,0.243987 -0.299871,0.243987 -0.03073,0 -0.09023,-0.646286 -0.132207,-1.436193 z m 0.778894,-6.831617 c -0.0431,-0.106744 -0.07831,-0.01941 -0.07831,0.19408 0,0.213488 0.03526,0.300824 0.07831,0.19408 0.0431,-0.106744 0.0431,-0.281416 0,-0.38816 z m 17.069551,4.31283 c -0.50374,-0.207095 -0.98291,-0.443559 -1.06482,-0.525474 -0.0819,-0.08192 -0.47326,-0.801643 -0.869659,-1.599394 -0.6705,-1.349419 -0.75046,-1.447035 -1.147685,-1.401329 -0.399541,0.04597 -0.426402,0.09586 -0.418029,0.77632 0.005,0.399955 0.05842,1.006172 0.118902,1.347148 0.09458,0.533273 0.17474,0.631104 0.57329,0.699687 0.331142,0.05698 0.477492,0.179122 0.512952,0.428075 0.0493,0.346275 0.0371,0.348346 -2.057249,0.348346 h -2.106864 v -0.38816 c 0,-0.32403 0.07376,-0.388161 0.446385,-0.388161 0.375742,0 0.461743,-0.07679 0.543423,-0.4852 0.135991,-0.679926 0.11705,-5.7640807 -0.02228,-5.9830627 -0.06301,-0.099039 -0.323957,-0.2038421 -0.579862,-0.2328962 -0.344207,-0.03908 -0.478199,-0.1437362 -0.5149,-0.4021703 l -0.04965,-0.3493436 h 2.898536 c 3.27528,0 3.75285,0.1150431 4.17558,1.0058626 0.47631,1.0037549 0.13206,2.2121682 -0.78422,2.7527832 -0.46903,0.276735 -0.49383,0.33069 -0.32903,0.715734 0.32955,0.769988 1.46807,2.430289 2.03658,2.969935 1.1321,1.074642 0.42323,1.445004 -1.36143,0.7113 z m -2.351749,-4.493941 c 1.542099,-0.644334 1.267289,-2.6390167 -0.38108,-2.7658936 l -0.543419,-0.041828 -0.04522,1.3842453 c -0.03274,1.0026863 0.01002,1.4193083 0.155267,1.5114473 0.255826,0.162304 0.201405,0.168182 0.814462,-0.08797 z m 7.731469,4.606339 -2.98883,-0.04572 v -0.384806 c 0,-0.319657 0.075,-0.384808 0.44301,-0.384808 0.43982,0 0.44373,-0.0086 0.54342,-1.187906 0.12822,-1.516855 0.11442,-3.987441 -0.0267,-4.7897589 -0.0985,-0.5596338 -0.15902,-0.625868 -0.61211,-0.6697094 -0.43007,-0.041615 -0.50283,-0.1090083 -0.50284,-0.4657923 l -3e-5,-0.417139 2.1349,0.029593 c 2.1182,0.029363 2.13491,0.032397 2.13491,0.3881604 0,0.2889121 -0.0953,0.367819 -0.49078,0.4061897 l -0.49078,0.047621 -0.10686,1.4273862 c -0.16649,2.2238563 -0.0467,4.7447073 0.23447,4.9348363 0.24344,0.164605 2.01554,0.102063 2.31275,-0.08162 0.0943,-0.05829 0.17147,-0.381327 0.17147,-0.717868 0,-0.595797 0.0143,-0.611893 0.54342,-0.611893 h 0.54343 v 1.319744 1.319745 l -0.42698,-0.03526 c -0.23483,-0.01939 -1.77195,-0.05584 -3.41581,-0.08098 z m 6.21056,6.8e-5 -1.90198,-0.04864 v -0.383381 c 0,-0.319024 0.0751,-0.383382 0.44768,-0.383382 0.33302,0 0.47167,-0.08948 0.54131,-0.349343 0.13433,-0.501259 0.11537,-5.903849 -0.0215,-6.1189197 -0.063,-0.099039 -0.32395,-0.2038421 -0.57986,-0.2328962 -0.3442,-0.03908 -0.4782,-0.1437362 -0.5149,-0.4021703 -0.0491,-0.3459131 -0.0293,-0.3496649 2.01843,-0.382051 4.04447,-0.063965 4.84118,0.096836 5.83804,1.1783048 0.73952,0.8022861 1.05262,1.8932254 0.90467,3.1521004 -0.20141,1.713619 -0.92168,2.783153 -2.32451,3.451618 -1.07891,0.514114 -1.70552,0.587869 -4.4074,0.518765 z m 3.09726,-1.222104 c 0.91948,-0.469746 1.52403,-1.723367 1.51844,-3.148729 -0.007,-1.7408693 -0.88183,-2.7479294 -2.53591,-2.918646 l -0.83702,-0.086389 -0.11209,2.39156 c -0.12429,2.652024 -0.0219,3.785813 0.36231,4.013256 0.29012,0.171724 0.9916,0.06195 1.60427,-0.251052 z m 5.24819,1.121986 -0.69869,-0.18581 -0.0453,-1.196324 -0.0453,-1.196324 h 0.54996 c 0.52227,0 0.54995,0.02666 0.54995,0.529574 0,0.470676 0.0745,0.56565 0.67007,0.853952 1.34706,0.652097 2.74574,0.29804 2.74574,-0.695045 0,-0.893066 -0.42295,-1.149799 -2.28846,-1.389121 -1.06832,-0.137052 -1.76853,-0.619492 -2.0433,-1.407826 -0.6307,-1.8094739 1.14888,-3.6734368 3.48998,-3.6554686 1.28223,0.00984 2.43889,0.3003786 2.32961,0.5851633 -0.0452,0.1178238 -0.12902,0.6711736 -0.18624,1.2296655 l -0.10404,1.0154408 -0.48232,-0.04699 c -0.32304,-0.03147 -0.46634,-0.120601 -0.43392,-0.269877 0.15937,-0.7336454 -0.40342,-1.2705863 -1.559,-1.487373 -0.48196,-0.090416 -0.62852,-0.046345 -0.96503,0.2901597 -0.52974,0.52974 -0.54898,1.3908393 -0.0386,1.7252883 0.19702,0.129093 0.9446,0.337081 1.66127,0.462197 0.71667,0.125115 1.48124,0.359715 1.69903,0.521335 0.85482,0.634356 1.01599,1.716572 0.42299,2.84017 -0.28633,0.542513 -0.56259,0.788845 -1.33331,1.188901 -0.8466,0.439432 -1.1158,0.50264 -2.08426,0.489365 -0.61165,-0.0084 -1.4265,-0.09886 -1.81078,-0.201051 z m -89.315639,-0.10667 c -0.185139,-0.107831 -0.271712,-0.350835 -0.271712,-0.76264 0,-0.550701 -0.143093,-0.760319 -1.611061,-2.360061 -0.886086,-0.965624 -1.825597,-1.957328 -2.087805,-2.203788 l -0.476738,-0.448109 -0.10829,0.431465 c -0.152826,0.608884 0.06074,3.96662 0.26818,4.216575 0.09467,0.114076 0.408122,0.20741 0.696547,0.20741 0.455861,0 0.52441,0.05074 0.52441,0.388161 V 15.6418 H 27.406996 25.54383 v -0.38816 c 0,-0.325429 0.07328,-0.388161 0.453432,-0.388161 0.443547,0 0.455306,-0.02116 0.539282,-0.970399 0.04718,-0.533721 0.128484,-1.887247 0.180594,-3.007836 L 26.811894,8.8498092 26.347973,8.5194676 C 26.092818,8.3377799 25.737634,8.1891259 25.558674,8.1891259 c -0.251433,0 -0.325383,-0.097027 -0.325417,-0.4269761 l -3.3e-5,-0.4269761 1.581367,0.027135 1.581368,0.027135 0.885515,1.0597141 c 0.487032,0.5828427 1.390855,1.5487949 2.008493,2.1465622 l 1.122977,1.086848 -0.09526,-1.444313 c -0.117335,-1.7788861 -0.24353,-2.0491276 -0.956913,-2.0491276 -0.483315,0 -0.537978,-0.043373 -0.538134,-0.426976 L 30.82248,7.3351753 h 1.824528 c 1.217436,0 1.863356,0.060138 1.941219,0.1807367 0.194358,0.3010463 -0.04937,0.6732154 -0.440893,0.6732154 -0.257366,0 -0.390351,0.1054171 -0.440704,0.3493443 -0.199322,0.965588 -0.26303,2.0622533 -0.268191,4.6163813 l -0.0057,2.797476 -0.412225,-0.0047 c -0.226726,-0.0026 -0.534496,-0.07594 -0.683936,-0.162979 z m 27.398766,-0.125843 c -1.106521,-0.382216 -1.427757,-0.723695 -2.190346,-2.328378 -0.592578,-1.246944 -0.684916,-1.362891 -1.032492,-1.296447 -0.363926,0.06957 -0.381714,0.125792 -0.381714,1.20665 0,1.431361 0.07594,1.62487 0.637669,1.62487 0.375613,0 0.449178,0.06357 0.449178,0.388161 v 0.38816 h -2.009273 c -1.105094,0 -2.048551,-0.06356 -2.096564,-0.141253 -0.179845,-0.290995 0.110136,-0.635068 0.535234,-0.635068 h 0.433041 l 0.103997,-2.212512 c 0.0572,-1.216881 0.04702,-2.7015943 -0.02267,-3.2993609 C 54.03528,8.2710117 54.032811,8.2665675 53.530175,8.218105 53.112246,8.1778106 53.025568,8.104465 53.025568,7.7911289 V 7.4128061 h 2.880092 c 3.181036,0 3.596904,0.095691 4.02653,0.9265018 0.27535,0.5324637 0.306908,1.4344258 0.06708,1.9172741 -0.09265,0.186525 -0.422244,0.561489 -0.732448,0.833252 l -0.564005,0.494116 0.281793,0.592733 c 0.371583,0.781608 1.494779,2.339889 2.098887,2.911925 0.264878,0.250814 0.481597,0.547756 0.481597,0.659872 0,0.290954 -0.848047,0.249381 -1.829689,-0.0897 z m -2.121214,-4.772272 c 0.513316,-0.336339 0.77352,-1.1901933 0.53683,-1.7616131 -0.177516,-0.4285601 -0.567598,-0.6665855 -1.416244,-0.8641833 -0.359773,-0.08377 -0.41644,-0.038604 -0.504607,0.4022212 -0.166507,0.8325409 -0.112202,2.2459512 0.09422,2.4523782 0.219573,0.219573 0.748757,0.125698 1.289797,-0.228803 z M 4.8076034,15.292671 C 4.6457371,14.555719 3.1477848,10.455003 2.5998722,9.2489257 2.1965639,8.3611528 2.0657623,8.2054127 1.6870539,8.1620773 1.3432666,8.12274 1.2450073,8.0317296 1.2450073,7.7526418 c 0,-0.3554301 0.019646,-0.3591315 2.0572721,-0.3881599 l 2.0572722,-0.029307 -2.24e-5,0.4269761 c -2.24e-5,0.3554329 -0.067133,0.4269761 -0.4005208,0.4269761 -0.3709171,0 -0.3923657,0.037272 -0.2904066,0.504608 0.1285068,0.588994 1.280864,3.9700559 1.4656397,4.3002299 0.09025,0.161271 0.2590452,-0.06859 0.595892,-0.811504 C 7.6327088,10.191884 7.6281303,10.226453 7.1263444,9.1901369 6.7597596,8.433034 6.60236,8.2579119 6.2522702,8.2176298 5.9047663,8.1776432 5.8252913,8.0909528 5.8252745,7.751838 l -2.24e-5,-0.4166632 2.0572721,0.028288 2.0572662,0.028288 0.04914,0.3986866 c 0.0431,0.3496834 -0.0076,0.3986871 -0.412443,0.3986871 -0.560064,0 -0.573732,-0.09645 0.40412,2.8510835 0.5887326,1.774603 0.7460096,2.108707 0.8960706,1.903492 0.318141,-0.435088 1.642759,-3.6569944 1.733579,-4.2166326 0.08617,-0.5310034 0.08002,-0.5379429 -0.476447,-0.5379429 -0.511469,0 -0.563742,-0.039589 -0.56377,-0.426976 l -2.8e-5,-0.4269761 1.824383,0.028339 c 1.796027,0.027897 1.824383,0.03393 1.824383,0.3881599 0,0.2723801 -0.09853,0.3712551 -0.405452,0.4068731 -0.357993,0.041543 -0.559762,0.3596174 -1.723622,2.7171206 -0.724997,1.468537 -1.520705,3.178477 -1.768248,3.799867 L 10.871383,15.80533 10.208358,15.76238 9.5453334,15.71943 8.9135967,13.856262 C 8.5661472,12.831519 8.2277724,11.936266 8.1616524,11.866811 8.0584003,11.758343 7.4091275,13.103088 6.5451563,15.214822 c -0.2252212,0.55049 -0.276072,0.58224 -0.9324869,0.58224 -0.6569746,0 -0.7002244,-0.0271 -0.8050548,-0.504393 z m 13.1480216,0.168075 c -1.093799,-0.541413 -1.254322,-1.07403 -1.258436,-4.175479 -0.0039,-2.7574601 -0.07249,-3.0332372 -0.779733,-3.1239733 -0.287608,-0.036897 -0.388157,-0.1426845 -0.388157,-0.4083676 0,-0.3557614 0.01674,-0.3587996 2.1349,-0.3881598 l 2.1349,-0.029593 -1.6e-5,0.4269761 c -2.3e-5,0.3808236 -0.05625,0.4269761 -0.520201,0.4269761 H 18.758709 L 18.65783,9.6103547 c -0.232738,3.2787943 -0.07739,4.3083183 0.723783,4.7968283 1.211403,0.738645 2.855538,0.06858 3.231811,-1.317128 0.217167,-0.79978 0.202139,-3.6855867 -0.02272,-4.3669926 C 22.443649,8.2774832 22.34183,8.2002582 21.847203,8.1591382 21.364829,8.1190397 21.274092,8.0544264 21.274092,7.7510595 c 0,-0.3570461 0.01752,-0.3604346 1.863166,-0.3604346 1.845652,0 1.863166,0.00341 1.863166,0.3604346 0,0.2777814 -0.09791,0.3717001 -0.426974,0.4095631 -0.234837,0.027023 -0.427667,0.09689 -0.428512,0.1552643 -0.0159,1.099076 -0.352609,4.7764301 -0.481686,5.2607491 -0.221712,0.831886 -1.051926,1.666581 -1.968142,1.978767 -1.07272,0.365513 -2.903416,0.319173 -3.739463,-0.09466 z m 19.155374,0.194133 c -1.852195,-0.09018 -1.88851,-0.102908 -1.808828,-0.634135 0.01282,-0.0854 0.22554,-0.155265 0.472736,-0.155265 h 0.449446 l 0.09433,-2.367776 c 0.05189,-1.302277 0.04176,-2.7869893 -0.02244,-3.2993606 C 36.182201,8.2887935 36.167502,8.265607 35.674829,8.218105 35.262957,8.1783927 35.170222,8.1025984 35.170222,7.8056867 c 0,-0.3622279 0.0097,-0.3640297 2.290145,-0.4266162 2.810463,-0.077131 3.934767,0.067809 4.845133,0.6246109 1.954401,1.1953573 2.132818,4.5953666 0.33547,6.3927176 -1.171113,1.171111 -2.255531,1.417899 -5.529949,1.25848 z m 3.04797,-1.190683 c 0.554881,-0.283388 1.156309,-1.025916 1.38003,-1.70379 0.282352,-0.85554 0.139332,-2.751711 -0.247582,-3.2824743 -0.415029,-0.5693292 -1.537144,-1.1335415 -2.254406,-1.1335415 -0.742898,0 -0.756785,0.06154 -0.759415,3.3659028 -0.0017,2.256061 0.03677,2.706076 0.249989,2.919318 0.275366,0.275368 0.890434,0.213002 1.631384,-0.165415 z m 7.85933,1.216614 -3.066469,-0.04557 v -0.384878 c 0,-0.319801 0.07496,-0.384878 0.443345,-0.384878 0.434049,0 0.445411,-0.02196 0.542316,-1.048032 0.126581,-1.34025 0.102922,-4.6558821 -0.03683,-5.1625291 C 45.819255,8.3598027 45.674091,8.2550976 45.29508,8.2181067 44.869708,8.176592 44.796563,8.1082577 44.796513,7.7523144 l -6.7e-5,-0.4171407 h 3.49342 3.493425 l 7.8e-5,1.2032964 7.9e-5,1.2032966 h -0.46579 c -0.409633,0 -0.46579,-0.05387 -0.46579,-0.4467809 0,-0.6334707 -0.263434,-0.7821862 -1.583142,-0.8937423 l -1.163043,-0.098314 -0.099,0.9472098 c -0.136773,1.3086177 -0.06887,1.4232117 0.843368,1.4232117 0.740609,0 0.759706,-0.01171 0.759706,-0.465792 0,-0.4140383 0.05177,-0.4657923 0.46579,-0.4657923 h 0.465796 v 1.6302723 1.630272 h -0.465796 c -0.423447,0 -0.46579,-0.04658 -0.46579,-0.512371 0,-0.681669 -0.239007,-0.885005 -1.040267,-0.885005 h -0.667637 v 1.25232 c 0,1.655684 0.115476,1.852961 1.08467,1.852961 0.41977,0 1.115997,-0.07566 1.547174,-0.16813 0.756029,-0.162139 0.783965,-0.187037 0.783965,-0.698688 0,-0.486 0.03912,-0.530559 0.46579,-0.530559 h 0.465796 v 1.242112 1.242113 l -0.582241,-0.03534 c -0.320234,-0.01944 -1.962153,-0.05585 -3.648704,-0.08091 z M 63.76155,13.798607 C 62.888321,11.200273 61.925055,8.811635 61.610127,8.4636386 61.473488,8.3126567 61.193212,8.1891259 60.987285,8.1891259 c -0.31143,0 -0.366143,-0.067205 -0.325278,-0.3995222 l 0.04914,-0.3995223 h 2.018433 2.018433 l 0.04914,0.3995223 c 0.04159,0.3381671 -0.01209,0.3995222 -0.349346,0.3995222 -0.219159,0 -0.398472,0.079804 -0.398472,0.1773409 0,0.6750793 1.526453,4.8892582 1.698417,4.6889262 0.06172,-0.07189 0.381496,-0.746267 0.710624,-1.49861 L 67.0568,10.188886 66.563741,9.1890057 C 66.152955,8.3559793 66.005658,8.1891259 65.681069,8.1891259 c -0.321516,0 -0.389617,-0.074627 -0.389634,-0.4269761 l -2.3e-5,-0.4269761 2.057267,0.028288 2.057272,0.028288 0.04914,0.3986871 c 0.04343,0.3525459 -0.0063,0.3986872 -0.429934,0.3986872 -0.442361,0 -0.471718,0.03271 -0.383136,0.4269761 0.130247,0.5797099 1.306314,4.0958249 1.467095,4.3862089 0.135682,0.245049 0.481479,-0.436969 1.545853,-3.0488883 0.577975,-1.4183287 0.548943,-1.7642967 -0.148075,-1.7642967 -0.409941,0 -0.470659,-0.055082 -0.470659,-0.4269761 V 7.3351726 h 1.785536 1.785538 v 0.4269761 c 0,0.3510463 -0.06849,0.4269761 -0.385162,0.4269761 -0.345399,0 -0.528093,0.2925363 -1.769597,2.8335692 -0.761441,1.558462 -1.548814,3.27197 -1.749721,3.807793 l -0.365281,0.974226 -0.685375,-0.04264 -0.685375,-0.04264 -0.438397,-1.319744 c -0.241117,-0.725859 -0.553443,-1.626151 -0.694056,-2.000648 -0.304433,-0.810794 -0.254736,-0.871043 -1.330092,1.612488 l -0.739511,1.707904 -0.663613,0.0452 -0.663613,0.0452 z"
       id="path60" />
  </g>
</svg>
